<?xml version="1.0" encoding="UTF-8" standalone="no"?><svg xmlns="http://www.w3.org/2000/svg" xmlns:xlink="http://www.w3.org/1999/xlink" clip-rule="evenodd" stroke-miterlimit="10" viewBox="0 0 1024 768"><desc>SVG generated by Keynote</desc><defs></defs><g transform="matrix(1.00, 0.00, -0.00, -1.00, 0.0, 768.0)"><path d="M 0.0 768.0 L 1024.0 768.0 L 1024.0 0.0 L 0.0 0.0 Z M 0.0 768.0 " fill="#000000"></path><text xml:space="preserve" font-family="Helvetica-LightOblique,Helvetica" font-style="italic" font-size="24.0" fill="#FEFFFE" transform="matrix(1.00, 0.00, -0.00, -1.00, 264.4, 109.5)">–</text><text xml:space="preserve" font-family="Helvetica-LightOblique,Helvetica" font-style="italic" font-size="24.0" fill="#FEFFFE" transform="matrix(1.00, 0.00, -0.00, -1.00, 276.4, 109.5)">S</text><text xml:space="preserve" font-family="Helvetica-LightOblique,Helvetica" font-style="italic" font-size="24.0" fill="#FEFFFE" transform="matrix(1.00, 0.00, -0.00, -1.00, 291.1, 109.5)">t</text><text xml:space="preserve" font-family="Helvetica-LightOblique,Helvetica" font-style="italic" font-size="24.0" fill="#FEFFFE" transform="matrix(1.00, 0.00, -0.00, -1.00, 297.7, 109.5)">e</text><text xml:space="preserve" font-family="Helvetica-LightOblique,Helvetica" font-style="italic" font-size="24.0" fill="#FEFFFE" transform="matrix(1.00, 0.00, -0.00, -1.00, 311.1, 109.5)">v</text><text xml:space="preserve" font-family="Helvetica-LightOblique,Helvetica" font-style="italic" font-size="24.0" fill="#FEFFFE" transform="matrix(1.00, 0.00, -0.00, -1.00, 323.1, 109.5)">e</text><text xml:space="preserve" font-family="Helvetica-LightOblique,Helvetica" font-style="italic" font-size="24.0" fill="#FEFFFE" transform="matrix(1.00, 0.00, -0.00, -1.00, 336.4, 109.5)"> </text><text xml:space="preserve" font-family="Helvetica-LightOblique,Helvetica" font-style="italic" font-size="24.0" fill="#FEFFFE" transform="matrix(1.00, 0.00, -0.00, -1.00, 343.1, 109.5)">K</text><text xml:space="preserve" font-family="Helvetica-LightOblique,Helvetica" font-style="italic" font-size="24.0" fill="#FEFFFE" transform="matrix(1.00, 0.00, -0.00, -1.00, 359.1, 109.5)">l</text><text xml:space="preserve" font-family="Helvetica-LightOblique,Helvetica" font-style="italic" font-size="24.0" fill="#FEFFFE" transform="matrix(1.00, 0.00, -0.00, -1.00, 364.4, 109.5)">a</text><text xml:space="preserve" font-family="Helvetica-LightOblique,Helvetica" font-style="italic" font-size="24.0" fill="#FEFFFE" transform="matrix(1.00, 0.00, -0.00, -1.00, 377.8, 109.5)">b</text><text xml:space="preserve" font-family="Helvetica-LightOblique,Helvetica" font-style="italic" font-size="24.0" fill="#FEFFFE" transform="matrix(1.00, 0.00, -0.00, -1.00, 392.4, 109.5)">n</text><text xml:space="preserve" font-family="Helvetica-LightOblique,Helvetica" font-style="italic" font-size="24.0" fill="#FEFFFE" transform="matrix(1.00, 0.00, -0.00, -1.00, 405.8, 109.5)">i</text><text xml:space="preserve" font-family="Helvetica-LightOblique,Helvetica" font-style="italic" font-size="24.0" fill="#FEFFFE" transform="matrix(1.00, 0.00, -0.00, -1.00, 411.1, 109.5)">k</text><text xml:space="preserve" font-family="Helvetica-LightOblique,Helvetica" font-style="italic" font-size="24.0" fill="#FEFFFE" transform="matrix(1.00, 0.00, -0.00, -1.00, 423.1, 109.5)">,</text><text xml:space="preserve" font-family="Helvetica-LightOblique,Helvetica" font-style="italic" font-size="24.0" fill="#FEFFFE" transform="matrix(1.00, 0.00, -0.00, -1.00, 429.8, 109.5)"> </text><text xml:space="preserve" font-family="Helvetica-LightOblique,Helvetica" font-style="italic" font-size="24.0" fill="#FEFFFE" transform="matrix(1.00, 0.00, -0.00, -1.00, 436.5, 109.5)">“</text><text xml:space="preserve" font-family="Helvetica-LightOblique,Helvetica" font-style="italic" font-size="24.0" fill="#FEFFFE" transform="matrix(1.00, 0.00, -0.00, -1.00, 445.8, 109.5)">D</text><text xml:space="preserve" font-family="Helvetica-LightOblique,Helvetica" font-style="italic" font-size="24.0" fill="#FEFFFE" transform="matrix(1.00, 0.00, -0.00, -1.00, 463.1, 109.5)">e</text><text xml:space="preserve" font-family="Helvetica-LightOblique,Helvetica" font-style="italic" font-size="24.0" fill="#FEFFFE" transform="matrix(1.00, 0.00, -0.00, -1.00, 476.5, 109.5)">s</text><text xml:space="preserve" font-family="Helvetica-LightOblique,Helvetica" font-style="italic" font-size="24.0" fill="#FEFFFE" transform="matrix(1.00, 0.00, -0.00, -1.00, 488.5, 109.5)">i</text><text xml:space="preserve" font-family="Helvetica-LightOblique,Helvetica" font-style="italic" font-size="24.0" fill="#FEFFFE" transform="matrix(1.00, 0.00, -0.00, -1.00, 493.8, 109.5)">g</text><text xml:space="preserve" font-family="Helvetica-LightOblique,Helvetica" font-style="italic" font-size="24.0" fill="#FEFFFE" transform="matrix(1.00, 0.00, -0.00, -1.00, 508.5, 109.5)">n</text><text xml:space="preserve" font-family="Helvetica-LightOblique,Helvetica" font-style="italic" font-size="24.0" fill="#FEFFFE" transform="matrix(1.00, 0.00, -0.00, -1.00, 521.8, 109.5)">i</text><text xml:space="preserve" font-family="Helvetica-LightOblique,Helvetica" font-style="italic" font-size="24.0" fill="#FEFFFE" transform="matrix(1.00, 0.00, -0.00, -1.00, 527.1, 109.5)">n</text><text xml:space="preserve" font-family="Helvetica-LightOblique,Helvetica" font-style="italic" font-size="24.0" fill="#FEFFFE" transform="matrix(1.00, 0.00, -0.00, -1.00, 540.5, 109.5)">g</text><text xml:space="preserve" font-family="Helvetica-LightOblique,Helvetica" font-style="italic" font-size="24.0" fill="#FEFFFE" transform="matrix(1.00, 0.00, -0.00, -1.00, 555.1, 109.5)"> </text><text xml:space="preserve" font-family="Helvetica-LightOblique,Helvetica" font-style="italic" font-size="24.0" fill="#FEFFFE" transform="matrix(1.00, 0.00, -0.00, -1.00, 561.8, 109.5)">H</text><text xml:space="preserve" font-family="Helvetica-LightOblique,Helvetica" font-style="italic" font-size="24.0" fill="#FEFFFE" transform="matrix(1.00, 0.00, -0.00, -1.00, 579.1, 109.5)">y</text><text xml:space="preserve" font-family="Helvetica-LightOblique,Helvetica" font-style="italic" font-size="24.0" fill="#FEFFFE" transform="matrix(1.00, 0.00, -0.00, -1.00, 591.1, 109.5)">p</text><text xml:space="preserve" font-family="Helvetica-LightOblique,Helvetica" font-style="italic" font-size="24.0" fill="#FEFFFE" transform="matrix(1.00, 0.00, -0.00, -1.00, 605.8, 109.5)">e</text><text xml:space="preserve" font-family="Helvetica-LightOblique,Helvetica" font-style="italic" font-size="24.0" fill="#FEFFFE" transform="matrix(1.00, 0.00, -0.00, -1.00, 619.1, 109.5)">r</text><text xml:space="preserve" font-family="Helvetica-LightOblique,Helvetica" font-style="italic" font-size="24.0" fill="#FEFFFE" transform="matrix(1.00, 0.00, -0.00, -1.00, 627.6, 109.5)">m</text><text xml:space="preserve" font-family="Helvetica-LightOblique,Helvetica" font-style="italic" font-size="24.0" fill="#FEFFFE" transform="matrix(1.00, 0.00, -0.00, -1.00, 647.6, 109.5)">e</text><text xml:space="preserve" font-family="Helvetica-LightOblique,Helvetica" font-style="italic" font-size="24.0" fill="#FEFFFE" transform="matrix(1.00, 0.00, -0.00, -1.00, 660.9, 109.5)">d</text><text xml:space="preserve" font-family="Helvetica-LightOblique,Helvetica" font-style="italic" font-size="24.0" fill="#FEFFFE" transform="matrix(1.00, 0.00, -0.00, -1.00, 675.6, 109.5)">i</text><text xml:space="preserve" font-family="Helvetica-LightOblique,Helvetica" font-style="italic" font-size="24.0" fill="#FEFFFE" transform="matrix(1.00, 0.00, -0.00, -1.00, 680.9, 109.5)">a</text><text xml:space="preserve" font-family="Helvetica-LightOblique,Helvetica" font-style="italic" font-size="24.0" fill="#FEFFFE" transform="matrix(1.00, 0.00, -0.00, -1.00, 694.2, 109.5)"> </text><text xml:space="preserve" font-family="Helvetica-LightOblique,Helvetica" font-style="italic" font-size="24.0" fill="#FEFFFE" transform="matrix(1.00, 0.00, -0.00, -1.00, 700.9, 109.5)">A</text><text xml:space="preserve" font-family="Helvetica-LightOblique,Helvetica" font-style="italic" font-size="24.0" fill="#FEFFFE" transform="matrix(1.00, 0.00, -0.00, -1.00, 716.9, 109.5)">P</text><text xml:space="preserve" font-family="Helvetica-LightOblique,Helvetica" font-style="italic" font-size="24.0" fill="#FEFFFE" transform="matrix(1.00, 0.00, -0.00, -1.00, 731.6, 109.5)">I</text><text xml:space="preserve" font-family="Helvetica-LightOblique,Helvetica" font-style="italic" font-size="24.0" fill="#FEFFFE" transform="matrix(1.00, 0.00, -0.00, -1.00, 738.3, 109.5)">s</text><text xml:space="preserve" font-family="Helvetica-LightOblique,Helvetica" font-style="italic" font-size="24.0" fill="#FEFFFE" transform="matrix(1.00, 0.00, -0.00, -1.00, 750.3, 109.5)">”</text><text xml:space="preserve" font-family="Helvetica-LightOblique,Helvetica" font-style="italic" font-size="39.0" fill="#FF456F" transform="matrix(1.00, 0.00, -0.00, -1.00, 154.1, 511.0)">“</text><text xml:space="preserve" font-family="Helvetica-LightOblique,Helvetica" font-style="italic" font-size="39.0" fill="#FF456F" transform="matrix(1.00, 0.00, -0.00, -1.00, 169.2, 511.0)">H</text><text xml:space="preserve" font-family="Helvetica-LightOblique,Helvetica" font-style="italic" font-size="39.0" fill="#FF456F" transform="matrix(1.00, 0.00, -0.00, -1.00, 197.4, 511.0)">y</text><text xml:space="preserve" font-family="Helvetica-LightOblique,Helvetica" font-style="italic" font-size="39.0" fill="#FF456F" transform="matrix(1.00, 0.00, -0.00, -1.00, 216.9, 511.0)">p</text><text xml:space="preserve" font-family="Helvetica-LightOblique,Helvetica" font-style="italic" font-size="39.0" fill="#FF456F" transform="matrix(1.00, 0.00, -0.00, -1.00, 240.7, 511.0)">e</text><text xml:space="preserve" font-family="Helvetica-LightOblique,Helvetica" font-style="italic" font-size="39.0" fill="#FF456F" transform="matrix(1.00, 0.00, -0.00, -1.00, 262.4, 511.0)">r</text><text xml:space="preserve" font-family="Helvetica-LightOblique,Helvetica" font-style="italic" font-size="39.0" fill="#FF456F" transform="matrix(1.00, 0.00, -0.00, -1.00, 276.1, 511.0)">m</text><text xml:space="preserve" font-family="Helvetica-LightOblique,Helvetica" font-style="italic" font-size="39.0" fill="#FF456F" transform="matrix(1.00, 0.00, -0.00, -1.00, 308.6, 511.0)">e</text><text xml:space="preserve" font-family="Helvetica-LightOblique,Helvetica" font-style="italic" font-size="39.0" fill="#FF456F" transform="matrix(1.00, 0.00, -0.00, -1.00, 330.3, 511.0)">d</text><text xml:space="preserve" font-family="Helvetica-LightOblique,Helvetica" font-style="italic" font-size="39.0" fill="#FF456F" transform="matrix(1.00, 0.00, -0.00, -1.00, 354.1, 511.0)">i</text><text xml:space="preserve" font-family="Helvetica-LightOblique,Helvetica" font-style="italic" font-size="39.0" fill="#FF456F" transform="matrix(1.00, 0.00, -0.00, -1.00, 362.8, 511.0)">a</text><text xml:space="preserve" font-family="Helvetica-LightOblique,Helvetica" font-style="italic" font-size="39.0" fill="#FF456F" transform="matrix(1.00, 0.00, -0.00, -1.00, 384.5, 511.0)"> </text><text xml:space="preserve" font-family="Helvetica-LightOblique,Helvetica" font-style="italic" font-size="39.0" fill="#FF456F" transform="matrix(1.00, 0.00, -0.00, -1.00, 395.3, 511.0)">p</text><text xml:space="preserve" font-family="Helvetica-LightOblique,Helvetica" font-style="italic" font-size="39.0" fill="#FF456F" transform="matrix(1.00, 0.00, -0.00, -1.00, 419.1, 511.0)">r</text><text xml:space="preserve" font-family="Helvetica-LightOblique,Helvetica" font-style="italic" font-size="39.0" fill="#FF456F" transform="matrix(1.00, 0.00, -0.00, -1.00, 431.4, 511.0)">o</text><text xml:space="preserve" font-family="Helvetica-LightOblique,Helvetica" font-style="italic" font-size="39.0" fill="#FF456F" transform="matrix(1.00, 0.00, -0.00, -1.00, 453.1, 511.0)">m</text><text xml:space="preserve" font-family="Helvetica-LightOblique,Helvetica" font-style="italic" font-size="39.0" fill="#FF456F" transform="matrix(1.00, 0.00, -0.00, -1.00, 485.6, 511.0)">o</text><text xml:space="preserve" font-family="Helvetica-LightOblique,Helvetica" font-style="italic" font-size="39.0" fill="#FF456F" transform="matrix(1.00, 0.00, -0.00, -1.00, 507.3, 511.0)">t</text><text xml:space="preserve" font-family="Helvetica-LightOblique,Helvetica" font-style="italic" font-size="39.0" fill="#FF456F" transform="matrix(1.00, 0.00, -0.00, -1.00, 518.1, 511.0)">e</text><text xml:space="preserve" font-family="Helvetica-LightOblique,Helvetica" font-style="italic" font-size="39.0" fill="#FF456F" transform="matrix(1.00, 0.00, -0.00, -1.00, 539.8, 511.0)">s</text><text xml:space="preserve" font-family="Helvetica-LightOblique,Helvetica" font-style="italic" font-size="39.0" fill="#FF456F" transform="matrix(1.00, 0.00, -0.00, -1.00, 559.3, 511.0)"> </text><text xml:space="preserve" font-family="Helvetica-LightOblique,Helvetica" font-style="italic" font-size="39.0" fill="#FF456F" transform="matrix(1.00, 0.00, -0.00, -1.00, 570.1, 511.0)">s</text><text xml:space="preserve" font-family="Helvetica-LightOblique,Helvetica" font-style="italic" font-size="39.0" fill="#FF456F" transform="matrix(1.00, 0.00, -0.00, -1.00, 589.6, 511.0)">c</text><text xml:space="preserve" font-family="Helvetica-LightOblique,Helvetica" font-style="italic" font-size="39.0" fill="#FF456F" transform="matrix(1.00, 0.00, -0.00, -1.00, 611.3, 511.0)">a</text><text xml:space="preserve" font-family="Helvetica-LightOblique,Helvetica" font-style="italic" font-size="39.0" fill="#FF456F" transform="matrix(1.00, 0.00, -0.00, -1.00, 633.0, 511.0)">l</text><text xml:space="preserve" font-family="Helvetica-LightOblique,Helvetica" font-style="italic" font-size="39.0" fill="#FF456F" transform="matrix(1.00, 0.00, -0.00, -1.00, 641.7, 511.0)">a</text><text xml:space="preserve" font-family="Helvetica-LightOblique,Helvetica" font-style="italic" font-size="39.0" fill="#FF456F" transform="matrix(1.00, 0.00, -0.00, -1.00, 663.3, 511.0)">b</text><text xml:space="preserve" font-family="Helvetica-LightOblique,Helvetica" font-style="italic" font-size="39.0" fill="#FF456F" transform="matrix(1.00, 0.00, -0.00, -1.00, 687.2, 511.0)">i</text><text xml:space="preserve" font-family="Helvetica-LightOblique,Helvetica" font-style="italic" font-size="39.0" fill="#FF456F" transform="matrix(1.00, 0.00, -0.00, -1.00, 695.8, 511.0)">l</text><text xml:space="preserve" font-family="Helvetica-LightOblique,Helvetica" font-style="italic" font-size="39.0" fill="#FF456F" transform="matrix(1.00, 0.00, -0.00, -1.00, 704.5, 511.0)">i</text><text xml:space="preserve" font-family="Helvetica-LightOblique,Helvetica" font-style="italic" font-size="39.0" fill="#FF456F" transform="matrix(1.00, 0.00, -0.00, -1.00, 713.1, 511.0)">t</text><text xml:space="preserve" font-family="Helvetica-LightOblique,Helvetica" font-style="italic" font-size="39.0" fill="#FF456F" transform="matrix(1.00, 0.00, -0.00, -1.00, 724.0, 511.0)">y</text><text xml:space="preserve" font-family="Helvetica-LightOblique,Helvetica" font-style="italic" font-size="39.0" fill="#FF456F" transform="matrix(1.00, 0.00, -0.00, -1.00, 739.9, 511.0)">,</text><text xml:space="preserve" font-family="Helvetica-LightOblique,Helvetica" font-style="italic" font-size="39.0" fill="#FF456F" transform="matrix(1.00, 0.00, -0.00, -1.00, 750.7, 511.0)"> </text><text xml:space="preserve" font-family="Helvetica-LightOblique,Helvetica" font-style="italic" font-size="39.0" fill="#FF456F" transform="matrix(1.00, 0.00, -0.00, -1.00, 761.6, 511.0)">a</text><text xml:space="preserve" font-family="Helvetica-LightOblique,Helvetica" font-style="italic" font-size="39.0" fill="#FF456F" transform="matrix(1.00, 0.00, -0.00, -1.00, 783.3, 511.0)">l</text><text xml:space="preserve" font-family="Helvetica-LightOblique,Helvetica" font-style="italic" font-size="39.0" fill="#FF456F" transform="matrix(1.00, 0.00, -0.00, -1.00, 791.9, 511.0)">l</text><text xml:space="preserve" font-family="Helvetica-LightOblique,Helvetica" font-style="italic" font-size="39.0" fill="#FF456F" transform="matrix(1.00, 0.00, -0.00, -1.00, 800.6, 511.0)">o</text><text xml:space="preserve" font-family="Helvetica-LightOblique,Helvetica" font-style="italic" font-size="39.0" fill="#FF456F" transform="matrix(1.00, 0.00, -0.00, -1.00, 822.3, 511.0)">w</text><text xml:space="preserve" font-family="Helvetica-LightOblique,Helvetica" font-style="italic" font-size="39.0" fill="#FF456F" transform="matrix(1.00, 0.00, -0.00, -1.00, 850.4, 511.0)">s</text><text xml:space="preserve" font-family="Helvetica-LightOblique,Helvetica" font-style="italic" font-size="39.0" fill="#FF456F" transform="matrix(1.00, 0.00, -0.00, -1.00, 869.9, 511.0)"> </text><text xml:space="preserve" font-family="Helvetica-LightOblique,Helvetica" font-style="italic" font-size="39.0" fill="#FF456F" transform="matrix(1.00, 0.00, -0.00, -1.00, 173.8, 464.0)">r</text><text xml:space="preserve" font-family="Helvetica-LightOblique,Helvetica" font-style="italic" font-size="39.0" fill="#FF456F" transform="matrix(1.00, 0.00, -0.00, -1.00, 186.1, 464.0)">e</text><text xml:space="preserve" font-family="Helvetica-LightOblique,Helvetica" font-style="italic" font-size="39.0" fill="#FF456F" transform="matrix(1.00, 0.00, -0.00, -1.00, 207.8, 464.0)">s</text><text xml:space="preserve" font-family="Helvetica-LightOblique,Helvetica" font-style="italic" font-size="39.0" fill="#FF456F" transform="matrix(1.00, 0.00, -0.00, -1.00, 227.3, 464.0)">i</text><text xml:space="preserve" font-family="Helvetica-LightOblique,Helvetica" font-style="italic" font-size="39.0" fill="#FF456F" transform="matrix(1.00, 0.00, -0.00, -1.00, 236.0, 464.0)">l</text><text xml:space="preserve" font-family="Helvetica-LightOblique,Helvetica" font-style="italic" font-size="39.0" fill="#FF456F" transform="matrix(1.00, 0.00, -0.00, -1.00, 244.6, 464.0)">i</text><text xml:space="preserve" font-family="Helvetica-LightOblique,Helvetica" font-style="italic" font-size="39.0" fill="#FF456F" transform="matrix(1.00, 0.00, -0.00, -1.00, 253.3, 464.0)">e</text><text xml:space="preserve" font-family="Helvetica-LightOblique,Helvetica" font-style="italic" font-size="39.0" fill="#FF456F" transform="matrix(1.00, 0.00, -0.00, -1.00, 275.0, 464.0)">n</text><text xml:space="preserve" font-family="Helvetica-LightOblique,Helvetica" font-style="italic" font-size="39.0" fill="#FF456F" transform="matrix(1.00, 0.00, -0.00, -1.00, 296.6, 464.0)">c</text><text xml:space="preserve" font-family="Helvetica-LightOblique,Helvetica" font-style="italic" font-size="39.0" fill="#FF456F" transform="matrix(1.00, 0.00, -0.00, -1.00, 318.3, 464.0)">e</text><text xml:space="preserve" font-family="Helvetica-LightOblique,Helvetica" font-style="italic" font-size="39.0" fill="#FF456F" transform="matrix(1.00, 0.00, -0.00, -1.00, 340.0, 464.0)"> </text><text xml:space="preserve" font-family="Helvetica-LightOblique,Helvetica" font-style="italic" font-size="39.0" fill="#FF456F" transform="matrix(1.00, 0.00, -0.00, -1.00, 350.9, 464.0)">t</text><text xml:space="preserve" font-family="Helvetica-LightOblique,Helvetica" font-style="italic" font-size="39.0" fill="#FF456F" transform="matrix(1.00, 0.00, -0.00, -1.00, 361.7, 464.0)">o</text><text xml:space="preserve" font-family="Helvetica-LightOblique,Helvetica" font-style="italic" font-size="39.0" fill="#FF456F" transform="matrix(1.00, 0.00, -0.00, -1.00, 383.4, 464.0)">w</text><text xml:space="preserve" font-family="Helvetica-LightOblique,Helvetica" font-style="italic" font-size="39.0" fill="#FF456F" transform="matrix(1.00, 0.00, -0.00, -1.00, 411.5, 464.0)">a</text><text xml:space="preserve" font-family="Helvetica-LightOblique,Helvetica" font-style="italic" font-size="39.0" fill="#FF456F" transform="matrix(1.00, 0.00, -0.00, -1.00, 433.2, 464.0)">r</text><text xml:space="preserve" font-family="Helvetica-LightOblique,Helvetica" font-style="italic" font-size="39.0" fill="#FF456F" transform="matrix(1.00, 0.00, -0.00, -1.00, 445.5, 464.0)">d</text><text xml:space="preserve" font-family="Helvetica-LightOblique,Helvetica" font-style="italic" font-size="39.0" fill="#FF456F" transform="matrix(1.00, 0.00, -0.00, -1.00, 469.3, 464.0)">s</text><text xml:space="preserve" font-family="Helvetica-LightOblique,Helvetica" font-style="italic" font-size="39.0" fill="#FF456F" transform="matrix(1.00, 0.00, -0.00, -1.00, 488.8, 464.0)"> </text><text xml:space="preserve" font-family="Helvetica-LightOblique,Helvetica" font-style="italic" font-size="39.0" fill="#FF456F" transform="matrix(1.00, 0.00, -0.00, -1.00, 499.7, 464.0)">f</text><text xml:space="preserve" font-family="Helvetica-LightOblique,Helvetica" font-style="italic" font-size="39.0" fill="#FF456F" transform="matrix(1.00, 0.00, -0.00, -1.00, 510.5, 464.0)">u</text><text xml:space="preserve" font-family="Helvetica-LightOblique,Helvetica" font-style="italic" font-size="39.0" fill="#FF456F" transform="matrix(1.00, 0.00, -0.00, -1.00, 532.2, 464.0)">t</text><text xml:space="preserve" font-family="Helvetica-LightOblique,Helvetica" font-style="italic" font-size="39.0" fill="#FF456F" transform="matrix(1.00, 0.00, -0.00, -1.00, 543.0, 464.0)">u</text><text xml:space="preserve" font-family="Helvetica-LightOblique,Helvetica" font-style="italic" font-size="39.0" fill="#FF456F" transform="matrix(1.00, 0.00, -0.00, -1.00, 564.7, 464.0)">r</text><text xml:space="preserve" font-family="Helvetica-LightOblique,Helvetica" font-style="italic" font-size="39.0" fill="#FF456F" transform="matrix(1.00, 0.00, -0.00, -1.00, 577.0, 464.0)">e</text><text xml:space="preserve" font-family="Helvetica-LightOblique,Helvetica" font-style="italic" font-size="39.0" fill="#FF456F" transform="matrix(1.00, 0.00, -0.00, -1.00, 598.7, 464.0)"> </text><text xml:space="preserve" font-family="Helvetica-LightOblique,Helvetica" font-style="italic" font-size="39.0" fill="#FF456F" transform="matrix(1.00, 0.00, -0.00, -1.00, 609.5, 464.0)">c</text><text xml:space="preserve" font-family="Helvetica-LightOblique,Helvetica" font-style="italic" font-size="39.0" fill="#FF456F" transform="matrix(1.00, 0.00, -0.00, -1.00, 631.2, 464.0)">h</text><text xml:space="preserve" font-family="Helvetica-LightOblique,Helvetica" font-style="italic" font-size="39.0" fill="#FF456F" transform="matrix(1.00, 0.00, -0.00, -1.00, 652.9, 464.0)">a</text><text xml:space="preserve" font-family="Helvetica-LightOblique,Helvetica" font-style="italic" font-size="39.0" fill="#FF456F" transform="matrix(1.00, 0.00, -0.00, -1.00, 674.6, 464.0)">n</text><text xml:space="preserve" font-family="Helvetica-LightOblique,Helvetica" font-style="italic" font-size="39.0" fill="#FF456F" transform="matrix(1.00, 0.00, -0.00, -1.00, 696.3, 464.0)">g</text><text xml:space="preserve" font-family="Helvetica-LightOblique,Helvetica" font-style="italic" font-size="39.0" fill="#FF456F" transform="matrix(1.00, 0.00, -0.00, -1.00, 720.1, 464.0)">e</text><text xml:space="preserve" font-family="Helvetica-LightOblique,Helvetica" font-style="italic" font-size="39.0" fill="#FF456F" transform="matrix(1.00, 0.00, -0.00, -1.00, 741.8, 464.0)">s</text><text xml:space="preserve" font-family="Helvetica-LightOblique,Helvetica" font-style="italic" font-size="39.0" fill="#FF456F" transform="matrix(1.00, 0.00, -0.00, -1.00, 761.3, 464.0)">,</text><text xml:space="preserve" font-family="Helvetica-LightOblique,Helvetica" font-style="italic" font-size="39.0" fill="#FF456F" transform="matrix(1.00, 0.00, -0.00, -1.00, 772.1, 464.0)"> </text><text xml:space="preserve" font-family="Helvetica-LightOblique,Helvetica" font-style="italic" font-size="39.0" fill="#FF456F" transform="matrix(1.00, 0.00, -0.00, -1.00, 783.0, 464.0)">a</text><text xml:space="preserve" font-family="Helvetica-LightOblique,Helvetica" font-style="italic" font-size="39.0" fill="#FF456F" transform="matrix(1.00, 0.00, -0.00, -1.00, 804.7, 464.0)">n</text><text xml:space="preserve" font-family="Helvetica-LightOblique,Helvetica" font-style="italic" font-size="39.0" fill="#FF456F" transform="matrix(1.00, 0.00, -0.00, -1.00, 826.3, 464.0)">d</text><text xml:space="preserve" font-family="Helvetica-LightOblique,Helvetica" font-style="italic" font-size="39.0" fill="#FF456F" transform="matrix(1.00, 0.00, -0.00, -1.00, 850.2, 464.0)"> </text><text xml:space="preserve" font-family="Helvetica-LightOblique,Helvetica" font-style="italic" font-size="39.0" fill="#FF456F" transform="matrix(1.00, 0.00, -0.00, -1.00, 113.5, 417.0)">p</text><text xml:space="preserve" font-family="Helvetica-LightOblique,Helvetica" font-style="italic" font-size="39.0" fill="#FF456F" transform="matrix(1.00, 0.00, -0.00, -1.00, 137.4, 417.0)">r</text><text xml:space="preserve" font-family="Helvetica-LightOblique,Helvetica" font-style="italic" font-size="39.0" fill="#FF456F" transform="matrix(1.00, 0.00, -0.00, -1.00, 149.7, 417.0)">o</text><text xml:space="preserve" font-family="Helvetica-LightOblique,Helvetica" font-style="italic" font-size="39.0" fill="#FF456F" transform="matrix(1.00, 0.00, -0.00, -1.00, 171.3, 417.0)">m</text><text xml:space="preserve" font-family="Helvetica-LightOblique,Helvetica" font-style="italic" font-size="39.0" fill="#FF456F" transform="matrix(1.00, 0.00, -0.00, -1.00, 203.8, 417.0)">o</text><text xml:space="preserve" font-family="Helvetica-LightOblique,Helvetica" font-style="italic" font-size="39.0" fill="#FF456F" transform="matrix(1.00, 0.00, -0.00, -1.00, 225.5, 417.0)">t</text><text xml:space="preserve" font-family="Helvetica-LightOblique,Helvetica" font-style="italic" font-size="39.0" fill="#FF456F" transform="matrix(1.00, 0.00, -0.00, -1.00, 236.3, 417.0)">e</text><text xml:space="preserve" font-family="Helvetica-LightOblique,Helvetica" font-style="italic" font-size="39.0" fill="#FF456F" transform="matrix(1.00, 0.00, -0.00, -1.00, 258.0, 417.0)">s</text><text xml:space="preserve" font-family="Helvetica-LightOblique,Helvetica" font-style="italic" font-size="39.0" fill="#FF456F" transform="matrix(1.00, 0.00, -0.00, -1.00, 277.5, 417.0)"> </text><text xml:space="preserve" font-family="Helvetica-LightOblique,Helvetica" font-style="italic" font-size="39.0" fill="#FF456F" transform="matrix(1.00, 0.00, -0.00, -1.00, 288.4, 417.0)">d</text><text xml:space="preserve" font-family="Helvetica-LightOblique,Helvetica" font-style="italic" font-size="39.0" fill="#FF456F" transform="matrix(1.00, 0.00, -0.00, -1.00, 312.2, 417.0)">e</text><text xml:space="preserve" font-family="Helvetica-LightOblique,Helvetica" font-style="italic" font-size="39.0" fill="#FF456F" transform="matrix(1.00, 0.00, -0.00, -1.00, 333.9, 417.0)">c</text><text xml:space="preserve" font-family="Helvetica-LightOblique,Helvetica" font-style="italic" font-size="39.0" fill="#FF456F" transform="matrix(1.00, 0.00, -0.00, -1.00, 355.6, 417.0)">o</text><text xml:space="preserve" font-family="Helvetica-LightOblique,Helvetica" font-style="italic" font-size="39.0" fill="#FF456F" transform="matrix(1.00, 0.00, -0.00, -1.00, 377.3, 417.0)">u</text><text xml:space="preserve" font-family="Helvetica-LightOblique,Helvetica" font-style="italic" font-size="39.0" fill="#FF456F" transform="matrix(1.00, 0.00, -0.00, -1.00, 398.9, 417.0)">p</text><text xml:space="preserve" font-family="Helvetica-LightOblique,Helvetica" font-style="italic" font-size="39.0" fill="#FF456F" transform="matrix(1.00, 0.00, -0.00, -1.00, 422.8, 417.0)">l</text><text xml:space="preserve" font-family="Helvetica-LightOblique,Helvetica" font-style="italic" font-size="39.0" fill="#FF456F" transform="matrix(1.00, 0.00, -0.00, -1.00, 431.4, 417.0)">i</text><text xml:space="preserve" font-family="Helvetica-LightOblique,Helvetica" font-style="italic" font-size="39.0" fill="#FF456F" transform="matrix(1.00, 0.00, -0.00, -1.00, 440.1, 417.0)">n</text><text xml:space="preserve" font-family="Helvetica-LightOblique,Helvetica" font-style="italic" font-size="39.0" fill="#FF456F" transform="matrix(1.00, 0.00, -0.00, -1.00, 461.8, 417.0)">g</text><text xml:space="preserve" font-family="Helvetica-LightOblique,Helvetica" font-style="italic" font-size="39.0" fill="#FF456F" transform="matrix(1.00, 0.00, -0.00, -1.00, 485.6, 417.0)"> </text><text xml:space="preserve" font-family="Helvetica-LightOblique,Helvetica" font-style="italic" font-size="39.0" fill="#FF456F" transform="matrix(1.00, 0.00, -0.00, -1.00, 496.4, 417.0)">a</text><text xml:space="preserve" font-family="Helvetica-LightOblique,Helvetica" font-style="italic" font-size="39.0" fill="#FF456F" transform="matrix(1.00, 0.00, -0.00, -1.00, 518.1, 417.0)">n</text><text xml:space="preserve" font-family="Helvetica-LightOblique,Helvetica" font-style="italic" font-size="39.0" fill="#FF456F" transform="matrix(1.00, 0.00, -0.00, -1.00, 539.8, 417.0)">d</text><text xml:space="preserve" font-family="Helvetica-LightOblique,Helvetica" font-style="italic" font-size="39.0" fill="#FF456F" transform="matrix(1.00, 0.00, -0.00, -1.00, 563.6, 417.0)"> </text><text xml:space="preserve" font-family="Helvetica-LightOblique,Helvetica" font-style="italic" font-size="39.0" fill="#FF456F" transform="matrix(1.00, 0.00, -0.00, -1.00, 574.5, 417.0)">e</text><text xml:space="preserve" font-family="Helvetica-LightOblique,Helvetica" font-style="italic" font-size="39.0" fill="#FF456F" transform="matrix(1.00, 0.00, -0.00, -1.00, 596.2, 417.0)">n</text><text xml:space="preserve" font-family="Helvetica-LightOblique,Helvetica" font-style="italic" font-size="39.0" fill="#FF456F" transform="matrix(1.00, 0.00, -0.00, -1.00, 617.8, 417.0)">c</text><text xml:space="preserve" font-family="Helvetica-LightOblique,Helvetica" font-style="italic" font-size="39.0" fill="#FF456F" transform="matrix(1.00, 0.00, -0.00, -1.00, 639.5, 417.0)">a</text><text xml:space="preserve" font-family="Helvetica-LightOblique,Helvetica" font-style="italic" font-size="39.0" fill="#FF456F" transform="matrix(1.00, 0.00, -0.00, -1.00, 661.2, 417.0)">p</text><text xml:space="preserve" font-family="Helvetica-LightOblique,Helvetica" font-style="italic" font-size="39.0" fill="#FF456F" transform="matrix(1.00, 0.00, -0.00, -1.00, 685.0, 417.0)">s</text><text xml:space="preserve" font-family="Helvetica-LightOblique,Helvetica" font-style="italic" font-size="39.0" fill="#FF456F" transform="matrix(1.00, 0.00, -0.00, -1.00, 704.5, 417.0)">u</text><text xml:space="preserve" font-family="Helvetica-LightOblique,Helvetica" font-style="italic" font-size="39.0" fill="#FF456F" transform="matrix(1.00, 0.00, -0.00, -1.00, 726.2, 417.0)">l</text><text xml:space="preserve" font-family="Helvetica-LightOblique,Helvetica" font-style="italic" font-size="39.0" fill="#FF456F" transform="matrix(1.00, 0.00, -0.00, -1.00, 734.9, 417.0)">a</text><text xml:space="preserve" font-family="Helvetica-LightOblique,Helvetica" font-style="italic" font-size="39.0" fill="#FF456F" transform="matrix(1.00, 0.00, -0.00, -1.00, 756.6, 417.0)">t</text><text xml:space="preserve" font-family="Helvetica-LightOblique,Helvetica" font-style="italic" font-size="39.0" fill="#FF456F" transform="matrix(1.00, 0.00, -0.00, -1.00, 767.4, 417.0)">i</text><text xml:space="preserve" font-family="Helvetica-LightOblique,Helvetica" font-style="italic" font-size="39.0" fill="#FF456F" transform="matrix(1.00, 0.00, -0.00, -1.00, 776.1, 417.0)">o</text><text xml:space="preserve" font-family="Helvetica-LightOblique,Helvetica" font-style="italic" font-size="39.0" fill="#FF456F" transform="matrix(1.00, 0.00, -0.00, -1.00, 797.8, 417.0)">n</text><text xml:space="preserve" font-family="Helvetica-LightOblique,Helvetica" font-style="italic" font-size="39.0" fill="#FF456F" transform="matrix(1.00, 0.00, -0.00, -1.00, 819.4, 417.0)">,</text><text xml:space="preserve" font-family="Helvetica-LightOblique,Helvetica" font-style="italic" font-size="39.0" fill="#FF456F" transform="matrix(1.00, 0.00, -0.00, -1.00, 830.3, 417.0)"> </text><text xml:space="preserve" font-family="Helvetica-LightOblique,Helvetica" font-style="italic" font-size="39.0" fill="#FF456F" transform="matrix(1.00, 0.00, -0.00, -1.00, 841.1, 417.0)">w</text><text xml:space="preserve" font-family="Helvetica-LightOblique,Helvetica" font-style="italic" font-size="39.0" fill="#FF456F" transform="matrix(1.00, 0.00, -0.00, -1.00, 869.3, 417.0)">i</text><text xml:space="preserve" font-family="Helvetica-LightOblique,Helvetica" font-style="italic" font-size="39.0" fill="#FF456F" transform="matrix(1.00, 0.00, -0.00, -1.00, 877.9, 417.0)">t</text><text xml:space="preserve" font-family="Helvetica-LightOblique,Helvetica" font-style="italic" font-size="39.0" fill="#FF456F" transform="matrix(1.00, 0.00, -0.00, -1.00, 888.8, 417.0)">h</text><text xml:space="preserve" font-family="Helvetica-LightOblique,Helvetica" font-style="italic" font-size="39.0" fill="#FF456F" transform="matrix(1.00, 0.00, -0.00, -1.00, 910.5, 417.0)"> </text><text xml:space="preserve" font-family="Helvetica-LightOblique,Helvetica" font-style="italic" font-size="39.0" fill="#FF456F" transform="matrix(1.00, 0.00, -0.00, -1.00, 209.6, 370.0)">a</text><text xml:space="preserve" font-family="Helvetica-LightOblique,Helvetica" font-style="italic" font-size="39.0" fill="#FF456F" transform="matrix(1.00, 0.00, -0.00, -1.00, 231.3, 370.0)">l</text><text xml:space="preserve" font-family="Helvetica-LightOblique,Helvetica" font-style="italic" font-size="39.0" fill="#FF456F" transform="matrix(1.00, 0.00, -0.00, -1.00, 240.0, 370.0)">l</text><text xml:space="preserve" font-family="Helvetica-LightOblique,Helvetica" font-style="italic" font-size="39.0" fill="#FF456F" transform="matrix(1.00, 0.00, -0.00, -1.00, 248.6, 370.0)"> </text><text xml:space="preserve" font-family="Helvetica-LightOblique,Helvetica" font-style="italic" font-size="39.0" fill="#FF456F" transform="matrix(1.00, 0.00, -0.00, -1.00, 259.5, 370.0)">t</text><text xml:space="preserve" font-family="Helvetica-LightOblique,Helvetica" font-style="italic" font-size="39.0" fill="#FF456F" transform="matrix(1.00, 0.00, -0.00, -1.00, 270.3, 370.0)">h</text><text xml:space="preserve" font-family="Helvetica-LightOblique,Helvetica" font-style="italic" font-size="39.0" fill="#FF456F" transform="matrix(1.00, 0.00, -0.00, -1.00, 292.0, 370.0)">e</text><text xml:space="preserve" font-family="Helvetica-LightOblique,Helvetica" font-style="italic" font-size="39.0" fill="#FF456F" transform="matrix(1.00, 0.00, -0.00, -1.00, 313.7, 370.0)"> </text><text xml:space="preserve" font-family="Helvetica-LightOblique,Helvetica" font-style="italic" font-size="39.0" fill="#FF456F" transform="matrix(1.00, 0.00, -0.00, -1.00, 324.5, 370.0)">b</text><text xml:space="preserve" font-family="Helvetica-LightOblique,Helvetica" font-style="italic" font-size="39.0" fill="#FF456F" transform="matrix(1.00, 0.00, -0.00, -1.00, 348.4, 370.0)">e</text><text xml:space="preserve" font-family="Helvetica-LightOblique,Helvetica" font-style="italic" font-size="39.0" fill="#FF456F" transform="matrix(1.00, 0.00, -0.00, -1.00, 370.0, 370.0)">n</text><text xml:space="preserve" font-family="Helvetica-LightOblique,Helvetica" font-style="italic" font-size="39.0" fill="#FF456F" transform="matrix(1.00, 0.00, -0.00, -1.00, 391.7, 370.0)">e</text><text xml:space="preserve" font-family="Helvetica-LightOblique,Helvetica" font-style="italic" font-size="39.0" fill="#FF456F" transform="matrix(1.00, 0.00, -0.00, -1.00, 413.4, 370.0)">ﬁ</text><text xml:space="preserve" font-family="Helvetica-LightOblique,Helvetica" font-style="italic" font-size="39.0" fill="#FF456F" transform="matrix(1.00, 0.00, -0.00, -1.00, 432.9, 370.0)">t</text><text xml:space="preserve" font-family="Helvetica-LightOblique,Helvetica" font-style="italic" font-size="39.0" fill="#FF456F" transform="matrix(1.00, 0.00, -0.00, -1.00, 443.8, 370.0)">s</text><text xml:space="preserve" font-family="Helvetica-LightOblique,Helvetica" font-style="italic" font-size="39.0" fill="#FF456F" transform="matrix(1.00, 0.00, -0.00, -1.00, 463.2, 370.0)"> </text><text xml:space="preserve" font-family="Helvetica-LightOblique,Helvetica" font-style="italic" font-size="39.0" fill="#FF456F" transform="matrix(1.00, 0.00, -0.00, -1.00, 474.1, 370.0)">t</text><text xml:space="preserve" font-family="Helvetica-LightOblique,Helvetica" font-style="italic" font-size="39.0" fill="#FF456F" transform="matrix(1.00, 0.00, -0.00, -1.00, 484.9, 370.0)">h</text><text xml:space="preserve" font-family="Helvetica-LightOblique,Helvetica" font-style="italic" font-size="39.0" fill="#FF456F" transform="matrix(1.00, 0.00, -0.00, -1.00, 506.6, 370.0)">o</text><text xml:space="preserve" font-family="Helvetica-LightOblique,Helvetica" font-style="italic" font-size="39.0" fill="#FF456F" transform="matrix(1.00, 0.00, -0.00, -1.00, 528.3, 370.0)">s</text><text xml:space="preserve" font-family="Helvetica-LightOblique,Helvetica" font-style="italic" font-size="39.0" fill="#FF456F" transform="matrix(1.00, 0.00, -0.00, -1.00, 547.8, 370.0)">e</text><text xml:space="preserve" font-family="Helvetica-LightOblique,Helvetica" font-style="italic" font-size="39.0" fill="#FF456F" transform="matrix(1.00, 0.00, -0.00, -1.00, 569.5, 370.0)"> </text><text xml:space="preserve" font-family="Helvetica-LightOblique,Helvetica" font-style="italic" font-size="39.0" fill="#FF456F" transform="matrix(1.00, 0.00, -0.00, -1.00, 580.3, 370.0)">t</text><text xml:space="preserve" font-family="Helvetica-LightOblique,Helvetica" font-style="italic" font-size="39.0" fill="#FF456F" transform="matrix(1.00, 0.00, -0.00, -1.00, 591.2, 370.0)">h</text><text xml:space="preserve" font-family="Helvetica-LightOblique,Helvetica" font-style="italic" font-size="39.0" fill="#FF456F" transform="matrix(1.00, 0.00, -0.00, -1.00, 612.9, 370.0)">i</text><text xml:space="preserve" font-family="Helvetica-LightOblique,Helvetica" font-style="italic" font-size="39.0" fill="#FF456F" transform="matrix(1.00, 0.00, -0.00, -1.00, 621.5, 370.0)">n</text><text xml:space="preserve" font-family="Helvetica-LightOblique,Helvetica" font-style="italic" font-size="39.0" fill="#FF456F" transform="matrix(1.00, 0.00, -0.00, -1.00, 643.2, 370.0)">g</text><text xml:space="preserve" font-family="Helvetica-LightOblique,Helvetica" font-style="italic" font-size="39.0" fill="#FF456F" transform="matrix(1.00, 0.00, -0.00, -1.00, 667.0, 370.0)">s</text><text xml:space="preserve" font-family="Helvetica-LightOblique,Helvetica" font-style="italic" font-size="39.0" fill="#FF456F" transform="matrix(1.00, 0.00, -0.00, -1.00, 686.5, 370.0)"> </text><text xml:space="preserve" font-family="Helvetica-LightOblique,Helvetica" font-style="italic" font-size="39.0" fill="#FF456F" transform="matrix(1.00, 0.00, -0.00, -1.00, 697.4, 370.0)">b</text><text xml:space="preserve" font-family="Helvetica-LightOblique,Helvetica" font-style="italic" font-size="39.0" fill="#FF456F" transform="matrix(1.00, 0.00, -0.00, -1.00, 721.2, 370.0)">r</text><text xml:space="preserve" font-family="Helvetica-LightOblique,Helvetica" font-style="italic" font-size="39.0" fill="#FF456F" transform="matrix(1.00, 0.00, -0.00, -1.00, 734.2, 370.0)">i</text><text xml:space="preserve" font-family="Helvetica-LightOblique,Helvetica" font-style="italic" font-size="39.0" fill="#FF456F" transform="matrix(1.00, 0.00, -0.00, -1.00, 742.8, 370.0)">n</text><text xml:space="preserve" font-family="Helvetica-LightOblique,Helvetica" font-style="italic" font-size="39.0" fill="#FF456F" transform="matrix(1.00, 0.00, -0.00, -1.00, 764.5, 370.0)">g</text><text xml:space="preserve" font-family="Helvetica-LightOblique,Helvetica" font-style="italic" font-size="39.0" fill="#FF456F" transform="matrix(1.00, 0.00, -0.00, -1.00, 788.4, 370.0)">.</text><text xml:space="preserve" font-family="Helvetica-LightOblique,Helvetica" font-style="italic" font-size="39.0" fill="#FF456F" transform="matrix(1.00, 0.00, -0.00, -1.00, 799.2, 370.0)">”</text><text xml:space="preserve" font-family="Helvetica-LightOblique,Helvetica" font-style="italic" font-size="39.0" fill="#FF456F" transform="matrix(1.00, 0.00, -0.00, -1.00, 814.4, 370.0)"> </text></g></svg>