<?xml version="1.0" encoding="UTF-8" standalone="no"?><svg xmlns="http://www.w3.org/2000/svg" xmlns:xlink="http://www.w3.org/1999/xlink" clip-rule="evenodd" stroke-miterlimit="10" viewBox="0 0 1024 768"><desc>SVG generated by Keynote</desc><defs></defs><g transform="matrix(1.00, 0.00, -0.00, -1.00, 0.0, 768.0)"><path d="M 0.0 768.0 L 1024.0 768.0 L 1024.0 0.0 L 0.0 0.0 Z M 0.0 768.0 " fill="#000000"></path><text xml:space="preserve" font-family="ProximaNova-Black,Proxima Nova" font-weight="bold" font-size="60.2" fill="#FF456F" transform="matrix(1.00, 0.00, -0.00, -1.00, 107.2, 686.6)">R</text><text xml:space="preserve" font-family="ProximaNova-Black,Proxima Nova" font-weight="bold" font-size="60.2" fill="#FF456F" transform="matrix(1.00, 0.00, -0.00, -1.00, 148.0, 686.6)">i</text><text xml:space="preserve" font-family="ProximaNova-Black,Proxima Nova" font-weight="bold" font-size="60.2" fill="#FF456F" transform="matrix(1.00, 0.00, -0.00, -1.00, 164.9, 686.6)">c</text><text xml:space="preserve" font-family="ProximaNova-Black,Proxima Nova" font-weight="bold" font-size="60.2" fill="#FF456F" transform="matrix(1.00, 0.00, -0.00, -1.00, 195.1, 686.6)">h</text><text xml:space="preserve" font-family="ProximaNova-Black,Proxima Nova" font-weight="bold" font-size="60.2" fill="#FF456F" transform="matrix(1.00, 0.00, -0.00, -1.00, 231.7, 686.6)">a</text><text xml:space="preserve" font-family="ProximaNova-Black,Proxima Nova" font-weight="bold" font-size="60.2" fill="#FF456F" transform="matrix(1.00, 0.00, -0.00, -1.00, 265.4, 686.6)">r</text><text xml:space="preserve" font-family="ProximaNova-Black,Proxima Nova" font-weight="bold" font-size="60.2" fill="#FF456F" transform="matrix(1.00, 0.00, -0.00, -1.00, 288.8, 686.6)">d</text><text xml:space="preserve" font-family="ProximaNova-Black,Proxima Nova" font-weight="bold" font-size="60.2" fill="#FF456F" transform="matrix(1.00, 0.00, -0.00, -1.00, 324.7, 686.6)">s</text><text xml:space="preserve" font-family="ProximaNova-Black,Proxima Nova" font-weight="bold" font-size="60.2" fill="#FF456F" transform="matrix(1.00, 0.00, -0.00, -1.00, 354.2, 686.6)">o</text><text xml:space="preserve" font-family="ProximaNova-Black,Proxima Nova" font-weight="bold" font-size="60.2" fill="#FF456F" transform="matrix(1.00, 0.00, -0.00, -1.00, 389.0, 686.6)">n</text><text xml:space="preserve" font-family="ProximaNova-Black,Proxima Nova" font-weight="bold" font-size="60.2" fill="#FF456F" transform="matrix(1.00, 0.00, -0.00, -1.00, 424.3, 686.6)">’</text><text xml:space="preserve" font-family="ProximaNova-Black,Proxima Nova" font-weight="bold" font-size="60.2" fill="#FF456F" transform="matrix(1.00, 0.00, -0.00, -1.00, 439.4, 686.6)">s</text><text xml:space="preserve" font-family="ProximaNova-Black,Proxima Nova" font-weight="bold" font-size="60.2" fill="#FF456F" transform="matrix(1.00, 0.00, -0.00, -1.00, 468.9, 686.6)"> </text><text xml:space="preserve" font-family="ProximaNova-Black,Proxima Nova" font-weight="bold" font-size="60.2" fill="#FF456F" transform="matrix(1.00, 0.00, -0.00, -1.00, 484.2, 686.6)">M</text><text xml:space="preserve" font-family="ProximaNova-Black,Proxima Nova" font-weight="bold" font-size="60.2" fill="#FF456F" transform="matrix(1.00, 0.00, -0.00, -1.00, 538.4, 686.6)">a</text><text xml:space="preserve" font-family="ProximaNova-Black,Proxima Nova" font-weight="bold" font-size="60.2" fill="#FF456F" transform="matrix(1.00, 0.00, -0.00, -1.00, 572.1, 686.6)">t</text><text xml:space="preserve" font-family="ProximaNova-Black,Proxima Nova" font-weight="bold" font-size="60.2" fill="#FF456F" transform="matrix(1.00, 0.00, -0.00, -1.00, 595.1, 686.6)">u</text><text xml:space="preserve" font-family="ProximaNova-Black,Proxima Nova" font-weight="bold" font-size="60.2" fill="#FF456F" transform="matrix(1.00, 0.00, -0.00, -1.00, 631.6, 686.6)">r</text><text xml:space="preserve" font-family="ProximaNova-Black,Proxima Nova" font-weight="bold" font-size="60.2" fill="#FF456F" transform="matrix(1.00, 0.00, -0.00, -1.00, 655.0, 686.6)">i</text><text xml:space="preserve" font-family="ProximaNova-Black,Proxima Nova" font-weight="bold" font-size="60.2" fill="#FF456F" transform="matrix(1.00, 0.00, -0.00, -1.00, 671.9, 686.6)">t</text><text xml:space="preserve" font-family="ProximaNova-Black,Proxima Nova" font-weight="bold" font-size="60.2" fill="#FF456F" transform="matrix(1.00, 0.00, -0.00, -1.00, 694.9, 686.6)">y</text><text xml:space="preserve" font-family="ProximaNova-Black,Proxima Nova" font-weight="bold" font-size="60.2" fill="#FF456F" transform="matrix(1.00, 0.00, -0.00, -1.00, 727.1, 686.6)"> </text><text xml:space="preserve" font-family="ProximaNova-Black,Proxima Nova" font-weight="bold" font-size="60.2" fill="#FF456F" transform="matrix(1.00, 0.00, -0.00, -1.00, 742.4, 686.6)">M</text><text xml:space="preserve" font-family="ProximaNova-Black,Proxima Nova" font-weight="bold" font-size="60.2" fill="#FF456F" transform="matrix(1.00, 0.00, -0.00, -1.00, 796.6, 686.6)">o</text><text xml:space="preserve" font-family="ProximaNova-Black,Proxima Nova" font-weight="bold" font-size="60.2" fill="#FF456F" transform="matrix(1.00, 0.00, -0.00, -1.00, 831.4, 686.6)">d</text><text xml:space="preserve" font-family="ProximaNova-Black,Proxima Nova" font-weight="bold" font-size="60.2" fill="#FF456F" transform="matrix(1.00, 0.00, -0.00, -1.00, 867.2, 686.6)">e</text><text xml:space="preserve" font-family="ProximaNova-Black,Proxima Nova" font-weight="bold" font-size="60.2" fill="#FF456F" transform="matrix(1.00, 0.00, -0.00, -1.00, 899.9, 686.6)">l</text><text xml:space="preserve" font-family="ProximaNova-Black,Proxima Nova" font-weight="bold" font-size="60.2" fill="#FF456F" transform="matrix(1.00, 0.00, -0.00, -1.00, 916.8, 686.6)"> </text><path d="M 382.0 522.0 L 601.0 522.0 L 601.0 433.0 L 382.0 433.0 Z M 382.0 522.0 " fill="#7ADA45"></path><g><clipPath id="clip0x6180028a7200"><path d="M 379.5 433.0 L 603.2 433.0 L 603.2 522.0 L 379.5 522.0 Z M 379.5 433.0 "></path></clipPath><g clip-path="url(#clip0x6180028a7200)"><text xml:space="preserve" font-family="Helvetica-Light,Helvetica" font-size="26.0" fill="#FEFFFF" transform="matrix(1.00, 0.00, -0.00, -1.00, 456.7, 468.0)">H</text><text xml:space="preserve" font-family="Helvetica-Light,Helvetica" font-size="26.0" fill="#FEFFFF" transform="matrix(1.00, 0.00, -0.00, -1.00, 475.5, 468.0)">T</text><text xml:space="preserve" font-family="Helvetica-Light,Helvetica" font-size="26.0" fill="#FEFFFF" transform="matrix(1.00, 0.00, -0.00, -1.00, 489.9, 468.0)">M</text><text xml:space="preserve" font-family="Helvetica-Light,Helvetica" font-size="26.0" fill="#FEFFFF" transform="matrix(1.00, 0.00, -0.00, -1.00, 511.6, 468.0)">L</text></g></g><path d="M 382.0 432.0 L 601.0 432.0 L 601.0 343.0 L 382.0 343.0 Z M 382.0 432.0 " fill="#E7A432"></path><g><clipPath id="clip0x6180028a7620"><path d="M 379.5 343.0 L 603.2 343.0 L 603.2 432.0 L 379.5 432.0 Z M 379.5 343.0 "></path></clipPath><g clip-path="url(#clip0x6180028a7620)"><text xml:space="preserve" font-family="Helvetica-Light,Helvetica" font-size="26.0" fill="#FEFFFF" transform="matrix(1.00, 0.00, -0.00, -1.00, 459.6, 378.0)">H</text><text xml:space="preserve" font-family="Helvetica-Light,Helvetica" font-size="26.0" fill="#FEFFFF" transform="matrix(1.00, 0.00, -0.00, -1.00, 478.3, 378.0)">T</text><text xml:space="preserve" font-family="Helvetica-Light,Helvetica" font-size="26.0" fill="#FEFFFF" transform="matrix(1.00, 0.00, -0.00, -1.00, 492.8, 378.0)">T</text><text xml:space="preserve" font-family="Helvetica-Light,Helvetica" font-size="26.0" fill="#FEFFFF" transform="matrix(1.00, 0.00, -0.00, -1.00, 507.3, 378.0)">P</text></g></g><path d="M 382.0 342.0 L 601.0 342.0 L 601.0 253.0 L 382.0 253.0 Z M 382.0 342.0 " fill="#1497FC"></path><g><clipPath id="clip0x6180028a7a40"><path d="M 379.5 253.0 L 603.2 253.0 L 603.2 342.0 L 379.5 342.0 Z M 379.5 253.0 "></path></clipPath><g clip-path="url(#clip0x6180028a7a40)"><text xml:space="preserve" font-family="Helvetica-Light,Helvetica" font-size="26.0" fill="#FEFFFF" transform="matrix(1.00, 0.00, -0.00, -1.00, 469.7, 288.0)">U</text><text xml:space="preserve" font-family="Helvetica-Light,Helvetica" font-size="26.0" fill="#FEFFFF" transform="matrix(1.00, 0.00, -0.00, -1.00, 488.5, 288.0)">R</text><text xml:space="preserve" font-family="Helvetica-Light,Helvetica" font-size="26.0" fill="#FEFFFF" transform="matrix(1.00, 0.00, -0.00, -1.00, 505.8, 288.0)">I</text></g></g></g></svg>