<?xml version="1.0" encoding="UTF-8" standalone="no"?><svg xmlns="http://www.w3.org/2000/svg" xmlns:xlink="http://www.w3.org/1999/xlink" clip-rule="evenodd" stroke-miterlimit="10" viewBox="0 0 1024 768"><desc>SVG generated by Keynote</desc><defs></defs><g transform="matrix(1.00, 0.00, -0.00, -1.00, 0.0, 768.0)"><path d="M 0.0 768.0 L 1024.0 768.0 L 1024.0 0.0 L 0.0 0.0 Z M 0.0 768.0 " fill="#FEFFFE"></path><text xml:space="preserve" font-family="Helvetica-Light,Helvetica" font-size="52.0" fill="#FF456F" transform="matrix(1.00, 0.00, -0.00, -1.00, 431.9, 562.6)">L</text><text xml:space="preserve" font-family="Helvetica-Light,Helvetica" font-size="52.0" fill="#FF456F" transform="matrix(1.00, 0.00, -0.00, -1.00, 460.8, 562.6)">e</text><text xml:space="preserve" font-family="Helvetica-Light,Helvetica" font-size="52.0" fill="#FF456F" transform="matrix(1.00, 0.00, -0.00, -1.00, 489.7, 562.6)">o</text><text xml:space="preserve" font-family="Helvetica-Light,Helvetica" font-size="52.0" fill="#FF456F" transform="matrix(1.00, 0.00, -0.00, -1.00, 518.6, 562.6)">n</text><text xml:space="preserve" font-family="Helvetica-Light,Helvetica" font-size="52.0" fill="#FF456F" transform="matrix(1.00, 0.00, -0.00, -1.00, 547.5, 562.6)">a</text><text xml:space="preserve" font-family="Helvetica-Light,Helvetica" font-size="52.0" fill="#FF456F" transform="matrix(1.00, 0.00, -0.00, -1.00, 576.5, 562.6)">r</text><text xml:space="preserve" font-family="Helvetica-Light,Helvetica" font-size="52.0" fill="#FF456F" transform="matrix(1.00, 0.00, -0.00, -1.00, 592.8, 562.6)">d</text><text xml:space="preserve" font-family="Helvetica-Light,Helvetica" font-size="52.0" fill="#FF456F" transform="matrix(1.00, 0.00, -0.00, -1.00, 624.6, 562.6)"> </text><text xml:space="preserve" font-family="Helvetica-Bold,Helvetica" font-weight="bold" font-size="52.0" fill="#FF456F" transform="matrix(1.00, 0.00, -0.00, -1.00, 639.1, 562.6)">R</text><text xml:space="preserve" font-family="Helvetica-Bold,Helvetica" font-weight="bold" font-size="52.0" fill="#FF456F" transform="matrix(1.00, 0.00, -0.00, -1.00, 676.6, 562.6)">i</text><text xml:space="preserve" font-family="Helvetica-Bold,Helvetica" font-weight="bold" font-size="52.0" fill="#FF456F" transform="matrix(1.00, 0.00, -0.00, -1.00, 691.1, 562.6)">c</text><text xml:space="preserve" font-family="Helvetica-Bold,Helvetica" font-weight="bold" font-size="52.0" fill="#FF456F" transform="matrix(1.00, 0.00, -0.00, -1.00, 720.0, 562.6)">h</text><text xml:space="preserve" font-family="Helvetica-Bold,Helvetica" font-weight="bold" font-size="52.0" fill="#FF456F" transform="matrix(1.00, 0.00, -0.00, -1.00, 751.8, 562.6)">a</text><text xml:space="preserve" font-family="Helvetica-Bold,Helvetica" font-weight="bold" font-size="52.0" fill="#FF456F" transform="matrix(1.00, 0.00, -0.00, -1.00, 780.7, 562.6)">r</text><text xml:space="preserve" font-family="Helvetica-Bold,Helvetica" font-weight="bold" font-size="52.0" fill="#FF456F" transform="matrix(1.00, 0.00, -0.00, -1.00, 801.0, 562.6)">d</text><text xml:space="preserve" font-family="Helvetica-Bold,Helvetica" font-weight="bold" font-size="52.0" fill="#FF456F" transform="matrix(1.00, 0.00, -0.00, -1.00, 832.7, 562.6)">s</text><text xml:space="preserve" font-family="Helvetica-Bold,Helvetica" font-weight="bold" font-size="52.0" fill="#FF456F" transform="matrix(1.00, 0.00, -0.00, -1.00, 861.7, 562.6)">o</text><text xml:space="preserve" font-family="Helvetica-Bold,Helvetica" font-weight="bold" font-size="52.0" fill="#FF456F" transform="matrix(1.00, 0.00, -0.00, -1.00, 893.4, 562.6)">n</text><image xlink:href="08F2B7CA0F21AA47894C0AC3BDF71FE8.png" width="310.00" height="349.00" transform="matrix(1.00, 0.00, -0.00, -1.00, 51.0, 670.5)"></image><g opacity="0.67"><g><clipPath id="clip0x6080024b9620"><path d="M 0.0 0.0 L 1024.0 0.0 L 1024.0 768.0 L 0.0 768.0 Z M 0.0 0.0 "></path></clipPath><g clip-path="url(#clip0x6080024b9620)"><image xlink:href="011481ED433FAABE1CE175D389C8C18A.png" width="539.00" height="174.00" transform="matrix(1.00, 0.00, -0.00, -1.00, 424.0, 444.0)"></image></g></g></g><text xml:space="preserve" font-family="Helvetica-Light,Helvetica" font-size="26.0" fill="#514F4D" transform="matrix(1.00, 0.00, -0.00, -1.00, 442.0, 448.5)">A</text><text xml:space="preserve" font-family="Helvetica-Light,Helvetica" font-size="26.0" fill="#514F4D" transform="matrix(1.00, 0.00, -0.00, -1.00, 459.3, 448.5)">u</text><text xml:space="preserve" font-family="Helvetica-Light,Helvetica" font-size="26.0" fill="#514F4D" transform="matrix(1.00, 0.00, -0.00, -1.00, 473.8, 448.5)">t</text><text xml:space="preserve" font-family="Helvetica-Light,Helvetica" font-size="26.0" fill="#514F4D" transform="matrix(1.00, 0.00, -0.00, -1.00, 481.0, 448.5)">h</text><text xml:space="preserve" font-family="Helvetica-Light,Helvetica" font-size="26.0" fill="#514F4D" transform="matrix(1.00, 0.00, -0.00, -1.00, 495.5, 448.5)">o</text><text xml:space="preserve" font-family="Helvetica-Light,Helvetica" font-size="26.0" fill="#514F4D" transform="matrix(1.00, 0.00, -0.00, -1.00, 509.9, 448.5)">r</text><text xml:space="preserve" font-family="Helvetica-Light,Helvetica" font-size="26.0" fill="#514F4D" transform="matrix(1.00, 0.00, -0.00, -1.00, 518.6, 448.5)"> </text><text xml:space="preserve" font-family="Helvetica-Light,Helvetica" font-size="26.0" fill="#514F4D" transform="matrix(1.00, 0.00, -0.00, -1.00, 525.8, 448.5)">o</text><text xml:space="preserve" font-family="Helvetica-Light,Helvetica" font-size="26.0" fill="#514F4D" transform="matrix(1.00, 0.00, -0.00, -1.00, 540.3, 448.5)">f</text><text xml:space="preserve" font-family="Helvetica-Light,Helvetica" font-size="26.0" fill="#514F4D" transform="matrix(1.00, 0.00, -0.00, -1.00, 547.5, 448.5)"> </text><text xml:space="preserve" font-family="Helvetica-Light,Helvetica" font-size="26.0" fill="#514F4D" transform="matrix(1.00, 0.00, -0.00, -1.00, 554.7, 448.5)">t</text><text xml:space="preserve" font-family="Helvetica-Light,Helvetica" font-size="26.0" fill="#514F4D" transform="matrix(1.00, 0.00, -0.00, -1.00, 562.0, 448.5)">h</text><text xml:space="preserve" font-family="Helvetica-Light,Helvetica" font-size="26.0" fill="#514F4D" transform="matrix(1.00, 0.00, -0.00, -1.00, 576.4, 448.5)">e</text><text xml:space="preserve" font-family="Helvetica-Light,Helvetica" font-size="26.0" fill="#514F4D" transform="matrix(1.00, 0.00, -0.00, -1.00, 590.9, 448.5)">s</text><text xml:space="preserve" font-family="Helvetica-Light,Helvetica" font-size="26.0" fill="#514F4D" transform="matrix(1.00, 0.00, -0.00, -1.00, 603.9, 448.5)">e</text><text xml:space="preserve" font-family="Helvetica-Light,Helvetica" font-size="26.0" fill="#514F4D" transform="matrix(1.00, 0.00, -0.00, -1.00, 618.3, 448.5)"> </text><text xml:space="preserve" font-family="Helvetica-Light,Helvetica" font-size="26.0" fill="#514F4D" transform="matrix(1.00, 0.00, -0.00, -1.00, 625.6, 448.5)">ï¬</text><text xml:space="preserve" font-family="Helvetica-Light,Helvetica" font-size="26.0" fill="#514F4D" transform="matrix(1.00, 0.00, -0.00, -1.00, 638.6, 448.5)">n</text><text xml:space="preserve" font-family="Helvetica-Light,Helvetica" font-size="26.0" fill="#514F4D" transform="matrix(1.00, 0.00, -0.00, -1.00, 653.0, 448.5)">e</text><text xml:space="preserve" font-family="Helvetica-Light,Helvetica" font-size="26.0" fill="#514F4D" transform="matrix(1.00, 0.00, -0.00, -1.00, 667.5, 448.5)"> </text><text xml:space="preserve" font-family="Helvetica-Light,Helvetica" font-size="26.0" fill="#514F4D" transform="matrix(1.00, 0.00, -0.00, -1.00, 674.7, 448.5)">b</text><text xml:space="preserve" font-family="Helvetica-Light,Helvetica" font-size="26.0" fill="#514F4D" transform="matrix(1.00, 0.00, -0.00, -1.00, 690.6, 448.5)">o</text><text xml:space="preserve" font-family="Helvetica-Light,Helvetica" font-size="26.0" fill="#514F4D" transform="matrix(1.00, 0.00, -0.00, -1.00, 705.0, 448.5)">o</text><text xml:space="preserve" font-family="Helvetica-Light,Helvetica" font-size="26.0" fill="#514F4D" transform="matrix(1.00, 0.00, -0.00, -1.00, 719.5, 448.5)">k</text><text xml:space="preserve" font-family="Helvetica-Light,Helvetica" font-size="26.0" fill="#514F4D" transform="matrix(1.00, 0.00, -0.00, -1.00, 732.5, 448.5)">s</text><text xml:space="preserve" font-family="Helvetica-Light,Helvetica" font-size="26.0" fill="#514F4D" transform="matrix(1.00, 0.00, -0.00, -1.00, 745.5, 448.5)">:</text></g></svg>