<?xml version="1.0" encoding="UTF-8" standalone="no"?><svg xmlns="http://www.w3.org/2000/svg" xmlns:xlink="http://www.w3.org/1999/xlink" clip-rule="evenodd" stroke-miterlimit="10" viewBox="0 0 1024 768"><desc>SVG generated by Keynote</desc><defs></defs><g transform="matrix(1.00, 0.00, -0.00, -1.00, 0.0, 768.0)"><path d="M 0.0 768.0 L 1024.0 768.0 L 1024.0 0.0 L 0.0 0.0 Z M 0.0 768.0 " fill="#FEFFFE"></path><text xml:space="preserve" font-family="ProximaNova-Light,Proxima Nova" font-size="40.0" fill="#FF456F" transform="matrix(1.00, 0.00, -0.00, -1.00, 304.2, 647.4)">G</text><text xml:space="preserve" font-family="ProximaNova-Light,Proxima Nova" font-size="40.0" fill="#FF456F" transform="matrix(1.00, 0.00, -0.00, -1.00, 332.7, 647.4)">e</text><text xml:space="preserve" font-family="ProximaNova-Light,Proxima Nova" font-size="40.0" fill="#FF456F" transform="matrix(1.00, 0.00, -0.00, -1.00, 355.3, 647.4)">t</text><text xml:space="preserve" font-family="ProximaNova-Light,Proxima Nova" font-size="40.0" fill="#FF456F" transform="matrix(1.00, 0.00, -0.00, -1.00, 366.3, 647.4)">t</text><text xml:space="preserve" font-family="ProximaNova-Light,Proxima Nova" font-size="40.0" fill="#FF456F" transform="matrix(1.00, 0.00, -0.00, -1.00, 377.3, 647.4)">i</text><text xml:space="preserve" font-family="ProximaNova-Light,Proxima Nova" font-size="40.0" fill="#FF456F" transform="matrix(1.00, 0.00, -0.00, -1.00, 385.9, 647.4)">n</text><text xml:space="preserve" font-family="ProximaNova-Light,Proxima Nova" font-size="40.0" fill="#FF456F" transform="matrix(1.00, 0.00, -0.00, -1.00, 407.5, 647.4)">g</text><text xml:space="preserve" font-family="ProximaNova-Light,Proxima Nova" font-size="40.0" fill="#FF456F" transform="matrix(1.00, 0.00, -0.00, -1.00, 430.3, 647.4)"> </text><text xml:space="preserve" font-family="ProximaNova-Light,Proxima Nova" font-size="40.0" fill="#FF456F" transform="matrix(1.00, 0.00, -0.00, -1.00, 440.7, 647.4)">t</text><text xml:space="preserve" font-family="ProximaNova-Light,Proxima Nova" font-size="40.0" fill="#FF456F" transform="matrix(1.00, 0.00, -0.00, -1.00, 451.7, 647.4)">o</text><text xml:space="preserve" font-family="ProximaNova-Light,Proxima Nova" font-size="40.0" fill="#FF456F" transform="matrix(1.00, 0.00, -0.00, -1.00, 474.5, 647.4)"> </text><text xml:space="preserve" font-family="ProximaNova-Light,Proxima Nova" font-size="40.0" fill="#FF456F" transform="matrix(1.00, 0.00, -0.00, -1.00, 484.9, 647.4)">“</text><text xml:space="preserve" font-family="ProximaNova-Light,Proxima Nova" font-size="40.0" fill="#FF456F" transform="matrix(1.00, 0.00, -0.00, -1.00, 499.3, 647.4)">Y</text><text xml:space="preserve" font-family="ProximaNova-Light,Proxima Nova" font-size="40.0" fill="#FF456F" transform="matrix(1.00, 0.00, -0.00, -1.00, 518.9, 647.4)">o</text><text xml:space="preserve" font-family="ProximaNova-Light,Proxima Nova" font-size="40.0" fill="#FF456F" transform="matrix(1.00, 0.00, -0.00, -1.00, 541.7, 647.4)">u</text><text xml:space="preserve" font-family="ProximaNova-Light,Proxima Nova" font-size="40.0" fill="#FF456F" transform="matrix(1.00, 0.00, -0.00, -1.00, 563.3, 647.4)">r</text><text xml:space="preserve" font-family="ProximaNova-Light,Proxima Nova" font-size="40.0" fill="#FF456F" transform="matrix(1.00, 0.00, -0.00, -1.00, 576.0, 647.4)"> </text><text xml:space="preserve" font-family="ProximaNova-Light,Proxima Nova" font-size="40.0" fill="#FF456F" transform="matrix(1.00, 0.00, -0.00, -1.00, 586.3, 647.4)">O</text><text xml:space="preserve" font-family="ProximaNova-Light,Proxima Nova" font-size="40.0" fill="#FF456F" transform="matrix(1.00, 0.00, -0.00, -1.00, 616.9, 647.4)">r</text><text xml:space="preserve" font-family="ProximaNova-Light,Proxima Nova" font-size="40.0" fill="#FF456F" transform="matrix(1.00, 0.00, -0.00, -1.00, 629.6, 647.4)">d</text><text xml:space="preserve" font-family="ProximaNova-Light,Proxima Nova" font-size="40.0" fill="#FF456F" transform="matrix(1.00, 0.00, -0.00, -1.00, 652.4, 647.4)">e</text><text xml:space="preserve" font-family="ProximaNova-Light,Proxima Nova" font-size="40.0" fill="#FF456F" transform="matrix(1.00, 0.00, -0.00, -1.00, 675.1, 647.4)">r</text><text xml:space="preserve" font-family="ProximaNova-Light,Proxima Nova" font-size="40.0" fill="#FF456F" transform="matrix(1.00, 0.00, -0.00, -1.00, 687.8, 647.4)">s</text><text xml:space="preserve" font-family="ProximaNova-Light,Proxima Nova" font-size="40.0" fill="#FF456F" transform="matrix(1.00, 0.00, -0.00, -1.00, 705.3, 647.4)">”</text><image xlink:href="4E208F0B3B3E0D04B8D78C97C6D70A6C.png" width="506.00" height="383.00" transform="matrix(1.00, 0.00, -0.00, -1.00, 270.0, 598.5)"></image><path d="M 0.0 0.0 L 506.0 0.0 L 506.0 383.0 L 0.0 383.0 Z M 0.0 0.0 " fill="none" stroke="#000000" stroke-width="1.00" transform="matrix(1.00, 0.00, 0.00, -1.00, 270.0, 598.5)"></path><image xlink:href="2947A2B68A223255EEB913C64A8313CF.png" width="2113.00" height="505.00" transform="matrix(0.24, 0.00, -0.00, -0.24, 269.5, 215.0)"></image></g></svg>