<?xml version="1.0" encoding="UTF-8" standalone="no"?><svg xmlns="http://www.w3.org/2000/svg" xmlns:xlink="http://www.w3.org/1999/xlink" clip-rule="evenodd" stroke-miterlimit="10" viewBox="0 0 108 107"><desc>SVG generated by Keynote</desc><defs></defs><g transform="matrix(1.00, 0.00, -0.00, -1.00, 0.0, 107.0)"><path d="M 91.2 90.7 C 111.6 70.3 111.6 37.2 91.2 16.8 C 70.8 -3.6 37.7 -3.6 17.3 16.8 C -3.1 37.2 -3.1 70.3 17.3 90.7 C 37.7 111.1 70.8 111.1 91.2 90.7 Z M 91.2 90.7 " fill="#FEFFFE"></path><g><clipPath id="clip0x6000028a0720"><path d="M 2.0 1.5 L 106.5 1.5 L 106.5 106.0 L 2.0 106.0 Z M 2.0 1.5 "></path></clipPath><g clip-path="url(#clip0x6000028a0720)"><text xml:space="preserve" font-family="Helvetica-Light,Helvetica" font-size="20.0" fill="#52575F" transform="matrix(1.00, 0.00, -0.00, -1.00, 18.7, 57.7)">C</text><text xml:space="preserve" font-family="Helvetica-Light,Helvetica" font-size="20.0" fill="#52575F" transform="matrix(1.00, 0.00, -0.00, -1.00, 33.1, 57.7)">h</text><text xml:space="preserve" font-family="Helvetica-Light,Helvetica" font-size="20.0" fill="#52575F" transform="matrix(1.00, 0.00, -0.00, -1.00, 44.2, 57.7)">a</text><text xml:space="preserve" font-family="Helvetica-Light,Helvetica" font-size="20.0" fill="#52575F" transform="matrix(1.00, 0.00, -0.00, -1.00, 55.4, 57.7)">n</text><text xml:space="preserve" font-family="Helvetica-Light,Helvetica" font-size="20.0" fill="#52575F" transform="matrix(1.00, 0.00, -0.00, -1.00, 66.5, 57.7)">g</text><text xml:space="preserve" font-family="Helvetica-Light,Helvetica" font-size="20.0" fill="#52575F" transform="matrix(1.00, 0.00, -0.00, -1.00, 78.7, 57.7)">e</text><text xml:space="preserve" font-family="Helvetica-Light,Helvetica" font-size="20.0" fill="#52575F" transform="matrix(1.00, 0.00, -0.00, -1.00, 89.8, 57.7)"> </text><text xml:space="preserve" font-family="Helvetica-Light,Helvetica" font-size="20.0" fill="#52575F" transform="matrix(1.00, 0.00, -0.00, -1.00, 18.7, 33.7)">q</text><text xml:space="preserve" font-family="Helvetica-Light,Helvetica" font-size="20.0" fill="#52575F" transform="matrix(1.00, 0.00, -0.00, -1.00, 30.9, 33.7)">u</text><text xml:space="preserve" font-family="Helvetica-Light,Helvetica" font-size="20.0" fill="#52575F" transform="matrix(1.00, 0.00, -0.00, -1.00, 42.0, 33.7)">a</text><text xml:space="preserve" font-family="Helvetica-Light,Helvetica" font-size="20.0" fill="#52575F" transform="matrix(1.00, 0.00, -0.00, -1.00, 53.1, 33.7)">n</text><text xml:space="preserve" font-family="Helvetica-Light,Helvetica" font-size="20.0" fill="#52575F" transform="matrix(1.00, 0.00, -0.00, -1.00, 64.3, 33.7)">t</text><text xml:space="preserve" font-family="Helvetica-Light,Helvetica" font-size="20.0" fill="#52575F" transform="matrix(1.00, 0.00, -0.00, -1.00, 69.8, 33.7)">i</text><text xml:space="preserve" font-family="Helvetica-Light,Helvetica" font-size="20.0" fill="#52575F" transform="matrix(1.00, 0.00, -0.00, -1.00, 74.3, 33.7)">t</text><text xml:space="preserve" font-family="Helvetica-Light,Helvetica" font-size="20.0" fill="#52575F" transform="matrix(1.00, 0.00, -0.00, -1.00, 79.8, 33.7)">y</text></g></g></g></svg>