<?xml version="1.0" encoding="UTF-8" standalone="no"?><svg xmlns="http://www.w3.org/2000/svg" xmlns:xlink="http://www.w3.org/1999/xlink" clip-rule="evenodd" stroke-miterlimit="10" viewBox="0 0 708 98"><desc>SVG generated by Keynote</desc><defs></defs><g transform="matrix(1.00, 0.00, -0.00, -1.00, 0.0, 98.0)"><g><clipPath id="clip0x6000028a12c0"><path d="M 0.2 1.2 L 172.5 1.2 L 172.5 68.5 L 0.2 68.5 Z M 0.2 1.2 "></path></clipPath><g clip-path="url(#clip0x6000028a12c0)"><path d="M 0.0 63.5 C 56.4 -21.3 112.6 -21.2 168.7 63.8 " fill="none" stroke="#FF456F" stroke-width="2.00" stroke-dasharray="2.0, 2.0" transform="matrix(1.00, 0.00, 0.00, -1.00, 2.0, 66.5)"></path></g></g><g><clipPath id="clip0x6000028a14a0"><path d="M 5.5 0.9 L 347.7 0.9 L 347.7 69.0 L 5.5 69.0 Z M 5.5 0.9 "></path></clipPath><g clip-path="url(#clip0x6000028a14a0)"><path d="M 0.0 63.0 C 113.3 -21.4 226.3 -21.0 339.0 64.3 " fill="none" stroke="#FF456F" stroke-width="2.00" stroke-dasharray="2.0, 2.0" transform="matrix(1.00, 0.00, 0.00, -1.00, 7.1, 67.0)"></path></g></g><g><clipPath id="clip0x6000028a16e0"><path d="M 5.4 0.7 L 519.7 0.7 L 519.7 69.7 L 5.4 69.7 Z M 5.4 0.7 "></path></clipPath><g clip-path="url(#clip0x6000028a16e0)"><path d="M 0.0 62.2 C 170.9 -21.7 341.4 -20.7 511.4 65.1 " fill="none" stroke="#FF456F" stroke-width="2.00" stroke-dasharray="2.0, 2.0" transform="matrix(1.00, 0.00, 0.00, -1.00, 6.9, 67.7)"></path></g></g><g><clipPath id="clip0x6000028a1920"><path d="M 6.8 0.3 L 707.8 0.3 L 707.8 70.3 L 6.8 70.3 Z M 6.8 0.3 "></path></clipPath><g clip-path="url(#clip0x6000028a1920)"><path d="M 0.0 61.2 C 233.3 -22.0 466.1 -20.4 698.3 66.1 " fill="none" stroke="#FF456F" stroke-width="2.00" stroke-dasharray="2.0, 2.0" transform="matrix(1.00, 0.00, 0.00, -1.00, 8.2, 68.3)"></path></g></g><g><clipPath id="clip0x6000028a1b60"><path d="M 487.1 78.6 L 314.4 78.6 L 314.4 97.4 L 487.1 97.4 Z M 487.1 78.6 "></path></clipPath><g clip-path="url(#clip0x6000028a1b60)"><path d="M 0.1 -0.0 L 154.0 -0.0 L 156.1 -0.0 " fill="none" stroke="#FF456F" stroke-width="4.00" transform="matrix(-1.00, 0.00, 0.00, 1.00, 486.1, 88.0)"></path><path d="M 332.0 96.4 L 315.2 88.0 L 332.0 79.6 Z M 332.0 96.4 " fill="#FF456F"></path></g></g></g></svg>