<?xml version="1.0" encoding="UTF-8" standalone="no"?><svg xmlns="http://www.w3.org/2000/svg" xmlns:xlink="http://www.w3.org/1999/xlink" clip-rule="evenodd" stroke-miterlimit="10" viewBox="0 0 1024 768"><desc>SVG generated by Keynote</desc><defs></defs><g transform="matrix(1.00, 0.00, -0.00, -1.00, 0.0, 768.0)"><path d="M 0.0 768.0 L 1024.0 768.0 L 1024.0 0.0 L 0.0 0.0 Z M 0.0 768.0 " fill="#000000"></path><path d="M 113.7 448.7 C 134.1 428.3 134.1 395.2 113.7 374.8 C 93.3 354.4 60.2 354.4 39.8 374.8 C 19.4 395.2 19.4 428.3 39.8 448.7 C 60.2 469.1 93.3 469.1 113.7 448.7 Z M 113.7 448.7 " fill="#FEFFFE"></path><g><clipPath id="clip0x6000028bbd80"><path d="M 24.5 359.5 L 129.0 359.5 L 129.0 464.0 L 24.5 464.0 Z M 24.5 359.5 "></path></clipPath><g clip-path="url(#clip0x6000028bbd80)"><text xml:space="preserve" font-family="Helvetica-Light,Helvetica" font-size="26.0" fill="#52575F" transform="matrix(1.00, 0.00, -0.00, -1.00, 42.1, 402.0)">H</text><text xml:space="preserve" font-family="Helvetica-Light,Helvetica" font-size="26.0" fill="#52575F" transform="matrix(1.00, 0.00, -0.00, -1.00, 60.8, 402.0)">o</text><text xml:space="preserve" font-family="Helvetica-Light,Helvetica" font-size="26.0" fill="#52575F" transform="matrix(1.00, 0.00, -0.00, -1.00, 75.3, 402.0)">m</text><text xml:space="preserve" font-family="Helvetica-Light,Helvetica" font-size="26.0" fill="#52575F" transform="matrix(1.00, 0.00, -0.00, -1.00, 97.0, 402.0)">e</text></g></g><path d="M 461.7 440.7 C 482.1 420.3 482.1 387.2 461.7 366.8 C 441.3 346.4 408.2 346.4 387.8 366.8 C 367.4 387.2 367.4 420.3 387.8 440.7 C 408.2 461.1 441.3 461.1 461.7 440.7 Z M 461.7 440.7 " fill="#FEFFFE"></path><g><clipPath id="clip0x6000028bc1a0"><path d="M 372.5 351.5 L 477.0 351.5 L 477.0 456.0 L 372.5 456.0 Z M 372.5 351.5 "></path></clipPath><g clip-path="url(#clip0x6000028bc1a0)"><text xml:space="preserve" font-family="Helvetica-Light,Helvetica" font-size="20.0" fill="#52575F" transform="matrix(1.00, 0.00, -0.00, -1.00, 381.6, 395.8)">P</text><text xml:space="preserve" font-family="Helvetica-Light,Helvetica" font-size="20.0" fill="#52575F" transform="matrix(1.00, 0.00, -0.00, -1.00, 393.8, 395.8)">r</text><text xml:space="preserve" font-family="Helvetica-Light,Helvetica" font-size="20.0" fill="#52575F" transform="matrix(1.00, 0.00, -0.00, -1.00, 400.1, 395.8)">o</text><text xml:space="preserve" font-family="Helvetica-Light,Helvetica" font-size="20.0" fill="#52575F" transform="matrix(1.00, 0.00, -0.00, -1.00, 411.2, 395.8)">d</text><text xml:space="preserve" font-family="Helvetica-Light,Helvetica" font-size="20.0" fill="#52575F" transform="matrix(1.00, 0.00, -0.00, -1.00, 423.4, 395.8)">u</text><text xml:space="preserve" font-family="Helvetica-Light,Helvetica" font-size="20.0" fill="#52575F" transform="matrix(1.00, 0.00, -0.00, -1.00, 434.6, 395.8)">c</text><text xml:space="preserve" font-family="Helvetica-Light,Helvetica" font-size="20.0" fill="#52575F" transform="matrix(1.00, 0.00, -0.00, -1.00, 445.7, 395.8)">t</text><text xml:space="preserve" font-family="Helvetica-Light,Helvetica" font-size="20.0" fill="#52575F" transform="matrix(1.00, 0.00, -0.00, -1.00, 451.2, 395.8)"> </text><text xml:space="preserve" font-family="Helvetica-Light,Helvetica" font-size="20.0" fill="#52575F" transform="matrix(1.00, 0.00, -0.00, -1.00, 456.8, 395.8)">2</text></g></g><path d="M 287.7 440.7 C 308.1 420.3 308.1 387.2 287.7 366.8 C 267.3 346.4 234.2 346.4 213.8 366.8 C 193.4 387.2 193.4 420.3 213.8 440.7 C 234.2 461.1 267.3 461.1 287.7 440.7 Z M 287.7 440.7 " fill="#FEFFFE"></path><g><clipPath id="clip0x6000028bc7a0"><path d="M 198.5 351.5 L 303.0 351.5 L 303.0 456.0 L 198.5 456.0 Z M 198.5 351.5 "></path></clipPath><g clip-path="url(#clip0x6000028bc7a0)"><text xml:space="preserve" font-family="Helvetica-Light,Helvetica" font-size="20.0" fill="#52575F" transform="matrix(1.00, 0.00, -0.00, -1.00, 224.1, 408.3)">L</text><text xml:space="preserve" font-family="Helvetica-Light,Helvetica" font-size="20.0" fill="#52575F" transform="matrix(1.00, 0.00, -0.00, -1.00, 235.2, 408.3)">i</text><text xml:space="preserve" font-family="Helvetica-Light,Helvetica" font-size="20.0" fill="#52575F" transform="matrix(1.00, 0.00, -0.00, -1.00, 239.6, 408.3)">s</text><text xml:space="preserve" font-family="Helvetica-Light,Helvetica" font-size="20.0" fill="#52575F" transform="matrix(1.00, 0.00, -0.00, -1.00, 249.6, 408.3)">t</text><text xml:space="preserve" font-family="Helvetica-Light,Helvetica" font-size="20.0" fill="#52575F" transform="matrix(1.00, 0.00, -0.00, -1.00, 255.2, 408.3)"> </text><text xml:space="preserve" font-family="Helvetica-Light,Helvetica" font-size="20.0" fill="#52575F" transform="matrix(1.00, 0.00, -0.00, -1.00, 260.7, 408.3)">o</text><text xml:space="preserve" font-family="Helvetica-Light,Helvetica" font-size="20.0" fill="#52575F" transform="matrix(1.00, 0.00, -0.00, -1.00, 271.9, 408.3)">f</text><text xml:space="preserve" font-family="Helvetica-Light,Helvetica" font-size="20.0" fill="#52575F" transform="matrix(1.00, 0.00, -0.00, -1.00, 277.4, 408.3)"> </text><text xml:space="preserve" font-family="Helvetica-Light,Helvetica" font-size="20.0" fill="#52575F" transform="matrix(1.00, 0.00, -0.00, -1.00, 210.9, 384.3)">p</text><text xml:space="preserve" font-family="Helvetica-Light,Helvetica" font-size="20.0" fill="#52575F" transform="matrix(1.00, 0.00, -0.00, -1.00, 223.1, 384.3)">r</text><text xml:space="preserve" font-family="Helvetica-Light,Helvetica" font-size="20.0" fill="#52575F" transform="matrix(1.00, 0.00, -0.00, -1.00, 229.4, 384.3)">o</text><text xml:space="preserve" font-family="Helvetica-Light,Helvetica" font-size="20.0" fill="#52575F" transform="matrix(1.00, 0.00, -0.00, -1.00, 240.6, 384.3)">d</text><text xml:space="preserve" font-family="Helvetica-Light,Helvetica" font-size="20.0" fill="#52575F" transform="matrix(1.00, 0.00, -0.00, -1.00, 252.8, 384.3)">u</text><text xml:space="preserve" font-family="Helvetica-Light,Helvetica" font-size="20.0" fill="#52575F" transform="matrix(1.00, 0.00, -0.00, -1.00, 263.9, 384.3)">c</text><text xml:space="preserve" font-family="Helvetica-Light,Helvetica" font-size="20.0" fill="#52575F" transform="matrix(1.00, 0.00, -0.00, -1.00, 275.0, 384.3)">t</text><text xml:space="preserve" font-family="Helvetica-Light,Helvetica" font-size="20.0" fill="#52575F" transform="matrix(1.00, 0.00, -0.00, -1.00, 280.6, 384.3)">s</text></g></g><path d="M 635.7 440.7 C 656.1 420.3 656.1 387.2 635.7 366.8 C 615.3 346.4 582.2 346.4 561.8 366.8 C 541.4 387.2 541.4 420.3 561.8 440.7 C 582.2 461.1 615.3 461.1 635.7 440.7 Z M 635.7 440.7 " fill="#FEFFFE"></path><g><clipPath id="clip0x6000028bd040"><path d="M 546.5 351.5 L 651.0 351.5 L 651.0 456.0 L 546.5 456.0 Z M 546.5 351.5 "></path></clipPath><g clip-path="url(#clip0x6000028bd040)"><text xml:space="preserve" font-family="Helvetica-Light,Helvetica" font-size="20.0" fill="#52575F" transform="matrix(1.00, 0.00, -0.00, -1.00, 579.9, 419.9)">A</text><text xml:space="preserve" font-family="Helvetica-Light,Helvetica" font-size="20.0" fill="#52575F" transform="matrix(1.00, 0.00, -0.00, -1.00, 593.2, 419.9)">d</text><text xml:space="preserve" font-family="Helvetica-Light,Helvetica" font-size="20.0" fill="#52575F" transform="matrix(1.00, 0.00, -0.00, -1.00, 605.4, 419.9)">d</text><text xml:space="preserve" font-family="Helvetica-Light,Helvetica" font-size="20.0" fill="#52575F" transform="matrix(1.00, 0.00, -0.00, -1.00, 617.6, 419.9)"> </text><text xml:space="preserve" font-family="Helvetica-Light,Helvetica" font-size="20.0" fill="#52575F" transform="matrix(1.00, 0.00, -0.00, -1.00, 555.6, 395.9)">p</text><text xml:space="preserve" font-family="Helvetica-Light,Helvetica" font-size="20.0" fill="#52575F" transform="matrix(1.00, 0.00, -0.00, -1.00, 567.8, 395.9)">r</text><text xml:space="preserve" font-family="Helvetica-Light,Helvetica" font-size="20.0" fill="#52575F" transform="matrix(1.00, 0.00, -0.00, -1.00, 574.1, 395.9)">o</text><text xml:space="preserve" font-family="Helvetica-Light,Helvetica" font-size="20.0" fill="#52575F" transform="matrix(1.00, 0.00, -0.00, -1.00, 585.2, 395.9)">d</text><text xml:space="preserve" font-family="Helvetica-Light,Helvetica" font-size="20.0" fill="#52575F" transform="matrix(1.00, 0.00, -0.00, -1.00, 597.4, 395.9)">u</text><text xml:space="preserve" font-family="Helvetica-Light,Helvetica" font-size="20.0" fill="#52575F" transform="matrix(1.00, 0.00, -0.00, -1.00, 608.6, 395.9)">c</text><text xml:space="preserve" font-family="Helvetica-Light,Helvetica" font-size="20.0" fill="#52575F" transform="matrix(1.00, 0.00, -0.00, -1.00, 619.7, 395.9)">t</text><text xml:space="preserve" font-family="Helvetica-Light,Helvetica" font-size="20.0" fill="#52575F" transform="matrix(1.00, 0.00, -0.00, -1.00, 625.2, 395.9)"> </text><text xml:space="preserve" font-family="Helvetica-Light,Helvetica" font-size="20.0" fill="#52575F" transform="matrix(1.00, 0.00, -0.00, -1.00, 630.8, 395.9)">2</text><text xml:space="preserve" font-family="Helvetica-Light,Helvetica" font-size="20.0" fill="#52575F" transform="matrix(1.00, 0.00, -0.00, -1.00, 641.9, 395.9)"> </text><text xml:space="preserve" font-family="Helvetica-Light,Helvetica" font-size="20.0" fill="#52575F" transform="matrix(1.00, 0.00, -0.00, -1.00, 570.2, 371.9)">t</text><text xml:space="preserve" font-family="Helvetica-Light,Helvetica" font-size="20.0" fill="#52575F" transform="matrix(1.00, 0.00, -0.00, -1.00, 575.8, 371.9)">o</text><text xml:space="preserve" font-family="Helvetica-Light,Helvetica" font-size="20.0" fill="#52575F" transform="matrix(1.00, 0.00, -0.00, -1.00, 586.9, 371.9)"> </text><text xml:space="preserve" font-family="Helvetica-Light,Helvetica" font-size="20.0" fill="#52575F" transform="matrix(1.00, 0.00, -0.00, -1.00, 592.5, 371.9)">c</text><text xml:space="preserve" font-family="Helvetica-Light,Helvetica" font-size="20.0" fill="#52575F" transform="matrix(1.00, 0.00, -0.00, -1.00, 603.6, 371.9)">a</text><text xml:space="preserve" font-family="Helvetica-Light,Helvetica" font-size="20.0" fill="#52575F" transform="matrix(1.00, 0.00, -0.00, -1.00, 614.7, 371.9)">r</text><text xml:space="preserve" font-family="Helvetica-Light,Helvetica" font-size="20.0" fill="#52575F" transform="matrix(1.00, 0.00, -0.00, -1.00, 621.7, 371.9)">t</text></g></g><path d="M 809.7 442.1 C 830.1 421.7 830.1 388.6 809.7 368.2 C 789.3 347.8 756.2 347.8 735.8 368.2 C 715.4 388.6 715.4 421.7 735.8 442.1 C 756.2 462.5 789.3 462.5 809.7 442.1 Z M 809.7 442.1 " fill="#FEFFFE"></path><g><clipPath id="clip0x6000028bdac0"><path d="M 720.5 352.9 L 825.0 352.9 L 825.0 457.4 L 720.5 457.4 Z M 720.5 352.9 "></path></clipPath><g clip-path="url(#clip0x6000028bdac0)"><text xml:space="preserve" font-family="Helvetica-Light,Helvetica" font-size="20.0" fill="#52575F" transform="matrix(1.00, 0.00, -0.00, -1.00, 731.6, 397.4)">V</text><text xml:space="preserve" font-family="Helvetica-Light,Helvetica" font-size="20.0" fill="#52575F" transform="matrix(1.00, 0.00, -0.00, -1.00, 743.5, 397.4)">i</text><text xml:space="preserve" font-family="Helvetica-Light,Helvetica" font-size="20.0" fill="#52575F" transform="matrix(1.00, 0.00, -0.00, -1.00, 747.9, 397.4)">e</text><text xml:space="preserve" font-family="Helvetica-Light,Helvetica" font-size="20.0" fill="#52575F" transform="matrix(1.00, 0.00, -0.00, -1.00, 759.0, 397.4)">w</text><text xml:space="preserve" font-family="Helvetica-Light,Helvetica" font-size="20.0" fill="#52575F" transform="matrix(1.00, 0.00, -0.00, -1.00, 773.5, 397.4)"> </text><text xml:space="preserve" font-family="Helvetica-Light,Helvetica" font-size="20.0" fill="#52575F" transform="matrix(1.00, 0.00, -0.00, -1.00, 779.0, 397.4)">c</text><text xml:space="preserve" font-family="Helvetica-Light,Helvetica" font-size="20.0" fill="#52575F" transform="matrix(1.00, 0.00, -0.00, -1.00, 790.2, 397.4)">a</text><text xml:space="preserve" font-family="Helvetica-Light,Helvetica" font-size="20.0" fill="#52575F" transform="matrix(1.00, 0.00, -0.00, -1.00, 801.3, 397.4)">r</text><text xml:space="preserve" font-family="Helvetica-Light,Helvetica" font-size="20.0" fill="#52575F" transform="matrix(1.00, 0.00, -0.00, -1.00, 808.3, 397.4)">t</text></g></g><path d="M 983.7 440.7 C 1004.1 420.3 1004.1 387.2 983.7 366.8 C 963.3 346.4 930.2 346.4 909.8 366.8 C 889.4 387.2 889.4 420.3 909.8 440.7 C 930.2 461.1 963.3 461.1 983.7 440.7 Z M 983.7 440.7 " fill="#FEFFFE"></path><g><clipPath id="clip0x6000028be0c0"><path d="M 894.5 351.5 L 999.0 351.5 L 999.0 456.0 L 894.5 456.0 Z M 894.5 351.5 "></path></clipPath><g clip-path="url(#clip0x6000028be0c0)"><text xml:space="preserve" font-family="Helvetica-Light,Helvetica" font-size="20.0" fill="#52575F" transform="matrix(1.00, 0.00, -0.00, -1.00, 903.9, 395.8)">C</text><text xml:space="preserve" font-family="Helvetica-Light,Helvetica" font-size="20.0" fill="#52575F" transform="matrix(1.00, 0.00, -0.00, -1.00, 918.4, 395.8)">h</text><text xml:space="preserve" font-family="Helvetica-Light,Helvetica" font-size="20.0" fill="#52575F" transform="matrix(1.00, 0.00, -0.00, -1.00, 929.5, 395.8)">e</text><text xml:space="preserve" font-family="Helvetica-Light,Helvetica" font-size="20.0" fill="#52575F" transform="matrix(1.00, 0.00, -0.00, -1.00, 940.6, 395.8)">c</text><text xml:space="preserve" font-family="Helvetica-Light,Helvetica" font-size="20.0" fill="#52575F" transform="matrix(1.00, 0.00, -0.00, -1.00, 951.7, 395.8)">k</text><text xml:space="preserve" font-family="Helvetica-Light,Helvetica" font-size="20.0" fill="#52575F" transform="matrix(1.00, 0.00, -0.00, -1.00, 961.7, 395.8)">o</text><text xml:space="preserve" font-family="Helvetica-Light,Helvetica" font-size="20.0" fill="#52575F" transform="matrix(1.00, 0.00, -0.00, -1.00, 972.9, 395.8)">u</text><text xml:space="preserve" font-family="Helvetica-Light,Helvetica" font-size="20.0" fill="#52575F" transform="matrix(1.00, 0.00, -0.00, -1.00, 984.0, 395.8)">t</text></g></g><path d="M 722.7 274.8 C 743.1 254.4 743.1 221.3 722.7 200.9 C 702.3 180.5 669.2 180.5 648.8 200.9 C 628.4 221.3 628.4 254.4 648.8 274.8 C 669.2 295.2 702.3 295.2 722.7 274.8 Z M 722.7 274.8 " fill="#FEFFFE"></path><g><clipPath id="clip0x6000028be660"><path d="M 633.5 185.6 L 738.0 185.6 L 738.0 290.1 L 633.5 290.1 Z M 633.5 185.6 "></path></clipPath><g clip-path="url(#clip0x6000028be660)"><text xml:space="preserve" font-family="Helvetica-Light,Helvetica" font-size="20.0" fill="#52575F" transform="matrix(1.00, 0.00, -0.00, -1.00, 649.1, 242.5)">R</text><text xml:space="preserve" font-family="Helvetica-Light,Helvetica" font-size="20.0" fill="#52575F" transform="matrix(1.00, 0.00, -0.00, -1.00, 662.4, 242.5)">e</text><text xml:space="preserve" font-family="Helvetica-Light,Helvetica" font-size="20.0" fill="#52575F" transform="matrix(1.00, 0.00, -0.00, -1.00, 673.5, 242.5)">m</text><text xml:space="preserve" font-family="Helvetica-Light,Helvetica" font-size="20.0" fill="#52575F" transform="matrix(1.00, 0.00, -0.00, -1.00, 690.2, 242.5)">o</text><text xml:space="preserve" font-family="Helvetica-Light,Helvetica" font-size="20.0" fill="#52575F" transform="matrix(1.00, 0.00, -0.00, -1.00, 701.3, 242.5)">v</text><text xml:space="preserve" font-family="Helvetica-Light,Helvetica" font-size="20.0" fill="#52575F" transform="matrix(1.00, 0.00, -0.00, -1.00, 711.3, 242.5)">e</text><text xml:space="preserve" font-family="Helvetica-Light,Helvetica" font-size="20.0" fill="#52575F" transform="matrix(1.00, 0.00, -0.00, -1.00, 722.4, 242.5)"> </text><text xml:space="preserve" font-family="Helvetica-Light,Helvetica" font-size="20.0" fill="#52575F" transform="matrix(1.00, 0.00, -0.00, -1.00, 645.7, 218.5)">f</text><text xml:space="preserve" font-family="Helvetica-Light,Helvetica" font-size="20.0" fill="#52575F" transform="matrix(1.00, 0.00, -0.00, -1.00, 651.3, 218.5)">r</text><text xml:space="preserve" font-family="Helvetica-Light,Helvetica" font-size="20.0" fill="#52575F" transform="matrix(1.00, 0.00, -0.00, -1.00, 657.6, 218.5)">o</text><text xml:space="preserve" font-family="Helvetica-Light,Helvetica" font-size="20.0" fill="#52575F" transform="matrix(1.00, 0.00, -0.00, -1.00, 668.7, 218.5)">m</text><text xml:space="preserve" font-family="Helvetica-Light,Helvetica" font-size="20.0" fill="#52575F" transform="matrix(1.00, 0.00, -0.00, -1.00, 685.4, 218.5)"> </text><text xml:space="preserve" font-family="Helvetica-Light,Helvetica" font-size="20.0" fill="#52575F" transform="matrix(1.00, 0.00, -0.00, -1.00, 690.9, 218.5)">c</text><text xml:space="preserve" font-family="Helvetica-Light,Helvetica" font-size="20.0" fill="#52575F" transform="matrix(1.00, 0.00, -0.00, -1.00, 702.1, 218.5)">a</text><text xml:space="preserve" font-family="Helvetica-Light,Helvetica" font-size="20.0" fill="#52575F" transform="matrix(1.00, 0.00, -0.00, -1.00, 713.2, 218.5)">r</text><text xml:space="preserve" font-family="Helvetica-Light,Helvetica" font-size="20.0" fill="#52575F" transform="matrix(1.00, 0.00, -0.00, -1.00, 720.2, 218.5)">t</text></g></g><path d="M 863.2 271.7 C 883.6 251.3 883.6 218.2 863.2 197.8 C 842.8 177.4 809.7 177.4 789.3 197.8 C 768.9 218.2 768.9 251.3 789.3 271.7 C 809.7 292.1 842.8 292.1 863.2 271.7 Z M 863.2 271.7 " fill="#FEFFFE"></path><g><clipPath id="clip0x6000028bef00"><path d="M 774.0 182.5 L 878.5 182.5 L 878.5 287.0 L 774.0 287.0 Z M 774.0 182.5 "></path></clipPath><g clip-path="url(#clip0x6000028bef00)"><text xml:space="preserve" font-family="Helvetica-Light,Helvetica" font-size="20.0" fill="#52575F" transform="matrix(1.00, 0.00, -0.00, -1.00, 790.7, 238.7)">C</text><text xml:space="preserve" font-family="Helvetica-Light,Helvetica" font-size="20.0" fill="#52575F" transform="matrix(1.00, 0.00, -0.00, -1.00, 805.1, 238.7)">h</text><text xml:space="preserve" font-family="Helvetica-Light,Helvetica" font-size="20.0" fill="#52575F" transform="matrix(1.00, 0.00, -0.00, -1.00, 816.2, 238.7)">a</text><text xml:space="preserve" font-family="Helvetica-Light,Helvetica" font-size="20.0" fill="#52575F" transform="matrix(1.00, 0.00, -0.00, -1.00, 827.4, 238.7)">n</text><text xml:space="preserve" font-family="Helvetica-Light,Helvetica" font-size="20.0" fill="#52575F" transform="matrix(1.00, 0.00, -0.00, -1.00, 838.5, 238.7)">g</text><text xml:space="preserve" font-family="Helvetica-Light,Helvetica" font-size="20.0" fill="#52575F" transform="matrix(1.00, 0.00, -0.00, -1.00, 850.7, 238.7)">e</text><text xml:space="preserve" font-family="Helvetica-Light,Helvetica" font-size="20.0" fill="#52575F" transform="matrix(1.00, 0.00, -0.00, -1.00, 861.8, 238.7)"> </text><text xml:space="preserve" font-family="Helvetica-Light,Helvetica" font-size="20.0" fill="#52575F" transform="matrix(1.00, 0.00, -0.00, -1.00, 790.7, 214.7)">q</text><text xml:space="preserve" font-family="Helvetica-Light,Helvetica" font-size="20.0" fill="#52575F" transform="matrix(1.00, 0.00, -0.00, -1.00, 802.9, 214.7)">u</text><text xml:space="preserve" font-family="Helvetica-Light,Helvetica" font-size="20.0" fill="#52575F" transform="matrix(1.00, 0.00, -0.00, -1.00, 814.0, 214.7)">a</text><text xml:space="preserve" font-family="Helvetica-Light,Helvetica" font-size="20.0" fill="#52575F" transform="matrix(1.00, 0.00, -0.00, -1.00, 825.1, 214.7)">n</text><text xml:space="preserve" font-family="Helvetica-Light,Helvetica" font-size="20.0" fill="#52575F" transform="matrix(1.00, 0.00, -0.00, -1.00, 836.3, 214.7)">t</text><text xml:space="preserve" font-family="Helvetica-Light,Helvetica" font-size="20.0" fill="#52575F" transform="matrix(1.00, 0.00, -0.00, -1.00, 841.8, 214.7)">i</text><text xml:space="preserve" font-family="Helvetica-Light,Helvetica" font-size="20.0" fill="#52575F" transform="matrix(1.00, 0.00, -0.00, -1.00, 846.3, 214.7)">t</text><text xml:space="preserve" font-family="Helvetica-Light,Helvetica" font-size="20.0" fill="#52575F" transform="matrix(1.00, 0.00, -0.00, -1.00, 851.8, 214.7)">y</text></g></g><path d="M 0.0 0.0 L 25.2 0.0 L 26.2 0.0 " fill="none" stroke="#FF456F" stroke-width="2.00" stroke-dasharray="2.0, 2.0" transform="matrix(1.00, -0.03, -0.03, -1.00, 146.4, 404.5)"></path><path d="M 171.4 399.0 L 181.2 403.5 L 171.7 408.5 Z M 171.4 399.0 " fill="#FF456F"></path><path d="M 0.0 0.0 L 25.2 0.0 L 26.2 0.0 " fill="none" stroke="#FF456F" stroke-width="2.00" stroke-dasharray="2.0, 2.0" transform="matrix(1.00, -0.03, -0.03, -1.00, 320.4, 404.5)"></path><path d="M 345.4 399.0 L 355.2 403.5 L 345.7 408.5 Z M 345.4 399.0 " fill="#FF456F"></path><path d="M 0.0 0.0 L 25.2 0.0 L 26.2 0.0 " fill="none" stroke="#FF456F" stroke-width="2.00" stroke-dasharray="2.0, 2.0" transform="matrix(1.00, -0.03, -0.03, -1.00, 494.4, 404.5)"></path><path d="M 519.4 399.0 L 529.2 403.5 L 519.7 408.5 Z M 519.4 399.0 " fill="#FF456F"></path><path d="M 0.0 0.0 L 25.2 0.0 L 26.2 0.0 " fill="none" stroke="#FF456F" stroke-width="2.00" stroke-dasharray="2.0, 2.0" transform="matrix(1.00, -0.03, -0.03, -1.00, 668.4, 404.5)"></path><path d="M 693.4 399.0 L 703.2 403.5 L 693.7 408.5 Z M 693.4 399.0 " fill="#FF456F"></path><path d="M 0.0 0.0 L 25.2 0.0 L 26.2 0.0 " fill="none" stroke="#FF456F" stroke-width="2.00" stroke-dasharray="2.0, 2.0" transform="matrix(1.00, -0.03, -0.03, -1.00, 842.4, 404.5)"></path><path d="M 867.4 399.0 L 877.2 403.5 L 867.7 408.5 Z M 867.4 399.0 " fill="#FF456F"></path><path d="M 0.0 0.0 L 41.1 0.0 L 42.1 0.0 " fill="none" stroke="#FF456F" stroke-width="2.00" stroke-dasharray="2.0, 2.0" transform="matrix(-0.47, -0.88, -0.88, 0.47, 740.8, 348.8)"></path><path d="M 717.2 314.9 L 716.8 304.2 L 725.6 310.4 Z M 717.2 314.9 " fill="#FF456F"></path><path d="M 0.0 0.0 L 36.8 0.0 L 37.8 0.0 " fill="none" stroke="#FF456F" stroke-width="2.00" stroke-dasharray="2.0, 2.0" transform="matrix(0.31, -0.95, -0.95, -0.31, 798.0, 343.7)"></path><path d="M 804.9 307.3 L 812.4 299.6 L 814.0 310.2 Z M 804.9 307.3 " fill="#FF456F"></path><path d="M 0.0 0.0 L 42.0 0.0 L 43.0 0.0 " fill="none" stroke="#FF456F" stroke-width="2.00" stroke-dasharray="2.0, 2.0" transform="matrix(0.51, 0.86, 0.86, -0.51, 729.2, 299.5)"></path><path d="M 754.5 333.3 L 755.2 344.1 L 746.3 338.2 Z M 754.5 333.3 " fill="#FF456F"></path><path d="M 0.0 0.0 L 48.2 0.0 L 49.2 0.0 " fill="none" stroke="#FF456F" stroke-width="2.00" stroke-dasharray="2.0, 2.0" transform="matrix(-0.34, 0.94, 0.94, 0.34, 824.1, 299.7)"></path><path d="M 812.4 346.7 L 804.6 354.1 L 803.3 343.5 Z M 812.4 346.7 " fill="#FF456F"></path><text xml:space="preserve" font-family="ProximaNova-Regular,Proxima Nova" font-size="36.0" fill="#FF456F" transform="matrix(1.00, 0.00, -0.00, -1.00, 279.5, 658.1)">M</text><text xml:space="preserve" font-family="ProximaNova-Regular,Proxima Nova" font-size="36.0" fill="#FF456F" transform="matrix(1.00, 0.00, -0.00, -1.00, 308.6, 658.1)">a</text><text xml:space="preserve" font-family="ProximaNova-Regular,Proxima Nova" font-size="36.0" fill="#FF456F" transform="matrix(1.00, 0.00, -0.00, -1.00, 327.6, 658.1)">n</text><text xml:space="preserve" font-family="ProximaNova-Regular,Proxima Nova" font-size="36.0" fill="#FF456F" transform="matrix(1.00, 0.00, -0.00, -1.00, 347.5, 658.1)">a</text><text xml:space="preserve" font-family="ProximaNova-Regular,Proxima Nova" font-size="36.0" fill="#FF456F" transform="matrix(1.00, 0.00, -0.00, -1.00, 366.5, 658.1)">g</text><text xml:space="preserve" font-family="ProximaNova-Regular,Proxima Nova" font-size="36.0" fill="#FF456F" transform="matrix(1.00, 0.00, -0.00, -1.00, 387.2, 658.1)">i</text><text xml:space="preserve" font-family="ProximaNova-Regular,Proxima Nova" font-size="36.0" fill="#FF456F" transform="matrix(1.00, 0.00, -0.00, -1.00, 395.3, 658.1)">n</text><text xml:space="preserve" font-family="ProximaNova-Regular,Proxima Nova" font-size="36.0" fill="#FF456F" transform="matrix(1.00, 0.00, -0.00, -1.00, 415.2, 658.1)">g</text><text xml:space="preserve" font-family="ProximaNova-Regular,Proxima Nova" font-size="36.0" fill="#FF456F" transform="matrix(1.00, 0.00, -0.00, -1.00, 435.9, 658.1)"> </text><text xml:space="preserve" font-family="ProximaNova-Regular,Proxima Nova" font-size="36.0" fill="#FF456F" transform="matrix(1.00, 0.00, -0.00, -1.00, 445.2, 658.1)">A</text><text xml:space="preserve" font-family="ProximaNova-Regular,Proxima Nova" font-size="36.0" fill="#FF456F" transform="matrix(1.00, 0.00, -0.00, -1.00, 468.9, 658.1)">p</text><text xml:space="preserve" font-family="ProximaNova-Regular,Proxima Nova" font-size="36.0" fill="#FF456F" transform="matrix(1.00, 0.00, -0.00, -1.00, 489.5, 658.1)">p</text><text xml:space="preserve" font-family="ProximaNova-Regular,Proxima Nova" font-size="36.0" fill="#FF456F" transform="matrix(1.00, 0.00, -0.00, -1.00, 510.1, 658.1)">l</text><text xml:space="preserve" font-family="ProximaNova-Regular,Proxima Nova" font-size="36.0" fill="#FF456F" transform="matrix(1.00, 0.00, -0.00, -1.00, 518.2, 658.1)">i</text><text xml:space="preserve" font-family="ProximaNova-Regular,Proxima Nova" font-size="36.0" fill="#FF456F" transform="matrix(1.00, 0.00, -0.00, -1.00, 526.3, 658.1)">c</text><text xml:space="preserve" font-family="ProximaNova-Regular,Proxima Nova" font-size="36.0" fill="#FF456F" transform="matrix(1.00, 0.00, -0.00, -1.00, 544.1, 658.1)">a</text><text xml:space="preserve" font-family="ProximaNova-Regular,Proxima Nova" font-size="36.0" fill="#FF456F" transform="matrix(1.00, 0.00, -0.00, -1.00, 563.1, 658.1)">t</text><text xml:space="preserve" font-family="ProximaNova-Regular,Proxima Nova" font-size="36.0" fill="#FF456F" transform="matrix(1.00, 0.00, -0.00, -1.00, 573.7, 658.1)">i</text><text xml:space="preserve" font-family="ProximaNova-Regular,Proxima Nova" font-size="36.0" fill="#FF456F" transform="matrix(1.00, 0.00, -0.00, -1.00, 581.8, 658.1)">o</text><text xml:space="preserve" font-family="ProximaNova-Regular,Proxima Nova" font-size="36.0" fill="#FF456F" transform="matrix(1.00, 0.00, -0.00, -1.00, 602.4, 658.1)">n</text><text xml:space="preserve" font-family="ProximaNova-Regular,Proxima Nova" font-size="36.0" fill="#FF456F" transform="matrix(1.00, 0.00, -0.00, -1.00, 622.3, 658.1)"> </text><text xml:space="preserve" font-family="ProximaNova-Regular,Proxima Nova" font-size="36.0" fill="#FF456F" transform="matrix(1.00, 0.00, -0.00, -1.00, 631.6, 658.1)">S</text><text xml:space="preserve" font-family="ProximaNova-Regular,Proxima Nova" font-size="36.0" fill="#FF456F" transform="matrix(1.00, 0.00, -0.00, -1.00, 652.1, 658.1)">t</text><text xml:space="preserve" font-family="ProximaNova-Regular,Proxima Nova" font-size="36.0" fill="#FF456F" transform="matrix(1.00, 0.00, -0.00, -1.00, 662.7, 658.1)">a</text><text xml:space="preserve" font-family="ProximaNova-Regular,Proxima Nova" font-size="36.0" fill="#FF456F" transform="matrix(1.00, 0.00, -0.00, -1.00, 681.7, 658.1)">t</text><text xml:space="preserve" font-family="ProximaNova-Regular,Proxima Nova" font-size="36.0" fill="#FF456F" transform="matrix(1.00, 0.00, -0.00, -1.00, 692.3, 658.1)">e</text><g><clipPath id="clip0x600002aa07e0"><path d="M 76.2 466.2 L 248.5 466.2 L 248.5 533.5 L 76.2 533.5 Z M 76.2 466.2 "></path></clipPath><g clip-path="url(#clip0x600002aa07e0)"><path d="M 0.0 63.5 C 56.4 -21.3 112.6 -21.2 168.7 63.8 " fill="none" stroke="#FF456F" stroke-width="2.00" stroke-dasharray="2.0, 2.0" transform="matrix(1.00, 0.00, 0.00, -1.00, 78.0, 531.5)"></path></g></g><g><clipPath id="clip0x600002aa0a20"><path d="M 81.5 465.9 L 423.7 465.9 L 423.7 534.0 L 81.5 534.0 Z M 81.5 465.9 "></path></clipPath><g clip-path="url(#clip0x600002aa0a20)"><path d="M 0.0 63.0 C 113.3 -21.4 226.3 -21.0 339.0 64.3 " fill="none" stroke="#FF456F" stroke-width="2.00" stroke-dasharray="2.0, 2.0" transform="matrix(1.00, 0.00, 0.00, -1.00, 83.1, 532.0)"></path></g></g><g><clipPath id="clip0x600002aa0c60"><path d="M 81.4 465.7 L 595.7 465.7 L 595.7 534.7 L 81.4 534.7 Z M 81.4 465.7 "></path></clipPath><g clip-path="url(#clip0x600002aa0c60)"><path d="M 0.0 62.2 C 170.9 -21.7 341.4 -20.7 511.4 65.1 " fill="none" stroke="#FF456F" stroke-width="2.00" stroke-dasharray="2.0, 2.0" transform="matrix(1.00, 0.00, 0.00, -1.00, 82.9, 532.7)"></path></g></g><g><clipPath id="clip0x600002aa0ea0"><path d="M 82.8 465.3 L 783.8 465.3 L 783.8 535.3 L 82.8 535.3 Z M 82.8 465.3 "></path></clipPath><g clip-path="url(#clip0x600002aa0ea0)"><path d="M 0.0 61.2 C 233.3 -22.0 466.1 -20.4 698.3 66.1 " fill="none" stroke="#FF456F" stroke-width="2.00" stroke-dasharray="2.0, 2.0" transform="matrix(1.00, 0.00, 0.00, -1.00, 84.2, 533.3)"></path></g></g><g><clipPath id="clip0x600002aa10e0"><path d="M 563.1 543.6 L 390.4 543.6 L 390.4 562.4 L 563.1 562.4 Z M 563.1 543.6 "></path></clipPath><g clip-path="url(#clip0x600002aa10e0)"><path d="M 0.1 -0.0 L 154.0 -0.0 L 156.1 -0.0 " fill="none" stroke="#FF456F" stroke-width="4.00" transform="matrix(-1.00, 0.00, 0.00, 1.00, 562.1, 553.0)"></path><path d="M 408.0 561.4 L 391.2 553.0 L 408.0 544.6 Z M 408.0 561.4 " fill="#FF456F"></path></g></g></g></svg>