<?xml version="1.0" encoding="UTF-8" standalone="no"?><svg xmlns="http://www.w3.org/2000/svg" xmlns:xlink="http://www.w3.org/1999/xlink" clip-rule="evenodd" stroke-miterlimit="10" viewBox="0 0 433 35"><desc>SVG generated by Keynote</desc><defs></defs><g transform="matrix(1.00, 0.00, -0.00, -1.00, 0.0, 35.0)"><text xml:space="preserve" font-family="ProximaNova-Regular,Proxima Nova" font-size="36.0" fill="#FF456F" transform="matrix(1.00, 0.00, -0.00, -1.00, -0.5, 9.1)">M</text><text xml:space="preserve" font-family="ProximaNova-Regular,Proxima Nova" font-size="36.0" fill="#FF456F" transform="matrix(1.00, 0.00, -0.00, -1.00, 28.6, 9.1)">a</text><text xml:space="preserve" font-family="ProximaNova-Regular,Proxima Nova" font-size="36.0" fill="#FF456F" transform="matrix(1.00, 0.00, -0.00, -1.00, 47.6, 9.1)">n</text><text xml:space="preserve" font-family="ProximaNova-Regular,Proxima Nova" font-size="36.0" fill="#FF456F" transform="matrix(1.00, 0.00, -0.00, -1.00, 67.5, 9.1)">a</text><text xml:space="preserve" font-family="ProximaNova-Regular,Proxima Nova" font-size="36.0" fill="#FF456F" transform="matrix(1.00, 0.00, -0.00, -1.00, 86.5, 9.1)">g</text><text xml:space="preserve" font-family="ProximaNova-Regular,Proxima Nova" font-size="36.0" fill="#FF456F" transform="matrix(1.00, 0.00, -0.00, -1.00, 107.2, 9.1)">i</text><text xml:space="preserve" font-family="ProximaNova-Regular,Proxima Nova" font-size="36.0" fill="#FF456F" transform="matrix(1.00, 0.00, -0.00, -1.00, 115.3, 9.1)">n</text><text xml:space="preserve" font-family="ProximaNova-Regular,Proxima Nova" font-size="36.0" fill="#FF456F" transform="matrix(1.00, 0.00, -0.00, -1.00, 135.2, 9.1)">g</text><text xml:space="preserve" font-family="ProximaNova-Regular,Proxima Nova" font-size="36.0" fill="#FF456F" transform="matrix(1.00, 0.00, -0.00, -1.00, 155.9, 9.1)"> </text><text xml:space="preserve" font-family="ProximaNova-Regular,Proxima Nova" font-size="36.0" fill="#FF456F" transform="matrix(1.00, 0.00, -0.00, -1.00, 165.2, 9.1)">A</text><text xml:space="preserve" font-family="ProximaNova-Regular,Proxima Nova" font-size="36.0" fill="#FF456F" transform="matrix(1.00, 0.00, -0.00, -1.00, 188.9, 9.1)">p</text><text xml:space="preserve" font-family="ProximaNova-Regular,Proxima Nova" font-size="36.0" fill="#FF456F" transform="matrix(1.00, 0.00, -0.00, -1.00, 209.5, 9.1)">p</text><text xml:space="preserve" font-family="ProximaNova-Regular,Proxima Nova" font-size="36.0" fill="#FF456F" transform="matrix(1.00, 0.00, -0.00, -1.00, 230.1, 9.1)">l</text><text xml:space="preserve" font-family="ProximaNova-Regular,Proxima Nova" font-size="36.0" fill="#FF456F" transform="matrix(1.00, 0.00, -0.00, -1.00, 238.2, 9.1)">i</text><text xml:space="preserve" font-family="ProximaNova-Regular,Proxima Nova" font-size="36.0" fill="#FF456F" transform="matrix(1.00, 0.00, -0.00, -1.00, 246.3, 9.1)">c</text><text xml:space="preserve" font-family="ProximaNova-Regular,Proxima Nova" font-size="36.0" fill="#FF456F" transform="matrix(1.00, 0.00, -0.00, -1.00, 264.1, 9.1)">a</text><text xml:space="preserve" font-family="ProximaNova-Regular,Proxima Nova" font-size="36.0" fill="#FF456F" transform="matrix(1.00, 0.00, -0.00, -1.00, 283.1, 9.1)">t</text><text xml:space="preserve" font-family="ProximaNova-Regular,Proxima Nova" font-size="36.0" fill="#FF456F" transform="matrix(1.00, 0.00, -0.00, -1.00, 293.7, 9.1)">i</text><text xml:space="preserve" font-family="ProximaNova-Regular,Proxima Nova" font-size="36.0" fill="#FF456F" transform="matrix(1.00, 0.00, -0.00, -1.00, 301.8, 9.1)">o</text><text xml:space="preserve" font-family="ProximaNova-Regular,Proxima Nova" font-size="36.0" fill="#FF456F" transform="matrix(1.00, 0.00, -0.00, -1.00, 322.4, 9.1)">n</text><text xml:space="preserve" font-family="ProximaNova-Regular,Proxima Nova" font-size="36.0" fill="#FF456F" transform="matrix(1.00, 0.00, -0.00, -1.00, 342.3, 9.1)"> </text><text xml:space="preserve" font-family="ProximaNova-Regular,Proxima Nova" font-size="36.0" fill="#FF456F" transform="matrix(1.00, 0.00, -0.00, -1.00, 351.6, 9.1)">S</text><text xml:space="preserve" font-family="ProximaNova-Regular,Proxima Nova" font-size="36.0" fill="#FF456F" transform="matrix(1.00, 0.00, -0.00, -1.00, 372.1, 9.1)">t</text><text xml:space="preserve" font-family="ProximaNova-Regular,Proxima Nova" font-size="36.0" fill="#FF456F" transform="matrix(1.00, 0.00, -0.00, -1.00, 382.7, 9.1)">a</text><text xml:space="preserve" font-family="ProximaNova-Regular,Proxima Nova" font-size="36.0" fill="#FF456F" transform="matrix(1.00, 0.00, -0.00, -1.00, 401.7, 9.1)">t</text><text xml:space="preserve" font-family="ProximaNova-Regular,Proxima Nova" font-size="36.0" fill="#FF456F" transform="matrix(1.00, 0.00, -0.00, -1.00, 412.3, 9.1)">e</text></g></svg>