<?xml version="1.0" encoding="UTF-8" standalone="no"?><svg xmlns="http://www.w3.org/2000/svg" xmlns:xlink="http://www.w3.org/1999/xlink" clip-rule="evenodd" stroke-miterlimit="10" viewBox="0 0 108 108"><desc>SVG generated by Keynote</desc><defs></defs><g transform="matrix(1.00, 0.00, -0.00, -1.00, 0.0, 108.0)"><path d="M 90.7 91.1 C 111.1 70.7 111.1 37.6 90.7 17.2 C 70.3 -3.2 37.2 -3.2 16.8 17.2 C -3.6 37.6 -3.6 70.7 16.8 91.1 C 37.2 111.5 70.3 111.5 90.7 91.1 Z M 90.7 91.1 " fill="#FEFFFE"></path><g><clipPath id="clip0x6000026bf5c0"><path d="M 1.5 1.9 L 106.0 1.9 L 106.0 106.4 L 1.5 106.4 Z M 1.5 1.9 "></path></clipPath><g clip-path="url(#clip0x6000026bf5c0)"><text xml:space="preserve" font-family="Helvetica-Light,Helvetica" font-size="20.0" fill="#52575F" transform="matrix(1.00, 0.00, -0.00, -1.00, 12.6, 46.4)">V</text><text xml:space="preserve" font-family="Helvetica-Light,Helvetica" font-size="20.0" fill="#52575F" transform="matrix(1.00, 0.00, -0.00, -1.00, 24.5, 46.4)">i</text><text xml:space="preserve" font-family="Helvetica-Light,Helvetica" font-size="20.0" fill="#52575F" transform="matrix(1.00, 0.00, -0.00, -1.00, 28.9, 46.4)">e</text><text xml:space="preserve" font-family="Helvetica-Light,Helvetica" font-size="20.0" fill="#52575F" transform="matrix(1.00, 0.00, -0.00, -1.00, 40.0, 46.4)">w</text><text xml:space="preserve" font-family="Helvetica-Light,Helvetica" font-size="20.0" fill="#52575F" transform="matrix(1.00, 0.00, -0.00, -1.00, 54.5, 46.4)"> </text><text xml:space="preserve" font-family="Helvetica-Light,Helvetica" font-size="20.0" fill="#52575F" transform="matrix(1.00, 0.00, -0.00, -1.00, 60.0, 46.4)">c</text><text xml:space="preserve" font-family="Helvetica-Light,Helvetica" font-size="20.0" fill="#52575F" transform="matrix(1.00, 0.00, -0.00, -1.00, 71.2, 46.4)">a</text><text xml:space="preserve" font-family="Helvetica-Light,Helvetica" font-size="20.0" fill="#52575F" transform="matrix(1.00, 0.00, -0.00, -1.00, 82.3, 46.4)">r</text><text xml:space="preserve" font-family="Helvetica-Light,Helvetica" font-size="20.0" fill="#52575F" transform="matrix(1.00, 0.00, -0.00, -1.00, 89.3, 46.4)">t</text></g></g></g></svg>