<?xml version="1.0" encoding="UTF-8" standalone="no"?><svg xmlns="http://www.w3.org/2000/svg" xmlns:xlink="http://www.w3.org/1999/xlink" clip-rule="evenodd" stroke-miterlimit="10" viewBox="0 0 108 107"><desc>SVG generated by Keynote</desc><defs></defs><g transform="matrix(1.00, 0.00, -0.00, -1.00, 0.0, 107.0)"><path d="M 90.7 90.7 C 111.1 70.3 111.1 37.2 90.7 16.8 C 70.3 -3.6 37.2 -3.6 16.8 16.8 C -3.6 37.2 -3.6 70.3 16.8 90.7 C 37.2 111.1 70.3 111.1 90.7 90.7 Z M 90.7 90.7 " fill="#FEFFFE"></path><g><clipPath id="clip0x6180028bfb00"><path d="M 1.5 1.5 L 106.0 1.5 L 106.0 106.0 L 1.5 106.0 Z M 1.5 1.5 "></path></clipPath><g clip-path="url(#clip0x6180028bfb00)"><text xml:space="preserve" font-family="Helvetica-Light,Helvetica" font-size="20.0" fill="#52575F" transform="matrix(1.00, 0.00, -0.00, -1.00, 27.1, 58.3)">L</text><text xml:space="preserve" font-family="Helvetica-Light,Helvetica" font-size="20.0" fill="#52575F" transform="matrix(1.00, 0.00, -0.00, -1.00, 38.2, 58.3)">i</text><text xml:space="preserve" font-family="Helvetica-Light,Helvetica" font-size="20.0" fill="#52575F" transform="matrix(1.00, 0.00, -0.00, -1.00, 42.6, 58.3)">s</text><text xml:space="preserve" font-family="Helvetica-Light,Helvetica" font-size="20.0" fill="#52575F" transform="matrix(1.00, 0.00, -0.00, -1.00, 52.6, 58.3)">t</text><text xml:space="preserve" font-family="Helvetica-Light,Helvetica" font-size="20.0" fill="#52575F" transform="matrix(1.00, 0.00, -0.00, -1.00, 58.2, 58.3)"> </text><text xml:space="preserve" font-family="Helvetica-Light,Helvetica" font-size="20.0" fill="#52575F" transform="matrix(1.00, 0.00, -0.00, -1.00, 63.7, 58.3)">o</text><text xml:space="preserve" font-family="Helvetica-Light,Helvetica" font-size="20.0" fill="#52575F" transform="matrix(1.00, 0.00, -0.00, -1.00, 74.9, 58.3)">f</text><text xml:space="preserve" font-family="Helvetica-Light,Helvetica" font-size="20.0" fill="#52575F" transform="matrix(1.00, 0.00, -0.00, -1.00, 80.4, 58.3)"> </text><text xml:space="preserve" font-family="Helvetica-Light,Helvetica" font-size="20.0" fill="#52575F" transform="matrix(1.00, 0.00, -0.00, -1.00, 13.9, 34.3)">p</text><text xml:space="preserve" font-family="Helvetica-Light,Helvetica" font-size="20.0" fill="#52575F" transform="matrix(1.00, 0.00, -0.00, -1.00, 26.1, 34.3)">r</text><text xml:space="preserve" font-family="Helvetica-Light,Helvetica" font-size="20.0" fill="#52575F" transform="matrix(1.00, 0.00, -0.00, -1.00, 32.4, 34.3)">o</text><text xml:space="preserve" font-family="Helvetica-Light,Helvetica" font-size="20.0" fill="#52575F" transform="matrix(1.00, 0.00, -0.00, -1.00, 43.6, 34.3)">d</text><text xml:space="preserve" font-family="Helvetica-Light,Helvetica" font-size="20.0" fill="#52575F" transform="matrix(1.00, 0.00, -0.00, -1.00, 55.8, 34.3)">u</text><text xml:space="preserve" font-family="Helvetica-Light,Helvetica" font-size="20.0" fill="#52575F" transform="matrix(1.00, 0.00, -0.00, -1.00, 66.9, 34.3)">c</text><text xml:space="preserve" font-family="Helvetica-Light,Helvetica" font-size="20.0" fill="#52575F" transform="matrix(1.00, 0.00, -0.00, -1.00, 78.0, 34.3)">t</text><text xml:space="preserve" font-family="Helvetica-Light,Helvetica" font-size="20.0" fill="#52575F" transform="matrix(1.00, 0.00, -0.00, -1.00, 83.6, 34.3)">s</text></g></g></g></svg>