<?xml version="1.0" encoding="UTF-8" standalone="no"?><svg xmlns="http://www.w3.org/2000/svg" xmlns:xlink="http://www.w3.org/1999/xlink" clip-rule="evenodd" stroke-miterlimit="10" viewBox="0 0 108 107"><desc>SVG generated by Keynote</desc><defs></defs><g transform="matrix(1.00, 0.00, -0.00, -1.00, 0.0, 107.0)"><path d="M 90.7 90.7 C 111.1 70.3 111.1 37.2 90.7 16.8 C 70.3 -3.6 37.2 -3.6 16.8 16.8 C -3.6 37.2 -3.6 70.3 16.8 90.7 C 37.2 111.1 70.3 111.1 90.7 90.7 Z M 90.7 90.7 " fill="#FEFFFE"></path><g><clipPath id="clip0x6180028bef00"><path d="M 1.5 1.5 L 106.0 1.5 L 106.0 106.0 L 1.5 106.0 Z M 1.5 1.5 "></path></clipPath><g clip-path="url(#clip0x6180028bef00)"><text xml:space="preserve" font-family="Helvetica-Light,Helvetica" font-size="20.0" fill="#52575F" transform="matrix(1.00, 0.00, -0.00, -1.00, 10.6, 45.8)">P</text><text xml:space="preserve" font-family="Helvetica-Light,Helvetica" font-size="20.0" fill="#52575F" transform="matrix(1.00, 0.00, -0.00, -1.00, 22.8, 45.8)">r</text><text xml:space="preserve" font-family="Helvetica-Light,Helvetica" font-size="20.0" fill="#52575F" transform="matrix(1.00, 0.00, -0.00, -1.00, 29.1, 45.8)">o</text><text xml:space="preserve" font-family="Helvetica-Light,Helvetica" font-size="20.0" fill="#52575F" transform="matrix(1.00, 0.00, -0.00, -1.00, 40.2, 45.8)">d</text><text xml:space="preserve" font-family="Helvetica-Light,Helvetica" font-size="20.0" fill="#52575F" transform="matrix(1.00, 0.00, -0.00, -1.00, 52.4, 45.8)">u</text><text xml:space="preserve" font-family="Helvetica-Light,Helvetica" font-size="20.0" fill="#52575F" transform="matrix(1.00, 0.00, -0.00, -1.00, 63.6, 45.8)">c</text><text xml:space="preserve" font-family="Helvetica-Light,Helvetica" font-size="20.0" fill="#52575F" transform="matrix(1.00, 0.00, -0.00, -1.00, 74.7, 45.8)">t</text><text xml:space="preserve" font-family="Helvetica-Light,Helvetica" font-size="20.0" fill="#52575F" transform="matrix(1.00, 0.00, -0.00, -1.00, 80.2, 45.8)"> </text><text xml:space="preserve" font-family="Helvetica-Light,Helvetica" font-size="20.0" fill="#52575F" transform="matrix(1.00, 0.00, -0.00, -1.00, 85.8, 45.8)">2</text></g></g></g></svg>