<?xml version="1.0" encoding="UTF-8" standalone="no"?><svg xmlns="http://www.w3.org/2000/svg" xmlns:xlink="http://www.w3.org/1999/xlink" clip-rule="evenodd" stroke-miterlimit="10" viewBox="0 0 1024 768"><desc>SVG generated by Keynote</desc><defs></defs><g transform="matrix(1.00, 0.00, -0.00, -1.00, 0.0, 768.0)"><path d="M 0.0 768.0 L 1024.0 768.0 L 1024.0 0.0 L 0.0 0.0 Z M 0.0 768.0 " fill="#000000"></path><text xml:space="preserve" font-family="Helvetica-Light,Helvetica" font-size="36.0" fill="#FEFFFF" transform="matrix(1.00, 0.00, -0.00, -1.00, 64.4, 683.8)">G</text><text xml:space="preserve" font-family="Helvetica-Light,Helvetica" font-size="36.0" fill="#FEFFFF" transform="matrix(1.00, 0.00, -0.00, -1.00, 92.4, 683.8)">E</text><text xml:space="preserve" font-family="Helvetica-Light,Helvetica" font-size="36.0" fill="#FEFFFF" transform="matrix(1.00, 0.00, -0.00, -1.00, 114.4, 683.8)">T</text><text xml:space="preserve" font-family="Helvetica-Light,Helvetica" font-size="36.0" fill="#FEFFFF" transform="matrix(1.00, 0.00, -0.00, -1.00, 134.4, 683.8)"> </text><text xml:space="preserve" font-family="Helvetica-Light,Helvetica" font-size="36.0" fill="#FEFFFF" transform="matrix(1.00, 0.00, -0.00, -1.00, 144.4, 683.8)">/</text><text xml:space="preserve" font-family="Helvetica-Light,Helvetica" font-size="36.0" fill="#FEFFFF" transform="matrix(1.00, 0.00, -0.00, -1.00, 154.4, 683.8)">e</text><text xml:space="preserve" font-family="Helvetica-Light,Helvetica" font-size="36.0" fill="#FEFFFF" transform="matrix(1.00, 0.00, -0.00, -1.00, 174.5, 683.8)">v</text><text xml:space="preserve" font-family="Helvetica-Light,Helvetica" font-size="36.0" fill="#FEFFFF" transform="matrix(1.00, 0.00, -0.00, -1.00, 192.5, 683.8)">e</text><text xml:space="preserve" font-family="Helvetica-Light,Helvetica" font-size="36.0" fill="#FEFFFF" transform="matrix(1.00, 0.00, -0.00, -1.00, 212.5, 683.8)">n</text><text xml:space="preserve" font-family="Helvetica-Light,Helvetica" font-size="36.0" fill="#FEFFFF" transform="matrix(1.00, 0.00, -0.00, -1.00, 232.5, 683.8)">t</text><text xml:space="preserve" font-family="Helvetica-Light,Helvetica" font-size="36.0" fill="#FEFFFF" transform="matrix(1.00, 0.00, -0.00, -1.00, 242.5, 683.8)">s</text><text xml:space="preserve" font-family="Helvetica-Light,Helvetica" font-size="36.0" fill="#FEFFFF" transform="matrix(1.00, 0.00, -0.00, -1.00, 260.5, 683.8)"> </text><text xml:space="preserve" font-family="Helvetica-Light,Helvetica" font-size="36.0" fill="#FEFFFF" transform="matrix(1.00, 0.00, -0.00, -1.00, 270.5, 683.8)">H</text><text xml:space="preserve" font-family="Helvetica-Light,Helvetica" font-size="36.0" fill="#FEFFFF" transform="matrix(1.00, 0.00, -0.00, -1.00, 296.5, 683.8)">T</text><text xml:space="preserve" font-family="Helvetica-Light,Helvetica" font-size="36.0" fill="#FEFFFF" transform="matrix(1.00, 0.00, -0.00, -1.00, 316.5, 683.8)">T</text><text xml:space="preserve" font-family="Helvetica-Light,Helvetica" font-size="36.0" fill="#FEFFFF" transform="matrix(1.00, 0.00, -0.00, -1.00, 336.5, 683.8)">P</text><text xml:space="preserve" font-family="Helvetica-Light,Helvetica" font-size="36.0" fill="#FEFFFF" transform="matrix(1.00, 0.00, -0.00, -1.00, 358.5, 683.8)">/</text><text xml:space="preserve" font-family="Helvetica-Light,Helvetica" font-size="36.0" fill="#FEFFFF" transform="matrix(1.00, 0.00, -0.00, -1.00, 368.5, 683.8)">1</text><text xml:space="preserve" font-family="Helvetica-Light,Helvetica" font-size="36.0" fill="#FEFFFF" transform="matrix(1.00, 0.00, -0.00, -1.00, 388.6, 683.8)">.</text><text xml:space="preserve" font-family="Helvetica-Light,Helvetica" font-size="36.0" fill="#FEFFFF" transform="matrix(1.00, 0.00, -0.00, -1.00, 398.6, 683.8)">1</text><text xml:space="preserve" font-family="Helvetica-Light,Helvetica" font-size="36.0" fill="#FEFFFF" transform="matrix(1.00, 0.00, -0.00, -1.00, 418.6, 683.8)"> </text><text xml:space="preserve" font-family="Helvetica-Light,Helvetica" font-size="36.0" fill="#FEFFFF" transform="matrix(1.00, 0.00, -0.00, -1.00, 64.4, 640.8)">H</text><text xml:space="preserve" font-family="Helvetica-Light,Helvetica" font-size="36.0" fill="#FEFFFF" transform="matrix(1.00, 0.00, -0.00, -1.00, 90.4, 640.8)">O</text><text xml:space="preserve" font-family="Helvetica-Light,Helvetica" font-size="36.0" fill="#FEFFFF" transform="matrix(1.00, 0.00, -0.00, -1.00, 118.4, 640.8)">S</text><text xml:space="preserve" font-family="Helvetica-Light,Helvetica" font-size="36.0" fill="#FEFFFF" transform="matrix(1.00, 0.00, -0.00, -1.00, 140.4, 640.8)">T</text><text xml:space="preserve" font-family="Helvetica-Light,Helvetica" font-size="36.0" fill="#FEFFFF" transform="matrix(1.00, 0.00, -0.00, -1.00, 156.4, 640.8)">:</text><text xml:space="preserve" font-family="Helvetica-Light,Helvetica" font-size="36.0" fill="#FEFFFF" transform="matrix(1.00, 0.00, -0.00, -1.00, 166.4, 640.8)"> </text><text xml:space="preserve" font-family="Helvetica-Light,Helvetica" font-size="36.0" fill="#FEFFFF" transform="matrix(1.00, 0.00, -0.00, -1.00, 176.4, 640.8)">w</text><text xml:space="preserve" font-family="Helvetica-Light,Helvetica" font-size="36.0" fill="#FEFFFF" transform="matrix(1.00, 0.00, -0.00, -1.00, 202.4, 640.8)">w</text><text xml:space="preserve" font-family="Helvetica-Light,Helvetica" font-size="36.0" fill="#FEFFFF" transform="matrix(1.00, 0.00, -0.00, -1.00, 228.4, 640.8)">w</text><text xml:space="preserve" font-family="Helvetica-Light,Helvetica" font-size="36.0" fill="#FEFFFF" transform="matrix(1.00, 0.00, -0.00, -1.00, 252.4, 640.8)">.</text><text xml:space="preserve" font-family="Helvetica-Light,Helvetica" font-size="36.0" fill="#FEFFFF" transform="matrix(1.00, 0.00, -0.00, -1.00, 262.4, 640.8)">h</text><text xml:space="preserve" font-family="Helvetica-Light,Helvetica" font-size="36.0" fill="#FEFFFF" transform="matrix(1.00, 0.00, -0.00, -1.00, 282.5, 640.8)">e</text><text xml:space="preserve" font-family="Helvetica-Light,Helvetica" font-size="36.0" fill="#FEFFFF" transform="matrix(1.00, 0.00, -0.00, -1.00, 302.5, 640.8)">l</text><text xml:space="preserve" font-family="Helvetica-Light,Helvetica" font-size="36.0" fill="#FEFFFF" transform="matrix(1.00, 0.00, -0.00, -1.00, 310.5, 640.8)">i</text><text xml:space="preserve" font-family="Helvetica-Light,Helvetica" font-size="36.0" fill="#FEFFFF" transform="matrix(1.00, 0.00, -0.00, -1.00, 318.5, 640.8)">o</text><text xml:space="preserve" font-family="Helvetica-Light,Helvetica" font-size="36.0" fill="#FEFFFF" transform="matrix(1.00, 0.00, -0.00, -1.00, 338.5, 640.8)">r</text><text xml:space="preserve" font-family="Helvetica-Light,Helvetica" font-size="36.0" fill="#FEFFFF" transform="matrix(1.00, 0.00, -0.00, -1.00, 347.2, 640.8)">.</text><text xml:space="preserve" font-family="Helvetica-Light,Helvetica" font-size="36.0" fill="#FEFFFF" transform="matrix(1.00, 0.00, -0.00, -1.00, 357.2, 640.8)">i</text><text xml:space="preserve" font-family="Helvetica-Light,Helvetica" font-size="36.0" fill="#FEFFFF" transform="matrix(1.00, 0.00, -0.00, -1.00, 365.2, 640.8)">n</text><text xml:space="preserve" font-family="Helvetica-Light,Helvetica" font-size="36.0" fill="#FEFFFF" transform="matrix(1.00, 0.00, -0.00, -1.00, 385.2, 640.8)">f</text><text xml:space="preserve" font-family="Helvetica-Light,Helvetica" font-size="36.0" fill="#FEFFFF" transform="matrix(1.00, 0.00, -0.00, -1.00, 395.2, 640.8)">o</text><text xml:space="preserve" font-family="Helvetica-Light,Helvetica" font-size="36.0" fill="#FEFFFF" transform="matrix(1.00, 0.00, -0.00, -1.00, 415.2, 640.8)"> </text><g><clipPath id="clip0x6000026b0c80"><path d="M 175.4 636.2 L 415.2 636.2 L 415.2 640.0 L 175.4 640.0 Z M 175.4 636.2 "></path></clipPath><g clip-path="url(#clip0x6000026b0c80)"><path d="M 116.0 84.4 L 354.8 84.4 " fill="none" stroke="#FEFFFF" stroke-width="1.80" transform="matrix(1.00, 0.00, 0.00, -1.00, 60.4, 722.5)"></path></g></g><text xml:space="preserve" font-family="Helvetica-Light,Helvetica" font-size="36.0" fill="#FEFFFF" transform="matrix(1.00, 0.00, -0.00, -1.00, 64.4, 597.8)">A</text><text xml:space="preserve" font-family="Helvetica-Light,Helvetica" font-size="36.0" fill="#FEFFFF" transform="matrix(1.00, 0.00, -0.00, -1.00, 88.4, 597.8)">c</text><text xml:space="preserve" font-family="Helvetica-Light,Helvetica" font-size="36.0" fill="#FEFFFF" transform="matrix(1.00, 0.00, -0.00, -1.00, 108.4, 597.8)">c</text><text xml:space="preserve" font-family="Helvetica-Light,Helvetica" font-size="36.0" fill="#FEFFFF" transform="matrix(1.00, 0.00, -0.00, -1.00, 128.5, 597.8)">e</text><text xml:space="preserve" font-family="Helvetica-Light,Helvetica" font-size="36.0" fill="#FEFFFF" transform="matrix(1.00, 0.00, -0.00, -1.00, 148.5, 597.8)">p</text><text xml:space="preserve" font-family="Helvetica-Light,Helvetica" font-size="36.0" fill="#FEFFFF" transform="matrix(1.00, 0.00, -0.00, -1.00, 170.5, 597.8)">t</text><text xml:space="preserve" font-family="Helvetica-Light,Helvetica" font-size="36.0" fill="#FEFFFF" transform="matrix(1.00, 0.00, -0.00, -1.00, 180.5, 597.8)">:</text><text xml:space="preserve" font-family="Helvetica-Light,Helvetica" font-size="36.0" fill="#FEFFFF" transform="matrix(1.00, 0.00, -0.00, -1.00, 190.5, 597.8)"> </text><text xml:space="preserve" font-family="Helvetica-Light,Helvetica" font-size="36.0" fill="#FEFFFF" transform="matrix(1.00, 0.00, -0.00, -1.00, 200.5, 597.8)">a</text><text xml:space="preserve" font-family="Helvetica-Light,Helvetica" font-size="36.0" fill="#FEFFFF" transform="matrix(1.00, 0.00, -0.00, -1.00, 220.5, 597.8)">p</text><text xml:space="preserve" font-family="Helvetica-Light,Helvetica" font-size="36.0" fill="#FEFFFF" transform="matrix(1.00, 0.00, -0.00, -1.00, 242.5, 597.8)">p</text><text xml:space="preserve" font-family="Helvetica-Light,Helvetica" font-size="36.0" fill="#FEFFFF" transform="matrix(1.00, 0.00, -0.00, -1.00, 264.5, 597.8)">l</text><text xml:space="preserve" font-family="Helvetica-Light,Helvetica" font-size="36.0" fill="#FEFFFF" transform="matrix(1.00, 0.00, -0.00, -1.00, 272.5, 597.8)">i</text><text xml:space="preserve" font-family="Helvetica-Light,Helvetica" font-size="36.0" fill="#FEFFFF" transform="matrix(1.00, 0.00, -0.00, -1.00, 280.5, 597.8)">c</text><text xml:space="preserve" font-family="Helvetica-Light,Helvetica" font-size="36.0" fill="#FEFFFF" transform="matrix(1.00, 0.00, -0.00, -1.00, 300.5, 597.8)">a</text><text xml:space="preserve" font-family="Helvetica-Light,Helvetica" font-size="36.0" fill="#FEFFFF" transform="matrix(1.00, 0.00, -0.00, -1.00, 320.5, 597.8)">t</text><text xml:space="preserve" font-family="Helvetica-Light,Helvetica" font-size="36.0" fill="#FEFFFF" transform="matrix(1.00, 0.00, -0.00, -1.00, 330.5, 597.8)">i</text><text xml:space="preserve" font-family="Helvetica-Light,Helvetica" font-size="36.0" fill="#FEFFFF" transform="matrix(1.00, 0.00, -0.00, -1.00, 338.5, 597.8)">o</text><text xml:space="preserve" font-family="Helvetica-Light,Helvetica" font-size="36.0" fill="#FEFFFF" transform="matrix(1.00, 0.00, -0.00, -1.00, 358.5, 597.8)">n</text><text xml:space="preserve" font-family="Helvetica-Light,Helvetica" font-size="36.0" fill="#FEFFFF" transform="matrix(1.00, 0.00, -0.00, -1.00, 378.5, 597.8)">/</text><text xml:space="preserve" font-family="Helvetica-Light,Helvetica" font-size="36.0" fill="#FEFFFF" transform="matrix(1.00, 0.00, -0.00, -1.00, 388.6, 597.8)">j</text><text xml:space="preserve" font-family="Helvetica-Light,Helvetica" font-size="36.0" fill="#FEFFFF" transform="matrix(1.00, 0.00, -0.00, -1.00, 396.5, 597.8)">s</text><text xml:space="preserve" font-family="Helvetica-Light,Helvetica" font-size="36.0" fill="#FEFFFF" transform="matrix(1.00, 0.00, -0.00, -1.00, 414.5, 597.8)">o</text><text xml:space="preserve" font-family="Helvetica-Light,Helvetica" font-size="36.0" fill="#FEFFFF" transform="matrix(1.00, 0.00, -0.00, -1.00, 434.6, 597.8)">n</text><text xml:space="preserve" font-family="Monaco,Monaco" font-size="16.0" fill="#FEFFFF" transform="matrix(1.00, 0.00, -0.00, -1.00, 294.7, 506.2)">{</text><text xml:space="preserve" font-family="Monaco,Monaco" font-size="16.0" fill="#FEFFFF" transform="matrix(1.00, 0.00, -0.00, -1.00, 304.3, 506.2)">	</text><text xml:space="preserve" font-family="Monaco,Monaco" font-size="16.0" fill="#FEFFFF" transform="matrix(1.00, 0.00, -0.00, -1.00, 294.7, 485.2)">	</text><text xml:space="preserve" font-family="Monaco,Monaco" font-size="16.0" fill="#FEFFFF" transform="matrix(1.00, 0.00, -0.00, -1.00, 322.7, 485.2)">"</text><text xml:space="preserve" font-family="Monaco,Monaco" font-size="16.0" fill="#FEFFFF" transform="matrix(1.00, 0.00, -0.00, -1.00, 332.3, 485.2)">e</text><text xml:space="preserve" font-family="Monaco,Monaco" font-size="16.0" fill="#FEFFFF" transform="matrix(1.00, 0.00, -0.00, -1.00, 341.9, 485.2)">v</text><text xml:space="preserve" font-family="Monaco,Monaco" font-size="16.0" fill="#FEFFFF" transform="matrix(1.00, 0.00, -0.00, -1.00, 351.5, 485.2)">e</text><text xml:space="preserve" font-family="Monaco,Monaco" font-size="16.0" fill="#FEFFFF" transform="matrix(1.00, 0.00, -0.00, -1.00, 361.1, 485.2)">n</text><text xml:space="preserve" font-family="Monaco,Monaco" font-size="16.0" fill="#FEFFFF" transform="matrix(1.00, 0.00, -0.00, -1.00, 370.7, 485.2)">t</text><text xml:space="preserve" font-family="Monaco,Monaco" font-size="16.0" fill="#FEFFFF" transform="matrix(1.00, 0.00, -0.00, -1.00, 380.3, 485.2)">s</text><text xml:space="preserve" font-family="Monaco,Monaco" font-size="16.0" fill="#FEFFFF" transform="matrix(1.00, 0.00, -0.00, -1.00, 389.9, 485.2)">"</text><text xml:space="preserve" font-family="Monaco,Monaco" font-size="16.0" fill="#FEFFFF" transform="matrix(1.00, 0.00, -0.00, -1.00, 399.5, 485.2)">:</text><text xml:space="preserve" font-family="Monaco,Monaco" font-size="16.0" fill="#FEFFFF" transform="matrix(1.00, 0.00, -0.00, -1.00, 409.1, 485.2)"> </text><text xml:space="preserve" font-family="Monaco,Monaco" font-size="16.0" fill="#FEFFFF" transform="matrix(1.00, 0.00, -0.00, -1.00, 418.7, 485.2)">[</text><text xml:space="preserve" font-family="Monaco,Monaco" font-size="16.0" fill="#FEFFFF" transform="matrix(1.00, 0.00, -0.00, -1.00, 428.3, 485.2)">	</text><text xml:space="preserve" font-family="Monaco,Monaco" font-size="16.0" fill="#FEFFFF" transform="matrix(1.00, 0.00, -0.00, -1.00, 294.7, 464.2)">	</text><text xml:space="preserve" font-family="Monaco,Monaco" font-size="16.0" fill="#FEFFFF" transform="matrix(1.00, 0.00, -0.00, -1.00, 322.7, 464.2)">	</text><text xml:space="preserve" font-family="Monaco,Monaco" font-size="16.0" fill="#FEFFFF" transform="matrix(1.00, 0.00, -0.00, -1.00, 350.7, 464.2)">{</text><text xml:space="preserve" font-family="Monaco,Monaco" font-size="16.0" fill="#FEFFFF" transform="matrix(1.00, 0.00, -0.00, -1.00, 360.3, 464.2)">	</text><text xml:space="preserve" font-family="Monaco,Monaco" font-size="16.0" fill="#FEFFFF" transform="matrix(1.00, 0.00, -0.00, -1.00, 294.7, 443.2)">	</text><text xml:space="preserve" font-family="Monaco,Monaco" font-size="16.0" fill="#FEFFFF" transform="matrix(1.00, 0.00, -0.00, -1.00, 322.7, 443.2)">	</text><text xml:space="preserve" font-family="Monaco,Monaco" font-size="16.0" fill="#FEFFFF" transform="matrix(1.00, 0.00, -0.00, -1.00, 350.7, 443.2)">	</text><text xml:space="preserve" font-family="Monaco,Monaco" font-size="16.0" fill="#FEFFFF" transform="matrix(1.00, 0.00, -0.00, -1.00, 378.7, 443.2)">"</text><text xml:space="preserve" font-family="Monaco,Monaco" font-size="16.0" fill="#FEFFFF" transform="matrix(1.00, 0.00, -0.00, -1.00, 388.3, 443.2)">i</text><text xml:space="preserve" font-family="Monaco,Monaco" font-size="16.0" fill="#FEFFFF" transform="matrix(1.00, 0.00, -0.00, -1.00, 397.9, 443.2)">d</text><text xml:space="preserve" font-family="Monaco,Monaco" font-size="16.0" fill="#FEFFFF" transform="matrix(1.00, 0.00, -0.00, -1.00, 407.5, 443.2)">"</text><text xml:space="preserve" font-family="Monaco,Monaco" font-size="16.0" fill="#FEFFFF" transform="matrix(1.00, 0.00, -0.00, -1.00, 417.1, 443.2)">:</text><text xml:space="preserve" font-family="Monaco,Monaco" font-size="16.0" fill="#FEFFFF" transform="matrix(1.00, 0.00, -0.00, -1.00, 426.7, 443.2)"> </text><text xml:space="preserve" font-family="Monaco,Monaco" font-size="16.0" fill="#FEFFFF" transform="matrix(1.00, 0.00, -0.00, -1.00, 436.3, 443.2)">"</text><text xml:space="preserve" font-family="Monaco,Monaco" font-size="16.0" fill="#FEFFFF" transform="matrix(1.00, 0.00, -0.00, -1.00, 445.9, 443.2)">5</text><text xml:space="preserve" font-family="Monaco,Monaco" font-size="16.0" fill="#FEFFFF" transform="matrix(1.00, 0.00, -0.00, -1.00, 455.5, 443.2)">2</text><text xml:space="preserve" font-family="Monaco,Monaco" font-size="16.0" fill="#FEFFFF" transform="matrix(1.00, 0.00, -0.00, -1.00, 465.1, 443.2)">"</text><text xml:space="preserve" font-family="Monaco,Monaco" font-size="16.0" fill="#FEFFFF" transform="matrix(1.00, 0.00, -0.00, -1.00, 474.7, 443.2)">,</text><text xml:space="preserve" font-family="Monaco,Monaco" font-size="16.0" fill="#FEFFFF" transform="matrix(1.00, 0.00, -0.00, -1.00, 484.3, 443.2)">	</text><text xml:space="preserve" font-family="Monaco,Monaco" font-size="16.0" fill="#FEFFFF" transform="matrix(1.00, 0.00, -0.00, -1.00, 294.7, 422.2)">	</text><text xml:space="preserve" font-family="Monaco,Monaco" font-size="16.0" fill="#FEFFFF" transform="matrix(1.00, 0.00, -0.00, -1.00, 322.7, 422.2)">	</text><text xml:space="preserve" font-family="Monaco,Monaco" font-size="16.0" fill="#FEFFFF" transform="matrix(1.00, 0.00, -0.00, -1.00, 350.7, 422.2)">	</text><text xml:space="preserve" font-family="Monaco,Monaco" font-size="16.0" fill="#FEFFFF" transform="matrix(1.00, 0.00, -0.00, -1.00, 378.7, 422.2)">"</text><text xml:space="preserve" font-family="Monaco,Monaco" font-size="16.0" fill="#FEFFFF" transform="matrix(1.00, 0.00, -0.00, -1.00, 388.3, 422.2)">n</text><text xml:space="preserve" font-family="Monaco,Monaco" font-size="16.0" fill="#FEFFFF" transform="matrix(1.00, 0.00, -0.00, -1.00, 397.9, 422.2)">a</text><text xml:space="preserve" font-family="Monaco,Monaco" font-size="16.0" fill="#FEFFFF" transform="matrix(1.00, 0.00, -0.00, -1.00, 407.5, 422.2)">m</text><text xml:space="preserve" font-family="Monaco,Monaco" font-size="16.0" fill="#FEFFFF" transform="matrix(1.00, 0.00, -0.00, -1.00, 417.1, 422.2)">e</text><text xml:space="preserve" font-family="Monaco,Monaco" font-size="16.0" fill="#FEFFFF" transform="matrix(1.00, 0.00, -0.00, -1.00, 426.7, 422.2)">"</text><text xml:space="preserve" font-family="Monaco,Monaco" font-size="16.0" fill="#FEFFFF" transform="matrix(1.00, 0.00, -0.00, -1.00, 436.3, 422.2)">:</text><text xml:space="preserve" font-family="Monaco,Monaco" font-size="16.0" fill="#FEFFFF" transform="matrix(1.00, 0.00, -0.00, -1.00, 445.9, 422.2)"> </text><text xml:space="preserve" font-family="Monaco,Monaco" font-size="16.0" fill="#FEFFFF" transform="matrix(1.00, 0.00, -0.00, -1.00, 455.5, 422.2)">"</text><text xml:space="preserve" font-family="Monaco,Monaco" font-size="16.0" fill="#FEFFFF" transform="matrix(1.00, 0.00, -0.00, -1.00, 465.1, 422.2)">F</text><text xml:space="preserve" font-family="Monaco,Monaco" font-size="16.0" fill="#FEFFFF" transform="matrix(1.00, 0.00, -0.00, -1.00, 474.7, 422.2)">o</text><text xml:space="preserve" font-family="Monaco,Monaco" font-size="16.0" fill="#FEFFFF" transform="matrix(1.00, 0.00, -0.00, -1.00, 484.3, 422.2)">o</text><text xml:space="preserve" font-family="Monaco,Monaco" font-size="16.0" fill="#FEFFFF" transform="matrix(1.00, 0.00, -0.00, -1.00, 493.9, 422.2)"> </text><text xml:space="preserve" font-family="Monaco,Monaco" font-size="16.0" fill="#FEFFFF" transform="matrix(1.00, 0.00, -0.00, -1.00, 503.5, 422.2)">E</text><text xml:space="preserve" font-family="Monaco,Monaco" font-size="16.0" fill="#FEFFFF" transform="matrix(1.00, 0.00, -0.00, -1.00, 513.1, 422.2)">v</text><text xml:space="preserve" font-family="Monaco,Monaco" font-size="16.0" fill="#FEFFFF" transform="matrix(1.00, 0.00, -0.00, -1.00, 522.7, 422.2)">e</text><text xml:space="preserve" font-family="Monaco,Monaco" font-size="16.0" fill="#FEFFFF" transform="matrix(1.00, 0.00, -0.00, -1.00, 532.3, 422.2)">n</text><text xml:space="preserve" font-family="Monaco,Monaco" font-size="16.0" fill="#FEFFFF" transform="matrix(1.00, 0.00, -0.00, -1.00, 541.9, 422.2)">t</text><text xml:space="preserve" font-family="Monaco,Monaco" font-size="16.0" fill="#FEFFFF" transform="matrix(1.00, 0.00, -0.00, -1.00, 551.5, 422.2)">"</text><text xml:space="preserve" font-family="Monaco,Monaco" font-size="16.0" fill="#FEFFFF" transform="matrix(1.00, 0.00, -0.00, -1.00, 561.1, 422.2)">,</text><text xml:space="preserve" font-family="Monaco,Monaco" font-size="16.0" fill="#FEFFFF" transform="matrix(1.00, 0.00, -0.00, -1.00, 570.7, 422.2)">	</text><text xml:space="preserve" font-family="Monaco,Monaco" font-size="16.0" fill="#FEFFFF" transform="matrix(1.00, 0.00, -0.00, -1.00, 294.7, 401.2)">	</text><text xml:space="preserve" font-family="Monaco,Monaco" font-size="16.0" fill="#FEFFFF" transform="matrix(1.00, 0.00, -0.00, -1.00, 322.7, 401.2)">	</text><text xml:space="preserve" font-family="Monaco,Monaco" font-size="16.0" fill="#FEFFFF" transform="matrix(1.00, 0.00, -0.00, -1.00, 350.7, 401.2)">	</text><text xml:space="preserve" font-family="Monaco,Monaco" font-size="16.0" fill="#FEFFFF" transform="matrix(1.00, 0.00, -0.00, -1.00, 378.7, 401.2)">"</text><text xml:space="preserve" font-family="Monaco,Monaco" font-size="16.0" fill="#FEFFFF" transform="matrix(1.00, 0.00, -0.00, -1.00, 388.3, 401.2)">d</text><text xml:space="preserve" font-family="Monaco,Monaco" font-size="16.0" fill="#FEFFFF" transform="matrix(1.00, 0.00, -0.00, -1.00, 397.9, 401.2)">a</text><text xml:space="preserve" font-family="Monaco,Monaco" font-size="16.0" fill="#FEFFFF" transform="matrix(1.00, 0.00, -0.00, -1.00, 407.5, 401.2)">t</text><text xml:space="preserve" font-family="Monaco,Monaco" font-size="16.0" fill="#FEFFFF" transform="matrix(1.00, 0.00, -0.00, -1.00, 417.1, 401.2)">e</text><text xml:space="preserve" font-family="Monaco,Monaco" font-size="16.0" fill="#FEFFFF" transform="matrix(1.00, 0.00, -0.00, -1.00, 426.7, 401.2)">"</text><text xml:space="preserve" font-family="Monaco,Monaco" font-size="16.0" fill="#FEFFFF" transform="matrix(1.00, 0.00, -0.00, -1.00, 436.3, 401.2)">:</text><text xml:space="preserve" font-family="Monaco,Monaco" font-size="16.0" fill="#FEFFFF" transform="matrix(1.00, 0.00, -0.00, -1.00, 445.9, 401.2)"> </text><text xml:space="preserve" font-family="Monaco,Monaco" font-size="16.0" fill="#FEFFFF" transform="matrix(1.00, 0.00, -0.00, -1.00, 455.5, 401.2)">"</text><text xml:space="preserve" font-family="Monaco,Monaco" font-size="16.0" fill="#FEFFFF" transform="matrix(1.00, 0.00, -0.00, -1.00, 465.1, 401.2)">2</text><text xml:space="preserve" font-family="Monaco,Monaco" font-size="16.0" fill="#FEFFFF" transform="matrix(1.00, 0.00, -0.00, -1.00, 474.7, 401.2)">0</text><text xml:space="preserve" font-family="Monaco,Monaco" font-size="16.0" fill="#FEFFFF" transform="matrix(1.00, 0.00, -0.00, -1.00, 484.3, 401.2)">1</text><text xml:space="preserve" font-family="Monaco,Monaco" font-size="16.0" fill="#FEFFFF" transform="matrix(1.00, 0.00, -0.00, -1.00, 493.9, 401.2)">3</text><text xml:space="preserve" font-family="Monaco,Monaco" font-size="16.0" fill="#FEFFFF" transform="matrix(1.00, 0.00, -0.00, -1.00, 503.5, 401.2)">-</text><text xml:space="preserve" font-family="Monaco,Monaco" font-size="16.0" fill="#FEFFFF" transform="matrix(1.00, 0.00, -0.00, -1.00, 513.1, 401.2)">0</text><text xml:space="preserve" font-family="Monaco,Monaco" font-size="16.0" fill="#FEFFFF" transform="matrix(1.00, 0.00, -0.00, -1.00, 522.7, 401.2)">7</text><text xml:space="preserve" font-family="Monaco,Monaco" font-size="16.0" fill="#FEFFFF" transform="matrix(1.00, 0.00, -0.00, -1.00, 532.3, 401.2)">-</text><text xml:space="preserve" font-family="Monaco,Monaco" font-size="16.0" fill="#FEFFFF" transform="matrix(1.00, 0.00, -0.00, -1.00, 541.9, 401.2)">1</text><text xml:space="preserve" font-family="Monaco,Monaco" font-size="16.0" fill="#FEFFFF" transform="matrix(1.00, 0.00, -0.00, -1.00, 551.5, 401.2)">9</text><text xml:space="preserve" font-family="Monaco,Monaco" font-size="16.0" fill="#FEFFFF" transform="matrix(1.00, 0.00, -0.00, -1.00, 561.1, 401.2)">"</text><text xml:space="preserve" font-family="Monaco,Monaco" font-size="16.0" fill="#FEFFFF" transform="matrix(1.00, 0.00, -0.00, -1.00, 570.7, 401.2)">	</text><text xml:space="preserve" font-family="Monaco,Monaco" font-size="16.0" fill="#FEFFFF" transform="matrix(1.00, 0.00, -0.00, -1.00, 294.7, 380.2)">	</text><text xml:space="preserve" font-family="Monaco,Monaco" font-size="16.0" fill="#FEFFFF" transform="matrix(1.00, 0.00, -0.00, -1.00, 322.7, 380.2)">	</text><text xml:space="preserve" font-family="Monaco,Monaco" font-size="16.0" fill="#FEFFFF" transform="matrix(1.00, 0.00, -0.00, -1.00, 350.7, 380.2)">}</text><text xml:space="preserve" font-family="Monaco,Monaco" font-size="16.0" fill="#FEFFFF" transform="matrix(1.00, 0.00, -0.00, -1.00, 360.3, 380.2)">,</text><text xml:space="preserve" font-family="Monaco,Monaco" font-size="16.0" fill="#FEFFFF" transform="matrix(1.00, 0.00, -0.00, -1.00, 369.9, 380.2)">	</text><text xml:space="preserve" font-family="Monaco,Monaco" font-size="16.0" fill="#FEFFFF" transform="matrix(1.00, 0.00, -0.00, -1.00, 294.7, 359.2)">	</text><text xml:space="preserve" font-family="Monaco,Monaco" font-size="16.0" fill="#FEFFFF" transform="matrix(1.00, 0.00, -0.00, -1.00, 322.7, 359.2)">	</text><text xml:space="preserve" font-family="Monaco,Monaco" font-size="16.0" fill="#FEFFFF" transform="matrix(1.00, 0.00, -0.00, -1.00, 350.7, 359.2)">{</text><text xml:space="preserve" font-family="Monaco,Monaco" font-size="16.0" fill="#FEFFFF" transform="matrix(1.00, 0.00, -0.00, -1.00, 360.3, 359.2)">	</text><text xml:space="preserve" font-family="Monaco,Monaco" font-size="16.0" fill="#FEFFFF" transform="matrix(1.00, 0.00, -0.00, -1.00, 294.7, 338.2)">	</text><text xml:space="preserve" font-family="Monaco,Monaco" font-size="16.0" fill="#FEFFFF" transform="matrix(1.00, 0.00, -0.00, -1.00, 322.7, 338.2)">	</text><text xml:space="preserve" font-family="Monaco,Monaco" font-size="16.0" fill="#FEFFFF" transform="matrix(1.00, 0.00, -0.00, -1.00, 350.7, 338.2)">	</text><text xml:space="preserve" font-family="Monaco,Monaco" font-size="16.0" fill="#FEFFFF" transform="matrix(1.00, 0.00, -0.00, -1.00, 378.7, 338.2)">"</text><text xml:space="preserve" font-family="Monaco,Monaco" font-size="16.0" fill="#FEFFFF" transform="matrix(1.00, 0.00, -0.00, -1.00, 388.3, 338.2)">i</text><text xml:space="preserve" font-family="Monaco,Monaco" font-size="16.0" fill="#FEFFFF" transform="matrix(1.00, 0.00, -0.00, -1.00, 397.9, 338.2)">d</text><text xml:space="preserve" font-family="Monaco,Monaco" font-size="16.0" fill="#FEFFFF" transform="matrix(1.00, 0.00, -0.00, -1.00, 407.5, 338.2)">"</text><text xml:space="preserve" font-family="Monaco,Monaco" font-size="16.0" fill="#FEFFFF" transform="matrix(1.00, 0.00, -0.00, -1.00, 417.1, 338.2)">:</text><text xml:space="preserve" font-family="Monaco,Monaco" font-size="16.0" fill="#FEFFFF" transform="matrix(1.00, 0.00, -0.00, -1.00, 426.7, 338.2)"> </text><text xml:space="preserve" font-family="Monaco,Monaco" font-size="16.0" fill="#FEFFFF" transform="matrix(1.00, 0.00, -0.00, -1.00, 436.3, 338.2)">"</text><text xml:space="preserve" font-family="Monaco,Monaco" font-size="16.0" fill="#FEFFFF" transform="matrix(1.00, 0.00, -0.00, -1.00, 445.9, 338.2)">5</text><text xml:space="preserve" font-family="Monaco,Monaco" font-size="16.0" fill="#FEFFFF" transform="matrix(1.00, 0.00, -0.00, -1.00, 455.5, 338.2)">6</text><text xml:space="preserve" font-family="Monaco,Monaco" font-size="16.0" fill="#FEFFFF" transform="matrix(1.00, 0.00, -0.00, -1.00, 465.1, 338.2)">"</text><text xml:space="preserve" font-family="Monaco,Monaco" font-size="16.0" fill="#FEFFFF" transform="matrix(1.00, 0.00, -0.00, -1.00, 474.7, 338.2)">,</text><text xml:space="preserve" font-family="Monaco,Monaco" font-size="16.0" fill="#FEFFFF" transform="matrix(1.00, 0.00, -0.00, -1.00, 484.3, 338.2)">	</text><text xml:space="preserve" font-family="Monaco,Monaco" font-size="16.0" fill="#FEFFFF" transform="matrix(1.00, 0.00, -0.00, -1.00, 294.7, 317.2)">	</text><text xml:space="preserve" font-family="Monaco,Monaco" font-size="16.0" fill="#FEFFFF" transform="matrix(1.00, 0.00, -0.00, -1.00, 322.7, 317.2)">	</text><text xml:space="preserve" font-family="Monaco,Monaco" font-size="16.0" fill="#FEFFFF" transform="matrix(1.00, 0.00, -0.00, -1.00, 350.7, 317.2)">	</text><text xml:space="preserve" font-family="Monaco,Monaco" font-size="16.0" fill="#FEFFFF" transform="matrix(1.00, 0.00, -0.00, -1.00, 378.7, 317.2)">"</text><text xml:space="preserve" font-family="Monaco,Monaco" font-size="16.0" fill="#FEFFFF" transform="matrix(1.00, 0.00, -0.00, -1.00, 388.3, 317.2)">n</text><text xml:space="preserve" font-family="Monaco,Monaco" font-size="16.0" fill="#FEFFFF" transform="matrix(1.00, 0.00, -0.00, -1.00, 397.9, 317.2)">a</text><text xml:space="preserve" font-family="Monaco,Monaco" font-size="16.0" fill="#FEFFFF" transform="matrix(1.00, 0.00, -0.00, -1.00, 407.5, 317.2)">m</text><text xml:space="preserve" font-family="Monaco,Monaco" font-size="16.0" fill="#FEFFFF" transform="matrix(1.00, 0.00, -0.00, -1.00, 417.1, 317.2)">e</text><text xml:space="preserve" font-family="Monaco,Monaco" font-size="16.0" fill="#FEFFFF" transform="matrix(1.00, 0.00, -0.00, -1.00, 426.7, 317.2)">"</text><text xml:space="preserve" font-family="Monaco,Monaco" font-size="16.0" fill="#FEFFFF" transform="matrix(1.00, 0.00, -0.00, -1.00, 436.3, 317.2)">:</text><text xml:space="preserve" font-family="Monaco,Monaco" font-size="16.0" fill="#FEFFFF" transform="matrix(1.00, 0.00, -0.00, -1.00, 445.9, 317.2)"> </text><text xml:space="preserve" font-family="Monaco,Monaco" font-size="16.0" fill="#FEFFFF" transform="matrix(1.00, 0.00, -0.00, -1.00, 455.5, 317.2)">"</text><text xml:space="preserve" font-family="Monaco,Monaco" font-size="16.0" fill="#FEFFFF" transform="matrix(1.00, 0.00, -0.00, -1.00, 465.1, 317.2)">B</text><text xml:space="preserve" font-family="Monaco,Monaco" font-size="16.0" fill="#FEFFFF" transform="matrix(1.00, 0.00, -0.00, -1.00, 474.7, 317.2)">a</text><text xml:space="preserve" font-family="Monaco,Monaco" font-size="16.0" fill="#FEFFFF" transform="matrix(1.00, 0.00, -0.00, -1.00, 484.3, 317.2)">r</text><text xml:space="preserve" font-family="Monaco,Monaco" font-size="16.0" fill="#FEFFFF" transform="matrix(1.00, 0.00, -0.00, -1.00, 493.9, 317.2)"> </text><text xml:space="preserve" font-family="Monaco,Monaco" font-size="16.0" fill="#FEFFFF" transform="matrix(1.00, 0.00, -0.00, -1.00, 503.5, 317.2)">E</text><text xml:space="preserve" font-family="Monaco,Monaco" font-size="16.0" fill="#FEFFFF" transform="matrix(1.00, 0.00, -0.00, -1.00, 513.1, 317.2)">v</text><text xml:space="preserve" font-family="Monaco,Monaco" font-size="16.0" fill="#FEFFFF" transform="matrix(1.00, 0.00, -0.00, -1.00, 522.7, 317.2)">e</text><text xml:space="preserve" font-family="Monaco,Monaco" font-size="16.0" fill="#FEFFFF" transform="matrix(1.00, 0.00, -0.00, -1.00, 532.3, 317.2)">n</text><text xml:space="preserve" font-family="Monaco,Monaco" font-size="16.0" fill="#FEFFFF" transform="matrix(1.00, 0.00, -0.00, -1.00, 541.9, 317.2)">t</text><text xml:space="preserve" font-family="Monaco,Monaco" font-size="16.0" fill="#FEFFFF" transform="matrix(1.00, 0.00, -0.00, -1.00, 551.5, 317.2)">"</text><text xml:space="preserve" font-family="Monaco,Monaco" font-size="16.0" fill="#FEFFFF" transform="matrix(1.00, 0.00, -0.00, -1.00, 561.1, 317.2)">,</text><text xml:space="preserve" font-family="Monaco,Monaco" font-size="16.0" fill="#FEFFFF" transform="matrix(1.00, 0.00, -0.00, -1.00, 570.7, 317.2)">	</text><text xml:space="preserve" font-family="Monaco,Monaco" font-size="16.0" fill="#FEFFFF" transform="matrix(1.00, 0.00, -0.00, -1.00, 294.7, 296.2)">	</text><text xml:space="preserve" font-family="Monaco,Monaco" font-size="16.0" fill="#FEFFFF" transform="matrix(1.00, 0.00, -0.00, -1.00, 322.7, 296.2)">	</text><text xml:space="preserve" font-family="Monaco,Monaco" font-size="16.0" fill="#FEFFFF" transform="matrix(1.00, 0.00, -0.00, -1.00, 350.7, 296.2)">	</text><text xml:space="preserve" font-family="Monaco,Monaco" font-size="16.0" fill="#FEFFFF" transform="matrix(1.00, 0.00, -0.00, -1.00, 378.7, 296.2)">"</text><text xml:space="preserve" font-family="Monaco,Monaco" font-size="16.0" fill="#FEFFFF" transform="matrix(1.00, 0.00, -0.00, -1.00, 388.3, 296.2)">d</text><text xml:space="preserve" font-family="Monaco,Monaco" font-size="16.0" fill="#FEFFFF" transform="matrix(1.00, 0.00, -0.00, -1.00, 397.9, 296.2)">a</text><text xml:space="preserve" font-family="Monaco,Monaco" font-size="16.0" fill="#FEFFFF" transform="matrix(1.00, 0.00, -0.00, -1.00, 407.5, 296.2)">t</text><text xml:space="preserve" font-family="Monaco,Monaco" font-size="16.0" fill="#FEFFFF" transform="matrix(1.00, 0.00, -0.00, -1.00, 417.1, 296.2)">e</text><text xml:space="preserve" font-family="Monaco,Monaco" font-size="16.0" fill="#FEFFFF" transform="matrix(1.00, 0.00, -0.00, -1.00, 426.7, 296.2)">"</text><text xml:space="preserve" font-family="Monaco,Monaco" font-size="16.0" fill="#FEFFFF" transform="matrix(1.00, 0.00, -0.00, -1.00, 436.3, 296.2)">:</text><text xml:space="preserve" font-family="Monaco,Monaco" font-size="16.0" fill="#FEFFFF" transform="matrix(1.00, 0.00, -0.00, -1.00, 445.9, 296.2)"> </text><text xml:space="preserve" font-family="Monaco,Monaco" font-size="16.0" fill="#FEFFFF" transform="matrix(1.00, 0.00, -0.00, -1.00, 455.5, 296.2)">"</text><text xml:space="preserve" font-family="Monaco,Monaco" font-size="16.0" fill="#FEFFFF" transform="matrix(1.00, 0.00, -0.00, -1.00, 465.1, 296.2)">2</text><text xml:space="preserve" font-family="Monaco,Monaco" font-size="16.0" fill="#FEFFFF" transform="matrix(1.00, 0.00, -0.00, -1.00, 474.7, 296.2)">0</text><text xml:space="preserve" font-family="Monaco,Monaco" font-size="16.0" fill="#FEFFFF" transform="matrix(1.00, 0.00, -0.00, -1.00, 484.3, 296.2)">1</text><text xml:space="preserve" font-family="Monaco,Monaco" font-size="16.0" fill="#FEFFFF" transform="matrix(1.00, 0.00, -0.00, -1.00, 493.9, 296.2)">3</text><text xml:space="preserve" font-family="Monaco,Monaco" font-size="16.0" fill="#FEFFFF" transform="matrix(1.00, 0.00, -0.00, -1.00, 503.5, 296.2)">-</text><text xml:space="preserve" font-family="Monaco,Monaco" font-size="16.0" fill="#FEFFFF" transform="matrix(1.00, 0.00, -0.00, -1.00, 513.1, 296.2)">0</text><text xml:space="preserve" font-family="Monaco,Monaco" font-size="16.0" fill="#FEFFFF" transform="matrix(1.00, 0.00, -0.00, -1.00, 522.7, 296.2)">9</text><text xml:space="preserve" font-family="Monaco,Monaco" font-size="16.0" fill="#FEFFFF" transform="matrix(1.00, 0.00, -0.00, -1.00, 532.3, 296.2)">-</text><text xml:space="preserve" font-family="Monaco,Monaco" font-size="16.0" fill="#FEFFFF" transform="matrix(1.00, 0.00, -0.00, -1.00, 541.9, 296.2)">2</text><text xml:space="preserve" font-family="Monaco,Monaco" font-size="16.0" fill="#FEFFFF" transform="matrix(1.00, 0.00, -0.00, -1.00, 551.5, 296.2)">8</text><text xml:space="preserve" font-family="Monaco,Monaco" font-size="16.0" fill="#FEFFFF" transform="matrix(1.00, 0.00, -0.00, -1.00, 561.1, 296.2)">"</text><text xml:space="preserve" font-family="Monaco,Monaco" font-size="16.0" fill="#FEFFFF" transform="matrix(1.00, 0.00, -0.00, -1.00, 570.7, 296.2)">	</text><text xml:space="preserve" font-family="Monaco,Monaco" font-size="16.0" fill="#FEFFFF" transform="matrix(1.00, 0.00, -0.00, -1.00, 294.7, 275.2)">	</text><text xml:space="preserve" font-family="Monaco,Monaco" font-size="16.0" fill="#FEFFFF" transform="matrix(1.00, 0.00, -0.00, -1.00, 322.7, 275.2)">	</text><text xml:space="preserve" font-family="Monaco,Monaco" font-size="16.0" fill="#FEFFFF" transform="matrix(1.00, 0.00, -0.00, -1.00, 350.7, 275.2)">}</text><text xml:space="preserve" font-family="Monaco,Monaco" font-size="16.0" fill="#FEFFFF" transform="matrix(1.00, 0.00, -0.00, -1.00, 360.3, 275.2)">,</text><text xml:space="preserve" font-family="Monaco,Monaco" font-size="16.0" fill="#FEFFFF" transform="matrix(1.00, 0.00, -0.00, -1.00, 369.9, 275.2)">	</text><text xml:space="preserve" font-family="Monaco,Monaco" font-size="16.0" fill="#FEFFFF" transform="matrix(1.00, 0.00, -0.00, -1.00, 294.7, 254.2)">	</text><text xml:space="preserve" font-family="Monaco,Monaco" font-size="16.0" fill="#FEFFFF" transform="matrix(1.00, 0.00, -0.00, -1.00, 322.7, 254.2)">	</text><text xml:space="preserve" font-family="Monaco,Monaco" font-size="16.0" fill="#FEFFFF" transform="matrix(1.00, 0.00, -0.00, -1.00, 350.7, 254.2)">{</text><text xml:space="preserve" font-family="Monaco,Monaco" font-size="16.0" fill="#FEFFFF" transform="matrix(1.00, 0.00, -0.00, -1.00, 360.3, 254.2)">	</text><text xml:space="preserve" font-family="Monaco,Monaco" font-size="16.0" fill="#FEFFFF" transform="matrix(1.00, 0.00, -0.00, -1.00, 294.7, 233.2)">	</text><text xml:space="preserve" font-family="Monaco,Monaco" font-size="16.0" fill="#FEFFFF" transform="matrix(1.00, 0.00, -0.00, -1.00, 322.7, 233.2)">	</text><text xml:space="preserve" font-family="Monaco,Monaco" font-size="16.0" fill="#FEFFFF" transform="matrix(1.00, 0.00, -0.00, -1.00, 350.7, 233.2)">	</text><text xml:space="preserve" font-family="Monaco,Monaco" font-size="16.0" fill="#FEFFFF" transform="matrix(1.00, 0.00, -0.00, -1.00, 378.7, 233.2)">"</text><text xml:space="preserve" font-family="Monaco,Monaco" font-size="16.0" fill="#FEFFFF" transform="matrix(1.00, 0.00, -0.00, -1.00, 388.3, 233.2)">i</text><text xml:space="preserve" font-family="Monaco,Monaco" font-size="16.0" fill="#FEFFFF" transform="matrix(1.00, 0.00, -0.00, -1.00, 397.9, 233.2)">d</text><text xml:space="preserve" font-family="Monaco,Monaco" font-size="16.0" fill="#FEFFFF" transform="matrix(1.00, 0.00, -0.00, -1.00, 407.5, 233.2)">"</text><text xml:space="preserve" font-family="Monaco,Monaco" font-size="16.0" fill="#FEFFFF" transform="matrix(1.00, 0.00, -0.00, -1.00, 417.1, 233.2)">:</text><text xml:space="preserve" font-family="Monaco,Monaco" font-size="16.0" fill="#FEFFFF" transform="matrix(1.00, 0.00, -0.00, -1.00, 426.7, 233.2)"> </text><text xml:space="preserve" font-family="Monaco,Monaco" font-size="16.0" fill="#FEFFFF" transform="matrix(1.00, 0.00, -0.00, -1.00, 436.3, 233.2)">"</text><text xml:space="preserve" font-family="Monaco,Monaco" font-size="16.0" fill="#FEFFFF" transform="matrix(1.00, 0.00, -0.00, -1.00, 445.9, 233.2)">5</text><text xml:space="preserve" font-family="Monaco,Monaco" font-size="16.0" fill="#FEFFFF" transform="matrix(1.00, 0.00, -0.00, -1.00, 455.5, 233.2)">9</text><text xml:space="preserve" font-family="Monaco,Monaco" font-size="16.0" fill="#FEFFFF" transform="matrix(1.00, 0.00, -0.00, -1.00, 465.1, 233.2)">"</text><text xml:space="preserve" font-family="Monaco,Monaco" font-size="16.0" fill="#FEFFFF" transform="matrix(1.00, 0.00, -0.00, -1.00, 474.7, 233.2)">,</text><text xml:space="preserve" font-family="Monaco,Monaco" font-size="16.0" fill="#FEFFFF" transform="matrix(1.00, 0.00, -0.00, -1.00, 484.3, 233.2)">	</text><text xml:space="preserve" font-family="Monaco,Monaco" font-size="16.0" fill="#FEFFFF" transform="matrix(1.00, 0.00, -0.00, -1.00, 294.7, 212.2)">	</text><text xml:space="preserve" font-family="Monaco,Monaco" font-size="16.0" fill="#FEFFFF" transform="matrix(1.00, 0.00, -0.00, -1.00, 322.7, 212.2)">	</text><text xml:space="preserve" font-family="Monaco,Monaco" font-size="16.0" fill="#FEFFFF" transform="matrix(1.00, 0.00, -0.00, -1.00, 350.7, 212.2)">	</text><text xml:space="preserve" font-family="Monaco,Monaco" font-size="16.0" fill="#FEFFFF" transform="matrix(1.00, 0.00, -0.00, -1.00, 378.7, 212.2)">"</text><text xml:space="preserve" font-family="Monaco,Monaco" font-size="16.0" fill="#FEFFFF" transform="matrix(1.00, 0.00, -0.00, -1.00, 388.3, 212.2)">n</text><text xml:space="preserve" font-family="Monaco,Monaco" font-size="16.0" fill="#FEFFFF" transform="matrix(1.00, 0.00, -0.00, -1.00, 397.9, 212.2)">a</text><text xml:space="preserve" font-family="Monaco,Monaco" font-size="16.0" fill="#FEFFFF" transform="matrix(1.00, 0.00, -0.00, -1.00, 407.5, 212.2)">m</text><text xml:space="preserve" font-family="Monaco,Monaco" font-size="16.0" fill="#FEFFFF" transform="matrix(1.00, 0.00, -0.00, -1.00, 417.1, 212.2)">e</text><text xml:space="preserve" font-family="Monaco,Monaco" font-size="16.0" fill="#FEFFFF" transform="matrix(1.00, 0.00, -0.00, -1.00, 426.7, 212.2)">"</text><text xml:space="preserve" font-family="Monaco,Monaco" font-size="16.0" fill="#FEFFFF" transform="matrix(1.00, 0.00, -0.00, -1.00, 436.3, 212.2)">:</text><text xml:space="preserve" font-family="Monaco,Monaco" font-size="16.0" fill="#FEFFFF" transform="matrix(1.00, 0.00, -0.00, -1.00, 445.9, 212.2)"> </text><text xml:space="preserve" font-family="Monaco,Monaco" font-size="16.0" fill="#FEFFFF" transform="matrix(1.00, 0.00, -0.00, -1.00, 455.5, 212.2)">"</text><text xml:space="preserve" font-family="Monaco,Monaco" font-size="16.0" fill="#FEFFFF" transform="matrix(1.00, 0.00, -0.00, -1.00, 465.1, 212.2)">B</text><text xml:space="preserve" font-family="Monaco,Monaco" font-size="16.0" fill="#FEFFFF" transform="matrix(1.00, 0.00, -0.00, -1.00, 474.7, 212.2)">a</text><text xml:space="preserve" font-family="Monaco,Monaco" font-size="16.0" fill="#FEFFFF" transform="matrix(1.00, 0.00, -0.00, -1.00, 484.3, 212.2)">z</text><text xml:space="preserve" font-family="Monaco,Monaco" font-size="16.0" fill="#FEFFFF" transform="matrix(1.00, 0.00, -0.00, -1.00, 493.9, 212.2)"> </text><text xml:space="preserve" font-family="Monaco,Monaco" font-size="16.0" fill="#FEFFFF" transform="matrix(1.00, 0.00, -0.00, -1.00, 503.5, 212.2)">E</text><text xml:space="preserve" font-family="Monaco,Monaco" font-size="16.0" fill="#FEFFFF" transform="matrix(1.00, 0.00, -0.00, -1.00, 513.1, 212.2)">v</text><text xml:space="preserve" font-family="Monaco,Monaco" font-size="16.0" fill="#FEFFFF" transform="matrix(1.00, 0.00, -0.00, -1.00, 522.7, 212.2)">e</text><text xml:space="preserve" font-family="Monaco,Monaco" font-size="16.0" fill="#FEFFFF" transform="matrix(1.00, 0.00, -0.00, -1.00, 532.3, 212.2)">n</text><text xml:space="preserve" font-family="Monaco,Monaco" font-size="16.0" fill="#FEFFFF" transform="matrix(1.00, 0.00, -0.00, -1.00, 541.9, 212.2)">t</text><text xml:space="preserve" font-family="Monaco,Monaco" font-size="16.0" fill="#FEFFFF" transform="matrix(1.00, 0.00, -0.00, -1.00, 551.5, 212.2)">"</text><text xml:space="preserve" font-family="Monaco,Monaco" font-size="16.0" fill="#FEFFFF" transform="matrix(1.00, 0.00, -0.00, -1.00, 561.1, 212.2)">,</text><text xml:space="preserve" font-family="Monaco,Monaco" font-size="16.0" fill="#FEFFFF" transform="matrix(1.00, 0.00, -0.00, -1.00, 570.7, 212.2)">	</text><text xml:space="preserve" font-family="Monaco,Monaco" font-size="16.0" fill="#FEFFFF" transform="matrix(1.00, 0.00, -0.00, -1.00, 294.7, 191.2)">	</text><text xml:space="preserve" font-family="Monaco,Monaco" font-size="16.0" fill="#FEFFFF" transform="matrix(1.00, 0.00, -0.00, -1.00, 322.7, 191.2)">	</text><text xml:space="preserve" font-family="Monaco,Monaco" font-size="16.0" fill="#FEFFFF" transform="matrix(1.00, 0.00, -0.00, -1.00, 350.7, 191.2)">	</text><text xml:space="preserve" font-family="Monaco,Monaco" font-size="16.0" fill="#FEFFFF" transform="matrix(1.00, 0.00, -0.00, -1.00, 378.7, 191.2)">"</text><text xml:space="preserve" font-family="Monaco,Monaco" font-size="16.0" fill="#FEFFFF" transform="matrix(1.00, 0.00, -0.00, -1.00, 388.3, 191.2)">d</text><text xml:space="preserve" font-family="Monaco,Monaco" font-size="16.0" fill="#FEFFFF" transform="matrix(1.00, 0.00, -0.00, -1.00, 397.9, 191.2)">a</text><text xml:space="preserve" font-family="Monaco,Monaco" font-size="16.0" fill="#FEFFFF" transform="matrix(1.00, 0.00, -0.00, -1.00, 407.5, 191.2)">t</text><text xml:space="preserve" font-family="Monaco,Monaco" font-size="16.0" fill="#FEFFFF" transform="matrix(1.00, 0.00, -0.00, -1.00, 417.1, 191.2)">e</text><text xml:space="preserve" font-family="Monaco,Monaco" font-size="16.0" fill="#FEFFFF" transform="matrix(1.00, 0.00, -0.00, -1.00, 426.7, 191.2)">"</text><text xml:space="preserve" font-family="Monaco,Monaco" font-size="16.0" fill="#FEFFFF" transform="matrix(1.00, 0.00, -0.00, -1.00, 436.3, 191.2)">:</text><text xml:space="preserve" font-family="Monaco,Monaco" font-size="16.0" fill="#FEFFFF" transform="matrix(1.00, 0.00, -0.00, -1.00, 445.9, 191.2)"> </text><text xml:space="preserve" font-family="Monaco,Monaco" font-size="16.0" fill="#FEFFFF" transform="matrix(1.00, 0.00, -0.00, -1.00, 455.5, 191.2)">"</text><text xml:space="preserve" font-family="Monaco,Monaco" font-size="16.0" fill="#FEFFFF" transform="matrix(1.00, 0.00, -0.00, -1.00, 465.1, 191.2)">2</text><text xml:space="preserve" font-family="Monaco,Monaco" font-size="16.0" fill="#FEFFFF" transform="matrix(1.00, 0.00, -0.00, -1.00, 474.7, 191.2)">0</text><text xml:space="preserve" font-family="Monaco,Monaco" font-size="16.0" fill="#FEFFFF" transform="matrix(1.00, 0.00, -0.00, -1.00, 484.3, 191.2)">1</text><text xml:space="preserve" font-family="Monaco,Monaco" font-size="16.0" fill="#FEFFFF" transform="matrix(1.00, 0.00, -0.00, -1.00, 493.9, 191.2)">4</text><text xml:space="preserve" font-family="Monaco,Monaco" font-size="16.0" fill="#FEFFFF" transform="matrix(1.00, 0.00, -0.00, -1.00, 503.5, 191.2)">-</text><text xml:space="preserve" font-family="Monaco,Monaco" font-size="16.0" fill="#FEFFFF" transform="matrix(1.00, 0.00, -0.00, -1.00, 513.1, 191.2)">0</text><text xml:space="preserve" font-family="Monaco,Monaco" font-size="16.0" fill="#FEFFFF" transform="matrix(1.00, 0.00, -0.00, -1.00, 522.7, 191.2)">1</text><text xml:space="preserve" font-family="Monaco,Monaco" font-size="16.0" fill="#FEFFFF" transform="matrix(1.00, 0.00, -0.00, -1.00, 532.3, 191.2)">-</text><text xml:space="preserve" font-family="Monaco,Monaco" font-size="16.0" fill="#FEFFFF" transform="matrix(1.00, 0.00, -0.00, -1.00, 541.9, 191.2)">0</text><text xml:space="preserve" font-family="Monaco,Monaco" font-size="16.0" fill="#FEFFFF" transform="matrix(1.00, 0.00, -0.00, -1.00, 551.5, 191.2)">8</text><text xml:space="preserve" font-family="Monaco,Monaco" font-size="16.0" fill="#FEFFFF" transform="matrix(1.00, 0.00, -0.00, -1.00, 561.1, 191.2)">"</text><text xml:space="preserve" font-family="Monaco,Monaco" font-size="16.0" fill="#FEFFFF" transform="matrix(1.00, 0.00, -0.00, -1.00, 570.7, 191.2)">	</text><text xml:space="preserve" font-family="Monaco,Monaco" font-size="16.0" fill="#FEFFFF" transform="matrix(1.00, 0.00, -0.00, -1.00, 294.7, 170.2)">	</text><text xml:space="preserve" font-family="Monaco,Monaco" font-size="16.0" fill="#FEFFFF" transform="matrix(1.00, 0.00, -0.00, -1.00, 322.7, 170.2)">	</text><text xml:space="preserve" font-family="Monaco,Monaco" font-size="16.0" fill="#FEFFFF" transform="matrix(1.00, 0.00, -0.00, -1.00, 350.7, 170.2)">}</text><text xml:space="preserve" font-family="Monaco,Monaco" font-size="16.0" fill="#FEFFFF" transform="matrix(1.00, 0.00, -0.00, -1.00, 360.3, 170.2)">	</text><text xml:space="preserve" font-family="Monaco,Monaco" font-size="16.0" fill="#FEFFFF" transform="matrix(1.00, 0.00, -0.00, -1.00, 294.7, 149.2)">	</text><text xml:space="preserve" font-family="Monaco,Monaco" font-size="16.0" fill="#FEFFFF" transform="matrix(1.00, 0.00, -0.00, -1.00, 322.7, 149.2)">]</text><text xml:space="preserve" font-family="Monaco,Monaco" font-size="16.0" fill="#FEFFFF" transform="matrix(1.00, 0.00, -0.00, -1.00, 332.3, 149.2)">	</text><text xml:space="preserve" font-family="Monaco,Monaco" font-size="16.0" fill="#FEFFFF" transform="matrix(1.00, 0.00, -0.00, -1.00, 294.7, 128.2)">}</text></g></svg>