<?xml version="1.0" encoding="UTF-8" standalone="no"?><svg xmlns="http://www.w3.org/2000/svg" xmlns:xlink="http://www.w3.org/1999/xlink" clip-rule="evenodd" stroke-miterlimit="10" viewBox="0 0 552 29"><desc>SVG generated by Keynote</desc><defs></defs><g transform="matrix(1.00, 0.00, -0.00, -1.00, 0.0, 29.0)"><text xml:space="preserve" font-family="Helvetica-Light,Helvetica" font-size="19.5" fill="#514F4D" transform="matrix(1.00, 0.00, -0.00, -1.00, 0.3, 10.0)">•</text><text xml:space="preserve" font-family="Helvetica-Light,Helvetica" font-size="26.0" fill="#514F4D" transform="matrix(1.00, 0.00, -0.00, -1.00, 24.2, 7.5)">S</text><text xml:space="preserve" font-family="Helvetica-Light,Helvetica" font-size="26.0" fill="#514F4D" transform="matrix(1.00, 0.00, -0.00, -1.00, 40.1, 7.5)">e</text><text xml:space="preserve" font-family="Helvetica-Light,Helvetica" font-size="26.0" fill="#514F4D" transform="matrix(1.00, 0.00, -0.00, -1.00, 54.6, 7.5)">p</text><text xml:space="preserve" font-family="Helvetica-Light,Helvetica" font-size="26.0" fill="#514F4D" transform="matrix(1.00, 0.00, -0.00, -1.00, 70.5, 7.5)">a</text><text xml:space="preserve" font-family="Helvetica-Light,Helvetica" font-size="26.0" fill="#514F4D" transform="matrix(1.00, 0.00, -0.00, -1.00, 84.9, 7.5)">r</text><text xml:space="preserve" font-family="Helvetica-Light,Helvetica" font-size="26.0" fill="#514F4D" transform="matrix(1.00, 0.00, -0.00, -1.00, 93.6, 7.5)">a</text><text xml:space="preserve" font-family="Helvetica-Light,Helvetica" font-size="26.0" fill="#514F4D" transform="matrix(1.00, 0.00, -0.00, -1.00, 108.0, 7.5)">t</text><text xml:space="preserve" font-family="Helvetica-Light,Helvetica" font-size="26.0" fill="#514F4D" transform="matrix(1.00, 0.00, -0.00, -1.00, 115.3, 7.5)">i</text><text xml:space="preserve" font-family="Helvetica-Light,Helvetica" font-size="26.0" fill="#514F4D" transform="matrix(1.00, 0.00, -0.00, -1.00, 121.0, 7.5)">o</text><text xml:space="preserve" font-family="Helvetica-Light,Helvetica" font-size="26.0" fill="#514F4D" transform="matrix(1.00, 0.00, -0.00, -1.00, 135.5, 7.5)">n</text><text xml:space="preserve" font-family="Helvetica-Light,Helvetica" font-size="26.0" fill="#514F4D" transform="matrix(1.00, 0.00, -0.00, -1.00, 149.9, 7.5)"> </text><text xml:space="preserve" font-family="Helvetica-Light,Helvetica" font-size="26.0" fill="#514F4D" transform="matrix(1.00, 0.00, -0.00, -1.00, 157.2, 7.5)">o</text><text xml:space="preserve" font-family="Helvetica-Light,Helvetica" font-size="26.0" fill="#514F4D" transform="matrix(1.00, 0.00, -0.00, -1.00, 171.6, 7.5)">f</text><text xml:space="preserve" font-family="Helvetica-Light,Helvetica" font-size="26.0" fill="#514F4D" transform="matrix(1.00, 0.00, -0.00, -1.00, 178.9, 7.5)"> </text><text xml:space="preserve" font-family="Helvetica-Light,Helvetica" font-size="26.0" fill="#514F4D" transform="matrix(1.00, 0.00, -0.00, -1.00, 186.1, 7.5)">c</text><text xml:space="preserve" font-family="Helvetica-Light,Helvetica" font-size="26.0" fill="#514F4D" transform="matrix(1.00, 0.00, -0.00, -1.00, 200.5, 7.5)">o</text><text xml:space="preserve" font-family="Helvetica-Light,Helvetica" font-size="26.0" fill="#514F4D" transform="matrix(1.00, 0.00, -0.00, -1.00, 215.0, 7.5)">n</text><text xml:space="preserve" font-family="Helvetica-Light,Helvetica" font-size="26.0" fill="#514F4D" transform="matrix(1.00, 0.00, -0.00, -1.00, 229.5, 7.5)">c</text><text xml:space="preserve" font-family="Helvetica-Light,Helvetica" font-size="26.0" fill="#514F4D" transform="matrix(1.00, 0.00, -0.00, -1.00, 243.9, 7.5)">e</text><text xml:space="preserve" font-family="Helvetica-Light,Helvetica" font-size="26.0" fill="#514F4D" transform="matrix(1.00, 0.00, -0.00, -1.00, 258.4, 7.5)">r</text><text xml:space="preserve" font-family="Helvetica-Light,Helvetica" font-size="26.0" fill="#514F4D" transform="matrix(1.00, 0.00, -0.00, -1.00, 267.5, 7.5)">n</text><text xml:space="preserve" font-family="Helvetica-Light,Helvetica" font-size="26.0" fill="#514F4D" transform="matrix(1.00, 0.00, -0.00, -1.00, 281.9, 7.5)">s</text><text xml:space="preserve" font-family="Helvetica-Light,Helvetica" font-size="26.0" fill="#514F4D" transform="matrix(1.00, 0.00, -0.00, -1.00, 294.9, 7.5)"> </text><text xml:space="preserve" font-family="Helvetica-Light,Helvetica" font-size="26.0" fill="#514F4D" transform="matrix(1.00, 0.00, -0.00, -1.00, 302.2, 7.5)">b</text><text xml:space="preserve" font-family="Helvetica-Light,Helvetica" font-size="26.0" fill="#514F4D" transform="matrix(1.00, 0.00, -0.00, -1.00, 318.1, 7.5)">e</text><text xml:space="preserve" font-family="Helvetica-Light,Helvetica" font-size="26.0" fill="#514F4D" transform="matrix(1.00, 0.00, -0.00, -1.00, 332.5, 7.5)">t</text><text xml:space="preserve" font-family="Helvetica-Light,Helvetica" font-size="26.0" fill="#514F4D" transform="matrix(1.00, 0.00, -0.00, -1.00, 339.7, 7.5)">w</text><text xml:space="preserve" font-family="Helvetica-Light,Helvetica" font-size="26.0" fill="#514F4D" transform="matrix(1.00, 0.00, -0.00, -1.00, 358.5, 7.5)">e</text><text xml:space="preserve" font-family="Helvetica-Light,Helvetica" font-size="26.0" fill="#514F4D" transform="matrix(1.00, 0.00, -0.00, -1.00, 373.0, 7.5)">e</text><text xml:space="preserve" font-family="Helvetica-Light,Helvetica" font-size="26.0" fill="#514F4D" transform="matrix(1.00, 0.00, -0.00, -1.00, 387.4, 7.5)">n</text><text xml:space="preserve" font-family="Helvetica-Light,Helvetica" font-size="26.0" fill="#514F4D" transform="matrix(1.00, 0.00, -0.00, -1.00, 401.9, 7.5)"> </text><text xml:space="preserve" font-family="Helvetica-Light,Helvetica" font-size="26.0" fill="#514F4D" transform="matrix(1.00, 0.00, -0.00, -1.00, 409.1, 7.5)">c</text><text xml:space="preserve" font-family="Helvetica-Light,Helvetica" font-size="26.0" fill="#514F4D" transform="matrix(1.00, 0.00, -0.00, -1.00, 423.6, 7.5)">l</text><text xml:space="preserve" font-family="Helvetica-Light,Helvetica" font-size="26.0" fill="#514F4D" transform="matrix(1.00, 0.00, -0.00, -1.00, 429.3, 7.5)">i</text><text xml:space="preserve" font-family="Helvetica-Light,Helvetica" font-size="26.0" fill="#514F4D" transform="matrix(1.00, 0.00, -0.00, -1.00, 435.1, 7.5)">e</text><text xml:space="preserve" font-family="Helvetica-Light,Helvetica" font-size="26.0" fill="#514F4D" transform="matrix(1.00, 0.00, -0.00, -1.00, 449.6, 7.5)">n</text><text xml:space="preserve" font-family="Helvetica-Light,Helvetica" font-size="26.0" fill="#514F4D" transform="matrix(1.00, 0.00, -0.00, -1.00, 464.0, 7.5)">t</text><text xml:space="preserve" font-family="Helvetica-Light,Helvetica" font-size="26.0" fill="#514F4D" transform="matrix(1.00, 0.00, -0.00, -1.00, 471.3, 7.5)">/</text><text xml:space="preserve" font-family="Helvetica-Light,Helvetica" font-size="26.0" fill="#514F4D" transform="matrix(1.00, 0.00, -0.00, -1.00, 478.5, 7.5)">s</text><text xml:space="preserve" font-family="Helvetica-Light,Helvetica" font-size="26.0" fill="#514F4D" transform="matrix(1.00, 0.00, -0.00, -1.00, 491.5, 7.5)">e</text><text xml:space="preserve" font-family="Helvetica-Light,Helvetica" font-size="26.0" fill="#514F4D" transform="matrix(1.00, 0.00, -0.00, -1.00, 505.9, 7.5)">r</text><text xml:space="preserve" font-family="Helvetica-Light,Helvetica" font-size="26.0" fill="#514F4D" transform="matrix(1.00, 0.00, -0.00, -1.00, 514.6, 7.5)">v</text><text xml:space="preserve" font-family="Helvetica-Light,Helvetica" font-size="26.0" fill="#514F4D" transform="matrix(1.00, 0.00, -0.00, -1.00, 527.6, 7.5)">e</text><text xml:space="preserve" font-family="Helvetica-Light,Helvetica" font-size="26.0" fill="#514F4D" transform="matrix(1.00, 0.00, -0.00, -1.00, 542.1, 7.5)">r</text></g></svg>