<?xml version="1.0" encoding="UTF-8" standalone="no"?><svg xmlns="http://www.w3.org/2000/svg" xmlns:xlink="http://www.w3.org/1999/xlink" clip-rule="evenodd" stroke-miterlimit="10" viewBox="0 0 131 25"><desc>SVG generated by Keynote</desc><defs></defs><g transform="matrix(1.00, 0.00, -0.00, -1.00, 0.0, 25.0)"><text xml:space="preserve" font-family="Helvetica-Light,Helvetica" font-size="19.5" fill="#514F4D" transform="matrix(1.00, 0.00, -0.00, -1.00, 0.3, 6.0)">•</text><text xml:space="preserve" font-family="Helvetica-Light,Helvetica" font-size="26.0" fill="#514F4D" transform="matrix(1.00, 0.00, -0.00, -1.00, 24.2, 3.5)">S</text><text xml:space="preserve" font-family="Helvetica-Light,Helvetica" font-size="26.0" fill="#514F4D" transform="matrix(1.00, 0.00, -0.00, -1.00, 40.1, 3.5)">t</text><text xml:space="preserve" font-family="Helvetica-Light,Helvetica" font-size="26.0" fill="#514F4D" transform="matrix(1.00, 0.00, -0.00, -1.00, 47.4, 3.5)">a</text><text xml:space="preserve" font-family="Helvetica-Light,Helvetica" font-size="26.0" fill="#514F4D" transform="matrix(1.00, 0.00, -0.00, -1.00, 61.8, 3.5)">t</text><text xml:space="preserve" font-family="Helvetica-Light,Helvetica" font-size="26.0" fill="#514F4D" transform="matrix(1.00, 0.00, -0.00, -1.00, 69.0, 3.5)">e</text><text xml:space="preserve" font-family="Helvetica-Light,Helvetica" font-size="26.0" fill="#514F4D" transform="matrix(1.00, 0.00, -0.00, -1.00, 83.5, 3.5)">l</text><text xml:space="preserve" font-family="Helvetica-Light,Helvetica" font-size="26.0" fill="#514F4D" transform="matrix(1.00, 0.00, -0.00, -1.00, 89.3, 3.5)">e</text><text xml:space="preserve" font-family="Helvetica-Light,Helvetica" font-size="26.0" fill="#514F4D" transform="matrix(1.00, 0.00, -0.00, -1.00, 103.7, 3.5)">s</text><text xml:space="preserve" font-family="Helvetica-Light,Helvetica" font-size="26.0" fill="#514F4D" transform="matrix(1.00, 0.00, -0.00, -1.00, 116.7, 3.5)">s</text></g></svg>