<?xml version="1.0" encoding="UTF-8" standalone="no"?><svg xmlns="http://www.w3.org/2000/svg" xmlns:xlink="http://www.w3.org/1999/xlink" clip-rule="evenodd" stroke-miterlimit="10" viewBox="0 0 1024 768"><desc>SVG generated by Keynote</desc><defs></defs><g transform="matrix(1.00, 0.00, -0.00, -1.00, 0.0, 768.0)"><path d="M 0.0 768.0 L 1024.0 768.0 L 1024.0 0.0 L 0.0 0.0 Z M 0.0 768.0 " fill="#000000"></path><text xml:space="preserve" font-family="ProximaNova-Black,Proxima Nova" font-weight="bold" font-size="60.2" fill="#FF456F" transform="matrix(1.00, 0.00, -0.00, -1.00, 107.2, 686.6)">R</text><text xml:space="preserve" font-family="ProximaNova-Black,Proxima Nova" font-weight="bold" font-size="60.2" fill="#FF456F" transform="matrix(1.00, 0.00, -0.00, -1.00, 148.0, 686.6)">i</text><text xml:space="preserve" font-family="ProximaNova-Black,Proxima Nova" font-weight="bold" font-size="60.2" fill="#FF456F" transform="matrix(1.00, 0.00, -0.00, -1.00, 164.9, 686.6)">c</text><text xml:space="preserve" font-family="ProximaNova-Black,Proxima Nova" font-weight="bold" font-size="60.2" fill="#FF456F" transform="matrix(1.00, 0.00, -0.00, -1.00, 195.1, 686.6)">h</text><text xml:space="preserve" font-family="ProximaNova-Black,Proxima Nova" font-weight="bold" font-size="60.2" fill="#FF456F" transform="matrix(1.00, 0.00, -0.00, -1.00, 231.7, 686.6)">a</text><text xml:space="preserve" font-family="ProximaNova-Black,Proxima Nova" font-weight="bold" font-size="60.2" fill="#FF456F" transform="matrix(1.00, 0.00, -0.00, -1.00, 265.4, 686.6)">r</text><text xml:space="preserve" font-family="ProximaNova-Black,Proxima Nova" font-weight="bold" font-size="60.2" fill="#FF456F" transform="matrix(1.00, 0.00, -0.00, -1.00, 288.8, 686.6)">d</text><text xml:space="preserve" font-family="ProximaNova-Black,Proxima Nova" font-weight="bold" font-size="60.2" fill="#FF456F" transform="matrix(1.00, 0.00, -0.00, -1.00, 324.7, 686.6)">s</text><text xml:space="preserve" font-family="ProximaNova-Black,Proxima Nova" font-weight="bold" font-size="60.2" fill="#FF456F" transform="matrix(1.00, 0.00, -0.00, -1.00, 354.2, 686.6)">o</text><text xml:space="preserve" font-family="ProximaNova-Black,Proxima Nova" font-weight="bold" font-size="60.2" fill="#FF456F" transform="matrix(1.00, 0.00, -0.00, -1.00, 389.0, 686.6)">n</text><text xml:space="preserve" font-family="ProximaNova-Black,Proxima Nova" font-weight="bold" font-size="60.2" fill="#FF456F" transform="matrix(1.00, 0.00, -0.00, -1.00, 424.3, 686.6)">’</text><text xml:space="preserve" font-family="ProximaNova-Black,Proxima Nova" font-weight="bold" font-size="60.2" fill="#FF456F" transform="matrix(1.00, 0.00, -0.00, -1.00, 439.4, 686.6)">s</text><text xml:space="preserve" font-family="ProximaNova-Black,Proxima Nova" font-weight="bold" font-size="60.2" fill="#FF456F" transform="matrix(1.00, 0.00, -0.00, -1.00, 468.9, 686.6)"> </text><text xml:space="preserve" font-family="ProximaNova-Black,Proxima Nova" font-weight="bold" font-size="60.2" fill="#FF456F" transform="matrix(1.00, 0.00, -0.00, -1.00, 484.2, 686.6)">M</text><text xml:space="preserve" font-family="ProximaNova-Black,Proxima Nova" font-weight="bold" font-size="60.2" fill="#FF456F" transform="matrix(1.00, 0.00, -0.00, -1.00, 538.4, 686.6)">a</text><text xml:space="preserve" font-family="ProximaNova-Black,Proxima Nova" font-weight="bold" font-size="60.2" fill="#FF456F" transform="matrix(1.00, 0.00, -0.00, -1.00, 572.1, 686.6)">t</text><text xml:space="preserve" font-family="ProximaNova-Black,Proxima Nova" font-weight="bold" font-size="60.2" fill="#FF456F" transform="matrix(1.00, 0.00, -0.00, -1.00, 595.1, 686.6)">u</text><text xml:space="preserve" font-family="ProximaNova-Black,Proxima Nova" font-weight="bold" font-size="60.2" fill="#FF456F" transform="matrix(1.00, 0.00, -0.00, -1.00, 631.6, 686.6)">r</text><text xml:space="preserve" font-family="ProximaNova-Black,Proxima Nova" font-weight="bold" font-size="60.2" fill="#FF456F" transform="matrix(1.00, 0.00, -0.00, -1.00, 655.0, 686.6)">i</text><text xml:space="preserve" font-family="ProximaNova-Black,Proxima Nova" font-weight="bold" font-size="60.2" fill="#FF456F" transform="matrix(1.00, 0.00, -0.00, -1.00, 671.9, 686.6)">t</text><text xml:space="preserve" font-family="ProximaNova-Black,Proxima Nova" font-weight="bold" font-size="60.2" fill="#FF456F" transform="matrix(1.00, 0.00, -0.00, -1.00, 694.9, 686.6)">y</text><text xml:space="preserve" font-family="ProximaNova-Black,Proxima Nova" font-weight="bold" font-size="60.2" fill="#FF456F" transform="matrix(1.00, 0.00, -0.00, -1.00, 727.1, 686.6)"> </text><text xml:space="preserve" font-family="ProximaNova-Black,Proxima Nova" font-weight="bold" font-size="60.2" fill="#FF456F" transform="matrix(1.00, 0.00, -0.00, -1.00, 742.4, 686.6)">M</text><text xml:space="preserve" font-family="ProximaNova-Black,Proxima Nova" font-weight="bold" font-size="60.2" fill="#FF456F" transform="matrix(1.00, 0.00, -0.00, -1.00, 796.6, 686.6)">o</text><text xml:space="preserve" font-family="ProximaNova-Black,Proxima Nova" font-weight="bold" font-size="60.2" fill="#FF456F" transform="matrix(1.00, 0.00, -0.00, -1.00, 831.4, 686.6)">d</text><text xml:space="preserve" font-family="ProximaNova-Black,Proxima Nova" font-weight="bold" font-size="60.2" fill="#FF456F" transform="matrix(1.00, 0.00, -0.00, -1.00, 867.2, 686.6)">e</text><text xml:space="preserve" font-family="ProximaNova-Black,Proxima Nova" font-weight="bold" font-size="60.2" fill="#FF456F" transform="matrix(1.00, 0.00, -0.00, -1.00, 899.9, 686.6)">l</text><text xml:space="preserve" font-family="ProximaNova-Black,Proxima Nova" font-weight="bold" font-size="60.2" fill="#FF456F" transform="matrix(1.00, 0.00, -0.00, -1.00, 916.8, 686.6)"> </text><path d="M 77.0 625.0 L 295.0 625.0 L 295.0 536.0 L 77.0 536.0 Z M 76.7 624.5 " fill="#7ADA45"></path><g><clipPath id="clip0x6080026b8780"><path d="M 74.2 535.5 L 297.9 535.5 L 297.9 624.5 L 74.2 624.5 Z M 74.2 535.5 "></path></clipPath><g clip-path="url(#clip0x6080026b8780)"><text xml:space="preserve" font-family="Helvetica-Light,Helvetica" font-size="26.0" fill="#FEFFFF" transform="matrix(1.00, 0.00, -0.00, -1.00, 114.3, 570.5)">H</text><text xml:space="preserve" font-family="Helvetica-Light,Helvetica" font-size="26.0" fill="#FEFFFF" transform="matrix(1.00, 0.00, -0.00, -1.00, 133.1, 570.5)">y</text><text xml:space="preserve" font-family="Helvetica-Light,Helvetica" font-size="26.0" fill="#FEFFFF" transform="matrix(1.00, 0.00, -0.00, -1.00, 146.1, 570.5)">p</text><text xml:space="preserve" font-family="Helvetica-Light,Helvetica" font-size="26.0" fill="#FEFFFF" transform="matrix(1.00, 0.00, -0.00, -1.00, 162.0, 570.5)">e</text><text xml:space="preserve" font-family="Helvetica-Light,Helvetica" font-size="26.0" fill="#FEFFFF" transform="matrix(1.00, 0.00, -0.00, -1.00, 176.4, 570.5)">r</text><text xml:space="preserve" font-family="Helvetica-Light,Helvetica" font-size="26.0" fill="#FEFFFF" transform="matrix(1.00, 0.00, -0.00, -1.00, 185.5, 570.5)">m</text><text xml:space="preserve" font-family="Helvetica-Light,Helvetica" font-size="26.0" fill="#FEFFFF" transform="matrix(1.00, 0.00, -0.00, -1.00, 207.2, 570.5)">e</text><text xml:space="preserve" font-family="Helvetica-Light,Helvetica" font-size="26.0" fill="#FEFFFF" transform="matrix(1.00, 0.00, -0.00, -1.00, 221.7, 570.5)">d</text><text xml:space="preserve" font-family="Helvetica-Light,Helvetica" font-size="26.0" fill="#FEFFFF" transform="matrix(1.00, 0.00, -0.00, -1.00, 237.5, 570.5)">i</text><text xml:space="preserve" font-family="Helvetica-Light,Helvetica" font-size="26.0" fill="#FEFFFF" transform="matrix(1.00, 0.00, -0.00, -1.00, 243.3, 570.5)">a</text></g></g><path d="M 77.0 535.0 L 295.0 535.0 L 295.0 446.0 L 77.0 446.0 Z M 76.7 534.5 " fill="#E7A432"></path><g><clipPath id="clip0x6080026b8de0"><path d="M 74.2 445.5 L 297.9 445.5 L 297.9 534.5 L 74.2 534.5 Z M 74.2 445.5 "></path></clipPath><g clip-path="url(#clip0x6080026b8de0)"><text xml:space="preserve" font-family="Helvetica-Light,Helvetica" font-size="26.0" fill="#FEFFFF" transform="matrix(1.00, 0.00, -0.00, -1.00, 154.2, 480.5)">H</text><text xml:space="preserve" font-family="Helvetica-Light,Helvetica" font-size="26.0" fill="#FEFFFF" transform="matrix(1.00, 0.00, -0.00, -1.00, 173.0, 480.5)">T</text><text xml:space="preserve" font-family="Helvetica-Light,Helvetica" font-size="26.0" fill="#FEFFFF" transform="matrix(1.00, 0.00, -0.00, -1.00, 187.5, 480.5)">T</text><text xml:space="preserve" font-family="Helvetica-Light,Helvetica" font-size="26.0" fill="#FEFFFF" transform="matrix(1.00, 0.00, -0.00, -1.00, 201.9, 480.5)">P</text></g></g><text xml:space="preserve" font-family="Helvetica-Light,Helvetica" font-size="56.0" fill="#FEFFFF" transform="matrix(1.00, 0.00, -0.00, -1.00, 472.4, 469.4)">L</text><text xml:space="preserve" font-family="Helvetica-Light,Helvetica" font-size="56.0" fill="#FEFFFF" transform="matrix(1.00, 0.00, -0.00, -1.00, 503.5, 469.4)">e</text><text xml:space="preserve" font-family="Helvetica-Light,Helvetica" font-size="56.0" fill="#FEFFFF" transform="matrix(1.00, 0.00, -0.00, -1.00, 534.7, 469.4)">v</text><text xml:space="preserve" font-family="Helvetica-Light,Helvetica" font-size="56.0" fill="#FEFFFF" transform="matrix(1.00, 0.00, -0.00, -1.00, 562.7, 469.4)">e</text><text xml:space="preserve" font-family="Helvetica-Light,Helvetica" font-size="56.0" fill="#FEFFFF" transform="matrix(1.00, 0.00, -0.00, -1.00, 593.8, 469.4)">l</text><text xml:space="preserve" font-family="Helvetica-Light,Helvetica" font-size="56.0" fill="#FEFFFF" transform="matrix(1.00, 0.00, -0.00, -1.00, 606.2, 469.4)"> </text><text xml:space="preserve" font-family="Helvetica-Light,Helvetica" font-size="56.0" fill="#FEFFFF" transform="matrix(1.00, 0.00, -0.00, -1.00, 621.8, 469.4)">3</text><text xml:space="preserve" font-family="Helvetica-Light,Helvetica" font-size="27.0" fill="#FEFFFF" transform="matrix(1.00, 0.00, -0.00, -1.00, 330.1, 267.7)">•</text><text xml:space="preserve" font-family="Helvetica-Light,Helvetica" font-size="36.0" fill="#FEFFFF" transform="matrix(1.00, 0.00, -0.00, -1.00, 363.2, 264.3)">R</text><text xml:space="preserve" font-family="Helvetica-Light,Helvetica" font-size="36.0" fill="#FEFFFF" transform="matrix(1.00, 0.00, -0.00, -1.00, 387.2, 264.3)">e</text><text xml:space="preserve" font-family="Helvetica-Light,Helvetica" font-size="36.0" fill="#FEFFFF" transform="matrix(1.00, 0.00, -0.00, -1.00, 407.3, 264.3)">s</text><text xml:space="preserve" font-family="Helvetica-Light,Helvetica" font-size="36.0" fill="#FEFFFF" transform="matrix(1.00, 0.00, -0.00, -1.00, 425.3, 264.3)">o</text><text xml:space="preserve" font-family="Helvetica-Light,Helvetica" font-size="36.0" fill="#FEFFFF" transform="matrix(1.00, 0.00, -0.00, -1.00, 445.3, 264.3)">u</text><text xml:space="preserve" font-family="Helvetica-Light,Helvetica" font-size="36.0" fill="#FEFFFF" transform="matrix(1.00, 0.00, -0.00, -1.00, 465.3, 264.3)">r</text><text xml:space="preserve" font-family="Helvetica-Light,Helvetica" font-size="36.0" fill="#FEFFFF" transform="matrix(1.00, 0.00, -0.00, -1.00, 476.6, 264.3)">c</text><text xml:space="preserve" font-family="Helvetica-Light,Helvetica" font-size="36.0" fill="#FEFFFF" transform="matrix(1.00, 0.00, -0.00, -1.00, 496.6, 264.3)">e</text><text xml:space="preserve" font-family="Helvetica-Light,Helvetica" font-size="36.0" fill="#FEFFFF" transform="matrix(1.00, 0.00, -0.00, -1.00, 516.7, 264.3)">s</text><text xml:space="preserve" font-family="Helvetica-Light,Helvetica" font-size="36.0" fill="#FEFFFF" transform="matrix(1.00, 0.00, -0.00, -1.00, 534.7, 264.3)"> </text><text xml:space="preserve" font-family="Helvetica-Light,Helvetica" font-size="36.0" fill="#FF456F" transform="matrix(1.00, 0.00, -0.00, -1.00, 544.7, 264.3)">d</text><text xml:space="preserve" font-family="Helvetica-Light,Helvetica" font-size="36.0" fill="#FF456F" transform="matrix(1.00, 0.00, -0.00, -1.00, 566.7, 264.3)">e</text><text xml:space="preserve" font-family="Helvetica-Light,Helvetica" font-size="36.0" fill="#FF456F" transform="matrix(1.00, 0.00, -0.00, -1.00, 586.7, 264.3)">s</text><text xml:space="preserve" font-family="Helvetica-Light,Helvetica" font-size="36.0" fill="#FF456F" transform="matrix(1.00, 0.00, -0.00, -1.00, 604.7, 264.3)">c</text><text xml:space="preserve" font-family="Helvetica-Light,Helvetica" font-size="36.0" fill="#FF456F" transform="matrix(1.00, 0.00, -0.00, -1.00, 624.7, 264.3)">r</text><text xml:space="preserve" font-family="Helvetica-Light,Helvetica" font-size="36.0" fill="#FF456F" transform="matrix(1.00, 0.00, -0.00, -1.00, 636.7, 264.3)">i</text><text xml:space="preserve" font-family="Helvetica-Light,Helvetica" font-size="36.0" fill="#FF456F" transform="matrix(1.00, 0.00, -0.00, -1.00, 644.7, 264.3)">b</text><text xml:space="preserve" font-family="Helvetica-Light,Helvetica" font-size="36.0" fill="#FF456F" transform="matrix(1.00, 0.00, -0.00, -1.00, 666.7, 264.3)">e</text><text xml:space="preserve" font-family="Helvetica-Light,Helvetica" font-size="36.0" fill="#FEFFFF" transform="matrix(1.00, 0.00, -0.00, -1.00, 686.7, 264.3)"> </text><text xml:space="preserve" font-family="Helvetica-Light,Helvetica" font-size="36.0" fill="#FEFFFF" transform="matrix(1.00, 0.00, -0.00, -1.00, 696.7, 264.3)">t</text><text xml:space="preserve" font-family="Helvetica-Light,Helvetica" font-size="36.0" fill="#FEFFFF" transform="matrix(1.00, 0.00, -0.00, -1.00, 706.7, 264.3)">h</text><text xml:space="preserve" font-family="Helvetica-Light,Helvetica" font-size="36.0" fill="#FEFFFF" transform="matrix(1.00, 0.00, -0.00, -1.00, 726.7, 264.3)">e</text><text xml:space="preserve" font-family="Helvetica-Light,Helvetica" font-size="36.0" fill="#FEFFFF" transform="matrix(1.00, 0.00, -0.00, -1.00, 746.7, 264.3)">i</text><text xml:space="preserve" font-family="Helvetica-Light,Helvetica" font-size="36.0" fill="#FEFFFF" transform="matrix(1.00, 0.00, -0.00, -1.00, 754.7, 264.3)">r</text><text xml:space="preserve" font-family="Helvetica-Light,Helvetica" font-size="36.0" fill="#FEFFFF" transform="matrix(1.00, 0.00, -0.00, -1.00, 766.7, 264.3)"> </text><text xml:space="preserve" font-family="Helvetica-Light,Helvetica" font-size="36.0" fill="#FEFFFF" transform="matrix(1.00, 0.00, -0.00, -1.00, 776.7, 264.3)">o</text><text xml:space="preserve" font-family="Helvetica-Light,Helvetica" font-size="36.0" fill="#FEFFFF" transform="matrix(1.00, 0.00, -0.00, -1.00, 796.7, 264.3)">w</text><text xml:space="preserve" font-family="Helvetica-Light,Helvetica" font-size="36.0" fill="#FEFFFF" transform="matrix(1.00, 0.00, -0.00, -1.00, 822.7, 264.3)">n</text><text xml:space="preserve" font-family="Helvetica-Light,Helvetica" font-size="36.0" fill="#FEFFFF" transform="matrix(1.00, 0.00, -0.00, -1.00, 842.8, 264.3)"> </text><text xml:space="preserve" font-family="Helvetica-Light,Helvetica" font-size="36.0" fill="#FF456F" transform="matrix(1.00, 0.00, -0.00, -1.00, 363.2, 221.3)">c</text><text xml:space="preserve" font-family="Helvetica-Light,Helvetica" font-size="36.0" fill="#FF456F" transform="matrix(1.00, 0.00, -0.00, -1.00, 383.2, 221.3)">a</text><text xml:space="preserve" font-family="Helvetica-Light,Helvetica" font-size="36.0" fill="#FF456F" transform="matrix(1.00, 0.00, -0.00, -1.00, 403.3, 221.3)">p</text><text xml:space="preserve" font-family="Helvetica-Light,Helvetica" font-size="36.0" fill="#FF456F" transform="matrix(1.00, 0.00, -0.00, -1.00, 425.3, 221.3)">a</text><text xml:space="preserve" font-family="Helvetica-Light,Helvetica" font-size="36.0" fill="#FF456F" transform="matrix(1.00, 0.00, -0.00, -1.00, 445.3, 221.3)">b</text><text xml:space="preserve" font-family="Helvetica-Light,Helvetica" font-size="36.0" fill="#FF456F" transform="matrix(1.00, 0.00, -0.00, -1.00, 467.3, 221.3)">i</text><text xml:space="preserve" font-family="Helvetica-Light,Helvetica" font-size="36.0" fill="#FF456F" transform="matrix(1.00, 0.00, -0.00, -1.00, 475.3, 221.3)">l</text><text xml:space="preserve" font-family="Helvetica-Light,Helvetica" font-size="36.0" fill="#FF456F" transform="matrix(1.00, 0.00, -0.00, -1.00, 483.3, 221.3)">i</text><text xml:space="preserve" font-family="Helvetica-Light,Helvetica" font-size="36.0" fill="#FF456F" transform="matrix(1.00, 0.00, -0.00, -1.00, 491.2, 221.3)">t</text><text xml:space="preserve" font-family="Helvetica-Light,Helvetica" font-size="36.0" fill="#FF456F" transform="matrix(1.00, 0.00, -0.00, -1.00, 501.3, 221.3)">i</text><text xml:space="preserve" font-family="Helvetica-Light,Helvetica" font-size="36.0" fill="#FF456F" transform="matrix(1.00, 0.00, -0.00, -1.00, 509.2, 221.3)">e</text><text xml:space="preserve" font-family="Helvetica-Light,Helvetica" font-size="36.0" fill="#FF456F" transform="matrix(1.00, 0.00, -0.00, -1.00, 529.3, 221.3)">s</text><text xml:space="preserve" font-family="Helvetica-Light,Helvetica" font-size="36.0" fill="#FEFFFF" transform="matrix(1.00, 0.00, -0.00, -1.00, 547.3, 221.3)"> </text><text xml:space="preserve" font-family="Helvetica-Light,Helvetica" font-size="36.0" fill="#FEFFFF" transform="matrix(1.00, 0.00, -0.00, -1.00, 557.3, 221.3)">a</text><text xml:space="preserve" font-family="Helvetica-Light,Helvetica" font-size="36.0" fill="#FEFFFF" transform="matrix(1.00, 0.00, -0.00, -1.00, 577.3, 221.3)">n</text><text xml:space="preserve" font-family="Helvetica-Light,Helvetica" font-size="36.0" fill="#FEFFFF" transform="matrix(1.00, 0.00, -0.00, -1.00, 597.3, 221.3)">d</text><text xml:space="preserve" font-family="Helvetica-Light,Helvetica" font-size="36.0" fill="#FEFFFF" transform="matrix(1.00, 0.00, -0.00, -1.00, 619.3, 221.3)"> </text><text xml:space="preserve" font-family="Helvetica-Light,Helvetica" font-size="36.0" fill="#FF456F" transform="matrix(1.00, 0.00, -0.00, -1.00, 629.3, 221.3)">i</text><text xml:space="preserve" font-family="Helvetica-Light,Helvetica" font-size="36.0" fill="#FF456F" transform="matrix(1.00, 0.00, -0.00, -1.00, 637.3, 221.3)">n</text><text xml:space="preserve" font-family="Helvetica-Light,Helvetica" font-size="36.0" fill="#FF456F" transform="matrix(1.00, 0.00, -0.00, -1.00, 657.3, 221.3)">t</text><text xml:space="preserve" font-family="Helvetica-Light,Helvetica" font-size="36.0" fill="#FF456F" transform="matrix(1.00, 0.00, -0.00, -1.00, 667.3, 221.3)">e</text><text xml:space="preserve" font-family="Helvetica-Light,Helvetica" font-size="36.0" fill="#FF456F" transform="matrix(1.00, 0.00, -0.00, -1.00, 687.3, 221.3)">r</text><text xml:space="preserve" font-family="Helvetica-Light,Helvetica" font-size="36.0" fill="#FF456F" transform="matrix(1.00, 0.00, -0.00, -1.00, 698.7, 221.3)">c</text><text xml:space="preserve" font-family="Helvetica-Light,Helvetica" font-size="36.0" fill="#FF456F" transform="matrix(1.00, 0.00, -0.00, -1.00, 718.7, 221.3)">o</text><text xml:space="preserve" font-family="Helvetica-Light,Helvetica" font-size="36.0" fill="#FF456F" transform="matrix(1.00, 0.00, -0.00, -1.00, 738.7, 221.3)">n</text><text xml:space="preserve" font-family="Helvetica-Light,Helvetica" font-size="36.0" fill="#FF456F" transform="matrix(1.00, 0.00, -0.00, -1.00, 758.7, 221.3)">n</text><text xml:space="preserve" font-family="Helvetica-Light,Helvetica" font-size="36.0" fill="#FF456F" transform="matrix(1.00, 0.00, -0.00, -1.00, 778.7, 221.3)">e</text><text xml:space="preserve" font-family="Helvetica-Light,Helvetica" font-size="36.0" fill="#FF456F" transform="matrix(1.00, 0.00, -0.00, -1.00, 798.8, 221.3)">c</text><text xml:space="preserve" font-family="Helvetica-Light,Helvetica" font-size="36.0" fill="#FF456F" transform="matrix(1.00, 0.00, -0.00, -1.00, 818.8, 221.3)">t</text><text xml:space="preserve" font-family="Helvetica-Light,Helvetica" font-size="36.0" fill="#FF456F" transform="matrix(1.00, 0.00, -0.00, -1.00, 828.8, 221.3)">i</text><text xml:space="preserve" font-family="Helvetica-Light,Helvetica" font-size="36.0" fill="#FF456F" transform="matrix(1.00, 0.00, -0.00, -1.00, 836.8, 221.3)">o</text><text xml:space="preserve" font-family="Helvetica-Light,Helvetica" font-size="36.0" fill="#FF456F" transform="matrix(1.00, 0.00, -0.00, -1.00, 856.8, 221.3)">n</text><text xml:space="preserve" font-family="Helvetica-Light,Helvetica" font-size="36.0" fill="#FF456F" transform="matrix(1.00, 0.00, -0.00, -1.00, 876.8, 221.3)">s</text><path d="M 77.0 444.0 L 295.0 444.0 L 295.0 355.0 L 77.0 355.0 Z M 76.7 444.5 " fill="#1497FC"></path><g><clipPath id="clip0x6080026bae80"><path d="M 74.2 355.5 L 297.9 355.5 L 297.9 444.5 L 74.2 444.5 Z M 74.2 355.5 "></path></clipPath><g clip-path="url(#clip0x6080026bae80)"><text xml:space="preserve" font-family="Helvetica-Light,Helvetica" font-size="26.0" fill="#FEFFFF" transform="matrix(1.00, 0.00, -0.00, -1.00, 164.4, 390.5)">U</text><text xml:space="preserve" font-family="Helvetica-Light,Helvetica" font-size="26.0" fill="#FEFFFF" transform="matrix(1.00, 0.00, -0.00, -1.00, 183.1, 390.5)">R</text><text xml:space="preserve" font-family="Helvetica-Light,Helvetica" font-size="26.0" fill="#FEFFFF" transform="matrix(1.00, 0.00, -0.00, -1.00, 200.5, 390.5)">I</text></g></g></g></svg>