<?xml version="1.0" encoding="UTF-8" standalone="no"?><svg xmlns="http://www.w3.org/2000/svg" xmlns:xlink="http://www.w3.org/1999/xlink" clip-rule="evenodd" stroke-miterlimit="10" viewBox="0 0 1024 768"><desc>SVG generated by Keynote</desc><defs></defs><g transform="matrix(1.00, 0.00, -0.00, -1.00, 0.0, 768.0)"><path d="M 0.0 768.0 L 1024.0 768.0 L 1024.0 0.0 L 0.0 0.0 Z M 0.0 768.0 " fill="#FEFFFE"></path><text xml:space="preserve" font-family="Helvetica-Bold,Helvetica" font-weight="bold" font-size="100.0" fill="#FF456F" transform="matrix(1.00, 0.00, -0.00, -1.00, 77.7, 595.0)">O</text><text xml:space="preserve" font-family="Helvetica-Bold,Helvetica" font-weight="bold" font-size="100.0" fill="#FF456F" transform="matrix(1.00, 0.00, -0.00, -1.00, 155.4, 595.0)">u</text><text xml:space="preserve" font-family="Helvetica-Bold,Helvetica" font-weight="bold" font-size="100.0" fill="#FF456F" transform="matrix(1.00, 0.00, -0.00, -1.00, 216.5, 595.0)">t</text><text xml:space="preserve" font-family="Helvetica-Bold,Helvetica" font-weight="bold" font-size="100.0" fill="#FF456F" transform="matrix(1.00, 0.00, -0.00, -1.00, 249.8, 595.0)">-</text><text xml:space="preserve" font-family="Helvetica-Bold,Helvetica" font-weight="bold" font-size="100.0" fill="#FF456F" transform="matrix(1.00, 0.00, -0.00, -1.00, 283.1, 595.0)">o</text><text xml:space="preserve" font-family="Helvetica-Bold,Helvetica" font-weight="bold" font-size="100.0" fill="#FF456F" transform="matrix(1.00, 0.00, -0.00, -1.00, 344.1, 595.0)">f</text><text xml:space="preserve" font-family="Helvetica-Bold,Helvetica" font-weight="bold" font-size="100.0" fill="#FF456F" transform="matrix(1.00, 0.00, -0.00, -1.00, 377.4, 595.0)">-</text><text xml:space="preserve" font-family="Helvetica-Bold,Helvetica" font-weight="bold" font-size="100.0" fill="#FF456F" transform="matrix(1.00, 0.00, -0.00, -1.00, 410.7, 595.0)">b</text><text xml:space="preserve" font-family="Helvetica-Bold,Helvetica" font-weight="bold" font-size="100.0" fill="#FF456F" transform="matrix(1.00, 0.00, -0.00, -1.00, 471.8, 595.0)">a</text><text xml:space="preserve" font-family="Helvetica-Bold,Helvetica" font-weight="bold" font-size="100.0" fill="#FF456F" transform="matrix(1.00, 0.00, -0.00, -1.00, 527.4, 595.0)">n</text><text xml:space="preserve" font-family="Helvetica-Bold,Helvetica" font-weight="bold" font-size="100.0" fill="#FF456F" transform="matrix(1.00, 0.00, -0.00, -1.00, 588.5, 595.0)">d</text><text xml:space="preserve" font-family="Helvetica-Light,Helvetica" font-size="50.0" fill="#A6AAA8" transform="matrix(1.00, 0.00, -0.00, -1.00, 88.3, 511.5)">|</text><text xml:space="preserve" font-family="Helvetica-Light,Helvetica" font-size="50.0" fill="#A6AAA8" transform="matrix(1.00, 0.00, -0.00, -1.00, 99.4, 511.5)"> </text><text xml:space="preserve" font-family="Helvetica-Light,Helvetica" font-size="50.0" fill="#A6AAA8" transform="matrix(1.00, 0.00, -0.00, -1.00, 113.3, 511.5)">o</text><text xml:space="preserve" font-family="Helvetica-Light,Helvetica" font-size="50.0" fill="#A6AAA8" transform="matrix(1.00, 0.00, -0.00, -1.00, 141.1, 511.5)">u</text><text xml:space="preserve" font-family="Helvetica-Light,Helvetica" font-size="50.0" fill="#A6AAA8" transform="matrix(1.00, 0.00, -0.00, -1.00, 168.9, 511.5)">t</text><text xml:space="preserve" font-family="LucidaGrande,Lucida Grande" font-size="50.0" fill="#A6AAA8" transform="matrix(1.00, 0.00, -0.00, -1.00, 182.8, 511.5)">ˌ</text><text xml:space="preserve" font-family="Helvetica-Light,Helvetica" font-size="50.0" fill="#A6AAA8" transform="matrix(1.00, 0.00, -0.00, -1.00, 191.8, 511.5)">ə</text><text xml:space="preserve" font-family="Helvetica-Light,Helvetica" font-size="50.0" fill="#A6AAA8" transform="matrix(1.00, 0.00, -0.00, -1.00, 218.3, 511.5)">v</text><text xml:space="preserve" font-family="LucidaGrande,Lucida Grande" font-size="50.0" fill="#A6AAA8" transform="matrix(1.00, 0.00, -0.00, -1.00, 243.3, 511.5)">ˈ</text><text xml:space="preserve" font-family="Helvetica-Light,Helvetica" font-size="50.0" fill="#A6AAA8" transform="matrix(1.00, 0.00, -0.00, -1.00, 252.3, 511.5)">b</text><text xml:space="preserve" font-family="Helvetica-Light,Helvetica" font-size="50.0" fill="#A6AAA8" transform="matrix(1.00, 0.00, -0.00, -1.00, 282.8, 511.5)">a</text><text xml:space="preserve" font-family="Helvetica-Light,Helvetica" font-size="50.0" fill="#A6AAA8" transform="matrix(1.00, 0.00, -0.00, -1.00, 310.6, 511.5)">n</text><text xml:space="preserve" font-family="Helvetica-Light,Helvetica" font-size="50.0" fill="#A6AAA8" transform="matrix(1.00, 0.00, -0.00, -1.00, 338.4, 511.5)">d</text><text xml:space="preserve" font-family="Helvetica-Light,Helvetica" font-size="50.0" fill="#A6AAA8" transform="matrix(1.00, 0.00, -0.00, -1.00, 369.0, 511.5)"> </text><text xml:space="preserve" font-family="Helvetica-Light,Helvetica" font-size="50.0" fill="#A6AAA8" transform="matrix(1.00, 0.00, -0.00, -1.00, 382.9, 511.5)">|</text><text xml:space="preserve" font-family="ProximaNova-Regular,Proxima Nova" font-size="42.0" fill="#52575F" transform="matrix(1.00, 0.00, -0.00, -1.00, 83.9, 417.3)">i</text><text xml:space="preserve" font-family="ProximaNova-Regular,Proxima Nova" font-size="42.0" fill="#52575F" transform="matrix(1.00, 0.00, -0.00, -1.00, 93.4, 417.3)">m</text><text xml:space="preserve" font-family="ProximaNova-Regular,Proxima Nova" font-size="42.0" fill="#52575F" transform="matrix(1.00, 0.00, -0.00, -1.00, 127.3, 417.3)">p</text><text xml:space="preserve" font-family="ProximaNova-Regular,Proxima Nova" font-size="42.0" fill="#52575F" transform="matrix(1.00, 0.00, -0.00, -1.00, 151.3, 417.3)">l</text><text xml:space="preserve" font-family="ProximaNova-Regular,Proxima Nova" font-size="42.0" fill="#52575F" transform="matrix(1.00, 0.00, -0.00, -1.00, 160.8, 417.3)">i</text><text xml:space="preserve" font-family="ProximaNova-Regular,Proxima Nova" font-size="42.0" fill="#52575F" transform="matrix(1.00, 0.00, -0.00, -1.00, 170.2, 417.3)">e</text><text xml:space="preserve" font-family="ProximaNova-Regular,Proxima Nova" font-size="42.0" fill="#52575F" transform="matrix(1.00, 0.00, -0.00, -1.00, 193.9, 417.3)">d</text><text xml:space="preserve" font-family="ProximaNova-Regular,Proxima Nova" font-size="42.0" fill="#52575F" transform="matrix(1.00, 0.00, -0.00, -1.00, 218.0, 417.3)"> </text><text xml:space="preserve" font-family="ProximaNova-Regular,Proxima Nova" font-size="42.0" fill="#52575F" transform="matrix(1.00, 0.00, -0.00, -1.00, 228.9, 417.3)">p</text><text xml:space="preserve" font-family="ProximaNova-Regular,Proxima Nova" font-size="42.0" fill="#52575F" transform="matrix(1.00, 0.00, -0.00, -1.00, 252.9, 417.3)">r</text><text xml:space="preserve" font-family="ProximaNova-Regular,Proxima Nova" font-size="42.0" fill="#52575F" transform="matrix(1.00, 0.00, -0.00, -1.00, 266.8, 417.3)">o</text><text xml:space="preserve" font-family="ProximaNova-Regular,Proxima Nova" font-size="42.0" fill="#52575F" transform="matrix(1.00, 0.00, -0.00, -1.00, 290.8, 417.3)">c</text><text xml:space="preserve" font-family="ProximaNova-Regular,Proxima Nova" font-size="42.0" fill="#52575F" transform="matrix(1.00, 0.00, -0.00, -1.00, 311.6, 417.3)">e</text><text xml:space="preserve" font-family="ProximaNova-Regular,Proxima Nova" font-size="42.0" fill="#52575F" transform="matrix(1.00, 0.00, -0.00, -1.00, 335.3, 417.3)">s</text><text xml:space="preserve" font-family="ProximaNova-Regular,Proxima Nova" font-size="42.0" fill="#52575F" transform="matrix(1.00, 0.00, -0.00, -1.00, 354.8, 417.3)">s</text><text xml:space="preserve" font-family="ProximaNova-Regular,Proxima Nova" font-size="42.0" fill="#52575F" transform="matrix(1.00, 0.00, -0.00, -1.00, 374.3, 417.3)">i</text><text xml:space="preserve" font-family="ProximaNova-Regular,Proxima Nova" font-size="42.0" fill="#52575F" transform="matrix(1.00, 0.00, -0.00, -1.00, 383.8, 417.3)">n</text><text xml:space="preserve" font-family="ProximaNova-Regular,Proxima Nova" font-size="42.0" fill="#52575F" transform="matrix(1.00, 0.00, -0.00, -1.00, 407.0, 417.3)">g</text><text xml:space="preserve" font-family="ProximaNova-Regular,Proxima Nova" font-size="42.0" fill="#52575F" transform="matrix(1.00, 0.00, -0.00, -1.00, 431.1, 417.3)"> </text><text xml:space="preserve" font-family="ProximaNova-Regular,Proxima Nova" font-size="42.0" fill="#52575F" transform="matrix(1.00, 0.00, -0.00, -1.00, 442.0, 417.3)">i</text><text xml:space="preserve" font-family="ProximaNova-Regular,Proxima Nova" font-size="42.0" fill="#52575F" transform="matrix(1.00, 0.00, -0.00, -1.00, 451.5, 417.3)">n</text><text xml:space="preserve" font-family="ProximaNova-Regular,Proxima Nova" font-size="42.0" fill="#52575F" transform="matrix(1.00, 0.00, -0.00, -1.00, 474.6, 417.3)">s</text><text xml:space="preserve" font-family="ProximaNova-Regular,Proxima Nova" font-size="42.0" fill="#52575F" transform="matrix(1.00, 0.00, -0.00, -1.00, 494.2, 417.3)">t</text><text xml:space="preserve" font-family="ProximaNova-Regular,Proxima Nova" font-size="42.0" fill="#52575F" transform="matrix(1.00, 0.00, -0.00, -1.00, 506.5, 417.3)">r</text><text xml:space="preserve" font-family="ProximaNova-Regular,Proxima Nova" font-size="42.0" fill="#52575F" transform="matrix(1.00, 0.00, -0.00, -1.00, 520.4, 417.3)">u</text><text xml:space="preserve" font-family="ProximaNova-Regular,Proxima Nova" font-size="42.0" fill="#52575F" transform="matrix(1.00, 0.00, -0.00, -1.00, 543.5, 417.3)">c</text><text xml:space="preserve" font-family="ProximaNova-Regular,Proxima Nova" font-size="42.0" fill="#52575F" transform="matrix(1.00, 0.00, -0.00, -1.00, 564.3, 417.3)">t</text><text xml:space="preserve" font-family="ProximaNova-Regular,Proxima Nova" font-size="42.0" fill="#52575F" transform="matrix(1.00, 0.00, -0.00, -1.00, 576.7, 417.3)">i</text><text xml:space="preserve" font-family="ProximaNova-Regular,Proxima Nova" font-size="42.0" fill="#52575F" transform="matrix(1.00, 0.00, -0.00, -1.00, 586.1, 417.3)">o</text><text xml:space="preserve" font-family="ProximaNova-Regular,Proxima Nova" font-size="42.0" fill="#52575F" transform="matrix(1.00, 0.00, -0.00, -1.00, 610.2, 417.3)">n</text><text xml:space="preserve" font-family="ProximaNova-Regular,Proxima Nova" font-size="42.0" fill="#52575F" transform="matrix(1.00, 0.00, -0.00, -1.00, 633.4, 417.3)">s</text><text xml:space="preserve" font-family="ProximaNova-Regular,Proxima Nova" font-size="42.0" fill="#52575F" transform="matrix(1.00, 0.00, -0.00, -1.00, 652.9, 417.3)"> </text><text xml:space="preserve" font-family="ProximaNova-Regular,Proxima Nova" font-size="42.0" fill="#52575F" transform="matrix(1.00, 0.00, -0.00, -1.00, 663.8, 417.3)">t</text><text xml:space="preserve" font-family="ProximaNova-Regular,Proxima Nova" font-size="42.0" fill="#52575F" transform="matrix(1.00, 0.00, -0.00, -1.00, 676.1, 417.3)">h</text><text xml:space="preserve" font-family="ProximaNova-Regular,Proxima Nova" font-size="42.0" fill="#52575F" transform="matrix(1.00, 0.00, -0.00, -1.00, 699.3, 417.3)">a</text><text xml:space="preserve" font-family="ProximaNova-Regular,Proxima Nova" font-size="42.0" fill="#52575F" transform="matrix(1.00, 0.00, -0.00, -1.00, 721.5, 417.3)">t</text><text xml:space="preserve" font-family="ProximaNova-Regular,Proxima Nova" font-size="42.0" fill="#52575F" transform="matrix(1.00, 0.00, -0.00, -1.00, 733.8, 417.3)"> </text><text xml:space="preserve" font-family="ProximaNova-Regular,Proxima Nova" font-size="42.0" fill="#52575F" transform="matrix(1.00, 0.00, -0.00, -1.00, 744.7, 417.3)">a</text><text xml:space="preserve" font-family="ProximaNova-Regular,Proxima Nova" font-size="42.0" fill="#52575F" transform="matrix(1.00, 0.00, -0.00, -1.00, 766.9, 417.3)">r</text><text xml:space="preserve" font-family="ProximaNova-Regular,Proxima Nova" font-size="42.0" fill="#52575F" transform="matrix(1.00, 0.00, -0.00, -1.00, 780.7, 417.3)">e</text><text xml:space="preserve" font-family="ProximaNova-Regular,Proxima Nova" font-size="42.0" fill="#52575F" transform="matrix(1.00, 0.00, -0.00, -1.00, 804.4, 417.3)"> </text><text xml:space="preserve" font-family="ProximaNova-Semibold,Proxima Nova" font-weight="bold" font-size="42.0" fill="#52575F" transform="matrix(1.00, 0.00, -0.00, -1.00, 815.3, 417.3)">n</text><text xml:space="preserve" font-family="ProximaNova-Semibold,Proxima Nova" font-weight="bold" font-size="42.0" fill="#52575F" transform="matrix(1.00, 0.00, -0.00, -1.00, 839.1, 417.3)">o</text><text xml:space="preserve" font-family="ProximaNova-Semibold,Proxima Nova" font-weight="bold" font-size="42.0" fill="#52575F" transform="matrix(1.00, 0.00, -0.00, -1.00, 863.2, 417.3)">t</text><text xml:space="preserve" font-family="ProximaNova-Regular,Proxima Nova" font-size="42.0" fill="#52575F" transform="matrix(1.00, 0.00, -0.00, -1.00, 876.6, 417.3)"> </text><text xml:space="preserve" font-family="ProximaNova-Regular,Proxima Nova" font-size="42.0" fill="#52575F" transform="matrix(1.00, 0.00, -0.00, -1.00, 83.9, 367.3)">i</text><text xml:space="preserve" font-family="ProximaNova-Regular,Proxima Nova" font-size="42.0" fill="#52575F" transform="matrix(1.00, 0.00, -0.00, -1.00, 93.4, 367.3)">n</text><text xml:space="preserve" font-family="ProximaNova-Regular,Proxima Nova" font-size="42.0" fill="#52575F" transform="matrix(1.00, 0.00, -0.00, -1.00, 116.5, 367.3)">c</text><text xml:space="preserve" font-family="ProximaNova-Regular,Proxima Nova" font-size="42.0" fill="#52575F" transform="matrix(1.00, 0.00, -0.00, -1.00, 137.4, 367.3)">l</text><text xml:space="preserve" font-family="ProximaNova-Regular,Proxima Nova" font-size="42.0" fill="#52575F" transform="matrix(1.00, 0.00, -0.00, -1.00, 146.8, 367.3)">u</text><text xml:space="preserve" font-family="ProximaNova-Regular,Proxima Nova" font-size="42.0" fill="#52575F" transform="matrix(1.00, 0.00, -0.00, -1.00, 170.0, 367.3)">d</text><text xml:space="preserve" font-family="ProximaNova-Regular,Proxima Nova" font-size="42.0" fill="#52575F" transform="matrix(1.00, 0.00, -0.00, -1.00, 194.1, 367.3)">e</text><text xml:space="preserve" font-family="ProximaNova-Regular,Proxima Nova" font-size="42.0" fill="#52575F" transform="matrix(1.00, 0.00, -0.00, -1.00, 217.8, 367.3)">d</text><text xml:space="preserve" font-family="ProximaNova-Regular,Proxima Nova" font-size="42.0" fill="#52575F" transform="matrix(1.00, 0.00, -0.00, -1.00, 241.9, 367.3)"> </text><text xml:space="preserve" font-family="ProximaNova-Regular,Proxima Nova" font-size="42.0" fill="#52575F" transform="matrix(1.00, 0.00, -0.00, -1.00, 252.8, 367.3)">w</text><text xml:space="preserve" font-family="ProximaNova-Regular,Proxima Nova" font-size="42.0" fill="#52575F" transform="matrix(1.00, 0.00, -0.00, -1.00, 283.6, 367.3)">i</text><text xml:space="preserve" font-family="ProximaNova-Regular,Proxima Nova" font-size="42.0" fill="#52575F" transform="matrix(1.00, 0.00, -0.00, -1.00, 293.1, 367.3)">t</text><text xml:space="preserve" font-family="ProximaNova-Regular,Proxima Nova" font-size="42.0" fill="#52575F" transform="matrix(1.00, 0.00, -0.00, -1.00, 305.4, 367.3)">h</text><text xml:space="preserve" font-family="ProximaNova-Regular,Proxima Nova" font-size="42.0" fill="#52575F" transform="matrix(1.00, 0.00, -0.00, -1.00, 328.6, 367.3)">i</text><text xml:space="preserve" font-family="ProximaNova-Regular,Proxima Nova" font-size="42.0" fill="#52575F" transform="matrix(1.00, 0.00, -0.00, -1.00, 338.1, 367.3)">n</text><text xml:space="preserve" font-family="ProximaNova-Regular,Proxima Nova" font-size="42.0" fill="#52575F" transform="matrix(1.00, 0.00, -0.00, -1.00, 361.2, 367.3)"> </text><text xml:space="preserve" font-family="ProximaNova-Regular,Proxima Nova" font-size="42.0" fill="#52575F" transform="matrix(1.00, 0.00, -0.00, -1.00, 372.1, 367.3)">t</text><text xml:space="preserve" font-family="ProximaNova-Regular,Proxima Nova" font-size="42.0" fill="#52575F" transform="matrix(1.00, 0.00, -0.00, -1.00, 384.5, 367.3)">h</text><text xml:space="preserve" font-family="ProximaNova-Regular,Proxima Nova" font-size="42.0" fill="#52575F" transform="matrix(1.00, 0.00, -0.00, -1.00, 407.6, 367.3)">e</text><text xml:space="preserve" font-family="ProximaNova-Regular,Proxima Nova" font-size="42.0" fill="#52575F" transform="matrix(1.00, 0.00, -0.00, -1.00, 431.3, 367.3)"> </text><text xml:space="preserve" font-family="ProximaNova-Regular,Proxima Nova" font-size="42.0" fill="#52575F" transform="matrix(1.00, 0.00, -0.00, -1.00, 442.2, 367.3)">r</text><text xml:space="preserve" font-family="ProximaNova-Regular,Proxima Nova" font-size="42.0" fill="#52575F" transform="matrix(1.00, 0.00, -0.00, -1.00, 456.0, 367.3)">e</text><text xml:space="preserve" font-family="ProximaNova-Regular,Proxima Nova" font-size="42.0" fill="#52575F" transform="matrix(1.00, 0.00, -0.00, -1.00, 479.7, 367.3)">s</text><text xml:space="preserve" font-family="ProximaNova-Regular,Proxima Nova" font-size="42.0" fill="#52575F" transform="matrix(1.00, 0.00, -0.00, -1.00, 499.2, 367.3)">p</text><text xml:space="preserve" font-family="ProximaNova-Regular,Proxima Nova" font-size="42.0" fill="#52575F" transform="matrix(1.00, 0.00, -0.00, -1.00, 523.2, 367.3)">o</text><text xml:space="preserve" font-family="ProximaNova-Regular,Proxima Nova" font-size="42.0" fill="#52575F" transform="matrix(1.00, 0.00, -0.00, -1.00, 547.3, 367.3)">n</text><text xml:space="preserve" font-family="ProximaNova-Regular,Proxima Nova" font-size="42.0" fill="#52575F" transform="matrix(1.00, 0.00, -0.00, -1.00, 570.4, 367.3)">s</text><text xml:space="preserve" font-family="ProximaNova-Regular,Proxima Nova" font-size="42.0" fill="#52575F" transform="matrix(1.00, 0.00, -0.00, -1.00, 590.0, 367.3)">e</text><text xml:space="preserve" font-family="ProximaNova-Regular,Proxima Nova" font-size="42.0" fill="#52575F" transform="matrix(1.00, 0.00, -0.00, -1.00, 613.6, 367.3)"> </text><text xml:space="preserve" font-family="ProximaNova-Regular,Proxima Nova" font-size="42.0" fill="#52575F" transform="matrix(1.00, 0.00, -0.00, -1.00, 624.5, 367.3)">m</text><text xml:space="preserve" font-family="ProximaNova-Regular,Proxima Nova" font-size="42.0" fill="#52575F" transform="matrix(1.00, 0.00, -0.00, -1.00, 658.4, 367.3)">e</text><text xml:space="preserve" font-family="ProximaNova-Regular,Proxima Nova" font-size="42.0" fill="#52575F" transform="matrix(1.00, 0.00, -0.00, -1.00, 682.1, 367.3)">s</text><text xml:space="preserve" font-family="ProximaNova-Regular,Proxima Nova" font-size="42.0" fill="#52575F" transform="matrix(1.00, 0.00, -0.00, -1.00, 701.6, 367.3)">s</text><text xml:space="preserve" font-family="ProximaNova-Regular,Proxima Nova" font-size="42.0" fill="#52575F" transform="matrix(1.00, 0.00, -0.00, -1.00, 721.1, 367.3)">a</text><text xml:space="preserve" font-family="ProximaNova-Regular,Proxima Nova" font-size="42.0" fill="#52575F" transform="matrix(1.00, 0.00, -0.00, -1.00, 743.3, 367.3)">g</text><text xml:space="preserve" font-family="ProximaNova-Regular,Proxima Nova" font-size="42.0" fill="#52575F" transform="matrix(1.00, 0.00, -0.00, -1.00, 767.5, 367.3)">e</text><text xml:space="preserve" font-family="ProximaNova-Regular,Proxima Nova" font-size="42.0" fill="#52575F" transform="matrix(1.00, 0.00, -0.00, -1.00, 791.1, 367.3)"> </text><text xml:space="preserve" font-family="ProximaNova-Regular,Proxima Nova" font-size="42.0" fill="#52575F" transform="matrix(1.00, 0.00, -0.00, -1.00, 802.0, 367.3)">o</text><text xml:space="preserve" font-family="ProximaNova-Regular,Proxima Nova" font-size="42.0" fill="#52575F" transform="matrix(1.00, 0.00, -0.00, -1.00, 826.0, 367.3)">f</text><text xml:space="preserve" font-family="ProximaNova-Regular,Proxima Nova" font-size="42.0" fill="#52575F" transform="matrix(1.00, 0.00, -0.00, -1.00, 837.9, 367.3)"> </text><text xml:space="preserve" font-family="ProximaNova-Regular,Proxima Nova" font-size="42.0" fill="#52575F" transform="matrix(1.00, 0.00, -0.00, -1.00, 83.9, 317.3)">a</text><text xml:space="preserve" font-family="ProximaNova-Regular,Proxima Nova" font-size="42.0" fill="#52575F" transform="matrix(1.00, 0.00, -0.00, -1.00, 106.1, 317.3)">n</text><text xml:space="preserve" font-family="ProximaNova-Regular,Proxima Nova" font-size="42.0" fill="#52575F" transform="matrix(1.00, 0.00, -0.00, -1.00, 129.3, 317.3)"> </text><text xml:space="preserve" font-family="ProximaNova-Regular,Proxima Nova" font-size="42.0" fill="#52575F" transform="matrix(1.00, 0.00, -0.00, -1.00, 140.1, 317.3)">A</text><text xml:space="preserve" font-family="ProximaNova-Regular,Proxima Nova" font-size="42.0" fill="#52575F" transform="matrix(1.00, 0.00, -0.00, -1.00, 167.8, 317.3)">P</text><text xml:space="preserve" font-family="ProximaNova-Regular,Proxima Nova" font-size="42.0" fill="#52575F" transform="matrix(1.00, 0.00, -0.00, -1.00, 192.4, 317.3)">I</text><text xml:space="preserve" font-family="ProximaNova-Regular,Proxima Nova" font-size="42.0" fill="#52575F" transform="matrix(1.00, 0.00, -0.00, -1.00, 202.5, 317.3)"> </text><text xml:space="preserve" font-family="ProximaNova-Regular,Proxima Nova" font-size="42.0" fill="#52575F" transform="matrix(1.00, 0.00, -0.00, -1.00, 213.4, 317.3)">s</text><text xml:space="preserve" font-family="ProximaNova-Regular,Proxima Nova" font-size="42.0" fill="#52575F" transform="matrix(1.00, 0.00, -0.00, -1.00, 232.9, 317.3)">e</text><text xml:space="preserve" font-family="ProximaNova-Regular,Proxima Nova" font-size="42.0" fill="#52575F" transform="matrix(1.00, 0.00, -0.00, -1.00, 256.5, 317.3)">r</text><text xml:space="preserve" font-family="ProximaNova-Regular,Proxima Nova" font-size="42.0" fill="#52575F" transform="matrix(1.00, 0.00, -0.00, -1.00, 270.4, 317.3)">v</text><text xml:space="preserve" font-family="ProximaNova-Regular,Proxima Nova" font-size="42.0" fill="#52575F" transform="matrix(1.00, 0.00, -0.00, -1.00, 291.0, 317.3)">e</text><text xml:space="preserve" font-family="ProximaNova-Regular,Proxima Nova" font-size="42.0" fill="#52575F" transform="matrix(1.00, 0.00, -0.00, -1.00, 314.6, 317.3)">r</text><text xml:space="preserve" font-family="ProximaNova-Regular,Proxima Nova" font-size="42.0" fill="#52575F" transform="matrix(1.00, 0.00, -0.00, -1.00, 325.0, 317.3)">.</text><text xml:space="preserve" font-family="ProximaNova-Regular,Proxima Nova" font-size="42.0" fill="#52575F" transform="matrix(1.00, 0.00, -0.00, -1.00, 334.7, 317.3)"> </text><text xml:space="preserve" font-family="ProximaNova-Regular,Proxima Nova" font-size="42.0" fill="#52575F" transform="matrix(1.00, 0.00, -0.00, -1.00, 83.9, 217.3)">W</text><text xml:space="preserve" font-family="ProximaNova-Regular,Proxima Nova" font-size="42.0" fill="#52575F" transform="matrix(1.00, 0.00, -0.00, -1.00, 121.0, 217.3)">h</text><text xml:space="preserve" font-family="ProximaNova-Regular,Proxima Nova" font-size="42.0" fill="#52575F" transform="matrix(1.00, 0.00, -0.00, -1.00, 144.2, 217.3)">e</text><text xml:space="preserve" font-family="ProximaNova-Regular,Proxima Nova" font-size="42.0" fill="#52575F" transform="matrix(1.00, 0.00, -0.00, -1.00, 167.8, 217.3)">n</text><text xml:space="preserve" font-family="ProximaNova-Regular,Proxima Nova" font-size="42.0" fill="#52575F" transform="matrix(1.00, 0.00, -0.00, -1.00, 191.0, 217.3)"> </text><text xml:space="preserve" font-family="ProximaNova-Regular,Proxima Nova" font-size="42.0" fill="#52575F" transform="matrix(1.00, 0.00, -0.00, -1.00, 201.9, 217.3)">t</text><text xml:space="preserve" font-family="ProximaNova-Regular,Proxima Nova" font-size="42.0" fill="#52575F" transform="matrix(1.00, 0.00, -0.00, -1.00, 214.2, 217.3)">h</text><text xml:space="preserve" font-family="ProximaNova-Regular,Proxima Nova" font-size="42.0" fill="#52575F" transform="matrix(1.00, 0.00, -0.00, -1.00, 237.4, 217.3)">e</text><text xml:space="preserve" font-family="ProximaNova-Regular,Proxima Nova" font-size="42.0" fill="#52575F" transform="matrix(1.00, 0.00, -0.00, -1.00, 261.1, 217.3)">y</text><text xml:space="preserve" font-family="ProximaNova-Regular,Proxima Nova" font-size="42.0" fill="#52575F" transform="matrix(1.00, 0.00, -0.00, -1.00, 281.6, 217.3)"> </text><text xml:space="preserve" font-family="ProximaNova-RegularIt,Proxima Nova" font-style="italic" font-size="42.0" fill="#52575F" transform="matrix(1.00, 0.00, -0.00, -1.00, 292.5, 217.3)">s</text><text xml:space="preserve" font-family="ProximaNova-RegularIt,Proxima Nova" font-style="italic" font-size="42.0" fill="#52575F" transform="matrix(1.00, 0.00, -0.00, -1.00, 312.1, 217.3)">h</text><text xml:space="preserve" font-family="ProximaNova-RegularIt,Proxima Nova" font-style="italic" font-size="42.0" fill="#52575F" transform="matrix(1.00, 0.00, -0.00, -1.00, 335.2, 217.3)">o</text><text xml:space="preserve" font-family="ProximaNova-RegularIt,Proxima Nova" font-style="italic" font-size="42.0" fill="#52575F" transform="matrix(1.00, 0.00, -0.00, -1.00, 359.3, 217.3)">u</text><text xml:space="preserve" font-family="ProximaNova-RegularIt,Proxima Nova" font-style="italic" font-size="42.0" fill="#52575F" transform="matrix(1.00, 0.00, -0.00, -1.00, 382.4, 217.3)">l</text><text xml:space="preserve" font-family="ProximaNova-RegularIt,Proxima Nova" font-style="italic" font-size="42.0" fill="#52575F" transform="matrix(1.00, 0.00, -0.00, -1.00, 391.9, 217.3)">d</text><text xml:space="preserve" font-family="ProximaNova-Regular,Proxima Nova" font-size="42.0" fill="#52575F" transform="matrix(1.00, 0.00, -0.00, -1.00, 416.0, 217.3)"> </text><text xml:space="preserve" font-family="ProximaNova-Regular,Proxima Nova" font-size="42.0" fill="#52575F" transform="matrix(1.00, 0.00, -0.00, -1.00, 426.9, 217.3)">b</text><text xml:space="preserve" font-family="ProximaNova-Regular,Proxima Nova" font-size="42.0" fill="#52575F" transform="matrix(1.00, 0.00, -0.00, -1.00, 451.0, 217.3)">e</text><text xml:space="preserve" font-family="ProximaNova-Regular,Proxima Nova" font-size="42.0" fill="#52575F" transform="matrix(1.00, 0.00, -0.00, -1.00, 474.4, 217.3)">.</text></g></svg>