<?xml version="1.0" encoding="UTF-8" standalone="no"?><svg xmlns="http://www.w3.org/2000/svg" xmlns:xlink="http://www.w3.org/1999/xlink" clip-rule="evenodd" stroke-miterlimit="10" viewBox="0 0 1024 768"><desc>SVG generated by Keynote</desc><defs></defs><g transform="matrix(1.00, 0.00, -0.00, -1.00, 0.0, 768.0)"><path d="M 0.0 768.0 L 1024.0 768.0 L 1024.0 0.0 L 0.0 0.0 Z M 0.0 768.0 " fill="#FEFFFE"></path><text xml:space="preserve" font-family="Helvetica-Bold,Helvetica" font-weight="bold" font-size="100.0" fill="#FF456F" transform="matrix(1.00, 0.00, -0.00, -1.00, 77.7, 595.0)">A</text><text xml:space="preserve" font-family="Helvetica-Bold,Helvetica" font-weight="bold" font-size="100.0" fill="#FF456F" transform="matrix(1.00, 0.00, -0.00, -1.00, 149.9, 595.0)">f</text><text xml:space="preserve" font-family="Helvetica-Bold,Helvetica" font-weight="bold" font-size="100.0" fill="#FF456F" transform="matrix(1.00, 0.00, -0.00, -1.00, 183.2, 595.0)">f</text><text xml:space="preserve" font-family="Helvetica-Bold,Helvetica" font-weight="bold" font-size="100.0" fill="#FF456F" transform="matrix(1.00, 0.00, -0.00, -1.00, 216.5, 595.0)">o</text><text xml:space="preserve" font-family="Helvetica-Bold,Helvetica" font-weight="bold" font-size="100.0" fill="#FF456F" transform="matrix(1.00, 0.00, -0.00, -1.00, 277.6, 595.0)">r</text><text xml:space="preserve" font-family="Helvetica-Bold,Helvetica" font-weight="bold" font-size="100.0" fill="#FF456F" transform="matrix(1.00, 0.00, -0.00, -1.00, 316.5, 595.0)">d</text><text xml:space="preserve" font-family="Helvetica-Bold,Helvetica" font-weight="bold" font-size="100.0" fill="#FF456F" transform="matrix(1.00, 0.00, -0.00, -1.00, 377.6, 595.0)">a</text><text xml:space="preserve" font-family="Helvetica-Bold,Helvetica" font-weight="bold" font-size="100.0" fill="#FF456F" transform="matrix(1.00, 0.00, -0.00, -1.00, 433.2, 595.0)">n</text><text xml:space="preserve" font-family="Helvetica-Bold,Helvetica" font-weight="bold" font-size="100.0" fill="#FF456F" transform="matrix(1.00, 0.00, -0.00, -1.00, 494.3, 595.0)">c</text><text xml:space="preserve" font-family="Helvetica-Bold,Helvetica" font-weight="bold" font-size="100.0" fill="#FF456F" transform="matrix(1.00, 0.00, -0.00, -1.00, 549.9, 595.0)">e</text><text xml:space="preserve" font-family="Helvetica-Light,Helvetica" font-size="50.0" fill="#A6AAA8" transform="matrix(1.00, 0.00, -0.00, -1.00, 88.3, 511.5)">|</text><text xml:space="preserve" font-family="Helvetica-Light,Helvetica" font-size="50.0" fill="#A6AAA8" transform="matrix(1.00, 0.00, -0.00, -1.00, 99.4, 511.5)"> </text><text xml:space="preserve" font-family="Helvetica-Light,Helvetica" font-size="50.0" fill="#A6AAA8" transform="matrix(1.00, 0.00, -0.00, -1.00, 113.3, 511.5)">ə</text><text xml:space="preserve" font-family="LucidaGrande,Lucida Grande" font-size="50.0" fill="#A6AAA8" transform="matrix(1.00, 0.00, -0.00, -1.00, 139.7, 511.5)">ˈ</text><text xml:space="preserve" font-family="Helvetica-Light,Helvetica" font-size="50.0" fill="#A6AAA8" transform="matrix(1.00, 0.00, -0.00, -1.00, 148.8, 511.5)">f</text><text xml:space="preserve" font-family="Helvetica-Light,Helvetica" font-size="50.0" fill="#A6AAA8" transform="matrix(1.00, 0.00, -0.00, -1.00, 162.7, 511.5)">ô</text><text xml:space="preserve" font-family="Helvetica-Light,Helvetica" font-size="50.0" fill="#A6AAA8" transform="matrix(1.00, 0.00, -0.00, -1.00, 190.5, 511.5)">r</text><text xml:space="preserve" font-family="Helvetica-Light,Helvetica" font-size="50.0" fill="#A6AAA8" transform="matrix(1.00, 0.00, -0.00, -1.00, 206.2, 511.5)">d</text><text xml:space="preserve" font-family="Helvetica-Light,Helvetica" font-size="50.0" fill="#A6AAA8" transform="matrix(1.00, 0.00, -0.00, -1.00, 236.8, 511.5)">-</text><text xml:space="preserve" font-family="Helvetica-Light,Helvetica" font-size="50.0" fill="#A6AAA8" transform="matrix(1.00, 0.00, -0.00, -1.00, 253.4, 511.5)">ə</text><text xml:space="preserve" font-family="Helvetica-Light,Helvetica" font-size="50.0" fill="#A6AAA8" transform="matrix(1.00, 0.00, -0.00, -1.00, 279.9, 511.5)">n</text><text xml:space="preserve" font-family="Helvetica-Light,Helvetica" font-size="50.0" fill="#A6AAA8" transform="matrix(1.00, 0.00, -0.00, -1.00, 307.7, 511.5)">s</text><text xml:space="preserve" font-family="Helvetica-Light,Helvetica" font-size="50.0" fill="#A6AAA8" transform="matrix(1.00, 0.00, -0.00, -1.00, 332.7, 511.5)"> </text><text xml:space="preserve" font-family="Helvetica-Light,Helvetica" font-size="50.0" fill="#A6AAA8" transform="matrix(1.00, 0.00, -0.00, -1.00, 346.6, 511.5)">|</text><text xml:space="preserve" font-family="ProximaNova-Regular,Proxima Nova" font-size="42.0" fill="#52575F" transform="matrix(1.00, 0.00, -0.00, -1.00, 83.9, 417.3)">i</text><text xml:space="preserve" font-family="ProximaNova-Regular,Proxima Nova" font-size="42.0" fill="#52575F" transform="matrix(1.00, 0.00, -0.00, -1.00, 93.4, 417.3)">s</text><text xml:space="preserve" font-family="ProximaNova-Regular,Proxima Nova" font-size="42.0" fill="#52575F" transform="matrix(1.00, 0.00, -0.00, -1.00, 112.9, 417.3)"> </text><text xml:space="preserve" font-family="ProximaNova-Regular,Proxima Nova" font-size="42.0" fill="#52575F" transform="matrix(1.00, 0.00, -0.00, -1.00, 123.8, 417.3)">t</text><text xml:space="preserve" font-family="ProximaNova-Regular,Proxima Nova" font-size="42.0" fill="#52575F" transform="matrix(1.00, 0.00, -0.00, -1.00, 136.1, 417.3)">h</text><text xml:space="preserve" font-family="ProximaNova-Regular,Proxima Nova" font-size="42.0" fill="#52575F" transform="matrix(1.00, 0.00, -0.00, -1.00, 159.3, 417.3)">e</text><text xml:space="preserve" font-family="ProximaNova-Regular,Proxima Nova" font-size="42.0" fill="#52575F" transform="matrix(1.00, 0.00, -0.00, -1.00, 182.9, 417.3)"> </text><text xml:space="preserve" font-family="ProximaNova-Regular,Proxima Nova" font-size="42.0" fill="#52575F" transform="matrix(1.00, 0.00, -0.00, -1.00, 193.8, 417.3)">c</text><text xml:space="preserve" font-family="ProximaNova-Regular,Proxima Nova" font-size="42.0" fill="#52575F" transform="matrix(1.00, 0.00, -0.00, -1.00, 214.7, 417.3)">u</text><text xml:space="preserve" font-family="ProximaNova-Regular,Proxima Nova" font-size="42.0" fill="#52575F" transform="matrix(1.00, 0.00, -0.00, -1.00, 237.8, 417.3)">r</text><text xml:space="preserve" font-family="ProximaNova-Regular,Proxima Nova" font-size="42.0" fill="#52575F" transform="matrix(1.00, 0.00, -0.00, -1.00, 251.7, 417.3)">r</text><text xml:space="preserve" font-family="ProximaNova-Regular,Proxima Nova" font-size="42.0" fill="#52575F" transform="matrix(1.00, 0.00, -0.00, -1.00, 265.5, 417.3)">e</text><text xml:space="preserve" font-family="ProximaNova-Regular,Proxima Nova" font-size="42.0" fill="#52575F" transform="matrix(1.00, 0.00, -0.00, -1.00, 289.2, 417.3)">n</text><text xml:space="preserve" font-family="ProximaNova-Regular,Proxima Nova" font-size="42.0" fill="#52575F" transform="matrix(1.00, 0.00, -0.00, -1.00, 312.3, 417.3)">t</text><text xml:space="preserve" font-family="ProximaNova-Regular,Proxima Nova" font-size="42.0" fill="#52575F" transform="matrix(1.00, 0.00, -0.00, -1.00, 324.7, 417.3)"> </text><text xml:space="preserve" font-family="ProximaNova-Regular,Proxima Nova" font-size="42.0" fill="#52575F" transform="matrix(1.00, 0.00, -0.00, -1.00, 335.6, 417.3)">r</text><text xml:space="preserve" font-family="ProximaNova-Regular,Proxima Nova" font-size="42.0" fill="#52575F" transform="matrix(1.00, 0.00, -0.00, -1.00, 349.4, 417.3)">e</text><text xml:space="preserve" font-family="ProximaNova-Regular,Proxima Nova" font-size="42.0" fill="#52575F" transform="matrix(1.00, 0.00, -0.00, -1.00, 373.1, 417.3)">p</text><text xml:space="preserve" font-family="ProximaNova-Regular,Proxima Nova" font-size="42.0" fill="#52575F" transform="matrix(1.00, 0.00, -0.00, -1.00, 397.1, 417.3)">r</text><text xml:space="preserve" font-family="ProximaNova-Regular,Proxima Nova" font-size="42.0" fill="#52575F" transform="matrix(1.00, 0.00, -0.00, -1.00, 411.0, 417.3)">e</text><text xml:space="preserve" font-family="ProximaNova-Regular,Proxima Nova" font-size="42.0" fill="#52575F" transform="matrix(1.00, 0.00, -0.00, -1.00, 434.6, 417.3)">s</text><text xml:space="preserve" font-family="ProximaNova-Regular,Proxima Nova" font-size="42.0" fill="#52575F" transform="matrix(1.00, 0.00, -0.00, -1.00, 454.1, 417.3)">e</text><text xml:space="preserve" font-family="ProximaNova-Regular,Proxima Nova" font-size="42.0" fill="#52575F" transform="matrix(1.00, 0.00, -0.00, -1.00, 477.8, 417.3)">n</text><text xml:space="preserve" font-family="ProximaNova-Regular,Proxima Nova" font-size="42.0" fill="#52575F" transform="matrix(1.00, 0.00, -0.00, -1.00, 501.0, 417.3)">t</text><text xml:space="preserve" font-family="ProximaNova-Regular,Proxima Nova" font-size="42.0" fill="#52575F" transform="matrix(1.00, 0.00, -0.00, -1.00, 513.3, 417.3)">a</text><text xml:space="preserve" font-family="ProximaNova-Regular,Proxima Nova" font-size="42.0" fill="#52575F" transform="matrix(1.00, 0.00, -0.00, -1.00, 535.5, 417.3)">t</text><text xml:space="preserve" font-family="ProximaNova-Regular,Proxima Nova" font-size="42.0" fill="#52575F" transform="matrix(1.00, 0.00, -0.00, -1.00, 547.8, 417.3)">i</text><text xml:space="preserve" font-family="ProximaNova-Regular,Proxima Nova" font-size="42.0" fill="#52575F" transform="matrix(1.00, 0.00, -0.00, -1.00, 557.3, 417.3)">o</text><text xml:space="preserve" font-family="ProximaNova-Regular,Proxima Nova" font-size="42.0" fill="#52575F" transform="matrix(1.00, 0.00, -0.00, -1.00, 581.3, 417.3)">n</text><text xml:space="preserve" font-family="ProximaNova-Regular,Proxima Nova" font-size="42.0" fill="#52575F" transform="matrix(1.00, 0.00, -0.00, -1.00, 604.5, 417.3)"> </text><text xml:space="preserve" font-family="ProximaNova-Regular,Proxima Nova" font-size="42.0" fill="#52575F" transform="matrix(1.00, 0.00, -0.00, -1.00, 615.4, 417.3)">o</text><text xml:space="preserve" font-family="ProximaNova-Regular,Proxima Nova" font-size="42.0" fill="#52575F" transform="matrix(1.00, 0.00, -0.00, -1.00, 639.4, 417.3)">f</text><text xml:space="preserve" font-family="ProximaNova-Regular,Proxima Nova" font-size="42.0" fill="#52575F" transform="matrix(1.00, 0.00, -0.00, -1.00, 651.3, 417.3)"> </text><text xml:space="preserve" font-family="ProximaNova-Regular,Proxima Nova" font-size="42.0" fill="#52575F" transform="matrix(1.00, 0.00, -0.00, -1.00, 662.2, 417.3)">l</text><text xml:space="preserve" font-family="ProximaNova-Regular,Proxima Nova" font-size="42.0" fill="#52575F" transform="matrix(1.00, 0.00, -0.00, -1.00, 671.7, 417.3)">i</text><text xml:space="preserve" font-family="ProximaNova-Regular,Proxima Nova" font-size="42.0" fill="#52575F" transform="matrix(1.00, 0.00, -0.00, -1.00, 681.1, 417.3)">n</text><text xml:space="preserve" font-family="ProximaNova-Regular,Proxima Nova" font-size="42.0" fill="#52575F" transform="matrix(1.00, 0.00, -0.00, -1.00, 704.3, 417.3)">k</text><text xml:space="preserve" font-family="ProximaNova-Regular,Proxima Nova" font-size="42.0" fill="#52575F" transform="matrix(1.00, 0.00, -0.00, -1.00, 725.9, 417.3)">s</text><text xml:space="preserve" font-family="ProximaNova-Regular,Proxima Nova" font-size="42.0" fill="#52575F" transform="matrix(1.00, 0.00, -0.00, -1.00, 745.4, 417.3)"> </text><text xml:space="preserve" font-family="ProximaNova-Regular,Proxima Nova" font-size="42.0" fill="#52575F" transform="matrix(1.00, 0.00, -0.00, -1.00, 756.3, 417.3)">a</text><text xml:space="preserve" font-family="ProximaNova-Regular,Proxima Nova" font-size="42.0" fill="#52575F" transform="matrix(1.00, 0.00, -0.00, -1.00, 778.5, 417.3)">n</text><text xml:space="preserve" font-family="ProximaNova-Regular,Proxima Nova" font-size="42.0" fill="#52575F" transform="matrix(1.00, 0.00, -0.00, -1.00, 801.6, 417.3)">d</text><text xml:space="preserve" font-family="ProximaNova-Regular,Proxima Nova" font-size="42.0" fill="#52575F" transform="matrix(1.00, 0.00, -0.00, -1.00, 825.8, 417.3)"> </text><text xml:space="preserve" font-family="ProximaNova-Regular,Proxima Nova" font-size="42.0" fill="#52575F" transform="matrix(1.00, 0.00, -0.00, -1.00, 83.9, 367.3)">c</text><text xml:space="preserve" font-family="ProximaNova-Regular,Proxima Nova" font-size="42.0" fill="#52575F" transform="matrix(1.00, 0.00, -0.00, -1.00, 104.7, 367.3)">o</text><text xml:space="preserve" font-family="ProximaNova-Regular,Proxima Nova" font-size="42.0" fill="#52575F" transform="matrix(1.00, 0.00, -0.00, -1.00, 128.8, 367.3)">n</text><text xml:space="preserve" font-family="ProximaNova-Regular,Proxima Nova" font-size="42.0" fill="#52575F" transform="matrix(1.00, 0.00, -0.00, -1.00, 152.0, 367.3)">t</text><text xml:space="preserve" font-family="ProximaNova-Regular,Proxima Nova" font-size="42.0" fill="#52575F" transform="matrix(1.00, 0.00, -0.00, -1.00, 164.3, 367.3)">r</text><text xml:space="preserve" font-family="ProximaNova-Regular,Proxima Nova" font-size="42.0" fill="#52575F" transform="matrix(1.00, 0.00, -0.00, -1.00, 178.2, 367.3)">o</text><text xml:space="preserve" font-family="ProximaNova-Regular,Proxima Nova" font-size="42.0" fill="#52575F" transform="matrix(1.00, 0.00, -0.00, -1.00, 202.2, 367.3)">l</text><text xml:space="preserve" font-family="ProximaNova-Regular,Proxima Nova" font-size="42.0" fill="#52575F" transform="matrix(1.00, 0.00, -0.00, -1.00, 211.6, 367.3)">s</text><text xml:space="preserve" font-family="ProximaNova-Regular,Proxima Nova" font-size="42.0" fill="#52575F" transform="matrix(1.00, 0.00, -0.00, -1.00, 231.2, 367.3)"> </text><text xml:space="preserve" font-family="ProximaNova-Regular,Proxima Nova" font-size="42.0" fill="#52575F" transform="matrix(1.00, 0.00, -0.00, -1.00, 242.0, 367.3)">t</text><text xml:space="preserve" font-family="ProximaNova-Regular,Proxima Nova" font-size="42.0" fill="#52575F" transform="matrix(1.00, 0.00, -0.00, -1.00, 254.4, 367.3)">h</text><text xml:space="preserve" font-family="ProximaNova-Regular,Proxima Nova" font-size="42.0" fill="#52575F" transform="matrix(1.00, 0.00, -0.00, -1.00, 277.6, 367.3)">a</text><text xml:space="preserve" font-family="ProximaNova-Regular,Proxima Nova" font-size="42.0" fill="#52575F" transform="matrix(1.00, 0.00, -0.00, -1.00, 299.7, 367.3)">t</text><text xml:space="preserve" font-family="ProximaNova-Regular,Proxima Nova" font-size="42.0" fill="#52575F" transform="matrix(1.00, 0.00, -0.00, -1.00, 312.1, 367.3)"> </text><text xml:space="preserve" font-family="ProximaNova-Regular,Proxima Nova" font-size="42.0" fill="#52575F" transform="matrix(1.00, 0.00, -0.00, -1.00, 323.0, 367.3)">r</text><text xml:space="preserve" font-family="ProximaNova-Regular,Proxima Nova" font-size="42.0" fill="#52575F" transform="matrix(1.00, 0.00, -0.00, -1.00, 336.8, 367.3)">e</text><text xml:space="preserve" font-family="ProximaNova-Regular,Proxima Nova" font-size="42.0" fill="#52575F" transform="matrix(1.00, 0.00, -0.00, -1.00, 360.5, 367.3)">ﬂ</text><text xml:space="preserve" font-family="ProximaNova-Regular,Proxima Nova" font-size="42.0" fill="#52575F" transform="matrix(1.00, 0.00, -0.00, -1.00, 381.9, 367.3)">e</text><text xml:space="preserve" font-family="ProximaNova-Regular,Proxima Nova" font-size="42.0" fill="#52575F" transform="matrix(1.00, 0.00, -0.00, -1.00, 405.5, 367.3)">c</text><text xml:space="preserve" font-family="ProximaNova-Regular,Proxima Nova" font-size="42.0" fill="#52575F" transform="matrix(1.00, 0.00, -0.00, -1.00, 426.3, 367.3)">t</text><text xml:space="preserve" font-family="ProximaNova-Regular,Proxima Nova" font-size="42.0" fill="#52575F" transform="matrix(1.00, 0.00, -0.00, -1.00, 438.7, 367.3)"> </text><text xml:space="preserve" font-family="ProximaNova-Regular,Proxima Nova" font-size="42.0" fill="#52575F" transform="matrix(1.00, 0.00, -0.00, -1.00, 449.6, 367.3)">t</text><text xml:space="preserve" font-family="ProximaNova-Regular,Proxima Nova" font-size="42.0" fill="#52575F" transform="matrix(1.00, 0.00, -0.00, -1.00, 461.9, 367.3)">h</text><text xml:space="preserve" font-family="ProximaNova-Regular,Proxima Nova" font-size="42.0" fill="#52575F" transform="matrix(1.00, 0.00, -0.00, -1.00, 485.1, 367.3)">e</text><text xml:space="preserve" font-family="ProximaNova-Regular,Proxima Nova" font-size="42.0" fill="#52575F" transform="matrix(1.00, 0.00, -0.00, -1.00, 508.7, 367.3)"> </text><text xml:space="preserve" font-family="ProximaNova-Regular,Proxima Nova" font-size="42.0" fill="#52575F" transform="matrix(1.00, 0.00, -0.00, -1.00, 519.6, 367.3)">c</text><text xml:space="preserve" font-family="ProximaNova-Regular,Proxima Nova" font-size="42.0" fill="#52575F" transform="matrix(1.00, 0.00, -0.00, -1.00, 540.5, 367.3)">o</text><text xml:space="preserve" font-family="ProximaNova-Regular,Proxima Nova" font-size="42.0" fill="#52575F" transform="matrix(1.00, 0.00, -0.00, -1.00, 564.5, 367.3)">n</text><text xml:space="preserve" font-family="ProximaNova-Regular,Proxima Nova" font-size="42.0" fill="#52575F" transform="matrix(1.00, 0.00, -0.00, -1.00, 587.7, 367.3)">t</text><text xml:space="preserve" font-family="ProximaNova-Regular,Proxima Nova" font-size="42.0" fill="#52575F" transform="matrix(1.00, 0.00, -0.00, -1.00, 600.0, 367.3)">e</text><text xml:space="preserve" font-family="ProximaNova-Regular,Proxima Nova" font-size="42.0" fill="#52575F" transform="matrix(1.00, 0.00, -0.00, -1.00, 623.7, 367.3)">x</text><text xml:space="preserve" font-family="ProximaNova-Regular,Proxima Nova" font-size="42.0" fill="#52575F" transform="matrix(1.00, 0.00, -0.00, -1.00, 644.1, 367.3)">t</text><text xml:space="preserve" font-family="ProximaNova-Regular,Proxima Nova" font-size="42.0" fill="#52575F" transform="matrix(1.00, 0.00, -0.00, -1.00, 656.5, 367.3)"> </text><text xml:space="preserve" font-family="ProximaNova-Regular,Proxima Nova" font-size="42.0" fill="#52575F" transform="matrix(1.00, 0.00, -0.00, -1.00, 667.3, 367.3)">o</text><text xml:space="preserve" font-family="ProximaNova-Regular,Proxima Nova" font-size="42.0" fill="#52575F" transform="matrix(1.00, 0.00, -0.00, -1.00, 691.4, 367.3)">f</text><text xml:space="preserve" font-family="ProximaNova-Regular,Proxima Nova" font-size="42.0" fill="#52575F" transform="matrix(1.00, 0.00, -0.00, -1.00, 703.3, 367.3)"> </text><text xml:space="preserve" font-family="ProximaNova-Regular,Proxima Nova" font-size="42.0" fill="#52575F" transform="matrix(1.00, 0.00, -0.00, -1.00, 714.2, 367.3)">a</text><text xml:space="preserve" font-family="ProximaNova-Regular,Proxima Nova" font-size="42.0" fill="#52575F" transform="matrix(1.00, 0.00, -0.00, -1.00, 736.3, 367.3)"> </text><text xml:space="preserve" font-family="ProximaNova-Regular,Proxima Nova" font-size="42.0" fill="#52575F" transform="matrix(1.00, 0.00, -0.00, -1.00, 747.2, 367.3)">g</text><text xml:space="preserve" font-family="ProximaNova-Regular,Proxima Nova" font-size="42.0" fill="#52575F" transform="matrix(1.00, 0.00, -0.00, -1.00, 771.4, 367.3)">i</text><text xml:space="preserve" font-family="ProximaNova-Regular,Proxima Nova" font-size="42.0" fill="#52575F" transform="matrix(1.00, 0.00, -0.00, -1.00, 780.8, 367.3)">v</text><text xml:space="preserve" font-family="ProximaNova-Regular,Proxima Nova" font-size="42.0" fill="#52575F" transform="matrix(1.00, 0.00, -0.00, -1.00, 801.4, 367.3)">e</text><text xml:space="preserve" font-family="ProximaNova-Regular,Proxima Nova" font-size="42.0" fill="#52575F" transform="matrix(1.00, 0.00, -0.00, -1.00, 825.0, 367.3)">n</text><text xml:space="preserve" font-family="ProximaNova-Regular,Proxima Nova" font-size="42.0" fill="#52575F" transform="matrix(1.00, 0.00, -0.00, -1.00, 848.2, 367.3)"> </text><text xml:space="preserve" font-family="ProximaNova-Regular,Proxima Nova" font-size="42.0" fill="#52575F" transform="matrix(1.00, 0.00, -0.00, -1.00, 83.9, 317.3)">s</text><text xml:space="preserve" font-family="ProximaNova-Regular,Proxima Nova" font-size="42.0" fill="#52575F" transform="matrix(1.00, 0.00, -0.00, -1.00, 103.4, 317.3)">t</text><text xml:space="preserve" font-family="ProximaNova-Regular,Proxima Nova" font-size="42.0" fill="#52575F" transform="matrix(1.00, 0.00, -0.00, -1.00, 115.8, 317.3)">a</text><text xml:space="preserve" font-family="ProximaNova-Regular,Proxima Nova" font-size="42.0" fill="#52575F" transform="matrix(1.00, 0.00, -0.00, -1.00, 138.0, 317.3)">t</text><text xml:space="preserve" font-family="ProximaNova-Regular,Proxima Nova" font-size="42.0" fill="#52575F" transform="matrix(1.00, 0.00, -0.00, -1.00, 150.3, 317.3)">e</text><text xml:space="preserve" font-family="ProximaNova-Regular,Proxima Nova" font-size="42.0" fill="#52575F" transform="matrix(1.00, 0.00, -0.00, -1.00, 173.7, 317.3)">,</text><text xml:space="preserve" font-family="ProximaNova-Regular,Proxima Nova" font-size="42.0" fill="#52575F" transform="matrix(1.00, 0.00, -0.00, -1.00, 183.3, 317.3)"> </text><text xml:space="preserve" font-family="ProximaNova-Regular,Proxima Nova" font-size="42.0" fill="#52575F" transform="matrix(1.00, 0.00, -0.00, -1.00, 194.2, 317.3)">s</text><text xml:space="preserve" font-family="ProximaNova-Regular,Proxima Nova" font-size="42.0" fill="#52575F" transform="matrix(1.00, 0.00, -0.00, -1.00, 213.7, 317.3)">u</text><text xml:space="preserve" font-family="ProximaNova-Regular,Proxima Nova" font-size="42.0" fill="#52575F" transform="matrix(1.00, 0.00, -0.00, -1.00, 236.9, 317.3)">c</text><text xml:space="preserve" font-family="ProximaNova-Regular,Proxima Nova" font-size="42.0" fill="#52575F" transform="matrix(1.00, 0.00, -0.00, -1.00, 257.7, 317.3)">h</text><text xml:space="preserve" font-family="ProximaNova-Regular,Proxima Nova" font-size="42.0" fill="#52575F" transform="matrix(1.00, 0.00, -0.00, -1.00, 280.9, 317.3)"> </text><text xml:space="preserve" font-family="ProximaNova-Regular,Proxima Nova" font-size="42.0" fill="#52575F" transform="matrix(1.00, 0.00, -0.00, -1.00, 291.8, 317.3)">t</text><text xml:space="preserve" font-family="ProximaNova-Regular,Proxima Nova" font-size="42.0" fill="#52575F" transform="matrix(1.00, 0.00, -0.00, -1.00, 304.1, 317.3)">h</text><text xml:space="preserve" font-family="ProximaNova-Regular,Proxima Nova" font-size="42.0" fill="#52575F" transform="matrix(1.00, 0.00, -0.00, -1.00, 327.3, 317.3)">a</text><text xml:space="preserve" font-family="ProximaNova-Regular,Proxima Nova" font-size="42.0" fill="#52575F" transform="matrix(1.00, 0.00, -0.00, -1.00, 349.5, 317.3)">t</text><text xml:space="preserve" font-family="ProximaNova-Regular,Proxima Nova" font-size="42.0" fill="#52575F" transform="matrix(1.00, 0.00, -0.00, -1.00, 361.8, 317.3)"> </text><text xml:space="preserve" font-family="ProximaNova-Regular,Proxima Nova" font-size="42.0" fill="#52575F" transform="matrix(1.00, 0.00, -0.00, -1.00, 372.7, 317.3)">t</text><text xml:space="preserve" font-family="ProximaNova-Regular,Proxima Nova" font-size="42.0" fill="#52575F" transform="matrix(1.00, 0.00, -0.00, -1.00, 385.1, 317.3)">h</text><text xml:space="preserve" font-family="ProximaNova-Regular,Proxima Nova" font-size="42.0" fill="#52575F" transform="matrix(1.00, 0.00, -0.00, -1.00, 408.2, 317.3)">e</text><text xml:space="preserve" font-family="ProximaNova-Regular,Proxima Nova" font-size="42.0" fill="#52575F" transform="matrix(1.00, 0.00, -0.00, -1.00, 431.9, 317.3)"> </text><text xml:space="preserve" font-family="ProximaNova-Regular,Proxima Nova" font-size="42.0" fill="#52575F" transform="matrix(1.00, 0.00, -0.00, -1.00, 442.8, 317.3)">u</text><text xml:space="preserve" font-family="ProximaNova-Regular,Proxima Nova" font-size="42.0" fill="#52575F" transform="matrix(1.00, 0.00, -0.00, -1.00, 465.9, 317.3)">s</text><text xml:space="preserve" font-family="ProximaNova-Regular,Proxima Nova" font-size="42.0" fill="#52575F" transform="matrix(1.00, 0.00, -0.00, -1.00, 485.4, 317.3)">e</text><text xml:space="preserve" font-family="ProximaNova-Regular,Proxima Nova" font-size="42.0" fill="#52575F" transform="matrix(1.00, 0.00, -0.00, -1.00, 509.1, 317.3)">r</text><text xml:space="preserve" font-family="ProximaNova-Regular,Proxima Nova" font-size="42.0" fill="#52575F" transform="matrix(1.00, 0.00, -0.00, -1.00, 522.9, 317.3)"> </text><text xml:space="preserve" font-family="ProximaNova-Regular,Proxima Nova" font-size="42.0" fill="#52575F" transform="matrix(1.00, 0.00, -0.00, -1.00, 533.8, 317.3)">o</text><text xml:space="preserve" font-family="ProximaNova-Regular,Proxima Nova" font-size="42.0" fill="#52575F" transform="matrix(1.00, 0.00, -0.00, -1.00, 557.8, 317.3)">b</text><text xml:space="preserve" font-family="ProximaNova-Regular,Proxima Nova" font-size="42.0" fill="#52575F" transform="matrix(1.00, 0.00, -0.00, -1.00, 582.0, 317.3)">t</text><text xml:space="preserve" font-family="ProximaNova-Regular,Proxima Nova" font-size="42.0" fill="#52575F" transform="matrix(1.00, 0.00, -0.00, -1.00, 594.3, 317.3)">a</text><text xml:space="preserve" font-family="ProximaNova-Regular,Proxima Nova" font-size="42.0" fill="#52575F" transform="matrix(1.00, 0.00, -0.00, -1.00, 616.5, 317.3)">i</text><text xml:space="preserve" font-family="ProximaNova-Regular,Proxima Nova" font-size="42.0" fill="#52575F" transform="matrix(1.00, 0.00, -0.00, -1.00, 626.0, 317.3)">n</text><text xml:space="preserve" font-family="ProximaNova-Regular,Proxima Nova" font-size="42.0" fill="#52575F" transform="matrix(1.00, 0.00, -0.00, -1.00, 649.1, 317.3)">s</text><text xml:space="preserve" font-family="ProximaNova-Regular,Proxima Nova" font-size="42.0" fill="#52575F" transform="matrix(1.00, 0.00, -0.00, -1.00, 668.7, 317.3)"> </text><text xml:space="preserve" font-family="ProximaNova-Regular,Proxima Nova" font-size="42.0" fill="#52575F" transform="matrix(1.00, 0.00, -0.00, -1.00, 679.6, 317.3)">c</text><text xml:space="preserve" font-family="ProximaNova-Regular,Proxima Nova" font-size="42.0" fill="#52575F" transform="matrix(1.00, 0.00, -0.00, -1.00, 700.4, 317.3)">h</text><text xml:space="preserve" font-family="ProximaNova-Regular,Proxima Nova" font-size="42.0" fill="#52575F" transform="matrix(1.00, 0.00, -0.00, -1.00, 723.6, 317.3)">o</text><text xml:space="preserve" font-family="ProximaNova-Regular,Proxima Nova" font-size="42.0" fill="#52575F" transform="matrix(1.00, 0.00, -0.00, -1.00, 747.6, 317.3)">i</text><text xml:space="preserve" font-family="ProximaNova-Regular,Proxima Nova" font-size="42.0" fill="#52575F" transform="matrix(1.00, 0.00, -0.00, -1.00, 757.0, 317.3)">c</text><text xml:space="preserve" font-family="ProximaNova-Regular,Proxima Nova" font-size="42.0" fill="#52575F" transform="matrix(1.00, 0.00, -0.00, -1.00, 777.9, 317.3)">e</text><text xml:space="preserve" font-family="ProximaNova-Regular,Proxima Nova" font-size="42.0" fill="#52575F" transform="matrix(1.00, 0.00, -0.00, -1.00, 801.5, 317.3)">s</text><text xml:space="preserve" font-family="ProximaNova-Regular,Proxima Nova" font-size="42.0" fill="#52575F" transform="matrix(1.00, 0.00, -0.00, -1.00, 821.1, 317.3)"> </text><text xml:space="preserve" font-family="ProximaNova-Regular,Proxima Nova" font-size="42.0" fill="#52575F" transform="matrix(1.00, 0.00, -0.00, -1.00, 83.9, 267.3)">a</text><text xml:space="preserve" font-family="ProximaNova-Regular,Proxima Nova" font-size="42.0" fill="#52575F" transform="matrix(1.00, 0.00, -0.00, -1.00, 106.1, 267.3)">n</text><text xml:space="preserve" font-family="ProximaNova-Regular,Proxima Nova" font-size="42.0" fill="#52575F" transform="matrix(1.00, 0.00, -0.00, -1.00, 129.3, 267.3)">d</text><text xml:space="preserve" font-family="ProximaNova-Regular,Proxima Nova" font-size="42.0" fill="#52575F" transform="matrix(1.00, 0.00, -0.00, -1.00, 153.4, 267.3)"> </text><text xml:space="preserve" font-family="ProximaNova-Regular,Proxima Nova" font-size="42.0" fill="#52575F" transform="matrix(1.00, 0.00, -0.00, -1.00, 164.3, 267.3)">c</text><text xml:space="preserve" font-family="ProximaNova-Regular,Proxima Nova" font-size="42.0" fill="#52575F" transform="matrix(1.00, 0.00, -0.00, -1.00, 185.1, 267.3)">a</text><text xml:space="preserve" font-family="ProximaNova-Regular,Proxima Nova" font-size="42.0" fill="#52575F" transform="matrix(1.00, 0.00, -0.00, -1.00, 207.3, 267.3)">n</text><text xml:space="preserve" font-family="ProximaNova-Regular,Proxima Nova" font-size="42.0" fill="#52575F" transform="matrix(1.00, 0.00, -0.00, -1.00, 230.5, 267.3)"> </text><text xml:space="preserve" font-family="ProximaNova-Regular,Proxima Nova" font-size="42.0" fill="#52575F" transform="matrix(1.00, 0.00, -0.00, -1.00, 241.4, 267.3)">s</text><text xml:space="preserve" font-family="ProximaNova-Regular,Proxima Nova" font-size="42.0" fill="#52575F" transform="matrix(1.00, 0.00, -0.00, -1.00, 260.9, 267.3)">e</text><text xml:space="preserve" font-family="ProximaNova-Regular,Proxima Nova" font-size="42.0" fill="#52575F" transform="matrix(1.00, 0.00, -0.00, -1.00, 284.5, 267.3)">l</text><text xml:space="preserve" font-family="ProximaNova-Regular,Proxima Nova" font-size="42.0" fill="#52575F" transform="matrix(1.00, 0.00, -0.00, -1.00, 294.0, 267.3)">e</text><text xml:space="preserve" font-family="ProximaNova-Regular,Proxima Nova" font-size="42.0" fill="#52575F" transform="matrix(1.00, 0.00, -0.00, -1.00, 317.6, 267.3)">c</text><text xml:space="preserve" font-family="ProximaNova-Regular,Proxima Nova" font-size="42.0" fill="#52575F" transform="matrix(1.00, 0.00, -0.00, -1.00, 338.5, 267.3)">t</text><text xml:space="preserve" font-family="ProximaNova-Regular,Proxima Nova" font-size="42.0" fill="#52575F" transform="matrix(1.00, 0.00, -0.00, -1.00, 350.8, 267.3)"> </text><text xml:space="preserve" font-family="ProximaNova-Regular,Proxima Nova" font-size="42.0" fill="#52575F" transform="matrix(1.00, 0.00, -0.00, -1.00, 361.7, 267.3)">a</text><text xml:space="preserve" font-family="ProximaNova-Regular,Proxima Nova" font-size="42.0" fill="#52575F" transform="matrix(1.00, 0.00, -0.00, -1.00, 383.9, 267.3)">c</text><text xml:space="preserve" font-family="ProximaNova-Regular,Proxima Nova" font-size="42.0" fill="#52575F" transform="matrix(1.00, 0.00, -0.00, -1.00, 404.7, 267.3)">t</text><text xml:space="preserve" font-family="ProximaNova-Regular,Proxima Nova" font-size="42.0" fill="#52575F" transform="matrix(1.00, 0.00, -0.00, -1.00, 417.1, 267.3)">i</text><text xml:space="preserve" font-family="ProximaNova-Regular,Proxima Nova" font-size="42.0" fill="#52575F" transform="matrix(1.00, 0.00, -0.00, -1.00, 426.5, 267.3)">o</text><text xml:space="preserve" font-family="ProximaNova-Regular,Proxima Nova" font-size="42.0" fill="#52575F" transform="matrix(1.00, 0.00, -0.00, -1.00, 450.5, 267.3)">n</text><text xml:space="preserve" font-family="ProximaNova-Regular,Proxima Nova" font-size="42.0" fill="#52575F" transform="matrix(1.00, 0.00, -0.00, -1.00, 473.7, 267.3)">s</text><text xml:space="preserve" font-family="ProximaNova-Regular,Proxima Nova" font-size="42.0" fill="#52575F" transform="matrix(1.00, 0.00, -0.00, -1.00, 493.2, 267.3)">.</text></g></svg>