<?xml version="1.0" encoding="UTF-8" standalone="no"?><svg xmlns="http://www.w3.org/2000/svg" xmlns:xlink="http://www.w3.org/1999/xlink" clip-rule="evenodd" stroke-miterlimit="10" viewBox="0 0 1024 768"><desc>SVG generated by Keynote</desc><defs></defs><g transform="matrix(1.00, 0.00, -0.00, -1.00, 0.0, 768.0)"><path d="M 0.0 768.0 L 1024.0 768.0 L 1024.0 0.0 L 0.0 0.0 Z M 0.0 768.0 " fill="#000000"></path><text xml:space="preserve" font-family="ProximaNova-Light,Proxima Nova" font-size="60.0" fill="#FF456F" transform="matrix(1.00, 0.00, -0.00, -1.00, 371.0, 421.6)">W</text><text xml:space="preserve" font-family="ProximaNova-Light,Proxima Nova" font-size="60.0" fill="#FF456F" transform="matrix(1.00, 0.00, -0.00, -1.00, 423.0, 421.6)">h</text><text xml:space="preserve" font-family="ProximaNova-Light,Proxima Nova" font-size="60.0" fill="#FF456F" transform="matrix(1.00, 0.00, -0.00, -1.00, 455.4, 421.6)">a</text><text xml:space="preserve" font-family="ProximaNova-Light,Proxima Nova" font-size="60.0" fill="#FF456F" transform="matrix(1.00, 0.00, -0.00, -1.00, 486.7, 421.6)">t</text><text xml:space="preserve" font-family="ProximaNova-Light,Proxima Nova" font-size="60.0" fill="#FF456F" transform="matrix(1.00, 0.00, -0.00, -1.00, 503.2, 421.6)"> </text><text xml:space="preserve" font-family="ProximaNova-Light,Proxima Nova" font-size="60.0" fill="#FF456F" transform="matrix(1.00, 0.00, -0.00, -1.00, 518.7, 421.6)">e</text><text xml:space="preserve" font-family="ProximaNova-Light,Proxima Nova" font-size="60.0" fill="#FF456F" transform="matrix(1.00, 0.00, -0.00, -1.00, 552.7, 421.6)">l</text><text xml:space="preserve" font-family="ProximaNova-Light,Proxima Nova" font-size="60.0" fill="#FF456F" transform="matrix(1.00, 0.00, -0.00, -1.00, 565.6, 421.6)">s</text><text xml:space="preserve" font-family="ProximaNova-Light,Proxima Nova" font-size="60.0" fill="#FF456F" transform="matrix(1.00, 0.00, -0.00, -1.00, 593.1, 421.6)">e</text><text xml:space="preserve" font-family="ProximaNova-Light,Proxima Nova" font-size="60.0" fill="#FF456F" transform="matrix(1.00, 0.00, -0.00, -1.00, 625.2, 421.6)">?</text><text xml:space="preserve" font-family="ProximaNova-Light,Proxima Nova" font-size="39.0" fill="#FF456F" transform="matrix(1.00, 0.00, -0.00, -1.00, 81.7, 369.2)">D</text><text xml:space="preserve" font-family="ProximaNova-Light,Proxima Nova" font-size="39.0" fill="#FF456F" transform="matrix(1.00, 0.00, -0.00, -1.00, 108.7, 369.2)">e</text><text xml:space="preserve" font-family="ProximaNova-Light,Proxima Nova" font-size="39.0" fill="#FF456F" transform="matrix(1.00, 0.00, -0.00, -1.00, 130.8, 369.2)">ï¬</text><text xml:space="preserve" font-family="ProximaNova-Light,Proxima Nova" font-size="39.0" fill="#FF456F" transform="matrix(1.00, 0.00, -0.00, -1.00, 149.4, 369.2)">n</text><text xml:space="preserve" font-family="ProximaNova-Light,Proxima Nova" font-size="39.0" fill="#FF456F" transform="matrix(1.00, 0.00, -0.00, -1.00, 170.5, 369.2)">e</text><text xml:space="preserve" font-family="ProximaNova-Light,Proxima Nova" font-size="39.0" fill="#FF456F" transform="matrix(1.00, 0.00, -0.00, -1.00, 192.6, 369.2)"> </text><text xml:space="preserve" font-family="ProximaNova-Light,Proxima Nova" font-size="39.0" fill="#FF456F" transform="matrix(1.00, 0.00, -0.00, -1.00, 202.7, 369.2)">h</text><text xml:space="preserve" font-family="ProximaNova-Light,Proxima Nova" font-size="39.0" fill="#FF456F" transform="matrix(1.00, 0.00, -0.00, -1.00, 223.8, 369.2)">o</text><text xml:space="preserve" font-family="ProximaNova-Light,Proxima Nova" font-size="39.0" fill="#FF456F" transform="matrix(1.00, 0.00, -0.00, -1.00, 246.0, 369.2)">w</text><text xml:space="preserve" font-family="ProximaNova-Light,Proxima Nova" font-size="39.0" fill="#FF456F" transform="matrix(1.00, 0.00, -0.00, -1.00, 274.1, 369.2)"> </text><text xml:space="preserve" font-family="ProximaNova-Light,Proxima Nova" font-size="39.0" fill="#FF456F" transform="matrix(1.00, 0.00, -0.00, -1.00, 284.2, 369.2)">t</text><text xml:space="preserve" font-family="ProximaNova-Light,Proxima Nova" font-size="39.0" fill="#FF456F" transform="matrix(1.00, 0.00, -0.00, -1.00, 294.9, 369.2)">o</text><text xml:space="preserve" font-family="ProximaNova-Light,Proxima Nova" font-size="39.0" fill="#FF456F" transform="matrix(1.00, 0.00, -0.00, -1.00, 317.2, 369.2)"> </text><text xml:space="preserve" font-family="ProximaNova-Light,Proxima Nova" font-size="39.0" fill="#FF456F" transform="matrix(1.00, 0.00, -0.00, -1.00, 327.3, 369.2)">p</text><text xml:space="preserve" font-family="ProximaNova-Light,Proxima Nova" font-size="39.0" fill="#FF456F" transform="matrix(1.00, 0.00, -0.00, -1.00, 349.4, 369.2)">r</text><text xml:space="preserve" font-family="ProximaNova-Light,Proxima Nova" font-size="39.0" fill="#FF456F" transform="matrix(1.00, 0.00, -0.00, -1.00, 361.7, 369.2)">o</text><text xml:space="preserve" font-family="ProximaNova-Light,Proxima Nova" font-size="39.0" fill="#FF456F" transform="matrix(1.00, 0.00, -0.00, -1.00, 384.0, 369.2)">c</text><text xml:space="preserve" font-family="ProximaNova-Light,Proxima Nova" font-size="39.0" fill="#FF456F" transform="matrix(1.00, 0.00, -0.00, -1.00, 403.3, 369.2)">e</text><text xml:space="preserve" font-family="ProximaNova-Light,Proxima Nova" font-size="39.0" fill="#FF456F" transform="matrix(1.00, 0.00, -0.00, -1.00, 425.4, 369.2)">s</text><text xml:space="preserve" font-family="ProximaNova-Light,Proxima Nova" font-size="39.0" fill="#FF456F" transform="matrix(1.00, 0.00, -0.00, -1.00, 443.3, 369.2)">s</text><text xml:space="preserve" font-family="ProximaNova-Light,Proxima Nova" font-size="39.0" fill="#FF456F" transform="matrix(1.00, 0.00, -0.00, -1.00, 461.2, 369.2)"> </text><text xml:space="preserve" font-family="ProximaNova-Light,Proxima Nova" font-size="39.0" fill="#FF456F" transform="matrix(1.00, 0.00, -0.00, -1.00, 471.3, 369.2)">t</text><text xml:space="preserve" font-family="ProximaNova-Light,Proxima Nova" font-size="39.0" fill="#FF456F" transform="matrix(1.00, 0.00, -0.00, -1.00, 482.0, 369.2)">h</text><text xml:space="preserve" font-family="ProximaNova-Light,Proxima Nova" font-size="39.0" fill="#FF456F" transform="matrix(1.00, 0.00, -0.00, -1.00, 503.1, 369.2)">e</text><text xml:space="preserve" font-family="ProximaNova-Light,Proxima Nova" font-size="39.0" fill="#FF456F" transform="matrix(1.00, 0.00, -0.00, -1.00, 525.2, 369.2)"> </text><text xml:space="preserve" font-family="ProximaNova-Light,Proxima Nova" font-size="39.0" fill="#FF456F" transform="matrix(1.00, 0.00, -0.00, -1.00, 535.3, 369.2)">c</text><text xml:space="preserve" font-family="ProximaNova-Light,Proxima Nova" font-size="39.0" fill="#FF456F" transform="matrix(1.00, 0.00, -0.00, -1.00, 554.6, 369.2)">o</text><text xml:space="preserve" font-family="ProximaNova-Light,Proxima Nova" font-size="39.0" fill="#FF456F" transform="matrix(1.00, 0.00, -0.00, -1.00, 576.8, 369.2)">n</text><text xml:space="preserve" font-family="ProximaNova-Light,Proxima Nova" font-size="39.0" fill="#FF456F" transform="matrix(1.00, 0.00, -0.00, -1.00, 597.9, 369.2)">t</text><text xml:space="preserve" font-family="ProximaNova-Light,Proxima Nova" font-size="39.0" fill="#FF456F" transform="matrix(1.00, 0.00, -0.00, -1.00, 608.6, 369.2)">e</text><text xml:space="preserve" font-family="ProximaNova-Light,Proxima Nova" font-size="39.0" fill="#FF456F" transform="matrix(1.00, 0.00, -0.00, -1.00, 630.7, 369.2)">n</text><text xml:space="preserve" font-family="ProximaNova-Light,Proxima Nova" font-size="39.0" fill="#FF456F" transform="matrix(1.00, 0.00, -0.00, -1.00, 651.8, 369.2)">t</text><text xml:space="preserve" font-family="ProximaNova-Light,Proxima Nova" font-size="39.0" fill="#FF456F" transform="matrix(1.00, 0.00, -0.00, -1.00, 662.5, 369.2)">,</text><text xml:space="preserve" font-family="ProximaNova-Light,Proxima Nova" font-size="39.0" fill="#FF456F" transform="matrix(1.00, 0.00, -0.00, -1.00, 671.1, 369.2)"> </text><text xml:space="preserve" font-family="ProximaNova-Light,Proxima Nova" font-size="39.0" fill="#FF456F" transform="matrix(1.00, 0.00, -0.00, -1.00, 681.2, 369.2)">o</text><text xml:space="preserve" font-family="ProximaNova-Light,Proxima Nova" font-size="39.0" fill="#FF456F" transform="matrix(1.00, 0.00, -0.00, -1.00, 703.4, 369.2)">r</text><text xml:space="preserve" font-family="ProximaNova-Light,Proxima Nova" font-size="39.0" fill="#FF456F" transform="matrix(1.00, 0.00, -0.00, -1.00, 715.8, 369.2)"> </text><text xml:space="preserve" font-family="ProximaNova-SemiboldIt,Proxima Nova" font-style="italic" font-weight="bold" font-size="39.0" fill="#FEFFFE" transform="matrix(1.00, 0.00, -0.00, -1.00, 725.9, 369.2)">M</text><text xml:space="preserve" font-family="ProximaNova-SemiboldIt,Proxima Nova" font-style="italic" font-weight="bold" font-size="39.0" fill="#FEFFFE" transform="matrix(1.00, 0.00, -0.00, -1.00, 758.5, 369.2)">e</text><text xml:space="preserve" font-family="ProximaNova-SemiboldIt,Proxima Nova" font-style="italic" font-weight="bold" font-size="39.0" fill="#FEFFFE" transform="matrix(1.00, 0.00, -0.00, -1.00, 780.2, 369.2)">d</text><text xml:space="preserve" font-family="ProximaNova-SemiboldIt,Proxima Nova" font-style="italic" font-weight="bold" font-size="39.0" fill="#FEFFFE" transform="matrix(1.00, 0.00, -0.00, -1.00, 802.8, 369.2)">i</text><text xml:space="preserve" font-family="ProximaNova-SemiboldIt,Proxima Nova" font-style="italic" font-weight="bold" font-size="39.0" fill="#FEFFFE" transform="matrix(1.00, 0.00, -0.00, -1.00, 812.2, 369.2)">a</text><text xml:space="preserve" font-family="ProximaNova-SemiboldIt,Proxima Nova" font-style="italic" font-weight="bold" font-size="39.0" fill="#FEFFFE" transform="matrix(1.00, 0.00, -0.00, -1.00, 834.9, 369.2)">-</text><text xml:space="preserve" font-family="ProximaNova-SemiboldIt,Proxima Nova" font-style="italic" font-weight="bold" font-size="39.0" fill="#FEFFFE" transform="matrix(1.00, 0.00, -0.00, -1.00, 846.6, 369.2)">t</text><text xml:space="preserve" font-family="ProximaNova-SemiboldIt,Proxima Nova" font-style="italic" font-weight="bold" font-size="39.0" fill="#FEFFFE" transform="matrix(1.00, 0.00, -0.00, -1.00, 859.0, 369.2)">y</text><text xml:space="preserve" font-family="ProximaNova-SemiboldIt,Proxima Nova" font-style="italic" font-weight="bold" font-size="39.0" fill="#FEFFFE" transform="matrix(1.00, 0.00, -0.00, -1.00, 878.6, 369.2)">p</text><text xml:space="preserve" font-family="ProximaNova-SemiboldIt,Proxima Nova" font-style="italic" font-weight="bold" font-size="39.0" fill="#FEFFFE" transform="matrix(1.00, 0.00, -0.00, -1.00, 901.2, 369.2)">e</text><text xml:space="preserve" font-family="ProximaNova-Light,Proxima Nova" font-size="39.0" fill="#FF456F" transform="matrix(1.00, 0.00, -0.00, -1.00, 923.0, 369.2)">.</text></g></svg>