<?xml version="1.0" encoding="UTF-8" standalone="no"?><svg xmlns="http://www.w3.org/2000/svg" xmlns:xlink="http://www.w3.org/1999/xlink" clip-rule="evenodd" stroke-miterlimit="10" viewBox="0 0 1024 768"><desc>SVG generated by Keynote</desc><defs></defs><g transform="matrix(1.00, 0.00, -0.00, -1.00, 0.0, 768.0)"><path d="M 0.0 768.0 L 1024.0 768.0 L 1024.0 0.0 L 0.0 0.0 Z M 0.0 768.0 " fill="#FEFFFE"></path><text xml:space="preserve" font-family="ProximaNova-Light,Proxima Nova" font-size="40.0" fill="#FF456F" transform="matrix(1.00, 0.00, -0.00, -1.00, 281.6, 647.4)">A</text><text xml:space="preserve" font-family="ProximaNova-Light,Proxima Nova" font-size="40.0" fill="#FF456F" transform="matrix(1.00, 0.00, -0.00, -1.00, 307.5, 647.4)">c</text><text xml:space="preserve" font-family="ProximaNova-Light,Proxima Nova" font-size="40.0" fill="#FF456F" transform="matrix(1.00, 0.00, -0.00, -1.00, 327.3, 647.4)">c</text><text xml:space="preserve" font-family="ProximaNova-Light,Proxima Nova" font-size="40.0" fill="#FF456F" transform="matrix(1.00, 0.00, -0.00, -1.00, 347.0, 647.4)">e</text><text xml:space="preserve" font-family="ProximaNova-Light,Proxima Nova" font-size="40.0" fill="#FF456F" transform="matrix(1.00, 0.00, -0.00, -1.00, 369.7, 647.4)">s</text><text xml:space="preserve" font-family="ProximaNova-Light,Proxima Nova" font-size="40.0" fill="#FF456F" transform="matrix(1.00, 0.00, -0.00, -1.00, 388.1, 647.4)">s</text><text xml:space="preserve" font-family="ProximaNova-Light,Proxima Nova" font-size="40.0" fill="#FF456F" transform="matrix(1.00, 0.00, -0.00, -1.00, 406.4, 647.4)">i</text><text xml:space="preserve" font-family="ProximaNova-Light,Proxima Nova" font-size="40.0" fill="#FF456F" transform="matrix(1.00, 0.00, -0.00, -1.00, 415.0, 647.4)">n</text><text xml:space="preserve" font-family="ProximaNova-Light,Proxima Nova" font-size="40.0" fill="#FF456F" transform="matrix(1.00, 0.00, -0.00, -1.00, 436.6, 647.4)">g</text><text xml:space="preserve" font-family="ProximaNova-Light,Proxima Nova" font-size="40.0" fill="#FF456F" transform="matrix(1.00, 0.00, -0.00, -1.00, 459.4, 647.4)"> </text><text xml:space="preserve" font-family="ProximaNova-Light,Proxima Nova" font-size="40.0" fill="#FF456F" transform="matrix(1.00, 0.00, -0.00, -1.00, 469.8, 647.4)">r</text><text xml:space="preserve" font-family="ProximaNova-Light,Proxima Nova" font-size="40.0" fill="#FF456F" transform="matrix(1.00, 0.00, -0.00, -1.00, 482.4, 647.4)">e</text><text xml:space="preserve" font-family="ProximaNova-Light,Proxima Nova" font-size="40.0" fill="#FF456F" transform="matrix(1.00, 0.00, -0.00, -1.00, 505.1, 647.4)">l</text><text xml:space="preserve" font-family="ProximaNova-Light,Proxima Nova" font-size="40.0" fill="#FF456F" transform="matrix(1.00, 0.00, -0.00, -1.00, 513.7, 647.4)">e</text><text xml:space="preserve" font-family="ProximaNova-Light,Proxima Nova" font-size="40.0" fill="#FF456F" transform="matrix(1.00, 0.00, -0.00, -1.00, 536.4, 647.4)">v</text><text xml:space="preserve" font-family="ProximaNova-Light,Proxima Nova" font-size="40.0" fill="#FF456F" transform="matrix(1.00, 0.00, -0.00, -1.00, 555.6, 647.4)">a</text><text xml:space="preserve" font-family="ProximaNova-Light,Proxima Nova" font-size="40.0" fill="#FF456F" transform="matrix(1.00, 0.00, -0.00, -1.00, 576.4, 647.4)">n</text><text xml:space="preserve" font-family="ProximaNova-Light,Proxima Nova" font-size="40.0" fill="#FF456F" transform="matrix(1.00, 0.00, -0.00, -1.00, 598.0, 647.4)">t</text><text xml:space="preserve" font-family="ProximaNova-Light,Proxima Nova" font-size="40.0" fill="#FF456F" transform="matrix(1.00, 0.00, -0.00, -1.00, 609.0, 647.4)"> </text><text xml:space="preserve" font-family="ProximaNova-Light,Proxima Nova" font-size="40.0" fill="#FF456F" transform="matrix(1.00, 0.00, -0.00, -1.00, 619.4, 647.4)">a</text><text xml:space="preserve" font-family="ProximaNova-Light,Proxima Nova" font-size="40.0" fill="#FF456F" transform="matrix(1.00, 0.00, -0.00, -1.00, 640.2, 647.4)">c</text><text xml:space="preserve" font-family="ProximaNova-Light,Proxima Nova" font-size="40.0" fill="#FF456F" transform="matrix(1.00, 0.00, -0.00, -1.00, 660.0, 647.4)">t</text><text xml:space="preserve" font-family="ProximaNova-Light,Proxima Nova" font-size="40.0" fill="#FF456F" transform="matrix(1.00, 0.00, -0.00, -1.00, 671.0, 647.4)">i</text><text xml:space="preserve" font-family="ProximaNova-Light,Proxima Nova" font-size="40.0" fill="#FF456F" transform="matrix(1.00, 0.00, -0.00, -1.00, 679.6, 647.4)">o</text><text xml:space="preserve" font-family="ProximaNova-Light,Proxima Nova" font-size="40.0" fill="#FF456F" transform="matrix(1.00, 0.00, -0.00, -1.00, 702.4, 647.4)">n</text><text xml:space="preserve" font-family="ProximaNova-Light,Proxima Nova" font-size="40.0" fill="#FF456F" transform="matrix(1.00, 0.00, -0.00, -1.00, 724.0, 647.4)">s</text><image xlink:href="../../CBE5F823-0699-4727-88AA-A261658A299D/assets/473862ED9605A956B1CC86597DD16796.png" width="449.00" height="575.00" transform="matrix(0.86, 0.00, -0.00, -0.86, 318.3, 614.0)"></image><path d="M 0.0 0.0 L 387.3 0.0 L 387.3 496.0 L 0.0 496.0 Z M 0.0 0.0 " fill="none" stroke="#000000" stroke-width="1.00" transform="matrix(1.00, 0.00, 0.00, -1.00, 318.3, 614.0)"></path><image xlink:href="../../CBE5F823-0699-4727-88AA-A261658A299D/assets/C69FFAB249660923A883BE46B00D1A67.png" width="1618.00" height="505.00" transform="matrix(0.24, 0.00, -0.00, -0.24, 317.8, 117.5)"></image></g></svg>