<?xml version="1.0" encoding="UTF-8" standalone="no"?><svg xmlns="http://www.w3.org/2000/svg" xmlns:xlink="http://www.w3.org/1999/xlink" clip-rule="evenodd" stroke-miterlimit="10" viewBox="0 0 1024 768"><desc>SVG generated by Keynote</desc><defs></defs><g transform="matrix(1.00, 0.00, -0.00, -1.00, 0.0, 768.0)"><path d="M 0.0 768.0 L 1024.0 768.0 L 1024.0 0.0 L 0.0 0.0 Z M 0.0 768.0 " fill="#FEFFFE"></path><text xml:space="preserve" font-family="ProximaNova-Light,Proxima Nova" font-size="40.0" fill="#FF456F" transform="matrix(1.00, 0.00, -0.00, -1.00, 171.4, 392.4)">T</text><text xml:space="preserve" font-family="ProximaNova-Light,Proxima Nova" font-size="40.0" fill="#FF456F" transform="matrix(1.00, 0.00, -0.00, -1.00, 193.9, 392.4)">h</text><text xml:space="preserve" font-family="ProximaNova-Light,Proxima Nova" font-size="40.0" fill="#FF456F" transform="matrix(1.00, 0.00, -0.00, -1.00, 215.5, 392.4)">e</text><text xml:space="preserve" font-family="ProximaNova-Light,Proxima Nova" font-size="40.0" fill="#FF456F" transform="matrix(1.00, 0.00, -0.00, -1.00, 238.2, 392.4)"> </text><text xml:space="preserve" font-family="ProximaNova-Light,Proxima Nova" font-size="40.0" fill="#FF456F" transform="matrix(1.00, 0.00, -0.00, -1.00, 248.6, 392.4)">g</text><text xml:space="preserve" font-family="ProximaNova-Light,Proxima Nova" font-size="40.0" fill="#FF456F" transform="matrix(1.00, 0.00, -0.00, -1.00, 271.4, 392.4)">o</text><text xml:space="preserve" font-family="ProximaNova-Light,Proxima Nova" font-size="40.0" fill="#FF456F" transform="matrix(1.00, 0.00, -0.00, -1.00, 294.2, 392.4)">a</text><text xml:space="preserve" font-family="ProximaNova-Light,Proxima Nova" font-size="40.0" fill="#FF456F" transform="matrix(1.00, 0.00, -0.00, -1.00, 315.1, 392.4)">l</text><text xml:space="preserve" font-family="ProximaNova-Light,Proxima Nova" font-size="40.0" fill="#FF456F" transform="matrix(1.00, 0.00, -0.00, -1.00, 323.6, 392.4)"> </text><text xml:space="preserve" font-family="ProximaNova-Light,Proxima Nova" font-size="40.0" fill="#FF456F" transform="matrix(1.00, 0.00, -0.00, -1.00, 334.0, 392.4)">o</text><text xml:space="preserve" font-family="ProximaNova-Light,Proxima Nova" font-size="40.0" fill="#FF456F" transform="matrix(1.00, 0.00, -0.00, -1.00, 356.8, 392.4)">f</text><text xml:space="preserve" font-family="ProximaNova-Light,Proxima Nova" font-size="40.0" fill="#FF456F" transform="matrix(1.00, 0.00, -0.00, -1.00, 367.4, 392.4)"> </text><text xml:space="preserve" font-family="ProximaNova-Light,Proxima Nova" font-size="40.0" fill="#FF456F" transform="matrix(1.00, 0.00, -0.00, -1.00, 377.8, 392.4)">H</text><text xml:space="preserve" font-family="ProximaNova-Light,Proxima Nova" font-size="40.0" fill="#FF456F" transform="matrix(1.00, 0.00, -0.00, -1.00, 405.9, 392.4)">y</text><text xml:space="preserve" font-family="ProximaNova-Light,Proxima Nova" font-size="40.0" fill="#FF456F" transform="matrix(1.00, 0.00, -0.00, -1.00, 425.1, 392.4)">p</text><text xml:space="preserve" font-family="ProximaNova-Light,Proxima Nova" font-size="40.0" fill="#FF456F" transform="matrix(1.00, 0.00, -0.00, -1.00, 447.8, 392.4)">e</text><text xml:space="preserve" font-family="ProximaNova-Light,Proxima Nova" font-size="40.0" fill="#FF456F" transform="matrix(1.00, 0.00, -0.00, -1.00, 470.5, 392.4)">r</text><text xml:space="preserve" font-family="ProximaNova-Light,Proxima Nova" font-size="40.0" fill="#FF456F" transform="matrix(1.00, 0.00, -0.00, -1.00, 483.2, 392.4)">m</text><text xml:space="preserve" font-family="ProximaNova-Light,Proxima Nova" font-size="40.0" fill="#FF456F" transform="matrix(1.00, 0.00, -0.00, -1.00, 514.7, 392.4)">e</text><text xml:space="preserve" font-family="ProximaNova-Light,Proxima Nova" font-size="40.0" fill="#FF456F" transform="matrix(1.00, 0.00, -0.00, -1.00, 537.4, 392.4)">d</text><text xml:space="preserve" font-family="ProximaNova-Light,Proxima Nova" font-size="40.0" fill="#FF456F" transform="matrix(1.00, 0.00, -0.00, -1.00, 560.3, 392.4)">i</text><text xml:space="preserve" font-family="ProximaNova-Light,Proxima Nova" font-size="40.0" fill="#FF456F" transform="matrix(1.00, 0.00, -0.00, -1.00, 568.8, 392.4)">a</text><text xml:space="preserve" font-family="ProximaNova-Light,Proxima Nova" font-size="40.0" fill="#FF456F" transform="matrix(1.00, 0.00, -0.00, -1.00, 589.7, 392.4)"> </text><text xml:space="preserve" font-family="ProximaNova-Light,Proxima Nova" font-size="40.0" fill="#FF456F" transform="matrix(1.00, 0.00, -0.00, -1.00, 600.0, 392.4)">i</text><text xml:space="preserve" font-family="ProximaNova-Light,Proxima Nova" font-size="40.0" fill="#FF456F" transform="matrix(1.00, 0.00, -0.00, -1.00, 608.6, 392.4)">s</text><text xml:space="preserve" font-family="ProximaNova-Light,Proxima Nova" font-size="40.0" fill="#FF456F" transform="matrix(1.00, 0.00, -0.00, -1.00, 626.9, 392.4)"> </text><text xml:space="preserve" font-family="ProximaNova-Light,Proxima Nova" font-size="40.0" fill="#FF456F" transform="matrix(1.00, 0.00, -0.00, -1.00, 637.3, 392.4)">f</text><text xml:space="preserve" font-family="ProximaNova-Light,Proxima Nova" font-size="40.0" fill="#FF456F" transform="matrix(1.00, 0.00, -0.00, -1.00, 647.9, 392.4)">o</text><text xml:space="preserve" font-family="ProximaNova-Light,Proxima Nova" font-size="40.0" fill="#FF456F" transform="matrix(1.00, 0.00, -0.00, -1.00, 670.7, 392.4)">r</text><text xml:space="preserve" font-family="ProximaNova-Light,Proxima Nova" font-size="40.0" fill="#FF456F" transform="matrix(1.00, 0.00, -0.00, -1.00, 683.4, 392.4)"> </text><text xml:space="preserve" font-family="ProximaNova-Light,Proxima Nova" font-size="40.0" fill="#FF456F" transform="matrix(1.00, 0.00, -0.00, -1.00, 693.8, 392.4)">a</text><text xml:space="preserve" font-family="ProximaNova-Light,Proxima Nova" font-size="40.0" fill="#FF456F" transform="matrix(1.00, 0.00, -0.00, -1.00, 714.6, 392.4)">l</text><text xml:space="preserve" font-family="ProximaNova-Light,Proxima Nova" font-size="40.0" fill="#FF456F" transform="matrix(1.00, 0.00, -0.00, -1.00, 723.2, 392.4)">l</text><text xml:space="preserve" font-family="ProximaNova-Light,Proxima Nova" font-size="40.0" fill="#FF456F" transform="matrix(1.00, 0.00, -0.00, -1.00, 731.7, 392.4)"> </text><text xml:space="preserve" font-family="ProximaNova-Light,Proxima Nova" font-size="40.0" fill="#FF456F" transform="matrix(1.00, 0.00, -0.00, -1.00, 742.1, 392.4)">c</text><text xml:space="preserve" font-family="ProximaNova-Light,Proxima Nova" font-size="40.0" fill="#FF456F" transform="matrix(1.00, 0.00, -0.00, -1.00, 761.9, 392.4)">l</text><text xml:space="preserve" font-family="ProximaNova-Light,Proxima Nova" font-size="40.0" fill="#FF456F" transform="matrix(1.00, 0.00, -0.00, -1.00, 770.4, 392.4)">i</text><text xml:space="preserve" font-family="ProximaNova-Light,Proxima Nova" font-size="40.0" fill="#FF456F" transform="matrix(1.00, 0.00, -0.00, -1.00, 779.0, 392.4)">e</text><text xml:space="preserve" font-family="ProximaNova-Light,Proxima Nova" font-size="40.0" fill="#FF456F" transform="matrix(1.00, 0.00, -0.00, -1.00, 801.7, 392.4)">n</text><text xml:space="preserve" font-family="ProximaNova-Light,Proxima Nova" font-size="40.0" fill="#FF456F" transform="matrix(1.00, 0.00, -0.00, -1.00, 823.3, 392.4)">t</text><text xml:space="preserve" font-family="ProximaNova-Light,Proxima Nova" font-size="40.0" fill="#FF456F" transform="matrix(1.00, 0.00, -0.00, -1.00, 834.3, 392.4)">s</text><text xml:space="preserve" font-family="ProximaNova-Light,Proxima Nova" font-size="40.0" fill="#FF456F" transform="matrix(1.00, 0.00, -0.00, -1.00, 852.6, 392.4)"> </text><text xml:space="preserve" font-family="ProximaNova-Light,Proxima Nova" font-size="40.0" fill="#FF456F" transform="matrix(1.00, 0.00, -0.00, -1.00, 253.6, 344.4)">t</text><text xml:space="preserve" font-family="ProximaNova-Light,Proxima Nova" font-size="40.0" fill="#FF456F" transform="matrix(1.00, 0.00, -0.00, -1.00, 264.6, 344.4)">o</text><text xml:space="preserve" font-family="ProximaNova-Light,Proxima Nova" font-size="40.0" fill="#FF456F" transform="matrix(1.00, 0.00, -0.00, -1.00, 287.4, 344.4)"> </text><text xml:space="preserve" font-family="ProximaNova-Light,Proxima Nova" font-size="40.0" fill="#FF456F" transform="matrix(1.00, 0.00, -0.00, -1.00, 297.8, 344.4)">b</text><text xml:space="preserve" font-family="ProximaNova-Light,Proxima Nova" font-size="40.0" fill="#FF456F" transform="matrix(1.00, 0.00, -0.00, -1.00, 320.6, 344.4)">e</text><text xml:space="preserve" font-family="ProximaNova-Light,Proxima Nova" font-size="40.0" fill="#FF456F" transform="matrix(1.00, 0.00, -0.00, -1.00, 343.3, 344.4)">h</text><text xml:space="preserve" font-family="ProximaNova-Light,Proxima Nova" font-size="40.0" fill="#FF456F" transform="matrix(1.00, 0.00, -0.00, -1.00, 364.9, 344.4)">a</text><text xml:space="preserve" font-family="ProximaNova-Light,Proxima Nova" font-size="40.0" fill="#FF456F" transform="matrix(1.00, 0.00, -0.00, -1.00, 385.7, 344.4)">v</text><text xml:space="preserve" font-family="ProximaNova-Light,Proxima Nova" font-size="40.0" fill="#FF456F" transform="matrix(1.00, 0.00, -0.00, -1.00, 405.0, 344.4)">e</text><text xml:space="preserve" font-family="ProximaNova-Light,Proxima Nova" font-size="40.0" fill="#FF456F" transform="matrix(1.00, 0.00, -0.00, -1.00, 427.6, 344.4)"> </text><text xml:space="preserve" font-family="ProximaNova-Light,Proxima Nova" font-size="40.0" fill="#FF456F" transform="matrix(1.00, 0.00, -0.00, -1.00, 438.0, 344.4)">l</text><text xml:space="preserve" font-family="ProximaNova-Light,Proxima Nova" font-size="40.0" fill="#FF456F" transform="matrix(1.00, 0.00, -0.00, -1.00, 446.6, 344.4)">i</text><text xml:space="preserve" font-family="ProximaNova-Light,Proxima Nova" font-size="40.0" fill="#FF456F" transform="matrix(1.00, 0.00, -0.00, -1.00, 455.1, 344.4)">k</text><text xml:space="preserve" font-family="ProximaNova-Light,Proxima Nova" font-size="40.0" fill="#FF456F" transform="matrix(1.00, 0.00, -0.00, -1.00, 475.2, 344.4)">e</text><text xml:space="preserve" font-family="ProximaNova-Light,Proxima Nova" font-size="40.0" fill="#FF456F" transform="matrix(1.00, 0.00, -0.00, -1.00, 497.9, 344.4)"> </text><text xml:space="preserve" font-family="ProximaNova-Light,Proxima Nova" font-size="40.0" fill="#FF456F" transform="matrix(1.00, 0.00, -0.00, -1.00, 508.3, 344.4)">a</text><text xml:space="preserve" font-family="ProximaNova-Light,Proxima Nova" font-size="40.0" fill="#FF456F" transform="matrix(1.00, 0.00, -0.00, -1.00, 529.1, 344.4)"> </text><text xml:space="preserve" font-family="ProximaNova-Light,Proxima Nova" font-size="40.0" fill="#FF456F" transform="matrix(1.00, 0.00, -0.00, -1.00, 539.5, 344.4)">w</text><text xml:space="preserve" font-family="ProximaNova-Light,Proxima Nova" font-size="40.0" fill="#FF456F" transform="matrix(1.00, 0.00, -0.00, -1.00, 568.2, 344.4)">e</text><text xml:space="preserve" font-family="ProximaNova-Light,Proxima Nova" font-size="40.0" fill="#FF456F" transform="matrix(1.00, 0.00, -0.00, -1.00, 590.9, 344.4)">b</text><text xml:space="preserve" font-family="ProximaNova-Light,Proxima Nova" font-size="40.0" fill="#FF456F" transform="matrix(1.00, 0.00, -0.00, -1.00, 613.8, 344.4)"> </text><text xml:space="preserve" font-family="ProximaNova-Light,Proxima Nova" font-size="40.0" fill="#FF456F" transform="matrix(1.00, 0.00, -0.00, -1.00, 624.1, 344.4)">b</text><text xml:space="preserve" font-family="ProximaNova-Light,Proxima Nova" font-size="40.0" fill="#FF456F" transform="matrix(1.00, 0.00, -0.00, -1.00, 647.0, 344.4)">r</text><text xml:space="preserve" font-family="ProximaNova-Light,Proxima Nova" font-size="40.0" fill="#FF456F" transform="matrix(1.00, 0.00, -0.00, -1.00, 659.6, 344.4)">o</text><text xml:space="preserve" font-family="ProximaNova-Light,Proxima Nova" font-size="40.0" fill="#FF456F" transform="matrix(1.00, 0.00, -0.00, -1.00, 682.5, 344.4)">w</text><text xml:space="preserve" font-family="ProximaNova-Light,Proxima Nova" font-size="40.0" fill="#FF456F" transform="matrix(1.00, 0.00, -0.00, -1.00, 711.2, 344.4)">s</text><text xml:space="preserve" font-family="ProximaNova-Light,Proxima Nova" font-size="40.0" fill="#FF456F" transform="matrix(1.00, 0.00, -0.00, -1.00, 729.6, 344.4)">e</text><text xml:space="preserve" font-family="ProximaNova-Light,Proxima Nova" font-size="40.0" fill="#FF456F" transform="matrix(1.00, 0.00, -0.00, -1.00, 752.3, 344.4)">r</text><text xml:space="preserve" font-family="ProximaNova-Light,Proxima Nova" font-size="40.0" fill="#FF456F" transform="matrix(1.00, 0.00, -0.00, -1.00, 761.7, 344.4)">.</text></g></svg>