<?xml version="1.0" encoding="UTF-8" standalone="no"?><svg xmlns="http://www.w3.org/2000/svg" xmlns:xlink="http://www.w3.org/1999/xlink" clip-rule="evenodd" stroke-miterlimit="10" viewBox="0 0 1024 768"><desc>SVG generated by Keynote</desc><defs></defs><g transform="matrix(1.00, 0.00, -0.00, -1.00, 0.0, 768.0)"><path d="M 0.0 768.0 L 1024.0 768.0 L 1024.0 0.0 L 0.0 0.0 Z M 0.0 768.0 " fill="#FEFFFE"></path><text xml:space="preserve" font-family="Helvetica-Bold,Helvetica" font-weight="bold" font-size="100.0" fill="#FF456F" transform="matrix(1.00, 0.00, -0.00, -1.00, 78.7, 595.0)">H</text><text xml:space="preserve" font-family="Helvetica-Bold,Helvetica" font-weight="bold" font-size="100.0" fill="#FF456F" transform="matrix(1.00, 0.00, -0.00, -1.00, 150.9, 595.0)">A</text><text xml:space="preserve" font-family="Helvetica-Bold,Helvetica" font-weight="bold" font-size="100.0" fill="#FF456F" transform="matrix(1.00, 0.00, -0.00, -1.00, 215.7, 595.0)">T</text><text xml:space="preserve" font-family="Helvetica-Bold,Helvetica" font-weight="bold" font-size="100.0" fill="#FF456F" transform="matrix(1.00, 0.00, -0.00, -1.00, 276.8, 595.0)">E</text><text xml:space="preserve" font-family="Helvetica-Bold,Helvetica" font-weight="bold" font-size="100.0" fill="#FF456F" transform="matrix(1.00, 0.00, -0.00, -1.00, 343.5, 595.0)">O</text><text xml:space="preserve" font-family="Helvetica-Bold,Helvetica" font-weight="bold" font-size="100.0" fill="#FF456F" transform="matrix(1.00, 0.00, -0.00, -1.00, 421.3, 595.0)">A</text><text xml:space="preserve" font-family="Helvetica-Bold,Helvetica" font-weight="bold" font-size="100.0" fill="#FF456F" transform="matrix(1.00, 0.00, -0.00, -1.00, 493.5, 595.0)">S</text><text xml:space="preserve" font-family="Helvetica-Light,Helvetica" font-size="50.0" fill="#A6AAA8" transform="matrix(1.00, 0.00, -0.00, -1.00, 88.3, 511.5)">|</text><text xml:space="preserve" font-family="Helvetica-Light,Helvetica" font-size="50.0" fill="#A6AAA8" transform="matrix(1.00, 0.00, -0.00, -1.00, 99.4, 511.5)"> </text><text xml:space="preserve" font-family="Helvetica-Light,Helvetica" font-size="50.0" fill="#A6AAA8" transform="matrix(1.00, 0.00, -0.00, -1.00, 113.3, 511.5)">h</text><text xml:space="preserve" font-family="Helvetica-Light,Helvetica" font-size="50.0" fill="#A6AAA8" transform="matrix(1.00, 0.00, -0.00, -1.00, 141.1, 511.5)">Ä</text><text xml:space="preserve" font-family="Helvetica-Light,Helvetica" font-size="50.0" fill="#A6AAA8" transform="matrix(1.00, 0.00, -0.00, -1.00, 168.9, 511.5)">t</text><text xml:space="preserve" font-family="Helvetica-Light,Helvetica" font-size="50.0" fill="#A6AAA8" transform="matrix(1.00, 0.00, -0.00, -1.00, 182.8, 511.5)">-</text><text xml:space="preserve" font-family="Helvetica-Light,Helvetica" font-size="50.0" fill="#A6AAA8" transform="matrix(1.00, 0.00, -0.00, -1.00, 199.4, 511.5)">o</text><text xml:space="preserve" font-family="Helvetica-Light,Helvetica" font-size="50.0" fill="#A6AAA8" transform="matrix(1.00, 0.00, -0.00, -1.00, 227.2, 511.5)">i</text><text xml:space="preserve" font-family="Helvetica-Light,Helvetica" font-size="50.0" fill="#A6AAA8" transform="matrix(1.00, 0.00, -0.00, -1.00, 238.3, 511.5)">s</text><text xml:space="preserve" font-family="Helvetica-Light,Helvetica" font-size="50.0" fill="#A6AAA8" transform="matrix(1.00, 0.00, -0.00, -1.00, 263.3, 511.5)"> </text><text xml:space="preserve" font-family="Helvetica-Light,Helvetica" font-size="50.0" fill="#A6AAA8" transform="matrix(1.00, 0.00, -0.00, -1.00, 277.2, 511.5)">|</text><text xml:space="preserve" font-family="ProximaNova-Regular,Proxima Nova" font-size="42.0" fill="#52575F" transform="matrix(1.00, 0.00, -0.00, -1.00, 83.9, 417.3)">i</text><text xml:space="preserve" font-family="ProximaNova-Regular,Proxima Nova" font-size="42.0" fill="#52575F" transform="matrix(1.00, 0.00, -0.00, -1.00, 93.4, 417.3)">s</text><text xml:space="preserve" font-family="ProximaNova-Regular,Proxima Nova" font-size="42.0" fill="#52575F" transform="matrix(1.00, 0.00, -0.00, -1.00, 112.9, 417.3)"> </text><text xml:space="preserve" font-family="ProximaNova-Regular,Proxima Nova" font-size="42.0" fill="#52575F" transform="matrix(1.00, 0.00, -0.00, -1.00, 123.8, 417.3)">a</text><text xml:space="preserve" font-family="ProximaNova-Regular,Proxima Nova" font-size="42.0" fill="#52575F" transform="matrix(1.00, 0.00, -0.00, -1.00, 145.9, 417.3)">n</text><text xml:space="preserve" font-family="ProximaNova-Regular,Proxima Nova" font-size="42.0" fill="#52575F" transform="matrix(1.00, 0.00, -0.00, -1.00, 169.1, 417.3)"> </text><text xml:space="preserve" font-family="ProximaNova-Regular,Proxima Nova" font-size="42.0" fill="#52575F" transform="matrix(1.00, 0.00, -0.00, -1.00, 180.0, 417.3)">a</text><text xml:space="preserve" font-family="ProximaNova-Regular,Proxima Nova" font-size="42.0" fill="#52575F" transform="matrix(1.00, 0.00, -0.00, -1.00, 202.2, 417.3)">b</text><text xml:space="preserve" font-family="ProximaNova-Regular,Proxima Nova" font-size="42.0" fill="#52575F" transform="matrix(1.00, 0.00, -0.00, -1.00, 226.3, 417.3)">b</text><text xml:space="preserve" font-family="ProximaNova-Regular,Proxima Nova" font-size="42.0" fill="#52575F" transform="matrix(1.00, 0.00, -0.00, -1.00, 250.5, 417.3)">r</text><text xml:space="preserve" font-family="ProximaNova-Regular,Proxima Nova" font-size="42.0" fill="#52575F" transform="matrix(1.00, 0.00, -0.00, -1.00, 264.3, 417.3)">e</text><text xml:space="preserve" font-family="ProximaNova-Regular,Proxima Nova" font-size="42.0" fill="#52575F" transform="matrix(1.00, 0.00, -0.00, -1.00, 288.0, 417.3)">v</text><text xml:space="preserve" font-family="ProximaNova-Regular,Proxima Nova" font-size="42.0" fill="#52575F" transform="matrix(1.00, 0.00, -0.00, -1.00, 308.6, 417.3)">i</text><text xml:space="preserve" font-family="ProximaNova-Regular,Proxima Nova" font-size="42.0" fill="#52575F" transform="matrix(1.00, 0.00, -0.00, -1.00, 318.0, 417.3)">a</text><text xml:space="preserve" font-family="ProximaNova-Regular,Proxima Nova" font-size="42.0" fill="#52575F" transform="matrix(1.00, 0.00, -0.00, -1.00, 340.2, 417.3)">t</text><text xml:space="preserve" font-family="ProximaNova-Regular,Proxima Nova" font-size="42.0" fill="#52575F" transform="matrix(1.00, 0.00, -0.00, -1.00, 352.5, 417.3)">i</text><text xml:space="preserve" font-family="ProximaNova-Regular,Proxima Nova" font-size="42.0" fill="#52575F" transform="matrix(1.00, 0.00, -0.00, -1.00, 362.0, 417.3)">o</text><text xml:space="preserve" font-family="ProximaNova-Regular,Proxima Nova" font-size="42.0" fill="#52575F" transform="matrix(1.00, 0.00, -0.00, -1.00, 386.0, 417.3)">n</text><text xml:space="preserve" font-family="ProximaNova-Regular,Proxima Nova" font-size="42.0" fill="#52575F" transform="matrix(1.00, 0.00, -0.00, -1.00, 409.2, 417.3)"> </text><text xml:space="preserve" font-family="ProximaNova-Regular,Proxima Nova" font-size="42.0" fill="#52575F" transform="matrix(1.00, 0.00, -0.00, -1.00, 420.1, 417.3)">f</text><text xml:space="preserve" font-family="ProximaNova-Regular,Proxima Nova" font-size="42.0" fill="#52575F" transform="matrix(1.00, 0.00, -0.00, -1.00, 432.0, 417.3)">o</text><text xml:space="preserve" font-family="ProximaNova-Regular,Proxima Nova" font-size="42.0" fill="#52575F" transform="matrix(1.00, 0.00, -0.00, -1.00, 456.0, 417.3)">r</text><text xml:space="preserve" font-family="ProximaNova-Regular,Proxima Nova" font-size="42.0" fill="#52575F" transform="matrix(1.00, 0.00, -0.00, -1.00, 469.9, 417.3)"> </text><text xml:space="preserve" font-family="ProximaNova-Regular,Proxima Nova" font-size="42.0" fill="#FF456F" transform="matrix(1.00, 0.00, -0.00, -1.00, 480.8, 417.3)">H</text><text xml:space="preserve" font-family="ProximaNova-Regular,Proxima Nova" font-size="42.0" fill="#52575F" transform="matrix(1.00, 0.00, -0.00, -1.00, 510.7, 417.3)">y</text><text xml:space="preserve" font-family="ProximaNova-Regular,Proxima Nova" font-size="42.0" fill="#52575F" transform="matrix(1.00, 0.00, -0.00, -1.00, 531.3, 417.3)">p</text><text xml:space="preserve" font-family="ProximaNova-Regular,Proxima Nova" font-size="42.0" fill="#52575F" transform="matrix(1.00, 0.00, -0.00, -1.00, 555.3, 417.3)">e</text><text xml:space="preserve" font-family="ProximaNova-Regular,Proxima Nova" font-size="42.0" fill="#52575F" transform="matrix(1.00, 0.00, -0.00, -1.00, 578.9, 417.3)">r</text><text xml:space="preserve" font-family="ProximaNova-Regular,Proxima Nova" font-size="42.0" fill="#52575F" transform="matrix(1.00, 0.00, -0.00, -1.00, 592.8, 417.3)">m</text><text xml:space="preserve" font-family="ProximaNova-Regular,Proxima Nova" font-size="42.0" fill="#52575F" transform="matrix(1.00, 0.00, -0.00, -1.00, 626.7, 417.3)">e</text><text xml:space="preserve" font-family="ProximaNova-Regular,Proxima Nova" font-size="42.0" fill="#52575F" transform="matrix(1.00, 0.00, -0.00, -1.00, 650.4, 417.3)">d</text><text xml:space="preserve" font-family="ProximaNova-Regular,Proxima Nova" font-size="42.0" fill="#52575F" transform="matrix(1.00, 0.00, -0.00, -1.00, 674.5, 417.3)">i</text><text xml:space="preserve" font-family="ProximaNova-Regular,Proxima Nova" font-size="42.0" fill="#52575F" transform="matrix(1.00, 0.00, -0.00, -1.00, 684.0, 417.3)">a</text><text xml:space="preserve" font-family="ProximaNova-Regular,Proxima Nova" font-size="42.0" fill="#52575F" transform="matrix(1.00, 0.00, -0.00, -1.00, 706.1, 417.3)"> </text><text xml:space="preserve" font-family="ProximaNova-Regular,Proxima Nova" font-size="42.0" fill="#FF456F" transform="matrix(1.00, 0.00, -0.00, -1.00, 717.0, 417.3)">a</text><text xml:space="preserve" font-family="ProximaNova-Regular,Proxima Nova" font-size="42.0" fill="#52575F" transform="matrix(1.00, 0.00, -0.00, -1.00, 739.2, 417.3)">s</text><text xml:space="preserve" font-family="ProximaNova-Regular,Proxima Nova" font-size="42.0" fill="#52575F" transform="matrix(1.00, 0.00, -0.00, -1.00, 758.7, 417.3)"> </text><text xml:space="preserve" font-family="ProximaNova-Regular,Proxima Nova" font-size="42.0" fill="#FF456F" transform="matrix(1.00, 0.00, -0.00, -1.00, 769.6, 417.3)">t</text><text xml:space="preserve" font-family="ProximaNova-Regular,Proxima Nova" font-size="42.0" fill="#52575F" transform="matrix(1.00, 0.00, -0.00, -1.00, 782.0, 417.3)">h</text><text xml:space="preserve" font-family="ProximaNova-Regular,Proxima Nova" font-size="42.0" fill="#52575F" transform="matrix(1.00, 0.00, -0.00, -1.00, 805.1, 417.3)">e</text><text xml:space="preserve" font-family="ProximaNova-Regular,Proxima Nova" font-size="42.0" fill="#52575F" transform="matrix(1.00, 0.00, -0.00, -1.00, 828.8, 417.3)"> </text><text xml:space="preserve" font-family="ProximaNova-Regular,Proxima Nova" font-size="42.0" fill="#FF456F" transform="matrix(1.00, 0.00, -0.00, -1.00, 83.9, 367.3)">E</text><text xml:space="preserve" font-family="ProximaNova-Regular,Proxima Nova" font-size="42.0" fill="#52575F" transform="matrix(1.00, 0.00, -0.00, -1.00, 107.8, 367.3)">n</text><text xml:space="preserve" font-family="ProximaNova-Regular,Proxima Nova" font-size="42.0" fill="#52575F" transform="matrix(1.00, 0.00, -0.00, -1.00, 131.0, 367.3)">g</text><text xml:space="preserve" font-family="ProximaNova-Regular,Proxima Nova" font-size="42.0" fill="#52575F" transform="matrix(1.00, 0.00, -0.00, -1.00, 155.1, 367.3)">i</text><text xml:space="preserve" font-family="ProximaNova-Regular,Proxima Nova" font-size="42.0" fill="#52575F" transform="matrix(1.00, 0.00, -0.00, -1.00, 164.6, 367.3)">n</text><text xml:space="preserve" font-family="ProximaNova-Regular,Proxima Nova" font-size="42.0" fill="#52575F" transform="matrix(1.00, 0.00, -0.00, -1.00, 187.8, 367.3)">e</text><text xml:space="preserve" font-family="ProximaNova-Regular,Proxima Nova" font-size="42.0" fill="#52575F" transform="matrix(1.00, 0.00, -0.00, -1.00, 211.4, 367.3)"> </text><text xml:space="preserve" font-family="ProximaNova-Regular,Proxima Nova" font-size="42.0" fill="#FF456F" transform="matrix(1.00, 0.00, -0.00, -1.00, 222.3, 367.3)">o</text><text xml:space="preserve" font-family="ProximaNova-Regular,Proxima Nova" font-size="42.0" fill="#52575F" transform="matrix(1.00, 0.00, -0.00, -1.00, 246.3, 367.3)">f</text><text xml:space="preserve" font-family="ProximaNova-Regular,Proxima Nova" font-size="42.0" fill="#52575F" transform="matrix(1.00, 0.00, -0.00, -1.00, 258.3, 367.3)"> </text><text xml:space="preserve" font-family="ProximaNova-Regular,Proxima Nova" font-size="42.0" fill="#FF456F" transform="matrix(1.00, 0.00, -0.00, -1.00, 269.1, 367.3)">A</text><text xml:space="preserve" font-family="ProximaNova-Regular,Proxima Nova" font-size="42.0" fill="#52575F" transform="matrix(1.00, 0.00, -0.00, -1.00, 296.8, 367.3)">p</text><text xml:space="preserve" font-family="ProximaNova-Regular,Proxima Nova" font-size="42.0" fill="#52575F" transform="matrix(1.00, 0.00, -0.00, -1.00, 320.8, 367.3)">p</text><text xml:space="preserve" font-family="ProximaNova-Regular,Proxima Nova" font-size="42.0" fill="#52575F" transform="matrix(1.00, 0.00, -0.00, -1.00, 344.8, 367.3)">l</text><text xml:space="preserve" font-family="ProximaNova-Regular,Proxima Nova" font-size="42.0" fill="#52575F" transform="matrix(1.00, 0.00, -0.00, -1.00, 354.3, 367.3)">i</text><text xml:space="preserve" font-family="ProximaNova-Regular,Proxima Nova" font-size="42.0" fill="#52575F" transform="matrix(1.00, 0.00, -0.00, -1.00, 363.7, 367.3)">c</text><text xml:space="preserve" font-family="ProximaNova-Regular,Proxima Nova" font-size="42.0" fill="#52575F" transform="matrix(1.00, 0.00, -0.00, -1.00, 384.5, 367.3)">a</text><text xml:space="preserve" font-family="ProximaNova-Regular,Proxima Nova" font-size="42.0" fill="#52575F" transform="matrix(1.00, 0.00, -0.00, -1.00, 406.7, 367.3)">t</text><text xml:space="preserve" font-family="ProximaNova-Regular,Proxima Nova" font-size="42.0" fill="#52575F" transform="matrix(1.00, 0.00, -0.00, -1.00, 419.1, 367.3)">i</text><text xml:space="preserve" font-family="ProximaNova-Regular,Proxima Nova" font-size="42.0" fill="#52575F" transform="matrix(1.00, 0.00, -0.00, -1.00, 428.5, 367.3)">o</text><text xml:space="preserve" font-family="ProximaNova-Regular,Proxima Nova" font-size="42.0" fill="#52575F" transform="matrix(1.00, 0.00, -0.00, -1.00, 452.5, 367.3)">n</text><text xml:space="preserve" font-family="ProximaNova-Regular,Proxima Nova" font-size="42.0" fill="#52575F" transform="matrix(1.00, 0.00, -0.00, -1.00, 475.7, 367.3)"> </text><text xml:space="preserve" font-family="ProximaNova-Regular,Proxima Nova" font-size="42.0" fill="#FF456F" transform="matrix(1.00, 0.00, -0.00, -1.00, 486.6, 367.3)">S</text><text xml:space="preserve" font-family="ProximaNova-Regular,Proxima Nova" font-size="42.0" fill="#52575F" transform="matrix(1.00, 0.00, -0.00, -1.00, 510.5, 367.3)">t</text><text xml:space="preserve" font-family="ProximaNova-Regular,Proxima Nova" font-size="42.0" fill="#52575F" transform="matrix(1.00, 0.00, -0.00, -1.00, 522.9, 367.3)">a</text><text xml:space="preserve" font-family="ProximaNova-Regular,Proxima Nova" font-size="42.0" fill="#52575F" transform="matrix(1.00, 0.00, -0.00, -1.00, 545.0, 367.3)">t</text><text xml:space="preserve" font-family="ProximaNova-Regular,Proxima Nova" font-size="42.0" fill="#52575F" transform="matrix(1.00, 0.00, -0.00, -1.00, 557.4, 367.3)">e</text><text xml:space="preserve" font-family="ProximaNova-Regular,Proxima Nova" font-size="42.0" fill="#52575F" transform="matrix(1.00, 0.00, -0.00, -1.00, 580.7, 367.3)">.</text></g></svg>