<?xml version="1.0" encoding="UTF-8" standalone="no"?><svg xmlns="http://www.w3.org/2000/svg" xmlns:xlink="http://www.w3.org/1999/xlink" clip-rule="evenodd" stroke-miterlimit="10" viewBox="0 0 1024 768"><desc>SVG generated by Keynote</desc><defs></defs><g transform="matrix(1.00, 0.00, -0.00, -1.00, 0.0, 768.0)"><path d="M 0.0 768.0 L 1024.0 768.0 L 1024.0 0.0 L 0.0 0.0 Z M 0.0 768.0 " fill="#000000"></path><image xlink:href="../../0E9448A9-882D-4CC9-8F82-4054D1CF2C5D/assets/B945068E55983E2AC3DA73EB89EBC90E.png" width="444.00" height="444.00" transform="matrix(0.72, 0.00, -0.00, -0.72, 351.9, 594.1)"></image><text xml:space="preserve" font-family="Helvetica-Light,Helvetica" font-size="26.0" fill="#FEFFFF" transform="matrix(1.00, 0.00, -0.00, -1.00, 421.0, 193.0)">H</text><text xml:space="preserve" font-family="Helvetica-Light,Helvetica" font-size="26.0" fill="#FEFFFF" transform="matrix(1.00, 0.00, -0.00, -1.00, 439.8, 193.0)">e</text><text xml:space="preserve" font-family="Helvetica-Light,Helvetica" font-size="26.0" fill="#FEFFFF" transform="matrix(1.00, 0.00, -0.00, -1.00, 454.2, 193.0)">l</text><text xml:space="preserve" font-family="Helvetica-Light,Helvetica" font-size="26.0" fill="#FEFFFF" transform="matrix(1.00, 0.00, -0.00, -1.00, 460.0, 193.0)">i</text><text xml:space="preserve" font-family="Helvetica-Light,Helvetica" font-size="26.0" fill="#FEFFFF" transform="matrix(1.00, 0.00, -0.00, -1.00, 465.8, 193.0)">o</text><text xml:space="preserve" font-family="Helvetica-Light,Helvetica" font-size="26.0" fill="#FEFFFF" transform="matrix(1.00, 0.00, -0.00, -1.00, 480.2, 193.0)">r</text><text xml:space="preserve" font-family="Helvetica-Light,Helvetica" font-size="26.0" fill="#FEFFFF" transform="matrix(1.00, 0.00, -0.00, -1.00, 488.9, 193.0)"> </text><text xml:space="preserve" font-family="Helvetica-Light,Helvetica" font-size="26.0" fill="#FEFFFF" transform="matrix(1.00, 0.00, -0.00, -1.00, 496.1, 193.0)">C</text><text xml:space="preserve" font-family="Helvetica-Light,Helvetica" font-size="26.0" fill="#FEFFFF" transform="matrix(1.00, 0.00, -0.00, -1.00, 514.9, 193.0)">o</text><text xml:space="preserve" font-family="Helvetica-Light,Helvetica" font-size="26.0" fill="#FEFFFF" transform="matrix(1.00, 0.00, -0.00, -1.00, 529.3, 193.0)">l</text><text xml:space="preserve" font-family="Helvetica-Light,Helvetica" font-size="26.0" fill="#FEFFFF" transform="matrix(1.00, 0.00, -0.00, -1.00, 535.1, 193.0)">o</text><text xml:space="preserve" font-family="Helvetica-Light,Helvetica" font-size="26.0" fill="#FEFFFF" transform="matrix(1.00, 0.00, -0.00, -1.00, 549.6, 193.0)">r</text><text xml:space="preserve" font-family="Helvetica-Light,Helvetica" font-size="26.0" fill="#FEFFFF" transform="matrix(1.00, 0.00, -0.00, -1.00, 558.2, 193.0)">a</text><text xml:space="preserve" font-family="Helvetica-Light,Helvetica" font-size="26.0" fill="#FEFFFF" transform="matrix(1.00, 0.00, -0.00, -1.00, 572.7, 193.0)">d</text><text xml:space="preserve" font-family="Helvetica-Light,Helvetica" font-size="26.0" fill="#FEFFFF" transform="matrix(1.00, 0.00, -0.00, -1.00, 588.6, 193.0)">o</text><text xml:space="preserve" font-family="ProximaNova-Regular,Proxima Nova" font-size="28.0" fill="#FF456F" transform="matrix(1.00, 0.00, -0.00, -1.00, 466.5, 156.9)">@</text><text xml:space="preserve" font-family="ProximaNova-Regular,Proxima Nova" font-size="28.0" fill="#FF456F" transform="matrix(1.00, 0.00, -0.00, -1.00, 488.4, 156.9)">h</text><text xml:space="preserve" font-family="ProximaNova-Regular,Proxima Nova" font-size="28.0" fill="#FF456F" transform="matrix(1.00, 0.00, -0.00, -1.00, 503.9, 156.9)">e</text><text xml:space="preserve" font-family="ProximaNova-Regular,Proxima Nova" font-size="28.0" fill="#FF456F" transform="matrix(1.00, 0.00, -0.00, -1.00, 519.6, 156.9)">l</text><text xml:space="preserve" font-family="ProximaNova-Regular,Proxima Nova" font-size="28.0" fill="#FF456F" transform="matrix(1.00, 0.00, -0.00, -1.00, 525.9, 156.9)">i</text><text xml:space="preserve" font-family="ProximaNova-Regular,Proxima Nova" font-size="28.0" fill="#FF456F" transform="matrix(1.00, 0.00, -0.00, -1.00, 532.2, 156.9)">o</text><text xml:space="preserve" font-family="ProximaNova-Regular,Proxima Nova" font-size="28.0" fill="#FF456F" transform="matrix(1.00, 0.00, -0.00, -1.00, 548.3, 156.9)">r</text></g></svg>