<?xml version="1.0" encoding="UTF-8" standalone="no"?><svg xmlns="http://www.w3.org/2000/svg" xmlns:xlink="http://www.w3.org/1999/xlink" clip-rule="evenodd" stroke-miterlimit="10" viewBox="0 0 1024 768"><desc>SVG generated by Keynote</desc><defs></defs><g transform="matrix(1.00, 0.00, -0.00, -1.00, 0.0, 768.0)"><path d="M 0.0 768.0 L 1024.0 768.0 L 1024.0 0.0 L 0.0 0.0 Z M 0.0 768.0 " fill="#FEFFFE"></path><text xml:space="preserve" font-family="Helvetica-Bold,Helvetica" font-weight="bold" font-size="100.0" fill="#FF456F" transform="matrix(1.00, 0.00, -0.00, -1.00, 77.7, 595.0)">H</text><text xml:space="preserve" font-family="Helvetica-Bold,Helvetica" font-weight="bold" font-size="100.0" fill="#FF456F" transform="matrix(1.00, 0.00, -0.00, -1.00, 149.9, 595.0)">y</text><text xml:space="preserve" font-family="Helvetica-Bold,Helvetica" font-weight="bold" font-size="100.0" fill="#FF456F" transform="matrix(1.00, 0.00, -0.00, -1.00, 205.5, 595.0)">p</text><text xml:space="preserve" font-family="Helvetica-Bold,Helvetica" font-weight="bold" font-size="100.0" fill="#FF456F" transform="matrix(1.00, 0.00, -0.00, -1.00, 266.6, 595.0)">e</text><text xml:space="preserve" font-family="Helvetica-Bold,Helvetica" font-weight="bold" font-size="100.0" fill="#FF456F" transform="matrix(1.00, 0.00, -0.00, -1.00, 322.3, 595.0)">r</text><text xml:space="preserve" font-family="Helvetica-Bold,Helvetica" font-weight="bold" font-size="100.0" fill="#FF456F" transform="matrix(1.00, 0.00, -0.00, -1.00, 361.2, 595.0)">m</text><text xml:space="preserve" font-family="Helvetica-Bold,Helvetica" font-weight="bold" font-size="100.0" fill="#FF456F" transform="matrix(1.00, 0.00, -0.00, -1.00, 450.1, 595.0)">e</text><text xml:space="preserve" font-family="Helvetica-Bold,Helvetica" font-weight="bold" font-size="100.0" fill="#FF456F" transform="matrix(1.00, 0.00, -0.00, -1.00, 505.8, 595.0)">d</text><text xml:space="preserve" font-family="Helvetica-Bold,Helvetica" font-weight="bold" font-size="100.0" fill="#FF456F" transform="matrix(1.00, 0.00, -0.00, -1.00, 566.9, 595.0)">i</text><text xml:space="preserve" font-family="Helvetica-Bold,Helvetica" font-weight="bold" font-size="100.0" fill="#FF456F" transform="matrix(1.00, 0.00, -0.00, -1.00, 594.7, 595.0)">a</text><text xml:space="preserve" font-family="Helvetica-Light,Helvetica" font-size="50.0" fill="#A6AAA8" transform="matrix(1.00, 0.00, -0.00, -1.00, 88.3, 511.5)">|</text><text xml:space="preserve" font-family="Helvetica-Light,Helvetica" font-size="50.0" fill="#A6AAA8" transform="matrix(1.00, 0.00, -0.00, -1.00, 99.4, 511.5)"> </text><text xml:space="preserve" font-family="Helvetica-Light,Helvetica" font-size="50.0" fill="#A6AAA8" transform="matrix(1.00, 0.00, -0.00, -1.00, 113.3, 511.5)">h</text><text xml:space="preserve" font-family="Helvetica-Light,Helvetica" font-size="50.0" fill="#A6AAA8" transform="matrix(1.00, 0.00, -0.00, -1.00, 141.1, 511.5)">ī</text><text xml:space="preserve" font-family="Helvetica-Light,Helvetica" font-size="50.0" fill="#A6AAA8" transform="matrix(1.00, 0.00, -0.00, -1.00, 152.2, 511.5)">p</text><text xml:space="preserve" font-family="Helvetica-Light,Helvetica" font-size="50.0" fill="#A6AAA8" transform="matrix(1.00, 0.00, -0.00, -1.00, 182.7, 511.5)">ə</text><text xml:space="preserve" font-family="Helvetica-Light,Helvetica" font-size="50.0" fill="#A6AAA8" transform="matrix(1.00, 0.00, -0.00, -1.00, 209.2, 511.5)">r</text><text xml:space="preserve" font-family="LucidaGrande,Lucida Grande" font-size="50.0" fill="#A6AAA8" transform="matrix(1.00, 0.00, -0.00, -1.00, 225.8, 511.5)">ˈ</text><text xml:space="preserve" font-family="Helvetica-Light,Helvetica" font-size="50.0" fill="#A6AAA8" transform="matrix(1.00, 0.00, -0.00, -1.00, 234.9, 511.5)">m</text><text xml:space="preserve" font-family="Helvetica-Light,Helvetica" font-size="50.0" fill="#A6AAA8" transform="matrix(1.00, 0.00, -0.00, -1.00, 276.5, 511.5)">ē</text><text xml:space="preserve" font-family="Helvetica-Light,Helvetica" font-size="50.0" fill="#A6AAA8" transform="matrix(1.00, 0.00, -0.00, -1.00, 304.3, 511.5)">d</text><text xml:space="preserve" font-family="Helvetica-Light,Helvetica" font-size="50.0" fill="#A6AAA8" transform="matrix(1.00, 0.00, -0.00, -1.00, 334.9, 511.5)">ē</text><text xml:space="preserve" font-family="Helvetica-Light,Helvetica" font-size="50.0" fill="#A6AAA8" transform="matrix(1.00, 0.00, -0.00, -1.00, 362.7, 511.5)">ə</text><text xml:space="preserve" font-family="Helvetica-Light,Helvetica" font-size="50.0" fill="#A6AAA8" transform="matrix(1.00, 0.00, -0.00, -1.00, 389.1, 511.5)"> </text><text xml:space="preserve" font-family="Helvetica-Light,Helvetica" font-size="50.0" fill="#A6AAA8" transform="matrix(1.00, 0.00, -0.00, -1.00, 403.0, 511.5)">|</text><text xml:space="preserve" font-family="ProximaNova-Regular,Proxima Nova" font-size="42.0" fill="#52575F" transform="matrix(1.00, 0.00, -0.00, -1.00, 84.9, 417.3)">a</text><text xml:space="preserve" font-family="ProximaNova-Regular,Proxima Nova" font-size="42.0" fill="#52575F" transform="matrix(1.00, 0.00, -0.00, -1.00, 107.1, 417.3)">p</text><text xml:space="preserve" font-family="ProximaNova-Regular,Proxima Nova" font-size="42.0" fill="#52575F" transform="matrix(1.00, 0.00, -0.00, -1.00, 131.1, 417.3)">p</text><text xml:space="preserve" font-family="ProximaNova-Regular,Proxima Nova" font-size="42.0" fill="#52575F" transform="matrix(1.00, 0.00, -0.00, -1.00, 155.1, 417.3)">l</text><text xml:space="preserve" font-family="ProximaNova-Regular,Proxima Nova" font-size="42.0" fill="#52575F" transform="matrix(1.00, 0.00, -0.00, -1.00, 164.6, 417.3)">i</text><text xml:space="preserve" font-family="ProximaNova-Regular,Proxima Nova" font-size="42.0" fill="#52575F" transform="matrix(1.00, 0.00, -0.00, -1.00, 174.0, 417.3)">e</text><text xml:space="preserve" font-family="ProximaNova-Regular,Proxima Nova" font-size="42.0" fill="#52575F" transform="matrix(1.00, 0.00, -0.00, -1.00, 197.7, 417.3)">d</text><text xml:space="preserve" font-family="ProximaNova-Regular,Proxima Nova" font-size="42.0" fill="#52575F" transform="matrix(1.00, 0.00, -0.00, -1.00, 221.8, 417.3)"> </text><text xml:space="preserve" font-family="ProximaNova-Regular,Proxima Nova" font-size="42.0" fill="#52575F" transform="matrix(1.00, 0.00, -0.00, -1.00, 232.7, 417.3)">t</text><text xml:space="preserve" font-family="ProximaNova-Regular,Proxima Nova" font-size="42.0" fill="#52575F" transform="matrix(1.00, 0.00, -0.00, -1.00, 245.1, 417.3)">o</text><text xml:space="preserve" font-family="ProximaNova-Regular,Proxima Nova" font-size="42.0" fill="#52575F" transform="matrix(1.00, 0.00, -0.00, -1.00, 269.1, 417.3)"> </text><text xml:space="preserve" font-family="ProximaNova-Regular,Proxima Nova" font-size="42.0" fill="#52575F" transform="matrix(1.00, 0.00, -0.00, -1.00, 280.0, 417.3)">v</text><text xml:space="preserve" font-family="ProximaNova-Regular,Proxima Nova" font-size="42.0" fill="#52575F" transform="matrix(1.00, 0.00, -0.00, -1.00, 300.5, 417.3)">a</text><text xml:space="preserve" font-family="ProximaNova-Regular,Proxima Nova" font-size="42.0" fill="#52575F" transform="matrix(1.00, 0.00, -0.00, -1.00, 322.7, 417.3)">r</text><text xml:space="preserve" font-family="ProximaNova-Regular,Proxima Nova" font-size="42.0" fill="#52575F" transform="matrix(1.00, 0.00, -0.00, -1.00, 336.6, 417.3)">i</text><text xml:space="preserve" font-family="ProximaNova-Regular,Proxima Nova" font-size="42.0" fill="#52575F" transform="matrix(1.00, 0.00, -0.00, -1.00, 346.0, 417.3)">o</text><text xml:space="preserve" font-family="ProximaNova-Regular,Proxima Nova" font-size="42.0" fill="#52575F" transform="matrix(1.00, 0.00, -0.00, -1.00, 370.0, 417.3)">u</text><text xml:space="preserve" font-family="ProximaNova-Regular,Proxima Nova" font-size="42.0" fill="#52575F" transform="matrix(1.00, 0.00, -0.00, -1.00, 393.2, 417.3)">s</text><text xml:space="preserve" font-family="ProximaNova-Regular,Proxima Nova" font-size="42.0" fill="#52575F" transform="matrix(1.00, 0.00, -0.00, -1.00, 412.7, 417.3)"> </text><text xml:space="preserve" font-family="ProximaNova-Regular,Proxima Nova" font-size="42.0" fill="#FF456F" transform="matrix(1.00, 0.00, -0.00, -1.00, 423.6, 417.3)">m</text><text xml:space="preserve" font-family="ProximaNova-Regular,Proxima Nova" font-size="42.0" fill="#FF456F" transform="matrix(1.00, 0.00, -0.00, -1.00, 457.5, 417.3)">e</text><text xml:space="preserve" font-family="ProximaNova-Regular,Proxima Nova" font-size="42.0" fill="#FF456F" transform="matrix(1.00, 0.00, -0.00, -1.00, 481.2, 417.3)">d</text><text xml:space="preserve" font-family="ProximaNova-Regular,Proxima Nova" font-size="42.0" fill="#FF456F" transform="matrix(1.00, 0.00, -0.00, -1.00, 505.3, 417.3)">i</text><text xml:space="preserve" font-family="ProximaNova-Regular,Proxima Nova" font-size="42.0" fill="#FF456F" transform="matrix(1.00, 0.00, -0.00, -1.00, 514.8, 417.3)">a</text><text xml:space="preserve" font-family="ProximaNova-Regular,Proxima Nova" font-size="42.0" fill="#FF456F" transform="matrix(1.00, 0.00, -0.00, -1.00, 537.0, 417.3)">-</text><text xml:space="preserve" font-family="ProximaNova-Regular,Proxima Nova" font-size="42.0" fill="#FF456F" transform="matrix(1.00, 0.00, -0.00, -1.00, 549.6, 417.3)">t</text><text xml:space="preserve" font-family="ProximaNova-Regular,Proxima Nova" font-size="42.0" fill="#FF456F" transform="matrix(1.00, 0.00, -0.00, -1.00, 561.9, 417.3)">y</text><text xml:space="preserve" font-family="ProximaNova-Regular,Proxima Nova" font-size="42.0" fill="#FF456F" transform="matrix(1.00, 0.00, -0.00, -1.00, 582.5, 417.3)">p</text><text xml:space="preserve" font-family="ProximaNova-Regular,Proxima Nova" font-size="42.0" fill="#FF456F" transform="matrix(1.00, 0.00, -0.00, -1.00, 606.5, 417.3)">e</text><text xml:space="preserve" font-family="ProximaNova-Regular,Proxima Nova" font-size="42.0" fill="#FF456F" transform="matrix(1.00, 0.00, -0.00, -1.00, 630.2, 417.3)">s</text><text xml:space="preserve" font-family="ProximaNova-Regular,Proxima Nova" font-size="42.0" fill="#52575F" transform="matrix(1.00, 0.00, -0.00, -1.00, 649.7, 417.3)">,</text><text xml:space="preserve" font-family="ProximaNova-Regular,Proxima Nova" font-size="42.0" fill="#52575F" transform="matrix(1.00, 0.00, -0.00, -1.00, 659.3, 417.3)"> </text><text xml:space="preserve" font-family="ProximaNova-Regular,Proxima Nova" font-size="42.0" fill="#52575F" transform="matrix(1.00, 0.00, -0.00, -1.00, 670.2, 417.3)">i</text><text xml:space="preserve" font-family="ProximaNova-Regular,Proxima Nova" font-size="42.0" fill="#52575F" transform="matrix(1.00, 0.00, -0.00, -1.00, 679.7, 417.3)">t</text><text xml:space="preserve" font-family="ProximaNova-Regular,Proxima Nova" font-size="42.0" fill="#52575F" transform="matrix(1.00, 0.00, -0.00, -1.00, 692.0, 417.3)"> </text><text xml:space="preserve" font-family="ProximaNova-Regular,Proxima Nova" font-size="42.0" fill="#52575F" transform="matrix(1.00, 0.00, -0.00, -1.00, 702.9, 417.3)">i</text><text xml:space="preserve" font-family="ProximaNova-Regular,Proxima Nova" font-size="42.0" fill="#52575F" transform="matrix(1.00, 0.00, -0.00, -1.00, 712.3, 417.3)">s</text><text xml:space="preserve" font-family="ProximaNova-Regular,Proxima Nova" font-size="42.0" fill="#52575F" transform="matrix(1.00, 0.00, -0.00, -1.00, 731.9, 417.3)"> </text><text xml:space="preserve" font-family="ProximaNova-Regular,Proxima Nova" font-size="42.0" fill="#52575F" transform="matrix(1.00, 0.00, -0.00, -1.00, 742.8, 417.3)">t</text><text xml:space="preserve" font-family="ProximaNova-Regular,Proxima Nova" font-size="42.0" fill="#52575F" transform="matrix(1.00, 0.00, -0.00, -1.00, 755.1, 417.3)">h</text><text xml:space="preserve" font-family="ProximaNova-Regular,Proxima Nova" font-size="42.0" fill="#52575F" transform="matrix(1.00, 0.00, -0.00, -1.00, 778.3, 417.3)">e</text><text xml:space="preserve" font-family="ProximaNova-Regular,Proxima Nova" font-size="42.0" fill="#52575F" transform="matrix(1.00, 0.00, -0.00, -1.00, 801.9, 417.3)"> </text><text xml:space="preserve" font-family="ProximaNova-Regular,Proxima Nova" font-size="42.0" fill="#52575F" transform="matrix(1.00, 0.00, -0.00, -1.00, 84.9, 367.3)">l</text><text xml:space="preserve" font-family="ProximaNova-Regular,Proxima Nova" font-size="42.0" fill="#52575F" transform="matrix(1.00, 0.00, -0.00, -1.00, 94.4, 367.3)">o</text><text xml:space="preserve" font-family="ProximaNova-Regular,Proxima Nova" font-size="42.0" fill="#52575F" transform="matrix(1.00, 0.00, -0.00, -1.00, 118.4, 367.3)">g</text><text xml:space="preserve" font-family="ProximaNova-Regular,Proxima Nova" font-size="42.0" fill="#52575F" transform="matrix(1.00, 0.00, -0.00, -1.00, 142.5, 367.3)">i</text><text xml:space="preserve" font-family="ProximaNova-Regular,Proxima Nova" font-size="42.0" fill="#52575F" transform="matrix(1.00, 0.00, -0.00, -1.00, 152.0, 367.3)">c</text><text xml:space="preserve" font-family="ProximaNova-Regular,Proxima Nova" font-size="42.0" fill="#52575F" transform="matrix(1.00, 0.00, -0.00, -1.00, 172.8, 367.3)">a</text><text xml:space="preserve" font-family="ProximaNova-Regular,Proxima Nova" font-size="42.0" fill="#52575F" transform="matrix(1.00, 0.00, -0.00, -1.00, 195.0, 367.3)">l</text><text xml:space="preserve" font-family="ProximaNova-Regular,Proxima Nova" font-size="42.0" fill="#52575F" transform="matrix(1.00, 0.00, -0.00, -1.00, 204.4, 367.3)"> </text><text xml:space="preserve" font-family="ProximaNova-Regular,Proxima Nova" font-size="42.0" fill="#52575F" transform="matrix(1.00, 0.00, -0.00, -1.00, 215.3, 367.3)">e</text><text xml:space="preserve" font-family="ProximaNova-Regular,Proxima Nova" font-size="42.0" fill="#52575F" transform="matrix(1.00, 0.00, -0.00, -1.00, 239.0, 367.3)">x</text><text xml:space="preserve" font-family="ProximaNova-Regular,Proxima Nova" font-size="42.0" fill="#52575F" transform="matrix(1.00, 0.00, -0.00, -1.00, 259.4, 367.3)">t</text><text xml:space="preserve" font-family="ProximaNova-Regular,Proxima Nova" font-size="42.0" fill="#52575F" transform="matrix(1.00, 0.00, -0.00, -1.00, 271.8, 367.3)">e</text><text xml:space="preserve" font-family="ProximaNova-Regular,Proxima Nova" font-size="42.0" fill="#52575F" transform="matrix(1.00, 0.00, -0.00, -1.00, 295.4, 367.3)">n</text><text xml:space="preserve" font-family="ProximaNova-Regular,Proxima Nova" font-size="42.0" fill="#52575F" transform="matrix(1.00, 0.00, -0.00, -1.00, 318.6, 367.3)">s</text><text xml:space="preserve" font-family="ProximaNova-Regular,Proxima Nova" font-size="42.0" fill="#52575F" transform="matrix(1.00, 0.00, -0.00, -1.00, 338.1, 367.3)">i</text><text xml:space="preserve" font-family="ProximaNova-Regular,Proxima Nova" font-size="42.0" fill="#52575F" transform="matrix(1.00, 0.00, -0.00, -1.00, 347.6, 367.3)">o</text><text xml:space="preserve" font-family="ProximaNova-Regular,Proxima Nova" font-size="42.0" fill="#52575F" transform="matrix(1.00, 0.00, -0.00, -1.00, 371.6, 367.3)">n</text><text xml:space="preserve" font-family="ProximaNova-Regular,Proxima Nova" font-size="42.0" fill="#52575F" transform="matrix(1.00, 0.00, -0.00, -1.00, 394.8, 367.3)"> </text><text xml:space="preserve" font-family="ProximaNova-Regular,Proxima Nova" font-size="42.0" fill="#52575F" transform="matrix(1.00, 0.00, -0.00, -1.00, 405.7, 367.3)">o</text><text xml:space="preserve" font-family="ProximaNova-Regular,Proxima Nova" font-size="42.0" fill="#52575F" transform="matrix(1.00, 0.00, -0.00, -1.00, 429.7, 367.3)">f</text><text xml:space="preserve" font-family="ProximaNova-Regular,Proxima Nova" font-size="42.0" fill="#52575F" transform="matrix(1.00, 0.00, -0.00, -1.00, 441.6, 367.3)"> </text><text xml:space="preserve" font-family="ProximaNova-Regular,Proxima Nova" font-size="42.0" fill="#52575F" transform="matrix(1.00, 0.00, -0.00, -1.00, 452.5, 367.3)">h</text><text xml:space="preserve" font-family="ProximaNova-Regular,Proxima Nova" font-size="42.0" fill="#52575F" transform="matrix(1.00, 0.00, -0.00, -1.00, 475.7, 367.3)">y</text><text xml:space="preserve" font-family="ProximaNova-Regular,Proxima Nova" font-size="42.0" fill="#52575F" transform="matrix(1.00, 0.00, -0.00, -1.00, 496.3, 367.3)">p</text><text xml:space="preserve" font-family="ProximaNova-Regular,Proxima Nova" font-size="42.0" fill="#52575F" transform="matrix(1.00, 0.00, -0.00, -1.00, 520.3, 367.3)">e</text><text xml:space="preserve" font-family="ProximaNova-Regular,Proxima Nova" font-size="42.0" fill="#52575F" transform="matrix(1.00, 0.00, -0.00, -1.00, 543.9, 367.3)">r</text><text xml:space="preserve" font-family="ProximaNova-Regular,Proxima Nova" font-size="42.0" fill="#52575F" transform="matrix(1.00, 0.00, -0.00, -1.00, 557.8, 367.3)">t</text><text xml:space="preserve" font-family="ProximaNova-Regular,Proxima Nova" font-size="42.0" fill="#52575F" transform="matrix(1.00, 0.00, -0.00, -1.00, 570.1, 367.3)">e</text><text xml:space="preserve" font-family="ProximaNova-Regular,Proxima Nova" font-size="42.0" fill="#52575F" transform="matrix(1.00, 0.00, -0.00, -1.00, 593.8, 367.3)">x</text><text xml:space="preserve" font-family="ProximaNova-Regular,Proxima Nova" font-size="42.0" fill="#52575F" transform="matrix(1.00, 0.00, -0.00, -1.00, 614.2, 367.3)">t</text><text xml:space="preserve" font-family="ProximaNova-Regular,Proxima Nova" font-size="42.0" fill="#52575F" transform="matrix(1.00, 0.00, -0.00, -1.00, 626.6, 367.3)">,</text><text xml:space="preserve" font-family="ProximaNova-Regular,Proxima Nova" font-size="42.0" fill="#52575F" transform="matrix(1.00, 0.00, -0.00, -1.00, 636.2, 367.3)"> </text><text xml:space="preserve" font-family="ProximaNova-Regular,Proxima Nova" font-size="42.0" fill="#52575F" transform="matrix(1.00, 0.00, -0.00, -1.00, 647.1, 367.3)">w</text><text xml:space="preserve" font-family="ProximaNova-Regular,Proxima Nova" font-size="42.0" fill="#52575F" transform="matrix(1.00, 0.00, -0.00, -1.00, 678.0, 367.3)">h</text><text xml:space="preserve" font-family="ProximaNova-Regular,Proxima Nova" font-size="42.0" fill="#52575F" transform="matrix(1.00, 0.00, -0.00, -1.00, 701.1, 367.3)">i</text><text xml:space="preserve" font-family="ProximaNova-Regular,Proxima Nova" font-size="42.0" fill="#52575F" transform="matrix(1.00, 0.00, -0.00, -1.00, 710.6, 367.3)">c</text><text xml:space="preserve" font-family="ProximaNova-Regular,Proxima Nova" font-size="42.0" fill="#52575F" transform="matrix(1.00, 0.00, -0.00, -1.00, 731.4, 367.3)">h</text><text xml:space="preserve" font-family="ProximaNova-Regular,Proxima Nova" font-size="42.0" fill="#52575F" transform="matrix(1.00, 0.00, -0.00, -1.00, 754.6, 367.3)"> </text><text xml:space="preserve" font-family="ProximaNova-Regular,Proxima Nova" font-size="42.0" fill="#52575F" transform="matrix(1.00, 0.00, -0.00, -1.00, 765.5, 367.3)">a</text><text xml:space="preserve" font-family="ProximaNova-Regular,Proxima Nova" font-size="42.0" fill="#52575F" transform="matrix(1.00, 0.00, -0.00, -1.00, 787.7, 367.3)">r</text><text xml:space="preserve" font-family="ProximaNova-Regular,Proxima Nova" font-size="42.0" fill="#52575F" transform="matrix(1.00, 0.00, -0.00, -1.00, 801.5, 367.3)">e</text><text xml:space="preserve" font-family="ProximaNova-Regular,Proxima Nova" font-size="42.0" fill="#52575F" transform="matrix(1.00, 0.00, -0.00, -1.00, 825.2, 367.3)"> </text><text xml:space="preserve" font-family="ProximaNova-Regular,Proxima Nova" font-size="42.0" fill="#52575F" transform="matrix(1.00, 0.00, -0.00, -1.00, 84.9, 317.3)">d</text><text xml:space="preserve" font-family="ProximaNova-Regular,Proxima Nova" font-size="42.0" fill="#52575F" transform="matrix(1.00, 0.00, -0.00, -1.00, 109.1, 317.3)">o</text><text xml:space="preserve" font-family="ProximaNova-Regular,Proxima Nova" font-size="42.0" fill="#52575F" transform="matrix(1.00, 0.00, -0.00, -1.00, 133.1, 317.3)">c</text><text xml:space="preserve" font-family="ProximaNova-Regular,Proxima Nova" font-size="42.0" fill="#52575F" transform="matrix(1.00, 0.00, -0.00, -1.00, 153.9, 317.3)">u</text><text xml:space="preserve" font-family="ProximaNova-Regular,Proxima Nova" font-size="42.0" fill="#52575F" transform="matrix(1.00, 0.00, -0.00, -1.00, 177.1, 317.3)">m</text><text xml:space="preserve" font-family="ProximaNova-Regular,Proxima Nova" font-size="42.0" fill="#52575F" transform="matrix(1.00, 0.00, -0.00, -1.00, 211.0, 317.3)">e</text><text xml:space="preserve" font-family="ProximaNova-Regular,Proxima Nova" font-size="42.0" fill="#52575F" transform="matrix(1.00, 0.00, -0.00, -1.00, 234.6, 317.3)">n</text><text xml:space="preserve" font-family="ProximaNova-Regular,Proxima Nova" font-size="42.0" fill="#52575F" transform="matrix(1.00, 0.00, -0.00, -1.00, 257.8, 317.3)">t</text><text xml:space="preserve" font-family="ProximaNova-Regular,Proxima Nova" font-size="42.0" fill="#52575F" transform="matrix(1.00, 0.00, -0.00, -1.00, 270.2, 317.3)">s</text><text xml:space="preserve" font-family="ProximaNova-Regular,Proxima Nova" font-size="42.0" fill="#52575F" transform="matrix(1.00, 0.00, -0.00, -1.00, 289.7, 317.3)"> </text><text xml:space="preserve" font-family="ProximaNova-Regular,Proxima Nova" font-size="42.0" fill="#52575F" transform="matrix(1.00, 0.00, -0.00, -1.00, 300.6, 317.3)">t</text><text xml:space="preserve" font-family="ProximaNova-Regular,Proxima Nova" font-size="42.0" fill="#52575F" transform="matrix(1.00, 0.00, -0.00, -1.00, 312.9, 317.3)">h</text><text xml:space="preserve" font-family="ProximaNova-Regular,Proxima Nova" font-size="42.0" fill="#52575F" transform="matrix(1.00, 0.00, -0.00, -1.00, 336.1, 317.3)">a</text><text xml:space="preserve" font-family="ProximaNova-Regular,Proxima Nova" font-size="42.0" fill="#52575F" transform="matrix(1.00, 0.00, -0.00, -1.00, 358.3, 317.3)">t</text><text xml:space="preserve" font-family="ProximaNova-Regular,Proxima Nova" font-size="42.0" fill="#52575F" transform="matrix(1.00, 0.00, -0.00, -1.00, 370.6, 317.3)"> </text><text xml:space="preserve" font-family="ProximaNova-Regular,Proxima Nova" font-size="42.0" fill="#52575F" transform="matrix(1.00, 0.00, -0.00, -1.00, 381.5, 317.3)">c</text><text xml:space="preserve" font-family="ProximaNova-Regular,Proxima Nova" font-size="42.0" fill="#52575F" transform="matrix(1.00, 0.00, -0.00, -1.00, 402.3, 317.3)">o</text><text xml:space="preserve" font-family="ProximaNova-Regular,Proxima Nova" font-size="42.0" fill="#52575F" transform="matrix(1.00, 0.00, -0.00, -1.00, 426.4, 317.3)">n</text><text xml:space="preserve" font-family="ProximaNova-Regular,Proxima Nova" font-size="42.0" fill="#52575F" transform="matrix(1.00, 0.00, -0.00, -1.00, 449.6, 317.3)">t</text><text xml:space="preserve" font-family="ProximaNova-Regular,Proxima Nova" font-size="42.0" fill="#52575F" transform="matrix(1.00, 0.00, -0.00, -1.00, 461.9, 317.3)">a</text><text xml:space="preserve" font-family="ProximaNova-Regular,Proxima Nova" font-size="42.0" fill="#52575F" transform="matrix(1.00, 0.00, -0.00, -1.00, 484.1, 317.3)">i</text><text xml:space="preserve" font-family="ProximaNova-Regular,Proxima Nova" font-size="42.0" fill="#52575F" transform="matrix(1.00, 0.00, -0.00, -1.00, 493.5, 317.3)">n</text><text xml:space="preserve" font-family="ProximaNova-Regular,Proxima Nova" font-size="42.0" fill="#52575F" transform="matrix(1.00, 0.00, -0.00, -1.00, 516.7, 317.3)"> </text><text xml:space="preserve" font-family="ProximaNova-Regular,Proxima Nova" font-size="42.0" fill="#52575F" transform="matrix(1.00, 0.00, -0.00, -1.00, 527.6, 317.3)">r</text><text xml:space="preserve" font-family="ProximaNova-Regular,Proxima Nova" font-size="42.0" fill="#52575F" transform="matrix(1.00, 0.00, -0.00, -1.00, 541.5, 317.3)">e</text><text xml:space="preserve" font-family="ProximaNova-Regular,Proxima Nova" font-size="42.0" fill="#52575F" transform="matrix(1.00, 0.00, -0.00, -1.00, 565.1, 317.3)">f</text><text xml:space="preserve" font-family="ProximaNova-Regular,Proxima Nova" font-size="42.0" fill="#52575F" transform="matrix(1.00, 0.00, -0.00, -1.00, 577.0, 317.3)">e</text><text xml:space="preserve" font-family="ProximaNova-Regular,Proxima Nova" font-size="42.0" fill="#52575F" transform="matrix(1.00, 0.00, -0.00, -1.00, 600.7, 317.3)">r</text><text xml:space="preserve" font-family="ProximaNova-Regular,Proxima Nova" font-size="42.0" fill="#52575F" transform="matrix(1.00, 0.00, -0.00, -1.00, 614.5, 317.3)">e</text><text xml:space="preserve" font-family="ProximaNova-Regular,Proxima Nova" font-size="42.0" fill="#52575F" transform="matrix(1.00, 0.00, -0.00, -1.00, 638.2, 317.3)">n</text><text xml:space="preserve" font-family="ProximaNova-Regular,Proxima Nova" font-size="42.0" fill="#52575F" transform="matrix(1.00, 0.00, -0.00, -1.00, 661.4, 317.3)">c</text><text xml:space="preserve" font-family="ProximaNova-Regular,Proxima Nova" font-size="42.0" fill="#52575F" transform="matrix(1.00, 0.00, -0.00, -1.00, 682.2, 317.3)">e</text><text xml:space="preserve" font-family="ProximaNova-Regular,Proxima Nova" font-size="42.0" fill="#52575F" transform="matrix(1.00, 0.00, -0.00, -1.00, 705.8, 317.3)">s</text><text xml:space="preserve" font-family="ProximaNova-Regular,Proxima Nova" font-size="42.0" fill="#52575F" transform="matrix(1.00, 0.00, -0.00, -1.00, 725.4, 317.3)"> </text><text xml:space="preserve" font-family="ProximaNova-Regular,Proxima Nova" font-size="42.0" fill="#52575F" transform="matrix(1.00, 0.00, -0.00, -1.00, 736.2, 317.3)">t</text><text xml:space="preserve" font-family="ProximaNova-Regular,Proxima Nova" font-size="42.0" fill="#52575F" transform="matrix(1.00, 0.00, -0.00, -1.00, 748.6, 317.3)">o</text><text xml:space="preserve" font-family="ProximaNova-Regular,Proxima Nova" font-size="42.0" fill="#52575F" transform="matrix(1.00, 0.00, -0.00, -1.00, 772.6, 317.3)"> </text><text xml:space="preserve" font-family="ProximaNova-Regular,Proxima Nova" font-size="42.0" fill="#52575F" transform="matrix(1.00, 0.00, -0.00, -1.00, 783.5, 317.3)">o</text><text xml:space="preserve" font-family="ProximaNova-Regular,Proxima Nova" font-size="42.0" fill="#52575F" transform="matrix(1.00, 0.00, -0.00, -1.00, 807.5, 317.3)">t</text><text xml:space="preserve" font-family="ProximaNova-Regular,Proxima Nova" font-size="42.0" fill="#52575F" transform="matrix(1.00, 0.00, -0.00, -1.00, 819.9, 317.3)">h</text><text xml:space="preserve" font-family="ProximaNova-Regular,Proxima Nova" font-size="42.0" fill="#52575F" transform="matrix(1.00, 0.00, -0.00, -1.00, 843.1, 317.3)">e</text><text xml:space="preserve" font-family="ProximaNova-Regular,Proxima Nova" font-size="42.0" fill="#52575F" transform="matrix(1.00, 0.00, -0.00, -1.00, 866.7, 317.3)">r</text><text xml:space="preserve" font-family="ProximaNova-Regular,Proxima Nova" font-size="42.0" fill="#52575F" transform="matrix(1.00, 0.00, -0.00, -1.00, 880.6, 317.3)"> </text><text xml:space="preserve" font-family="ProximaNova-Regular,Proxima Nova" font-size="42.0" fill="#52575F" transform="matrix(1.00, 0.00, -0.00, -1.00, 84.9, 267.3)">d</text><text xml:space="preserve" font-family="ProximaNova-Regular,Proxima Nova" font-size="42.0" fill="#52575F" transform="matrix(1.00, 0.00, -0.00, -1.00, 109.1, 267.3)">o</text><text xml:space="preserve" font-family="ProximaNova-Regular,Proxima Nova" font-size="42.0" fill="#52575F" transform="matrix(1.00, 0.00, -0.00, -1.00, 133.1, 267.3)">c</text><text xml:space="preserve" font-family="ProximaNova-Regular,Proxima Nova" font-size="42.0" fill="#52575F" transform="matrix(1.00, 0.00, -0.00, -1.00, 153.9, 267.3)">u</text><text xml:space="preserve" font-family="ProximaNova-Regular,Proxima Nova" font-size="42.0" fill="#52575F" transform="matrix(1.00, 0.00, -0.00, -1.00, 177.1, 267.3)">m</text><text xml:space="preserve" font-family="ProximaNova-Regular,Proxima Nova" font-size="42.0" fill="#52575F" transform="matrix(1.00, 0.00, -0.00, -1.00, 211.0, 267.3)">e</text><text xml:space="preserve" font-family="ProximaNova-Regular,Proxima Nova" font-size="42.0" fill="#52575F" transform="matrix(1.00, 0.00, -0.00, -1.00, 234.6, 267.3)">n</text><text xml:space="preserve" font-family="ProximaNova-Regular,Proxima Nova" font-size="42.0" fill="#52575F" transform="matrix(1.00, 0.00, -0.00, -1.00, 257.8, 267.3)">t</text><text xml:space="preserve" font-family="ProximaNova-Regular,Proxima Nova" font-size="42.0" fill="#52575F" transform="matrix(1.00, 0.00, -0.00, -1.00, 270.2, 267.3)">s</text><text xml:space="preserve" font-family="ProximaNova-Regular,Proxima Nova" font-size="42.0" fill="#52575F" transform="matrix(1.00, 0.00, -0.00, -1.00, 289.7, 267.3)">.</text></g></svg>