<?xml version="1.0" encoding="UTF-8" standalone="no"?><svg xmlns="http://www.w3.org/2000/svg" xmlns:xlink="http://www.w3.org/1999/xlink" clip-rule="evenodd" stroke-miterlimit="10" viewBox="0 0 1024 768"><desc>SVG generated by Keynote</desc><defs></defs><g transform="matrix(1.00, 0.00, -0.00, -1.00, 0.0, 768.0)"><path d="M 0.0 768.0 L 1024.0 768.0 L 1024.0 0.0 L 0.0 0.0 Z M 0.0 768.0 " fill="#FEFFFE"></path><text xml:space="preserve" font-family="ProximaNova-Light,Proxima Nova" font-size="40.0" fill="#FF456F" transform="matrix(1.00, 0.00, -0.00, -1.00, 205.5, 647.4)">M</text><text xml:space="preserve" font-family="ProximaNova-Light,Proxima Nova" font-size="40.0" fill="#FF456F" transform="matrix(1.00, 0.00, -0.00, -1.00, 237.1, 647.4)">a</text><text xml:space="preserve" font-family="ProximaNova-Light,Proxima Nova" font-size="40.0" fill="#FF456F" transform="matrix(1.00, 0.00, -0.00, -1.00, 257.9, 647.4)">n</text><text xml:space="preserve" font-family="ProximaNova-Light,Proxima Nova" font-size="40.0" fill="#FF456F" transform="matrix(1.00, 0.00, -0.00, -1.00, 279.5, 647.4)">a</text><text xml:space="preserve" font-family="ProximaNova-Light,Proxima Nova" font-size="40.0" fill="#FF456F" transform="matrix(1.00, 0.00, -0.00, -1.00, 300.4, 647.4)">g</text><text xml:space="preserve" font-family="ProximaNova-Light,Proxima Nova" font-size="40.0" fill="#FF456F" transform="matrix(1.00, 0.00, -0.00, -1.00, 323.2, 647.4)">i</text><text xml:space="preserve" font-family="ProximaNova-Light,Proxima Nova" font-size="40.0" fill="#FF456F" transform="matrix(1.00, 0.00, -0.00, -1.00, 331.7, 647.4)">n</text><text xml:space="preserve" font-family="ProximaNova-Light,Proxima Nova" font-size="40.0" fill="#FF456F" transform="matrix(1.00, 0.00, -0.00, -1.00, 353.3, 647.4)">g</text><text xml:space="preserve" font-family="ProximaNova-Light,Proxima Nova" font-size="40.0" fill="#FF456F" transform="matrix(1.00, 0.00, -0.00, -1.00, 376.1, 647.4)"> </text><text xml:space="preserve" font-family="ProximaNova-Light,Proxima Nova" font-size="40.0" fill="#FF456F" transform="matrix(1.00, 0.00, -0.00, -1.00, 386.5, 647.4)">t</text><text xml:space="preserve" font-family="ProximaNova-Light,Proxima Nova" font-size="40.0" fill="#FF456F" transform="matrix(1.00, 0.00, -0.00, -1.00, 397.5, 647.4)">h</text><text xml:space="preserve" font-family="ProximaNova-Light,Proxima Nova" font-size="40.0" fill="#FF456F" transform="matrix(1.00, 0.00, -0.00, -1.00, 419.1, 647.4)">e</text><text xml:space="preserve" font-family="ProximaNova-Light,Proxima Nova" font-size="40.0" fill="#FF456F" transform="matrix(1.00, 0.00, -0.00, -1.00, 441.8, 647.4)"> </text><text xml:space="preserve" font-family="ProximaNova-Light,Proxima Nova" font-size="40.0" fill="#FF456F" transform="matrix(1.00, 0.00, -0.00, -1.00, 452.1, 647.4)">u</text><text xml:space="preserve" font-family="ProximaNova-Light,Proxima Nova" font-size="40.0" fill="#FF456F" transform="matrix(1.00, 0.00, -0.00, -1.00, 473.7, 647.4)">p</text><text xml:space="preserve" font-family="ProximaNova-Light,Proxima Nova" font-size="40.0" fill="#FF456F" transform="matrix(1.00, 0.00, -0.00, -1.00, 496.4, 647.4)">g</text><text xml:space="preserve" font-family="ProximaNova-Light,Proxima Nova" font-size="40.0" fill="#FF456F" transform="matrix(1.00, 0.00, -0.00, -1.00, 519.2, 647.4)">r</text><text xml:space="preserve" font-family="ProximaNova-Light,Proxima Nova" font-size="40.0" fill="#FF456F" transform="matrix(1.00, 0.00, -0.00, -1.00, 531.9, 647.4)">a</text><text xml:space="preserve" font-family="ProximaNova-Light,Proxima Nova" font-size="40.0" fill="#FF456F" transform="matrix(1.00, 0.00, -0.00, -1.00, 552.7, 647.4)">d</text><text xml:space="preserve" font-family="ProximaNova-Light,Proxima Nova" font-size="40.0" fill="#FF456F" transform="matrix(1.00, 0.00, -0.00, -1.00, 575.6, 647.4)">e</text><text xml:space="preserve" font-family="ProximaNova-Light,Proxima Nova" font-size="40.0" fill="#FF456F" transform="matrix(1.00, 0.00, -0.00, -1.00, 598.3, 647.4)"> </text><text xml:space="preserve" font-family="ProximaNova-Light,Proxima Nova" font-size="40.0" fill="#FF456F" transform="matrix(1.00, 0.00, -0.00, -1.00, 608.6, 647.4)">o</text><text xml:space="preserve" font-family="ProximaNova-Light,Proxima Nova" font-size="40.0" fill="#FF456F" transform="matrix(1.00, 0.00, -0.00, -1.00, 631.5, 647.4)">f</text><text xml:space="preserve" font-family="ProximaNova-Light,Proxima Nova" font-size="40.0" fill="#FF456F" transform="matrix(1.00, 0.00, -0.00, -1.00, 642.1, 647.4)"> </text><text xml:space="preserve" font-family="ProximaNova-Light,Proxima Nova" font-size="40.0" fill="#FF456F" transform="matrix(1.00, 0.00, -0.00, -1.00, 652.4, 647.4)">a</text><text xml:space="preserve" font-family="ProximaNova-Light,Proxima Nova" font-size="40.0" fill="#FF456F" transform="matrix(1.00, 0.00, -0.00, -1.00, 673.3, 647.4)"> </text><text xml:space="preserve" font-family="ProximaNova-Light,Proxima Nova" font-size="40.0" fill="#FF456F" transform="matrix(1.00, 0.00, -0.00, -1.00, 683.6, 647.4)">w</text><text xml:space="preserve" font-family="ProximaNova-Light,Proxima Nova" font-size="40.0" fill="#FF456F" transform="matrix(1.00, 0.00, -0.00, -1.00, 712.4, 647.4)">e</text><text xml:space="preserve" font-family="ProximaNova-Light,Proxima Nova" font-size="40.0" fill="#FF456F" transform="matrix(1.00, 0.00, -0.00, -1.00, 735.1, 647.4)">b</text><text xml:space="preserve" font-family="ProximaNova-Light,Proxima Nova" font-size="40.0" fill="#FF456F" transform="matrix(1.00, 0.00, -0.00, -1.00, 757.9, 647.4)">s</text><text xml:space="preserve" font-family="ProximaNova-Light,Proxima Nova" font-size="40.0" fill="#FF456F" transform="matrix(1.00, 0.00, -0.00, -1.00, 776.3, 647.4)">i</text><text xml:space="preserve" font-family="ProximaNova-Light,Proxima Nova" font-size="40.0" fill="#FF456F" transform="matrix(1.00, 0.00, -0.00, -1.00, 784.8, 647.4)">t</text><text xml:space="preserve" font-family="ProximaNova-Light,Proxima Nova" font-size="40.0" fill="#FF456F" transform="matrix(1.00, 0.00, -0.00, -1.00, 795.8, 647.4)">e</text><image xlink:href="../../1B6D9F7E-3081-4200-A24C-5CD5F25D3BC0/assets/B92D63AA9807E4B330740810CD3EBDCD.png" width="608.00" height="318.00" transform="matrix(1.00, 0.00, -0.00, -1.00, 208.0, 572.0)"></image><path d="M 0.0 0.0 L 608.0 0.0 L 608.0 318.0 L 0.0 318.0 Z M 0.0 0.0 " fill="none" stroke="#000000" stroke-width="1.00" transform="matrix(1.00, 0.00, 0.00, -1.00, 208.0, 572.0)"></path><image xlink:href="../../1B6D9F7E-3081-4200-A24C-5CD5F25D3BC0/assets/39689B14B738878075B956633BD46F20.png" width="2538.00" height="505.00" transform="matrix(0.24, 0.00, -0.00, -0.24, 207.5, 253.5)"></image></g></svg>