<?xml version="1.0" encoding="UTF-8" standalone="no"?><svg xmlns="http://www.w3.org/2000/svg" xmlns:xlink="http://www.w3.org/1999/xlink" clip-rule="evenodd" stroke-miterlimit="10" viewBox="0 0 1024 768"><desc>SVG generated by Keynote</desc><defs></defs><g transform="matrix(1.00, 0.00, -0.00, -1.00, 0.0, 768.0)"><path d="M 0.0 768.0 L 1024.0 768.0 L 1024.0 0.0 L 0.0 0.0 Z M 0.0 768.0 " fill="#000000"></path><text xml:space="preserve" font-family="ProximaNova-Light,Proxima Nova" font-size="39.0" fill="#FF456F" transform="matrix(1.00, 0.00, -0.00, -1.00, 81.7, 369.2)">A</text><text xml:space="preserve" font-family="ProximaNova-Light,Proxima Nova" font-size="39.0" fill="#FF456F" transform="matrix(1.00, 0.00, -0.00, -1.00, 106.9, 369.2)">n</text><text xml:space="preserve" font-family="ProximaNova-Light,Proxima Nova" font-size="39.0" fill="#FF456F" transform="matrix(1.00, 0.00, -0.00, -1.00, 128.0, 369.2)">d</text><text xml:space="preserve" font-family="ProximaNova-Light,Proxima Nova" font-size="39.0" fill="#FF456F" transform="matrix(1.00, 0.00, -0.00, -1.00, 150.2, 369.2)"> </text><text xml:space="preserve" font-family="ProximaNova-Light,Proxima Nova" font-size="39.0" fill="#FF456F" transform="matrix(1.00, 0.00, -0.00, -1.00, 160.3, 369.2)">ﬁ</text><text xml:space="preserve" font-family="ProximaNova-Light,Proxima Nova" font-size="39.0" fill="#FF456F" transform="matrix(1.00, 0.00, -0.00, -1.00, 179.0, 369.2)">n</text><text xml:space="preserve" font-family="ProximaNova-Light,Proxima Nova" font-size="39.0" fill="#FF456F" transform="matrix(1.00, 0.00, -0.00, -1.00, 200.0, 369.2)">a</text><text xml:space="preserve" font-family="ProximaNova-Light,Proxima Nova" font-size="39.0" fill="#FF456F" transform="matrix(1.00, 0.00, -0.00, -1.00, 220.4, 369.2)">l</text><text xml:space="preserve" font-family="ProximaNova-Light,Proxima Nova" font-size="39.0" fill="#FF456F" transform="matrix(1.00, 0.00, -0.00, -1.00, 228.7, 369.2)">l</text><text xml:space="preserve" font-family="ProximaNova-Light,Proxima Nova" font-size="39.0" fill="#FF456F" transform="matrix(1.00, 0.00, -0.00, -1.00, 237.1, 369.2)">y</text><text xml:space="preserve" font-family="ProximaNova-Light,Proxima Nova" font-size="39.0" fill="#FF456F" transform="matrix(1.00, 0.00, -0.00, -1.00, 253.5, 369.2)">…</text></g></svg>