<?xml version="1.0" encoding="UTF-8" standalone="no"?><svg xmlns="http://www.w3.org/2000/svg" xmlns:xlink="http://www.w3.org/1999/xlink" clip-rule="evenodd" stroke-miterlimit="10" viewBox="0 0 1024 768"><desc>SVG generated by Keynote</desc><defs></defs><g transform="matrix(1.00, 0.00, -0.00, -1.00, 0.0, 768.0)"><path d="M 0.0 768.0 L 1024.0 768.0 L 1024.0 0.0 L 0.0 0.0 Z M 0.0 768.0 " fill="#000000"></path><text xml:space="preserve" font-family="ProximaNova-Black,Proxima Nova" font-weight="bold" font-size="60.2" fill="#FF456F" transform="matrix(1.00, 0.00, -0.00, -1.00, 107.2, 686.6)">R</text><text xml:space="preserve" font-family="ProximaNova-Black,Proxima Nova" font-weight="bold" font-size="60.2" fill="#FF456F" transform="matrix(1.00, 0.00, -0.00, -1.00, 148.0, 686.6)">i</text><text xml:space="preserve" font-family="ProximaNova-Black,Proxima Nova" font-weight="bold" font-size="60.2" fill="#FF456F" transform="matrix(1.00, 0.00, -0.00, -1.00, 164.9, 686.6)">c</text><text xml:space="preserve" font-family="ProximaNova-Black,Proxima Nova" font-weight="bold" font-size="60.2" fill="#FF456F" transform="matrix(1.00, 0.00, -0.00, -1.00, 195.1, 686.6)">h</text><text xml:space="preserve" font-family="ProximaNova-Black,Proxima Nova" font-weight="bold" font-size="60.2" fill="#FF456F" transform="matrix(1.00, 0.00, -0.00, -1.00, 231.7, 686.6)">a</text><text xml:space="preserve" font-family="ProximaNova-Black,Proxima Nova" font-weight="bold" font-size="60.2" fill="#FF456F" transform="matrix(1.00, 0.00, -0.00, -1.00, 265.4, 686.6)">r</text><text xml:space="preserve" font-family="ProximaNova-Black,Proxima Nova" font-weight="bold" font-size="60.2" fill="#FF456F" transform="matrix(1.00, 0.00, -0.00, -1.00, 288.8, 686.6)">d</text><text xml:space="preserve" font-family="ProximaNova-Black,Proxima Nova" font-weight="bold" font-size="60.2" fill="#FF456F" transform="matrix(1.00, 0.00, -0.00, -1.00, 324.7, 686.6)">s</text><text xml:space="preserve" font-family="ProximaNova-Black,Proxima Nova" font-weight="bold" font-size="60.2" fill="#FF456F" transform="matrix(1.00, 0.00, -0.00, -1.00, 354.2, 686.6)">o</text><text xml:space="preserve" font-family="ProximaNova-Black,Proxima Nova" font-weight="bold" font-size="60.2" fill="#FF456F" transform="matrix(1.00, 0.00, -0.00, -1.00, 389.0, 686.6)">n</text><text xml:space="preserve" font-family="ProximaNova-Black,Proxima Nova" font-weight="bold" font-size="60.2" fill="#FF456F" transform="matrix(1.00, 0.00, -0.00, -1.00, 424.3, 686.6)">’</text><text xml:space="preserve" font-family="ProximaNova-Black,Proxima Nova" font-weight="bold" font-size="60.2" fill="#FF456F" transform="matrix(1.00, 0.00, -0.00, -1.00, 439.4, 686.6)">s</text><text xml:space="preserve" font-family="ProximaNova-Black,Proxima Nova" font-weight="bold" font-size="60.2" fill="#FF456F" transform="matrix(1.00, 0.00, -0.00, -1.00, 468.9, 686.6)"> </text><text xml:space="preserve" font-family="ProximaNova-Black,Proxima Nova" font-weight="bold" font-size="60.2" fill="#FF456F" transform="matrix(1.00, 0.00, -0.00, -1.00, 484.2, 686.6)">M</text><text xml:space="preserve" font-family="ProximaNova-Black,Proxima Nova" font-weight="bold" font-size="60.2" fill="#FF456F" transform="matrix(1.00, 0.00, -0.00, -1.00, 538.4, 686.6)">a</text><text xml:space="preserve" font-family="ProximaNova-Black,Proxima Nova" font-weight="bold" font-size="60.2" fill="#FF456F" transform="matrix(1.00, 0.00, -0.00, -1.00, 572.1, 686.6)">t</text><text xml:space="preserve" font-family="ProximaNova-Black,Proxima Nova" font-weight="bold" font-size="60.2" fill="#FF456F" transform="matrix(1.00, 0.00, -0.00, -1.00, 595.1, 686.6)">u</text><text xml:space="preserve" font-family="ProximaNova-Black,Proxima Nova" font-weight="bold" font-size="60.2" fill="#FF456F" transform="matrix(1.00, 0.00, -0.00, -1.00, 631.6, 686.6)">r</text><text xml:space="preserve" font-family="ProximaNova-Black,Proxima Nova" font-weight="bold" font-size="60.2" fill="#FF456F" transform="matrix(1.00, 0.00, -0.00, -1.00, 655.0, 686.6)">i</text><text xml:space="preserve" font-family="ProximaNova-Black,Proxima Nova" font-weight="bold" font-size="60.2" fill="#FF456F" transform="matrix(1.00, 0.00, -0.00, -1.00, 671.9, 686.6)">t</text><text xml:space="preserve" font-family="ProximaNova-Black,Proxima Nova" font-weight="bold" font-size="60.2" fill="#FF456F" transform="matrix(1.00, 0.00, -0.00, -1.00, 694.9, 686.6)">y</text><text xml:space="preserve" font-family="ProximaNova-Black,Proxima Nova" font-weight="bold" font-size="60.2" fill="#FF456F" transform="matrix(1.00, 0.00, -0.00, -1.00, 727.1, 686.6)"> </text><text xml:space="preserve" font-family="ProximaNova-Black,Proxima Nova" font-weight="bold" font-size="60.2" fill="#FF456F" transform="matrix(1.00, 0.00, -0.00, -1.00, 742.4, 686.6)">M</text><text xml:space="preserve" font-family="ProximaNova-Black,Proxima Nova" font-weight="bold" font-size="60.2" fill="#FF456F" transform="matrix(1.00, 0.00, -0.00, -1.00, 796.6, 686.6)">o</text><text xml:space="preserve" font-family="ProximaNova-Black,Proxima Nova" font-weight="bold" font-size="60.2" fill="#FF456F" transform="matrix(1.00, 0.00, -0.00, -1.00, 831.4, 686.6)">d</text><text xml:space="preserve" font-family="ProximaNova-Black,Proxima Nova" font-weight="bold" font-size="60.2" fill="#FF456F" transform="matrix(1.00, 0.00, -0.00, -1.00, 867.2, 686.6)">e</text><text xml:space="preserve" font-family="ProximaNova-Black,Proxima Nova" font-weight="bold" font-size="60.2" fill="#FF456F" transform="matrix(1.00, 0.00, -0.00, -1.00, 899.9, 686.6)">l</text><text xml:space="preserve" font-family="ProximaNova-Black,Proxima Nova" font-weight="bold" font-size="60.2" fill="#FF456F" transform="matrix(1.00, 0.00, -0.00, -1.00, 916.8, 686.6)"> </text><path d="M 77.0 550.0 L 295.0 550.0 L 295.0 535.0 L 77.0 535.0 Z M 76.7 549.6 " fill="#7ADA45"></path><g><clipPath id="clip0x6000026ac180"><path d="M 74.2 539.6 L 297.9 539.6 L 297.9 545.6 L 74.2 545.6 Z M 74.2 539.6 "></path></clipPath><g clip-path="url(#clip0x6000026ac180)"><text xml:space="preserve" font-family="Helvetica-Light,Helvetica" font-size="26.0" fill="#FEFFFF" transform="matrix(1.00, 0.00, -0.00, -1.00, 151.4, 520.5)">H</text><text xml:space="preserve" font-family="Helvetica-Light,Helvetica" font-size="26.0" fill="#FEFFFF" transform="matrix(1.00, 0.00, -0.00, -1.00, 170.1, 520.5)">T</text><text xml:space="preserve" font-family="Helvetica-Light,Helvetica" font-size="26.0" fill="#FEFFFF" transform="matrix(1.00, 0.00, -0.00, -1.00, 184.6, 520.5)">M</text><text xml:space="preserve" font-family="Helvetica-Light,Helvetica" font-size="26.0" fill="#FEFFFF" transform="matrix(1.00, 0.00, -0.00, -1.00, 206.2, 520.5)">L</text></g></g><path d="M 77.0 534.0 L 295.0 534.0 L 295.0 520.0 L 77.0 520.0 Z M 76.7 534.5 " fill="#E7A432"></path><g><clipPath id="clip0x6000026ac5a0"><path d="M 74.2 524.5 L 297.9 524.5 L 297.9 530.5 L 74.2 530.5 Z M 74.2 524.5 "></path></clipPath><g clip-path="url(#clip0x6000026ac5a0)"><text xml:space="preserve" font-family="Helvetica-Light,Helvetica" font-size="26.0" fill="#FEFFFF" transform="matrix(1.00, 0.00, -0.00, -1.00, 154.2, 505.5)">H</text><text xml:space="preserve" font-family="Helvetica-Light,Helvetica" font-size="26.0" fill="#FEFFFF" transform="matrix(1.00, 0.00, -0.00, -1.00, 173.0, 505.5)">T</text><text xml:space="preserve" font-family="Helvetica-Light,Helvetica" font-size="26.0" fill="#FEFFFF" transform="matrix(1.00, 0.00, -0.00, -1.00, 187.5, 505.5)">T</text><text xml:space="preserve" font-family="Helvetica-Light,Helvetica" font-size="26.0" fill="#FEFFFF" transform="matrix(1.00, 0.00, -0.00, -1.00, 201.9, 505.5)">P</text></g></g><text xml:space="preserve" font-family="Helvetica-Light,Helvetica" font-size="56.0" fill="#FEFFFF" transform="matrix(1.00, 0.00, -0.00, -1.00, 472.4, 469.4)">L</text><text xml:space="preserve" font-family="Helvetica-Light,Helvetica" font-size="56.0" fill="#FEFFFF" transform="matrix(1.00, 0.00, -0.00, -1.00, 503.5, 469.4)">e</text><text xml:space="preserve" font-family="Helvetica-Light,Helvetica" font-size="56.0" fill="#FEFFFF" transform="matrix(1.00, 0.00, -0.00, -1.00, 534.7, 469.4)">v</text><text xml:space="preserve" font-family="Helvetica-Light,Helvetica" font-size="56.0" fill="#FEFFFF" transform="matrix(1.00, 0.00, -0.00, -1.00, 562.7, 469.4)">e</text><text xml:space="preserve" font-family="Helvetica-Light,Helvetica" font-size="56.0" fill="#FEFFFF" transform="matrix(1.00, 0.00, -0.00, -1.00, 593.8, 469.4)">l</text><text xml:space="preserve" font-family="Helvetica-Light,Helvetica" font-size="56.0" fill="#FEFFFF" transform="matrix(1.00, 0.00, -0.00, -1.00, 606.2, 469.4)"> </text><text xml:space="preserve" font-family="Helvetica-Light,Helvetica" font-size="56.0" fill="#FEFFFF" transform="matrix(1.00, 0.00, -0.00, -1.00, 621.8, 469.4)">1</text><text xml:space="preserve" font-family="Helvetica-Light,Helvetica" font-size="27.0" fill="#FEFFFF" transform="matrix(1.00, 0.00, -0.00, -1.00, 330.1, 268.7)">•</text><text xml:space="preserve" font-family="Helvetica-Light,Helvetica" font-size="36.0" fill="#FEFFFF" transform="matrix(1.00, 0.00, -0.00, -1.00, 363.2, 265.3)">M</text><text xml:space="preserve" font-family="Helvetica-Light,Helvetica" font-size="36.0" fill="#FEFFFF" transform="matrix(1.00, 0.00, -0.00, -1.00, 393.2, 265.3)">a</text><text xml:space="preserve" font-family="Helvetica-Light,Helvetica" font-size="36.0" fill="#FEFFFF" transform="matrix(1.00, 0.00, -0.00, -1.00, 413.2, 265.3)">n</text><text xml:space="preserve" font-family="Helvetica-Light,Helvetica" font-size="36.0" fill="#FEFFFF" transform="matrix(1.00, 0.00, -0.00, -1.00, 433.3, 265.3)">y</text><text xml:space="preserve" font-family="Helvetica-Light,Helvetica" font-size="36.0" fill="#FEFFFF" transform="matrix(1.00, 0.00, -0.00, -1.00, 451.3, 265.3)"> </text><text xml:space="preserve" font-family="Helvetica-Light,Helvetica" font-size="36.0" fill="#FEFFFF" transform="matrix(1.00, 0.00, -0.00, -1.00, 461.3, 265.3)">U</text><text xml:space="preserve" font-family="Helvetica-Light,Helvetica" font-size="36.0" fill="#FEFFFF" transform="matrix(1.00, 0.00, -0.00, -1.00, 487.3, 265.3)">R</text><text xml:space="preserve" font-family="Helvetica-Light,Helvetica" font-size="36.0" fill="#FEFFFF" transform="matrix(1.00, 0.00, -0.00, -1.00, 511.3, 265.3)">I</text><text xml:space="preserve" font-family="Helvetica-Light,Helvetica" font-size="36.0" fill="#FEFFFF" transform="matrix(1.00, 0.00, -0.00, -1.00, 521.3, 265.3)">s</text><text xml:space="preserve" font-family="Helvetica-Light,Helvetica" font-size="36.0" fill="#FEFFFF" transform="matrix(1.00, 0.00, -0.00, -1.00, 539.3, 265.3)">,</text><text xml:space="preserve" font-family="Helvetica-Light,Helvetica" font-size="36.0" fill="#FEFFFF" transform="matrix(1.00, 0.00, -0.00, -1.00, 549.3, 265.3)"> </text><text xml:space="preserve" font-family="Helvetica-Light,Helvetica" font-size="36.0" fill="#FEFFFF" transform="matrix(1.00, 0.00, -0.00, -1.00, 559.3, 265.3)">o</text><text xml:space="preserve" font-family="Helvetica-Light,Helvetica" font-size="36.0" fill="#FEFFFF" transform="matrix(1.00, 0.00, -0.00, -1.00, 579.3, 265.3)">n</text><text xml:space="preserve" font-family="Helvetica-Light,Helvetica" font-size="36.0" fill="#FEFFFF" transform="matrix(1.00, 0.00, -0.00, -1.00, 599.3, 265.3)">e</text><text xml:space="preserve" font-family="Helvetica-Light,Helvetica" font-size="36.0" fill="#FEFFFF" transform="matrix(1.00, 0.00, -0.00, -1.00, 619.3, 265.3)"> </text><text xml:space="preserve" font-family="Helvetica-Light,Helvetica" font-size="36.0" fill="#FEFFFF" transform="matrix(1.00, 0.00, -0.00, -1.00, 629.3, 265.3)">H</text><text xml:space="preserve" font-family="Helvetica-Light,Helvetica" font-size="36.0" fill="#FEFFFF" transform="matrix(1.00, 0.00, -0.00, -1.00, 655.3, 265.3)">T</text><text xml:space="preserve" font-family="Helvetica-Light,Helvetica" font-size="36.0" fill="#FEFFFF" transform="matrix(1.00, 0.00, -0.00, -1.00, 675.4, 265.3)">T</text><text xml:space="preserve" font-family="Helvetica-Light,Helvetica" font-size="36.0" fill="#FEFFFF" transform="matrix(1.00, 0.00, -0.00, -1.00, 695.4, 265.3)">P</text><text xml:space="preserve" font-family="Helvetica-Light,Helvetica" font-size="36.0" fill="#FEFFFF" transform="matrix(1.00, 0.00, -0.00, -1.00, 717.4, 265.3)"> </text><text xml:space="preserve" font-family="Helvetica-Light,Helvetica" font-size="36.0" fill="#FEFFFF" transform="matrix(1.00, 0.00, -0.00, -1.00, 727.4, 265.3)">m</text><text xml:space="preserve" font-family="Helvetica-Light,Helvetica" font-size="36.0" fill="#FEFFFF" transform="matrix(1.00, 0.00, -0.00, -1.00, 757.4, 265.3)">e</text><text xml:space="preserve" font-family="Helvetica-Light,Helvetica" font-size="36.0" fill="#FEFFFF" transform="matrix(1.00, 0.00, -0.00, -1.00, 777.4, 265.3)">t</text><text xml:space="preserve" font-family="Helvetica-Light,Helvetica" font-size="36.0" fill="#FEFFFF" transform="matrix(1.00, 0.00, -0.00, -1.00, 787.4, 265.3)">h</text><text xml:space="preserve" font-family="Helvetica-Light,Helvetica" font-size="36.0" fill="#FEFFFF" transform="matrix(1.00, 0.00, -0.00, -1.00, 807.4, 265.3)">o</text><text xml:space="preserve" font-family="Helvetica-Light,Helvetica" font-size="36.0" fill="#FEFFFF" transform="matrix(1.00, 0.00, -0.00, -1.00, 827.4, 265.3)">d</text><text xml:space="preserve" font-family="Helvetica-Light,Helvetica" font-size="36.0" fill="#FEFFFF" transform="matrix(1.00, 0.00, -0.00, -1.00, 849.4, 265.3)"> </text><text xml:space="preserve" font-family="Helvetica-Light,Helvetica" font-size="27.0" fill="#FEFFFF" transform="matrix(1.00, 0.00, -0.00, -1.00, 330.1, 225.7)">•</text><text xml:space="preserve" font-family="Helvetica-Light,Helvetica" font-size="36.0" fill="#FEFFFF" transform="matrix(1.00, 0.00, -0.00, -1.00, 363.2, 222.3)">M</text><text xml:space="preserve" font-family="Helvetica-Light,Helvetica" font-size="36.0" fill="#FEFFFF" transform="matrix(1.00, 0.00, -0.00, -1.00, 393.2, 222.3)">o</text><text xml:space="preserve" font-family="Helvetica-Light,Helvetica" font-size="36.0" fill="#FEFFFF" transform="matrix(1.00, 0.00, -0.00, -1.00, 413.2, 222.3)">s</text><text xml:space="preserve" font-family="Helvetica-Light,Helvetica" font-size="36.0" fill="#FEFFFF" transform="matrix(1.00, 0.00, -0.00, -1.00, 431.2, 222.3)">t</text><text xml:space="preserve" font-family="Helvetica-Light,Helvetica" font-size="36.0" fill="#FEFFFF" transform="matrix(1.00, 0.00, -0.00, -1.00, 441.2, 222.3)"> </text><text xml:space="preserve" font-family="Helvetica-Light,Helvetica" font-size="36.0" fill="#FEFFFF" transform="matrix(1.00, 0.00, -0.00, -1.00, 451.3, 222.3)">“</text><text xml:space="preserve" font-family="Helvetica-Light,Helvetica" font-size="36.0" fill="#FEFFFF" transform="matrix(1.00, 0.00, -0.00, -1.00, 465.3, 222.3)">R</text><text xml:space="preserve" font-family="Helvetica-Light,Helvetica" font-size="36.0" fill="#FEFFFF" transform="matrix(1.00, 0.00, -0.00, -1.00, 489.3, 222.3)">E</text><text xml:space="preserve" font-family="Helvetica-Light,Helvetica" font-size="36.0" fill="#FEFFFF" transform="matrix(1.00, 0.00, -0.00, -1.00, 511.3, 222.3)">S</text><text xml:space="preserve" font-family="Helvetica-Light,Helvetica" font-size="36.0" fill="#FEFFFF" transform="matrix(1.00, 0.00, -0.00, -1.00, 533.3, 222.3)">T</text><text xml:space="preserve" font-family="Helvetica-Light,Helvetica" font-size="36.0" fill="#FEFFFF" transform="matrix(1.00, 0.00, -0.00, -1.00, 553.3, 222.3)">f</text><text xml:space="preserve" font-family="Helvetica-Light,Helvetica" font-size="36.0" fill="#FEFFFF" transform="matrix(1.00, 0.00, -0.00, -1.00, 563.3, 222.3)">u</text><text xml:space="preserve" font-family="Helvetica-Light,Helvetica" font-size="36.0" fill="#FEFFFF" transform="matrix(1.00, 0.00, -0.00, -1.00, 583.3, 222.3)">l</text><text xml:space="preserve" font-family="Helvetica-Light,Helvetica" font-size="36.0" fill="#FEFFFF" transform="matrix(1.00, 0.00, -0.00, -1.00, 591.3, 222.3)">”</text><text xml:space="preserve" font-family="Helvetica-Light,Helvetica" font-size="36.0" fill="#FEFFFF" transform="matrix(1.00, 0.00, -0.00, -1.00, 605.3, 222.3)"> </text><text xml:space="preserve" font-family="Helvetica-Light,Helvetica" font-size="36.0" fill="#FEFFFF" transform="matrix(1.00, 0.00, -0.00, -1.00, 615.3, 222.3)">s</text><text xml:space="preserve" font-family="Helvetica-Light,Helvetica" font-size="36.0" fill="#FEFFFF" transform="matrix(1.00, 0.00, -0.00, -1.00, 633.3, 222.3)">e</text><text xml:space="preserve" font-family="Helvetica-Light,Helvetica" font-size="36.0" fill="#FEFFFF" transform="matrix(1.00, 0.00, -0.00, -1.00, 653.3, 222.3)">r</text><text xml:space="preserve" font-family="Helvetica-Light,Helvetica" font-size="36.0" fill="#FEFFFF" transform="matrix(1.00, 0.00, -0.00, -1.00, 665.3, 222.3)">v</text><text xml:space="preserve" font-family="Helvetica-Light,Helvetica" font-size="36.0" fill="#FEFFFF" transform="matrix(1.00, 0.00, -0.00, -1.00, 683.3, 222.3)">i</text><text xml:space="preserve" font-family="Helvetica-Light,Helvetica" font-size="36.0" fill="#FEFFFF" transform="matrix(1.00, 0.00, -0.00, -1.00, 691.3, 222.3)">c</text><text xml:space="preserve" font-family="Helvetica-Light,Helvetica" font-size="36.0" fill="#FEFFFF" transform="matrix(1.00, 0.00, -0.00, -1.00, 711.3, 222.3)">e</text><text xml:space="preserve" font-family="Helvetica-Light,Helvetica" font-size="36.0" fill="#FEFFFF" transform="matrix(1.00, 0.00, -0.00, -1.00, 731.3, 222.3)">s</text><text xml:space="preserve" font-family="Helvetica-Light,Helvetica" font-size="36.0" fill="#FEFFFF" transform="matrix(1.00, 0.00, -0.00, -1.00, 749.3, 222.3)"> </text><text xml:space="preserve" font-family="Helvetica-Light,Helvetica" font-size="36.0" fill="#FEFFFF" transform="matrix(1.00, 0.00, -0.00, -1.00, 759.3, 222.3)">t</text><text xml:space="preserve" font-family="Helvetica-Light,Helvetica" font-size="36.0" fill="#FEFFFF" transform="matrix(1.00, 0.00, -0.00, -1.00, 769.3, 222.3)">h</text><text xml:space="preserve" font-family="Helvetica-Light,Helvetica" font-size="36.0" fill="#FEFFFF" transform="matrix(1.00, 0.00, -0.00, -1.00, 789.4, 222.3)">a</text><text xml:space="preserve" font-family="Helvetica-Light,Helvetica" font-size="36.0" fill="#FEFFFF" transform="matrix(1.00, 0.00, -0.00, -1.00, 809.4, 222.3)">t</text><text xml:space="preserve" font-family="Helvetica-Light,Helvetica" font-size="36.0" fill="#FEFFFF" transform="matrix(1.00, 0.00, -0.00, -1.00, 819.4, 222.3)"> </text><text xml:space="preserve" font-family="Helvetica-Light,Helvetica" font-size="36.0" fill="#FEFFFF" transform="matrix(1.00, 0.00, -0.00, -1.00, 829.4, 222.3)">a</text><text xml:space="preserve" font-family="Helvetica-Light,Helvetica" font-size="36.0" fill="#FEFFFF" transform="matrix(1.00, 0.00, -0.00, -1.00, 849.4, 222.3)">r</text><text xml:space="preserve" font-family="Helvetica-Light,Helvetica" font-size="36.0" fill="#FEFFFF" transform="matrix(1.00, 0.00, -0.00, -1.00, 860.8, 222.3)">e</text><text xml:space="preserve" font-family="Helvetica-Light,Helvetica" font-size="36.0" fill="#FEFFFF" transform="matrix(1.00, 0.00, -0.00, -1.00, 880.8, 222.3)">n</text><text xml:space="preserve" font-family="Helvetica-Light,Helvetica" font-size="36.0" fill="#FEFFFF" transform="matrix(1.00, 0.00, -0.00, -1.00, 900.8, 222.3)">’</text><text xml:space="preserve" font-family="Helvetica-Light,Helvetica" font-size="36.0" fill="#FEFFFF" transform="matrix(1.00, 0.00, -0.00, -1.00, 908.1, 222.3)">t</text><path d="M 77.0 519.0 L 295.0 519.0 L 295.0 430.0 L 77.0 430.0 Z M 76.7 519.4 " fill="#1497FC"></path><g><clipPath id="clip0x6000026ae520"><path d="M 74.2 430.4 L 297.9 430.4 L 297.9 519.4 L 74.2 519.4 Z M 74.2 430.4 "></path></clipPath><g clip-path="url(#clip0x6000026ae520)"><text xml:space="preserve" font-family="Helvetica-Light,Helvetica" font-size="26.0" fill="#FEFFFF" transform="matrix(1.00, 0.00, -0.00, -1.00, 164.4, 465.4)">U</text><text xml:space="preserve" font-family="Helvetica-Light,Helvetica" font-size="26.0" fill="#FEFFFF" transform="matrix(1.00, 0.00, -0.00, -1.00, 183.1, 465.4)">R</text><text xml:space="preserve" font-family="Helvetica-Light,Helvetica" font-size="26.0" fill="#FEFFFF" transform="matrix(1.00, 0.00, -0.00, -1.00, 200.5, 465.4)">I</text></g></g></g></svg>